<?xml version="1.0" encoding="utf-8"?>
<!-- Generator: Adobe Illustrator 24.2.1, SVG Export Plug-In . SVG Version: 6.00 Build 0)  -->
<svg version="1.1" id="Layer_1" xmlns="http://www.w3.org/2000/svg" xmlns:xlink="http://www.w3.org/1999/xlink" x="0px" y="0px"
	 viewBox="0 0 825.2 143.6" style="enable-background:new 0 0 825.2 143.6;" xml:space="preserve">
<style type="text/css">
	.st0{fill:#fff;}
</style>
<g>
	<path class="st0" d="M63.5,87.8c-3.9,8.9-10.1,12.5-18.8,12.2c-10-0.3-19.4-9.8-19.4-19.7C25.3,70,34,60.8,44,60.4
		c11.6-0.4,20.4,6.9,20.9,17.9c0.5,10.6,3.4,19.9,11.9,26.8c10.6,8.6,22.4,10.5,34.7,4.7c12.6-5.9,18.9-16.3,19.1-30.2
		c0.2-14.4,0-28.7,0-43.1v-4.7c1.3,1.7,2,2.5,2.5,3.4c24.9,43.1,1.3,98.6-49.9,107.5c-40,7-77.5-20.9-82.6-61.4
		c-5.2-41,22.8-74.4,59.9-80.2c19.7-3.1,38,1.5,54.2,13.5c2,1.3,3.1,3.6,3,5.9c-0.1,9.9,0,19.8-0.1,29.6c0,1.1-0.2,2.2-0.2,3
		c-4.6-1.7-8.8-3.8-13.3-4.8c-10.6-2.4-20,0.9-28.2,7.8c-2,1.6-2.6,3.1-1,5.7c1.9,3,3.1,6.5,4.7,10c0.5-0.7,1.1-1.3,1.5-2
		c4.7-7.5,12-10.8,20.5-9c8.1,1.7,15.3,8.8,15.9,17c0.7,9.5-3.9,20.2-16.3,22.1c-11.4,1.7-21.5-5.5-22.9-16.4
		c-0.9-7-1.2-14.1-5.2-20.4C66.3,52,52.4,45.5,40.4,47.8c-14.7,2.8-25,13-27.3,26.8c-2.1,13,3.4,22.8,13.1,30.7s20.8,9.8,32.7,5.1
		c2-0.8,3.8-1.9,5.4-3.3c5.5-4.2,5.5-4.5,2.7-10.6C65.8,94,64.9,91.3,63.5,87.8z"/>
	<path class="st0" d="M315.7,116.6c-0.3,0.1-0.6,0.2-0.9,0.4c-19.5,19.4-48.1,14.1-58.1-11.6c-6.9-17.8-5.5-35.4,7.6-50.6
		c11.5-13.3,36.7-15.8,49.8-0.8c0.3,0.3,0.7,0.6,1.8,1.5c0.2-1.8,0.4-3.1,0.4-4.3c0-8.1,0-16.2,0-24.4c0-7.4,5-12.7,11.5-12.5
		s11.3,5.4,11.3,12.7c0,29.2,0,58.5,0,87.7c0,7.8-3.5,12.6-9.7,13.2c-7.2,0.8-11.3-2.5-13.2-10.6C316,117.1,315.9,116.8,315.7,116.6
		z M275.9,87.6c0.2,2.2,0.6,4.3,1.1,6.4c2.5,8.2,7.9,13.6,16.4,15c7.9,1.3,14.1-2,18.8-8.3c5.9-8,5.7-21.7-0.2-29.6
		c-7.6-10.1-21.2-10.9-30-1.8C277.5,74.2,276.1,80,275.9,87.6L275.9,87.6z"/>
	<path class="st0" d="M551.9,94.1c1,12.4,12.6,17.9,21.8,16.4c5-1,9.8-2.7,14.2-5.2c5.2-2.7,10-2.6,13.1,1.4
		c3.2,4.2,2.4,9.4-2.1,13.2c-19.6,16.4-61.8,12.3-69.5-23.8c-4.6-21.5,6.3-43.4,25.4-50c29-9.9,53.3,9.3,53.7,36.7
		c0.1,6.9-4,11-10.9,11.1c-13.9,0.1-27.7,0-41.6,0L551.9,94.1z M551.7,79.7h34.2c0.8-8.8-6.9-17.4-15.7-17.7
		C560.2,61.7,551.5,69.8,551.7,79.7z"/>
	<path class="st0" d="M803,119.8c-4.8,2.6-9.1,5.8-14,7.3c-11,3.3-22,2.7-31.2-5c-8.4-7.1-9.3-16.8-6.7-26.8
		c2.6-10.3,10.6-14.7,20.2-16.7c9.3-2,19-1.6,28.2,1.1c1,0.3,2.2,0.4,3.2,0.7c1.6-5.5-1.4-11.7-6.9-14.3c-7.2-3.5-14.6-2.3-22-1
		c-1.8,0.3-3.6,1-5.4,1.4c-4.8,1.3-9.8-1.2-11.5-5.9c-1.7-4.7,0.6-9.9,5.2-11.8c7.7-3.2,15.9-4.2,24.2-4.4c7.5-0.2,15,0.3,22,3.5
		c12.1,5.5,16.4,15.9,16.7,28.3c0.3,13.6,0.1,27.2,0.1,40.8c0,5.8-3.6,10.1-8.7,10.9c-6.5,1-10.9-1.5-13-7.3
		C803.3,120.3,803.2,120.1,803,119.8z M788.8,90.5c-3.5,0.8-7.1,1.3-10.5,2.5c-4.1,1.7-6.6,5.8-6.3,10.2c0.1,4.3,3.1,8,7.2,9.1
		c4.9,1.5,10.3,1.2,15-0.9c6.4-2.6,9.8-7.9,9.2-14.7c-0.2-1.5-1.1-2.7-2.5-3.4C797.1,92,793,91.4,788.8,90.5z"/>
	<path class="st0" d="M217.2,118.9c-9.1,9.1-19.7,11.2-31.2,9.2c-13.8-2.4-21.4-11.5-21.4-24.7s7.8-22.1,21.4-24.8
		c9.2-1.8,18.7-1.5,27.8,1c0.8,0.2,1.7,0.4,2.6,0.6c0.2,0,0.5,0,0.7-0.1c1.9-5.1-0.9-11.1-6.3-13.9c-7.3-3.7-14.8-2.5-22.4-1.2
		c-1.7,0.3-3.4,0.9-5.1,1.3c-5.2,1.4-10.2-1.1-11.8-5.8c-1.7-5.1,0.7-10,6-12c8.9-3.4,18.2-4.3,27.6-4.1c6.7,0.1,13.2,1.1,19.2,4.2
		c9.5,4.8,14.3,13.2,14.8,23.2c0.8,15.7,0.5,31.5,0.4,47.2c0,4.4-4,8.1-8.4,8.9c-5.5,1-10.5-1.1-12.5-5.3
		C218.3,121.6,217.9,120.6,217.2,118.9z M202.9,90.3c-3.5,1.1-7.7,1.8-11.4,3.6s-5,5.5-4.7,9.5s2.4,6.7,6,8.3
		c6.1,2.8,15.7,1.2,20.8-3.4c3.4-2.9,5.1-7.3,4.6-11.7c-0.3-1.5-1.2-2.7-2.5-3.4C211.8,92,207.8,91.4,202.9,90.3z"/>
	<path class="st0" d="M491.5,116.3c-1.2,1.3-2,2.1-2.8,3c-7.9,9-20.3,12-31.8,7.8c-10-3.6-16.7-13.7-16.8-25.6
		c-0.1-15.2,0-30.5,0-45.7c-0.2-6.3,4.7-11.5,11-11.7c6.3-0.2,11.5,4.7,11.7,11c0,0.2,0,0.4,0,0.7c0.1,11.1,0,22.2,0,33.4
		c0,2,0.1,4,0.3,6c1.1,8.5,6.6,13.2,15,12.9c8-0.3,13.4-5.6,13.5-14c0.3-11.4,0.1-22.7,0.1-34.1c0-1.9,0.2-3.7,0.4-5.6
		c0.7-6,6.1-10.3,12.1-9.8c6.1,0.3,10.5,4.8,10.6,11.4c0.1,20.2,0.1,40.5,0,60.7c0,6.6-4,11-9.9,11.5c-6.6,0.6-11.2-2.8-12.7-9.4
		C492.2,118,491.9,117.5,491.5,116.3z"/>
	<path class="st0" d="M651.7,129c-10.8-0.1-21.4-3.3-30.5-9.1c-4-2.6-5.5-6.3-4.4-10.6c0.9-3.8,3.6-6.2,7.4-6.4c2.6,0,5.1,0.7,7.3,2
		c6.8,3.6,13.7,6.7,21.6,6.4c1.9-0.1,3.7-0.5,5.4-1.2c4.5-1.8,5.1-7.1,1-9.8c-2.4-1.4-4.9-2.5-7.5-3.3c-5.4-1.9-11-3.4-16.3-5.6
		c-11.2-4.7-15.8-12.3-15.1-23.7c0.7-10.5,7.7-19.1,18.4-22.1c13.2-3.7,25.8-1,37.7,5c4.4,2.4,6.1,7.9,3.7,12.3
		c-2.2,4.4-7.3,5.9-12.2,4s-9.8-3.5-14.8-5.2c-1-0.3-2-0.4-3-0.3c-4.8-0.2-8.4,1.9-9,5.1c-0.6,2.9,1.5,5.5,6.2,7.3
		c6.5,2.6,13.2,4.7,19.6,7.5c7.3,3.1,13.5,7.7,15.2,16.2c3,14.9-5.5,27.2-20.8,30.2C658.5,128.4,655.1,128.6,651.7,129z"/>
	<path class="st0" d="M395.9,43.8c9.8-0.1,18.9,2,26.7,8.1c4.3,3.3,5.6,7.8,4,12.3c-2.3,6.4-9.7,8.8-15.8,5c-2.2-1.6-4.6-3-7.1-4.2
		c-9.9-4.2-20.5-0.2-25.5,9.4c-6.5,12.4-2,28,9.6,33.2c7.4,3.3,14.6,2.2,21.4-2c1.4-0.9,2.6-1.9,4.1-2.7c4.2-2.3,9.5-1.3,12.5,2.5
		c2.9,4,2.5,9.6-1.1,13c-5.2,5.3-12,8.7-19.4,9.8c-18.1,3.1-33.8-1.2-44.7-16.6c-10-14.1-10.7-29.8-3.1-45.1
		C365.2,51,378.7,44,395.9,43.8z"/>
	<path class="st0" d="M698.6,87.8c0-6.4-0.1-12.7,0-19.1c0-2.4-0.3-3.7-3.2-4.2c-4.6-0.8-7.7-5.3-7.5-9.9c0.1-4.6,3.5-8.4,8-9
		c2.4-0.4,2.8-1.5,2.7-3.5c-0.1-2.4,0-4.8,0-7.1c-0.2-6.4,4.8-11.6,11.2-11.8s11.6,4.8,11.8,11.2l0,0c0.2,2.9-0.1,5.8,0.2,8.6
		c0.3,1.1,1.2,2,2.3,2.3c2.7,0.3,5.5,0.1,8.2,0.1c5.1-0.1,9.4,4,9.5,9.1c0.3,5.3-3.7,9.8-9,10.1c-2.7,0.2-5.5,0.2-8.2,0.1
		c-2.2-0.1-3.1,0.7-3.1,3c0.1,11.1,0,22.2,0.1,33.3c0,5.3,2.9,7.5,9,7.4c6.7-0.1,10.8,3.6,10.7,9.7c0.1,3.8-2.3,7.2-5.9,8.3
		c-7.9,3-16.6,3.1-24.6,0.5c-7.6-2.5-12-9.8-12.3-19.6C698.5,100.8,698.7,94.2,698.6,87.8L698.6,87.8z"/>
</g>
</svg>
