<svg xmlns="http://www.w3.org/2000/svg" xmlns:xlink="http://www.w3.org/1999/xlink" width="64" zoomAndPan="magnify" viewBox="0 0 48 48" height="64" preserveAspectRatio="xMidYMid meet" version="1.0"><defs><clipPath id="c86adae1d9"><path d="M 9 6.042969 L 42.6875 6.042969 L 42.6875 30 L 9 30 Z M 9 6.042969 " clip-rule="nonzero"/></clipPath><clipPath id="7c30130014"><path d="M 3.75 25 L 22 25 L 22 30 L 3.75 30 Z M 3.75 25 " clip-rule="nonzero"/></clipPath><clipPath id="e8b92bf8cb"><path d="M 3.75 24 L 22 24 L 22 42.042969 L 3.75 42.042969 Z M 3.75 24 " clip-rule="nonzero"/></clipPath><clipPath id="478b73513c"><path d="M 20 24 L 39 24 L 39 42.042969 L 20 42.042969 Z M 20 24 " clip-rule="nonzero"/></clipPath></defs><path fill="#0c9dbd" d="M 18.902344 20.511719 L 18.902344 36.679688 L 14.40625 36.679688 L 14.40625 24.996094 Z M 35.042969 14.039062 L 35.042969 36.679688 L 30.542969 36.679688 L 30.542969 18.515625 L 30.835938 18.222656 Z M 26.972656 20.246094 L 26.972656 36.679688 L 22.472656 36.679688 L 22.472656 17.636719 L 23.417969 16.699219 Z M 26.972656 20.246094 " fill-opacity="1" fill-rule="evenodd"/><g clip-path="url(#c86adae1d9)"><path fill="#d04d4d" d="M 23.417969 13.074219 L 28.191406 17.835938 L 35.957031 10.105469 L 34.238281 8.390625 L 38.457031 7.222656 L 42.679688 6.042969 L 41.5 10.242188 L 40.316406 14.445312 L 38.597656 12.730469 L 30.835938 20.460938 L 28.191406 23.085938 L 23.417969 18.328125 L 12.417969 29.277344 L 9.777344 26.640625 Z M 23.417969 13.074219 " fill-opacity="1" fill-rule="evenodd"/></g><g clip-path="url(#7c30130014)"><path fill="#fcb13b" d="M 5.894531 25.152344 L 7.902344 27.148438 C 7.539062 27.433594 7.183594 27.742188 6.855469 28.070312 C 6.519531 28.40625 6.214844 28.75 5.929688 29.113281 L 3.921875 27.117188 Z M 19.371094 25.152344 L 17.363281 27.148438 C 17.726562 27.433594 18.082031 27.742188 18.410156 28.070312 C 18.746094 28.40625 19.058594 28.75 19.335938 29.113281 L 21.339844 27.117188 Z M 19.371094 25.152344 " fill-opacity="1" fill-rule="evenodd"/></g><path fill="#fcb13b" d="M 10.546875 20.382812 L 14.707031 20.382812 C 15.375 20.382812 15.917969 20.925781 15.917969 21.589844 C 15.917969 22.25 15.375 22.792969 14.707031 22.792969 L 10.546875 22.792969 C 9.882812 22.792969 9.335938 22.25 9.335938 21.589844 C 9.335938 20.925781 9.882812 20.382812 10.546875 20.382812 Z M 10.546875 20.382812 " fill-opacity="1" fill-rule="evenodd"/><path fill="#ffcd05" d="M 13.773438 22.792969 L 13.773438 25.101562 C 13.402344 25.058594 13.023438 25.03125 12.632812 25.03125 C 12.242188 25.03125 11.863281 25.058594 11.492188 25.101562 L 11.492188 22.792969 Z M 13.773438 22.792969 " fill-opacity="1" fill-rule="evenodd"/><g clip-path="url(#e8b92bf8cb)"><path fill="#ffcd05" d="M 12.632812 24.378906 C 17.527344 24.378906 21.507812 28.328125 21.507812 33.210938 C 21.507812 38.089844 17.535156 42.042969 12.632812 42.042969 C 7.726562 42.042969 3.757812 38.082031 3.757812 33.210938 C 3.757812 28.328125 7.726562 24.378906 12.632812 24.378906 Z M 12.632812 24.378906 " fill-opacity="1" fill-rule="evenodd"/></g><path fill="#ffffff" d="M 12.632812 26.597656 C 16.289062 26.597656 19.265625 29.558594 19.265625 33.203125 C 19.265625 36.851562 16.289062 39.804688 12.632812 39.804688 C 8.964844 39.804688 6 36.84375 6 33.203125 C 6 29.558594 8.964844 26.597656 12.632812 26.597656 Z M 12.632812 26.597656 " fill-opacity="1" fill-rule="evenodd"/><path fill="#d04d4d" d="M 12.285156 27.71875 C 12.285156 27.527344 12.441406 27.375 12.632812 27.375 C 12.824219 27.375 12.976562 27.527344 12.976562 27.71875 L 12.976562 28.140625 C 12.976562 28.328125 12.824219 28.484375 12.632812 28.484375 C 12.441406 28.484375 12.285156 28.328125 12.285156 28.140625 Z M 17.578125 35.65625 C 17.742188 35.75 17.804688 35.957031 17.699219 36.128906 C 17.605469 36.292969 17.398438 36.351562 17.234375 36.25 L 16.863281 36.035156 C 16.695312 35.9375 16.636719 35.730469 16.742188 35.570312 C 16.835938 35.40625 17.042969 35.34375 17.207031 35.449219 Z M 18.140625 32.867188 C 18.332031 32.867188 18.488281 33.019531 18.488281 33.210938 C 18.488281 33.398438 18.332031 33.554688 18.140625 33.554688 L 17.71875 33.554688 C 17.527344 33.554688 17.371094 33.398438 17.371094 33.210938 C 17.371094 33.019531 17.527344 32.867188 17.71875 32.867188 Z M 17.234375 30.164062 C 17.398438 30.066406 17.605469 30.121094 17.699219 30.292969 C 17.796875 30.457031 17.742188 30.660156 17.578125 30.757812 L 17.207031 30.964844 C 17.042969 31.058594 16.828125 31.007812 16.742188 30.84375 C 16.644531 30.679688 16.695312 30.472656 16.863281 30.378906 Z M 9.578125 28.628906 C 9.484375 28.46875 9.535156 28.261719 9.710938 28.164062 C 9.875 28.070312 10.082031 28.121094 10.175781 28.285156 L 10.390625 28.65625 C 10.488281 28.820312 10.425781 29.027344 10.261719 29.121094 C 10.097656 29.214844 9.890625 29.164062 9.796875 28.992188 Z M 7.683594 30.765625 C 7.519531 30.671875 7.460938 30.464844 7.554688 30.300781 C 7.652344 30.136719 7.859375 30.078125 8.023438 30.171875 L 8.394531 30.386719 C 8.558594 30.480469 8.621094 30.6875 8.523438 30.851562 C 8.429688 31.015625 8.222656 31.074219 8.058594 30.972656 Z M 7.125 33.554688 C 6.933594 33.554688 6.777344 33.398438 6.777344 33.210938 C 6.777344 33.019531 6.933594 32.867188 7.125 32.867188 L 7.546875 32.867188 C 7.738281 32.867188 7.894531 33.019531 7.894531 33.210938 C 7.894531 33.398438 7.738281 33.554688 7.546875 33.554688 Z M 8.03125 36.25 C 7.867188 36.34375 7.660156 36.28125 7.5625 36.121094 C 7.46875 35.957031 7.53125 35.75 7.695312 35.65625 L 8.066406 35.449219 C 8.230469 35.351562 8.4375 35.40625 8.53125 35.570312 C 8.628906 35.730469 8.566406 35.949219 8.402344 36.035156 Z M 10.175781 38.125 C 10.082031 38.289062 9.875 38.347656 9.710938 38.253906 C 9.542969 38.160156 9.484375 37.945312 9.589844 37.78125 L 9.796875 37.410156 C 9.890625 37.246094 10.097656 37.1875 10.269531 37.289062 C 10.4375 37.386719 10.496094 37.589844 10.390625 37.753906 Z M 12.976562 38.695312 C 12.976562 38.882812 12.824219 39.039062 12.632812 39.039062 C 12.441406 39.039062 12.285156 38.882812 12.285156 38.695312 L 12.285156 38.273438 C 12.285156 38.082031 12.441406 37.925781 12.632812 37.925781 C 12.824219 37.925781 12.976562 38.082031 12.976562 38.273438 Z M 15.683594 37.78125 C 15.78125 37.945312 15.730469 38.160156 15.5625 38.253906 C 15.398438 38.347656 15.191406 38.296875 15.097656 38.125 L 14.882812 37.753906 C 14.785156 37.589844 14.835938 37.386719 15.003906 37.289062 C 15.167969 37.195312 15.382812 37.246094 15.476562 37.410156 Z M 15.089844 28.285156 C 15.183594 28.121094 15.390625 28.0625 15.554688 28.164062 C 15.71875 28.261719 15.78125 28.46875 15.675781 28.628906 L 15.46875 29 C 15.375 29.164062 15.167969 29.222656 14.992188 29.121094 C 14.828125 29.027344 14.769531 28.820312 14.871094 28.65625 Z M 15.089844 28.285156 " fill-opacity="1" fill-rule="nonzero"/><path fill="#d04d4d" d="M 12.285156 29.335938 C 12.285156 29.148438 12.441406 28.992188 12.632812 28.992188 C 12.824219 28.992188 12.976562 29.148438 12.976562 29.335938 L 12.988281 33.019531 L 15.304688 34.5 C 15.460938 34.605469 15.511719 34.820312 15.410156 34.976562 C 15.304688 35.136719 15.089844 35.179688 14.933594 35.078125 L 12.449219 33.492188 C 12.355469 33.433594 12.296875 33.332031 12.296875 33.210938 Z M 12.285156 29.335938 " fill-opacity="1" fill-rule="nonzero"/><path fill="#d04d4d" d="M 12.632812 31.859375 C 13.375 31.859375 13.988281 32.460938 13.988281 33.210938 C 13.988281 33.957031 13.382812 34.5625 12.632812 34.5625 C 11.878906 34.5625 11.273438 33.957031 11.273438 33.210938 C 11.273438 32.460938 11.878906 31.859375 12.632812 31.859375 Z M 12.632812 31.859375 " fill-opacity="1" fill-rule="evenodd"/><g clip-path="url(#478b73513c)"><path fill="#686868" d="M 29.445312 24.378906 C 34.347656 24.378906 38.320312 28.328125 38.320312 33.210938 C 38.320312 38.089844 34.347656 42.042969 29.445312 42.042969 C 24.542969 42.042969 20.570312 38.089844 20.570312 33.210938 C 20.582031 28.328125 24.550781 24.378906 29.445312 24.378906 Z M 29.445312 24.378906 " fill-opacity="1" fill-rule="evenodd"/></g><path fill="#b3b4b4" d="M 30.8125 28.5625 C 31.574219 28.785156 32.257812 29.179688 32.820312 29.714844 L 34.296875 29.234375 L 35.34375 31.03125 L 34.183594 32.054688 C 34.375 32.8125 34.375 33.605469 34.183594 34.363281 L 35.34375 35.398438 L 34.289062 37.1875 L 32.808594 36.703125 C 32.257812 37.238281 31.5625 37.632812 30.804688 37.859375 L 30.484375 39.375 C 29.78125 39.375 29.089844 39.375 28.390625 39.375 L 28.070312 37.859375 C 27.308594 37.632812 26.625 37.238281 26.0625 36.703125 L 24.585938 37.1875 L 23.5625 35.386719 L 24.722656 34.355469 C 24.53125 33.597656 24.53125 32.804688 24.722656 32.046875 L 23.5625 31.03125 L 24.609375 29.234375 L 26.089844 29.714844 C 26.644531 29.179688 27.335938 28.785156 28.097656 28.5625 L 28.417969 27.046875 C 29.117188 27.046875 29.808594 27.046875 30.507812 27.046875 Z M 29.445312 30.542969 C 30.925781 30.542969 32.117188 31.730469 32.117188 33.203125 C 32.117188 34.671875 30.925781 35.863281 29.445312 35.863281 C 27.964844 35.863281 26.773438 34.671875 26.773438 33.203125 C 26.773438 31.738281 27.964844 30.542969 29.445312 30.542969 Z M 29.445312 30.542969 " fill-opacity="1" fill-rule="evenodd"/></svg>