<svg xmlns="http://www.w3.org/2000/svg" xmlns:xlink="http://www.w3.org/1999/xlink" viewBox="0 0 174.48 147.73"><defs><clipPath id="a"><rect x="89.08" y="80.36" width="57.46" height="38.19" rx="2.5" transform="translate(24.71 -23.44) rotate(12.68)" fill="none"/></clipPath></defs><path d="M88.6,31.7a17.94,17.94,0,0,1,8.94,25.47l.64,8.53L90.1,64.35A18,18,0,1,1,88.6,31.7Z" fill="#b1affa"/><path d="M70.77,62s1,2.82,9,4.25c0,0,14.77-16.19,2.09-32L78.5,36.06Z" fill="#231f20" opacity="0.16"/><path d="M83.38,43.1A23.34,23.34,0,0,1,60,66.44a24.29,24.29,0,0,1-3-.18l-10,4.91L44.8,60.79A23.35,23.35,0,1,1,83.38,43.1Z" fill="#fbe669"/><circle cx="49.49" cy="47.19" r="2.64" fill="#fff"/><circle cx="60.04" cy="45.18" r="2.64" fill="#fff"/><circle cx="70.77" cy="42.97" r="2.64" fill="#fff"/><path d="M52.38,105.19a21,21,0,0,0-.1-2.62,20.48,20.48,0,1,0-3.6,13.81s11.48-.07,17.8-6.29C66.48,110.09,59.63,112.16,52.38,105.19Z" fill="#f05848"/><path d="M29.39,100.72c-6.23.11-7.92,6.42-4.58,9.74,3.5,3.48,12.28,3.18,13.06,3.18.3-.72,4.15-8.89,2.26-13.45C38.33,95.84,31.86,95,29.39,100.72Z" fill="#fff"/><path d="M76.13,127.6l-.72.68a54.5,54.5,0,0,0,5.82,5.34l.62-.78A56.76,56.76,0,0,1,76.13,127.6Z" fill="#473efd"/><path d="M87.76,138.08a54.83,54.83,0,0,0,7.09,3.49l.37-.92a54.79,54.79,0,0,1-7-3.43Z" fill="#473efd"/><path d="M102.37,144a55.39,55.39,0,0,0,7.79,1.34l.1-1a53.16,53.16,0,0,1-7.65-1.31Z" fill="#473efd"/><path d="M66.31,115.42a54.73,54.73,0,0,0,4.09,6.76l.81-.58a54.6,54.6,0,0,1-4-6.63Z" fill="#473efd"/><path d="M105.31,35.77l.18,1a56.69,56.69,0,0,1,7.71-.89l0-1A55.49,55.49,0,0,0,105.31,35.77Z" fill="#473efd"/><path d="M61.3,92.5a57.21,57.21,0,0,1,.21-7.64l-1-.1a56.09,56.09,0,0,0-.22,7.78v.12l1,0Z" fill="#473efd"/><path d="M62.82,77.21a53.32,53.32,0,0,1,2.38-7.38l-.92-.38A55.43,55.43,0,0,0,61.84,77Z" fill="#473efd"/><path d="M61.21,100.51a56.14,56.14,0,0,0,2,7.64l1-.33a53.72,53.72,0,0,1-2-7.5Z" fill="#473efd"/><path d="M133.22,141.72l.33.95a56.59,56.59,0,0,0,7.27-3.08l-.45-.89A54.68,54.68,0,0,1,133.22,141.72Z" fill="#473efd"/><path d="M166.08,110.7l.93.38a55.43,55.43,0,0,0,2.44-7.52l-1-.24A54.79,54.79,0,0,1,166.08,110.7Z" fill="#473efd"/><path d="M160.86,58.15l-.81.58a55.13,55.13,0,0,1,4,6.62l.88-.45A55.17,55.17,0,0,0,160.86,58.15Z" fill="#473efd"/><path d="M158.26,124.06l.78.62a55.7,55.7,0,0,0,4.47-6.52l-.87-.5A54.43,54.43,0,0,1,158.26,124.06Z" fill="#473efd"/><path d="M168.06,72.16l-.94.33a53.79,53.79,0,0,1,2,7.5l1-.19A54.79,54.79,0,0,0,168.06,72.16Z" fill="#473efd"/><path d="M171,87.65l-1,0v.23a54.08,54.08,0,0,1-.22,7.75l1,.1a56.19,56.19,0,0,0,.22-7.9Z" fill="#473efd"/><path d="M118,144.57l0,1a57,57,0,0,0,7.85-.9l-.18-1A56.68,56.68,0,0,1,118,144.57Z" fill="#473efd"/><path d="M136.37,38.8l-.38.93a53.61,53.61,0,0,1,7,3.41l.5-.86A54.87,54.87,0,0,0,136.37,38.8Z" fill="#473efd"/><path d="M121.05,35.06l-.09,1a55.06,55.06,0,0,1,7.65,1.3l.23-1A55.34,55.34,0,0,0,121.05,35.06Z" fill="#473efd"/><path d="M150,46.73l-.62.78a54.59,54.59,0,0,1,5.73,5.23l.73-.69A56.6,56.6,0,0,0,150,46.73Z" fill="#473efd"/><path d="M147,134.69l.57.82a56.41,56.41,0,0,0,6.12-5l-.69-.72A56.34,56.34,0,0,1,147,134.69Z" fill="#473efd"/><path d="M8.35,17.2l-.91-.43a27.66,27.66,0,0,0-2.31,7.59l1,.15A26.78,26.78,0,0,1,8.35,17.2Z" fill="#473efd"/><path d="M5.05,32.28a27.92,27.92,0,0,0,2.14,7.64l.92-.41A26.61,26.61,0,0,1,6,32.15Z" fill="#473efd"/><path d="M12.17,46l-.76.64a27.77,27.77,0,0,0,5.93,5.26l.55-.83A27.09,27.09,0,0,1,12.17,46Z" fill="#473efd"/><path d="M56.05,13.44a27.19,27.19,0,0,0-2.14-2.88l-.76.65a25.54,25.54,0,0,1,2,2.72A2.72,2.72,0,0,1,56.05,13.44Z" fill="#473efd"/><path d="M18.38,5.86,17.84,5a27.91,27.91,0,0,0-6,5.13l.75.66A26.81,26.81,0,0,1,18.38,5.86Z" fill="#473efd"/><path d="M40.79,2l-.29,1a27.17,27.17,0,0,1,6.92,3.25L48,5.31A28,28,0,0,0,40.79,2Z" fill="#473efd"/><path d="M24.51,55.28a28.12,28.12,0,0,0,7.84,1.21v-1a26.49,26.49,0,0,1-7.55-1.17Z" fill="#473efd"/><path d="M25.09,1.8l.27,1a27.28,27.28,0,0,1,7.58-1v-1A27.8,27.8,0,0,0,25.09,1.8Z" fill="#473efd"/><g clip-path="url(#a)"><rect x="89.08" y="80.36" width="57.46" height="38.19" rx="2.5" transform="translate(24.71 -23.44) rotate(12.68)" fill="#fdb43d"/><path d="M85.13,111,118.9,91.33,141,124.63l-2.11-.55L87.76,112.24S85.23,112.41,85.13,111Z" fill="#ffc058"/><polygon points="93.68 74.39 115.66 107.65 149.84 87.43 147.38 86.53 96.07 75.02 93.68 74.39" fill="#fc9c13"/></g><polygon points="174.48 4.05 170.44 4.05 170.44 0 169.44 0 169.44 4.05 165.39 4.05 165.39 5.05 169.44 5.05 169.44 9.1 170.44 9.1 170.44 5.05 174.48 5.05 174.48 4.05" fill="#473efd"/><polygon points="9.1 142.69 5.05 142.69 5.05 138.64 4.05 138.64 4.05 142.69 0 142.69 0 143.69 4.05 143.69 4.05 147.74 5.05 147.74 5.05 143.69 9.1 143.69 9.1 142.69" fill="#473efd"/></svg>