<svg xmlns="http://www.w3.org/2000/svg" xmlns:xlink="http://www.w3.org/1999/xlink" width="100" zoomAndPan="magnify" viewBox="0 0 75 74.999997" height="100" preserveAspectRatio="xMidYMid meet" version="1.0"><defs><clipPath id="4515a7df05"><path d="M 1.164062 1.164062 L 73.835938 1.164062 L 73.835938 73.835938 L 1.164062 73.835938 Z M 1.164062 1.164062 " clip-rule="nonzero"/></clipPath><clipPath id="06c399f75c"><path d="M 37.5 1.164062 C 17.429688 1.164062 1.164062 17.429688 1.164062 37.5 C 1.164062 57.570312 17.429688 73.835938 37.5 73.835938 C 57.570312 73.835938 73.835938 57.570312 73.835938 37.5 C 73.835938 17.429688 57.570312 1.164062 37.5 1.164062 Z M 37.5 1.164062 " clip-rule="nonzero"/></clipPath><radialGradient gradientTransform="matrix(1, 0, 0, 1, 1.162501, 1.162498)" gradientUnits="userSpaceOnUse" r="102.778053" cx="0" id="df01d7cde7" cy="0" fx="0" fy="0"><stop stop-opacity="1" stop-color="rgb(100%, 86.981201%, 34.881592%)" offset="0"/><stop stop-opacity="1" stop-color="rgb(100%, 86.686707%, 34.83429%)" offset="0.0078125"/><stop stop-opacity="1" stop-color="rgb(100%, 86.332703%, 34.779358%)" offset="0.0195312"/><stop stop-opacity="1" stop-color="rgb(100%, 85.978699%, 34.724426%)" offset="0.03125"/><stop stop-opacity="1" stop-color="rgb(100%, 85.624695%, 34.669495%)" offset="0.0429688"/><stop stop-opacity="1" stop-color="rgb(100%, 85.270691%, 34.614563%)" offset="0.0546875"/><stop stop-opacity="1" stop-color="rgb(100%, 84.916687%, 34.559631%)" offset="0.0664062"/><stop stop-opacity="1" stop-color="rgb(100%, 84.562683%, 34.5047%)" offset="0.078125"/><stop stop-opacity="1" stop-color="rgb(100%, 84.208679%, 34.449768%)" offset="0.0898438"/><stop stop-opacity="1" stop-color="rgb(100%, 83.854675%, 34.394836%)" offset="0.101562"/><stop stop-opacity="1" stop-color="rgb(100%, 83.500671%, 34.339905%)" offset="0.113281"/><stop stop-opacity="1" stop-color="rgb(100%, 83.146667%, 34.283447%)" offset="0.125"/><stop stop-opacity="1" stop-color="rgb(100%, 82.792664%, 34.228516%)" offset="0.136719"/><stop stop-opacity="1" stop-color="rgb(100%, 82.440186%, 34.173584%)" offset="0.148438"/><stop stop-opacity="1" stop-color="rgb(100%, 82.086182%, 34.118652%)" offset="0.160156"/><stop stop-opacity="1" stop-color="rgb(100%, 81.732178%, 34.063721%)" offset="0.171875"/><stop stop-opacity="1" stop-color="rgb(100%, 81.378174%, 34.008789%)" offset="0.183594"/><stop stop-opacity="1" stop-color="rgb(100%, 81.02417%, 33.953857%)" offset="0.195312"/><stop stop-opacity="1" stop-color="rgb(100%, 80.670166%, 33.898926%)" offset="0.207031"/><stop stop-opacity="1" stop-color="rgb(100%, 80.316162%, 33.843994%)" offset="0.21875"/><stop stop-opacity="1" stop-color="rgb(100%, 79.962158%, 33.789062%)" offset="0.230469"/><stop stop-opacity="1" stop-color="rgb(100%, 79.608154%, 33.732605%)" offset="0.242188"/><stop stop-opacity="1" stop-color="rgb(100%, 79.312134%, 33.686829%)" offset="0.253906"/><stop stop-opacity="1" stop-color="rgb(100%, 79.077148%, 33.650208%)" offset="0.261719"/><stop stop-opacity="1" stop-color="rgb(100%, 78.840637%, 33.613586%)" offset="0.269531"/><stop stop-opacity="1" stop-color="rgb(100%, 78.605652%, 33.576965%)" offset="0.277344"/><stop stop-opacity="1" stop-color="rgb(100%, 78.369141%, 33.540344%)" offset="0.285156"/><stop stop-opacity="1" stop-color="rgb(100%, 78.132629%, 33.503723%)" offset="0.292969"/><stop stop-opacity="1" stop-color="rgb(100%, 77.897644%, 33.467102%)" offset="0.300781"/><stop stop-opacity="1" stop-color="rgb(100%, 77.661133%, 33.430481%)" offset="0.308594"/><stop stop-opacity="1" stop-color="rgb(100%, 77.424622%, 33.39386%)" offset="0.316406"/><stop stop-opacity="1" stop-color="rgb(100%, 77.189636%, 33.357239%)" offset="0.324219"/><stop stop-opacity="1" stop-color="rgb(100%, 76.953125%, 33.320618%)" offset="0.332031"/><stop stop-opacity="1" stop-color="rgb(100%, 76.71814%, 33.283997%)" offset="0.339844"/><stop stop-opacity="1" stop-color="rgb(100%, 76.481628%, 33.247375%)" offset="0.347656"/><stop stop-opacity="1" stop-color="rgb(100%, 76.245117%, 33.210754%)" offset="0.355469"/><stop stop-opacity="1" stop-color="rgb(100%, 76.010132%, 33.174133%)" offset="0.363281"/><stop stop-opacity="1" stop-color="rgb(100%, 75.773621%, 33.135986%)" offset="0.371094"/><stop stop-opacity="1" stop-color="rgb(100%, 75.537109%, 33.099365%)" offset="0.378906"/><stop stop-opacity="1" stop-color="rgb(100%, 75.302124%, 33.062744%)" offset="0.386719"/><stop stop-opacity="1" stop-color="rgb(100%, 75.065613%, 33.026123%)" offset="0.394531"/><stop stop-opacity="1" stop-color="rgb(100%, 74.830627%, 32.989502%)" offset="0.402344"/><stop stop-opacity="1" stop-color="rgb(100%, 74.594116%, 32.952881%)" offset="0.410156"/><stop stop-opacity="1" stop-color="rgb(100%, 74.357605%, 32.91626%)" offset="0.417969"/><stop stop-opacity="1" stop-color="rgb(100%, 74.12262%, 32.879639%)" offset="0.425781"/><stop stop-opacity="1" stop-color="rgb(100%, 73.886108%, 32.843018%)" offset="0.433594"/><stop stop-opacity="1" stop-color="rgb(100%, 73.649597%, 32.806396%)" offset="0.441406"/><stop stop-opacity="1" stop-color="rgb(100%, 73.414612%, 32.769775%)" offset="0.449219"/><stop stop-opacity="1" stop-color="rgb(100%, 73.178101%, 32.733154%)" offset="0.457031"/><stop stop-opacity="1" stop-color="rgb(100%, 72.943115%, 32.696533%)" offset="0.464844"/><stop stop-opacity="1" stop-color="rgb(100%, 72.706604%, 32.659912%)" offset="0.472656"/><stop stop-opacity="1" stop-color="rgb(100%, 72.470093%, 32.623291%)" offset="0.480469"/><stop stop-opacity="1" stop-color="rgb(100%, 72.235107%, 32.58667%)" offset="0.488281"/><stop stop-opacity="1" stop-color="rgb(100%, 71.998596%, 32.548523%)" offset="0.496094"/><stop stop-opacity="1" stop-color="rgb(100%, 71.704102%, 32.502747%)" offset="0.503906"/><stop stop-opacity="1" stop-color="rgb(100%, 71.350098%, 32.447815%)" offset="0.515625"/><stop stop-opacity="1" stop-color="rgb(100%, 70.996094%, 32.392883%)" offset="0.527344"/><stop stop-opacity="1" stop-color="rgb(100%, 70.64209%, 32.337952%)" offset="0.539062"/><stop stop-opacity="1" stop-color="rgb(100%, 70.288086%, 32.28302%)" offset="0.550781"/><stop stop-opacity="1" stop-color="rgb(100%, 69.934082%, 32.228088%)" offset="0.5625"/><stop stop-opacity="1" stop-color="rgb(100%, 69.580078%, 32.173157%)" offset="0.574219"/><stop stop-opacity="1" stop-color="rgb(100%, 69.2276%, 32.118225%)" offset="0.585938"/><stop stop-opacity="1" stop-color="rgb(100%, 68.873596%, 32.063293%)" offset="0.597656"/><stop stop-opacity="1" stop-color="rgb(100%, 68.519592%, 32.006836%)" offset="0.609375"/><stop stop-opacity="1" stop-color="rgb(100%, 68.165588%, 31.951904%)" offset="0.621094"/><stop stop-opacity="1" stop-color="rgb(100%, 67.869568%, 31.906128%)" offset="0.632812"/><stop stop-opacity="1" stop-color="rgb(100%, 67.634583%, 31.869507%)" offset="0.640625"/><stop stop-opacity="1" stop-color="rgb(100%, 67.398071%, 31.832886%)" offset="0.648438"/><stop stop-opacity="1" stop-color="rgb(100%, 67.16156%, 31.796265%)" offset="0.65625"/><stop stop-opacity="1" stop-color="rgb(100%, 66.926575%, 31.759644%)" offset="0.664062"/><stop stop-opacity="1" stop-color="rgb(100%, 66.690063%, 31.723022%)" offset="0.671875"/><stop stop-opacity="1" stop-color="rgb(100%, 66.453552%, 31.686401%)" offset="0.679688"/><stop stop-opacity="1" stop-color="rgb(100%, 66.218567%, 31.64978%)" offset="0.6875"/><stop stop-opacity="1" stop-color="rgb(100%, 65.982056%, 31.613159%)" offset="0.695312"/><stop stop-opacity="1" stop-color="rgb(100%, 65.74707%, 31.576538%)" offset="0.703125"/><stop stop-opacity="1" stop-color="rgb(100%, 65.510559%, 31.539917%)" offset="0.710938"/><stop stop-opacity="1" stop-color="rgb(100%, 65.274048%, 31.503296%)" offset="0.71875"/><stop stop-opacity="1" stop-color="rgb(100%, 65.039062%, 31.466675%)" offset="0.726562"/><stop stop-opacity="1" stop-color="rgb(100%, 64.802551%, 31.428528%)" offset="0.734375"/><stop stop-opacity="1" stop-color="rgb(100%, 64.56604%, 31.391907%)" offset="0.742188"/><stop stop-opacity="1" stop-color="rgb(100%, 64.331055%, 31.355286%)" offset="0.75"/><stop stop-opacity="1" stop-color="rgb(100%, 64.03656%, 31.309509%)" offset="0.757812"/><stop stop-opacity="1" stop-color="rgb(100%, 63.682556%, 31.254578%)" offset="0.769531"/><stop stop-opacity="1" stop-color="rgb(100%, 63.328552%, 31.199646%)" offset="0.78125"/><stop stop-opacity="1" stop-color="rgb(100%, 62.974548%, 31.144714%)" offset="0.792969"/><stop stop-opacity="1" stop-color="rgb(100%, 62.620544%, 31.089783%)" offset="0.804688"/><stop stop-opacity="1" stop-color="rgb(100%, 62.32605%, 31.044006%)" offset="0.816406"/><stop stop-opacity="1" stop-color="rgb(100%, 62.089539%, 31.007385%)" offset="0.824219"/><stop stop-opacity="1" stop-color="rgb(100%, 61.853027%, 30.970764%)" offset="0.832031"/><stop stop-opacity="1" stop-color="rgb(100%, 61.618042%, 30.934143%)" offset="0.839844"/><stop stop-opacity="1" stop-color="rgb(100%, 61.381531%, 30.897522%)" offset="0.847656"/><stop stop-opacity="1" stop-color="rgb(100%, 61.14502%, 30.859375%)" offset="0.855469"/><stop stop-opacity="1" stop-color="rgb(100%, 60.910034%, 30.822754%)" offset="0.863281"/><stop stop-opacity="1" stop-color="rgb(100%, 60.673523%, 30.786133%)" offset="0.871094"/><stop stop-opacity="1" stop-color="rgb(100%, 60.379028%, 30.740356%)" offset="0.878906"/><stop stop-opacity="1" stop-color="rgb(100%, 60.025024%, 30.685425%)" offset="0.890625"/><stop stop-opacity="1" stop-color="rgb(100%, 59.671021%, 30.630493%)" offset="0.902344"/><stop stop-opacity="1" stop-color="rgb(100%, 59.376526%, 30.584717%)" offset="0.914062"/><stop stop-opacity="1" stop-color="rgb(100%, 59.140015%, 30.548096%)" offset="0.921875"/><stop stop-opacity="1" stop-color="rgb(100%, 58.903503%, 30.511475%)" offset="0.929688"/><stop stop-opacity="1" stop-color="rgb(100%, 58.668518%, 30.474854%)" offset="0.9375"/><stop stop-opacity="1" stop-color="rgb(100%, 58.374023%, 30.429077%)" offset="0.945312"/><stop stop-opacity="1" stop-color="rgb(100%, 58.078003%, 30.383301%)" offset="0.957031"/><stop stop-opacity="1" stop-color="rgb(100%, 57.843018%, 30.34668%)" offset="0.964844"/><stop stop-opacity="1" stop-color="rgb(100%, 57.548523%, 30.300903%)" offset="0.972656"/><stop stop-opacity="1" stop-color="rgb(100%, 57.252502%, 30.253601%)" offset="0.984375"/><stop stop-opacity="1" stop-color="rgb(100%, 57.015991%, 30.21698%)" offset="0.992188"/><stop stop-opacity="1" stop-color="rgb(100%, 56.898499%, 30.198669%)" offset="1"/></radialGradient><clipPath id="96d763fc0e"><path d="M 27 14 L 58.683594 14 L 58.683594 42 L 27 42 Z M 27 14 " clip-rule="nonzero"/></clipPath><clipPath id="7acb98bfd0"><path d="M 16.683594 50 L 28 50 L 28 61 L 16.683594 61 Z M 16.683594 50 " clip-rule="nonzero"/></clipPath></defs><g clip-path="url(#4515a7df05)"><g clip-path="url(#06c399f75c)"><path fill="url(#df01d7cde7)" d="M 1.164062 1.164062 L 1.164062 73.835938 L 73.835938 73.835938 L 73.835938 1.164062 Z M 1.164062 1.164062 " fill-rule="nonzero"/></g></g><g clip-path="url(#96d763fc0e)"><path fill="#ffffff" d="M 58.308594 29.386719 C 58.308594 28.105469 55.695312 27.214844 55.398438 26.03125 C 55.054688 24.847656 56.878906 22.726562 56.238281 21.691406 C 55.597656 20.609375 52.933594 21.148438 52.046875 20.261719 C 51.160156 19.375 51.699219 16.710938 50.617188 16.070312 C 49.582031 15.476562 47.460938 17.253906 46.277344 16.910156 C 45.09375 16.613281 44.203125 14 42.921875 14 C 41.640625 14 40.753906 16.613281 39.570312 16.910156 C 38.386719 17.253906 36.265625 15.429688 35.226562 16.070312 C 34.144531 16.710938 34.6875 19.375 33.796875 20.261719 C 32.910156 21.148438 30.246094 20.609375 29.605469 21.691406 C 29.015625 22.726562 30.789062 24.847656 30.445312 26.03125 C 30.148438 27.214844 27.535156 28.105469 27.535156 29.386719 C 27.535156 30.667969 30.148438 31.554688 30.445312 32.738281 C 30.789062 33.972656 28.964844 36.042969 29.605469 37.078125 C 30.246094 38.164062 32.910156 37.621094 33.796875 38.511719 C 34.042969 38.757812 34.191406 39.152344 34.292969 39.59375 L 43.265625 39.988281 C 44.402344 40.039062 45.4375 40.53125 46.175781 41.371094 C 46.226562 41.46875 46.324219 41.519531 46.375 41.617188 L 51.453125 40.089844 C 51.554688 39.449219 51.699219 38.855469 51.996094 38.511719 C 52.882812 37.621094 55.546875 38.164062 56.1875 37.078125 C 56.78125 36.042969 55.003906 33.921875 55.351562 32.738281 C 55.695312 31.554688 58.308594 30.621094 58.308594 29.386719 Z M 49.234375 27.019531 L 41.789062 34.464844 C 41.246094 35.007812 40.308594 35.007812 39.714844 34.464844 L 36.558594 31.308594 C 36.015625 30.765625 36.015625 29.832031 36.558594 29.238281 C 37.101562 28.695312 38.039062 28.695312 38.632812 29.238281 L 40.753906 31.359375 L 47.164062 24.949219 C 47.753906 24.355469 48.644531 24.355469 49.234375 24.949219 C 49.828125 25.488281 49.828125 26.425781 49.234375 27.019531 Z M 49.234375 27.019531 " fill-opacity="1" fill-rule="nonzero"/></g><g clip-path="url(#7acb98bfd0)"><path fill="#ffffff" d="M 19.644531 50.691406 L 16.980469 54.144531 C 16.683594 54.539062 16.734375 55.082031 17.128906 55.425781 L 24.03125 60.703125 C 24.425781 61 24.96875 60.949219 25.316406 60.554688 L 27.980469 57.101562 L 19.839844 50.839844 C 19.742188 50.789062 19.691406 50.742188 19.644531 50.691406 Z M 19.644531 50.691406 " fill-opacity="1" fill-rule="nonzero"/></g><path fill="#ffffff" d="M 53.378906 41.960938 L 47.015625 43.886719 C 47.015625 44.035156 47.015625 44.183594 47.015625 44.328125 C 46.917969 46.105469 45.632812 47.632812 43.859375 47.980469 L 43.464844 48.078125 C 41.148438 48.570312 38.78125 48.816406 36.410156 48.917969 L 34.488281 48.964844 C 33.898438 48.964844 33.402344 48.523438 33.402344 47.929688 C 33.402344 47.339844 33.847656 46.84375 34.4375 46.84375 L 36.363281 46.796875 C 38.582031 46.746094 40.851562 46.449219 43.070312 46.007812 L 43.464844 45.90625 C 44.253906 45.761719 44.84375 45.070312 44.894531 44.230469 C 44.945312 43.738281 44.746094 43.292969 44.449219 42.898438 C 44.105469 42.554688 43.660156 42.355469 43.21875 42.308594 L 33.058594 41.863281 C 31.925781 41.816406 30.789062 42.160156 29.902344 42.800781 L 21.320312 48.917969 L 30.050781 55.574219 L 38.53125 56.460938 C 40.011719 56.609375 41.492188 56.214844 42.726562 55.277344 L 55.300781 45.613281 C 55.792969 45.265625 56.039062 44.722656 56.089844 44.132812 C 56.140625 43.539062 55.941406 42.949219 55.546875 42.554688 C 55.003906 41.960938 54.167969 41.714844 53.378906 41.960938 Z M 53.378906 41.960938 " fill-opacity="1" fill-rule="nonzero"/></svg>