<svg xmlns="http://www.w3.org/2000/svg" xmlns:xlink="http://www.w3.org/1999/xlink" width="100" zoomAndPan="magnify" viewBox="0 0 75 74.999997" height="100" preserveAspectRatio="xMidYMid meet" version="1.0"><defs><clipPath id="e9486f40f4"><path d="M 1.164062 1.164062 L 73.835938 1.164062 L 73.835938 73.835938 L 1.164062 73.835938 Z M 1.164062 1.164062 " clip-rule="nonzero"/></clipPath><clipPath id="b1fe2c9890"><path d="M 37.5 1.164062 C 17.429688 1.164062 1.164062 17.429688 1.164062 37.5 C 1.164062 57.570312 17.429688 73.835938 37.5 73.835938 C 57.570312 73.835938 73.835938 57.570312 73.835938 37.5 C 73.835938 17.429688 57.570312 1.164062 37.5 1.164062 Z M 37.5 1.164062 " clip-rule="nonzero"/></clipPath><radialGradient gradientTransform="matrix(1, 0, 0, 1, 1.162501, 1.162498)" gradientUnits="userSpaceOnUse" r="102.778053" cx="0" id="4bae7dbd48" cy="0" fx="0" fy="0"><stop stop-opacity="1" stop-color="rgb(100%, 86.981201%, 34.881592%)" offset="0"/><stop stop-opacity="1" stop-color="rgb(100%, 86.686707%, 34.83429%)" offset="0.0078125"/><stop stop-opacity="1" stop-color="rgb(100%, 86.332703%, 34.779358%)" offset="0.0195312"/><stop stop-opacity="1" stop-color="rgb(100%, 85.978699%, 34.724426%)" offset="0.03125"/><stop stop-opacity="1" stop-color="rgb(100%, 85.624695%, 34.669495%)" offset="0.0429688"/><stop stop-opacity="1" stop-color="rgb(100%, 85.270691%, 34.614563%)" offset="0.0546875"/><stop stop-opacity="1" stop-color="rgb(100%, 84.916687%, 34.559631%)" offset="0.0664062"/><stop stop-opacity="1" stop-color="rgb(100%, 84.562683%, 34.5047%)" offset="0.078125"/><stop stop-opacity="1" stop-color="rgb(100%, 84.208679%, 34.449768%)" offset="0.0898438"/><stop stop-opacity="1" stop-color="rgb(100%, 83.854675%, 34.394836%)" offset="0.101562"/><stop stop-opacity="1" stop-color="rgb(100%, 83.500671%, 34.339905%)" offset="0.113281"/><stop stop-opacity="1" stop-color="rgb(100%, 83.146667%, 34.283447%)" offset="0.125"/><stop stop-opacity="1" stop-color="rgb(100%, 82.792664%, 34.228516%)" offset="0.136719"/><stop stop-opacity="1" stop-color="rgb(100%, 82.440186%, 34.173584%)" offset="0.148438"/><stop stop-opacity="1" stop-color="rgb(100%, 82.086182%, 34.118652%)" offset="0.160156"/><stop stop-opacity="1" stop-color="rgb(100%, 81.732178%, 34.063721%)" offset="0.171875"/><stop stop-opacity="1" stop-color="rgb(100%, 81.378174%, 34.008789%)" offset="0.183594"/><stop stop-opacity="1" stop-color="rgb(100%, 81.02417%, 33.953857%)" offset="0.195312"/><stop stop-opacity="1" stop-color="rgb(100%, 80.670166%, 33.898926%)" offset="0.207031"/><stop stop-opacity="1" stop-color="rgb(100%, 80.316162%, 33.843994%)" offset="0.21875"/><stop stop-opacity="1" stop-color="rgb(100%, 79.962158%, 33.789062%)" offset="0.230469"/><stop stop-opacity="1" stop-color="rgb(100%, 79.608154%, 33.732605%)" offset="0.242188"/><stop stop-opacity="1" stop-color="rgb(100%, 79.312134%, 33.686829%)" offset="0.253906"/><stop stop-opacity="1" stop-color="rgb(100%, 79.077148%, 33.650208%)" offset="0.261719"/><stop stop-opacity="1" stop-color="rgb(100%, 78.840637%, 33.613586%)" offset="0.269531"/><stop stop-opacity="1" stop-color="rgb(100%, 78.605652%, 33.576965%)" offset="0.277344"/><stop stop-opacity="1" stop-color="rgb(100%, 78.369141%, 33.540344%)" offset="0.285156"/><stop stop-opacity="1" stop-color="rgb(100%, 78.132629%, 33.503723%)" offset="0.292969"/><stop stop-opacity="1" stop-color="rgb(100%, 77.897644%, 33.467102%)" offset="0.300781"/><stop stop-opacity="1" stop-color="rgb(100%, 77.661133%, 33.430481%)" offset="0.308594"/><stop stop-opacity="1" stop-color="rgb(100%, 77.424622%, 33.39386%)" offset="0.316406"/><stop stop-opacity="1" stop-color="rgb(100%, 77.189636%, 33.357239%)" offset="0.324219"/><stop stop-opacity="1" stop-color="rgb(100%, 76.953125%, 33.320618%)" offset="0.332031"/><stop stop-opacity="1" stop-color="rgb(100%, 76.71814%, 33.283997%)" offset="0.339844"/><stop stop-opacity="1" stop-color="rgb(100%, 76.481628%, 33.247375%)" offset="0.347656"/><stop stop-opacity="1" stop-color="rgb(100%, 76.245117%, 33.210754%)" offset="0.355469"/><stop stop-opacity="1" stop-color="rgb(100%, 76.010132%, 33.174133%)" offset="0.363281"/><stop stop-opacity="1" stop-color="rgb(100%, 75.773621%, 33.135986%)" offset="0.371094"/><stop stop-opacity="1" stop-color="rgb(100%, 75.537109%, 33.099365%)" offset="0.378906"/><stop stop-opacity="1" stop-color="rgb(100%, 75.302124%, 33.062744%)" offset="0.386719"/><stop stop-opacity="1" stop-color="rgb(100%, 75.065613%, 33.026123%)" offset="0.394531"/><stop stop-opacity="1" stop-color="rgb(100%, 74.830627%, 32.989502%)" offset="0.402344"/><stop stop-opacity="1" stop-color="rgb(100%, 74.594116%, 32.952881%)" offset="0.410156"/><stop stop-opacity="1" stop-color="rgb(100%, 74.357605%, 32.91626%)" offset="0.417969"/><stop stop-opacity="1" stop-color="rgb(100%, 74.12262%, 32.879639%)" offset="0.425781"/><stop stop-opacity="1" stop-color="rgb(100%, 73.886108%, 32.843018%)" offset="0.433594"/><stop stop-opacity="1" stop-color="rgb(100%, 73.649597%, 32.806396%)" offset="0.441406"/><stop stop-opacity="1" stop-color="rgb(100%, 73.414612%, 32.769775%)" offset="0.449219"/><stop stop-opacity="1" stop-color="rgb(100%, 73.178101%, 32.733154%)" offset="0.457031"/><stop stop-opacity="1" stop-color="rgb(100%, 72.943115%, 32.696533%)" offset="0.464844"/><stop stop-opacity="1" stop-color="rgb(100%, 72.706604%, 32.659912%)" offset="0.472656"/><stop stop-opacity="1" stop-color="rgb(100%, 72.470093%, 32.623291%)" offset="0.480469"/><stop stop-opacity="1" stop-color="rgb(100%, 72.235107%, 32.58667%)" offset="0.488281"/><stop stop-opacity="1" stop-color="rgb(100%, 71.998596%, 32.548523%)" offset="0.496094"/><stop stop-opacity="1" stop-color="rgb(100%, 71.704102%, 32.502747%)" offset="0.503906"/><stop stop-opacity="1" stop-color="rgb(100%, 71.350098%, 32.447815%)" offset="0.515625"/><stop stop-opacity="1" stop-color="rgb(100%, 70.996094%, 32.392883%)" offset="0.527344"/><stop stop-opacity="1" stop-color="rgb(100%, 70.64209%, 32.337952%)" offset="0.539062"/><stop stop-opacity="1" stop-color="rgb(100%, 70.288086%, 32.28302%)" offset="0.550781"/><stop stop-opacity="1" stop-color="rgb(100%, 69.934082%, 32.228088%)" offset="0.5625"/><stop stop-opacity="1" stop-color="rgb(100%, 69.580078%, 32.173157%)" offset="0.574219"/><stop stop-opacity="1" stop-color="rgb(100%, 69.2276%, 32.118225%)" offset="0.585938"/><stop stop-opacity="1" stop-color="rgb(100%, 68.873596%, 32.063293%)" offset="0.597656"/><stop stop-opacity="1" stop-color="rgb(100%, 68.519592%, 32.006836%)" offset="0.609375"/><stop stop-opacity="1" stop-color="rgb(100%, 68.165588%, 31.951904%)" offset="0.621094"/><stop stop-opacity="1" stop-color="rgb(100%, 67.869568%, 31.906128%)" offset="0.632812"/><stop stop-opacity="1" stop-color="rgb(100%, 67.634583%, 31.869507%)" offset="0.640625"/><stop stop-opacity="1" stop-color="rgb(100%, 67.398071%, 31.832886%)" offset="0.648438"/><stop stop-opacity="1" stop-color="rgb(100%, 67.16156%, 31.796265%)" offset="0.65625"/><stop stop-opacity="1" stop-color="rgb(100%, 66.926575%, 31.759644%)" offset="0.664062"/><stop stop-opacity="1" stop-color="rgb(100%, 66.690063%, 31.723022%)" offset="0.671875"/><stop stop-opacity="1" stop-color="rgb(100%, 66.453552%, 31.686401%)" offset="0.679688"/><stop stop-opacity="1" stop-color="rgb(100%, 66.218567%, 31.64978%)" offset="0.6875"/><stop stop-opacity="1" stop-color="rgb(100%, 65.982056%, 31.613159%)" offset="0.695312"/><stop stop-opacity="1" stop-color="rgb(100%, 65.74707%, 31.576538%)" offset="0.703125"/><stop stop-opacity="1" stop-color="rgb(100%, 65.510559%, 31.539917%)" offset="0.710938"/><stop stop-opacity="1" stop-color="rgb(100%, 65.274048%, 31.503296%)" offset="0.71875"/><stop stop-opacity="1" stop-color="rgb(100%, 65.039062%, 31.466675%)" offset="0.726562"/><stop stop-opacity="1" stop-color="rgb(100%, 64.802551%, 31.428528%)" offset="0.734375"/><stop stop-opacity="1" stop-color="rgb(100%, 64.56604%, 31.391907%)" offset="0.742188"/><stop stop-opacity="1" stop-color="rgb(100%, 64.331055%, 31.355286%)" offset="0.75"/><stop stop-opacity="1" stop-color="rgb(100%, 64.03656%, 31.309509%)" offset="0.757812"/><stop stop-opacity="1" stop-color="rgb(100%, 63.682556%, 31.254578%)" offset="0.769531"/><stop stop-opacity="1" stop-color="rgb(100%, 63.328552%, 31.199646%)" offset="0.78125"/><stop stop-opacity="1" stop-color="rgb(100%, 62.974548%, 31.144714%)" offset="0.792969"/><stop stop-opacity="1" stop-color="rgb(100%, 62.620544%, 31.089783%)" offset="0.804688"/><stop stop-opacity="1" stop-color="rgb(100%, 62.32605%, 31.044006%)" offset="0.816406"/><stop stop-opacity="1" stop-color="rgb(100%, 62.089539%, 31.007385%)" offset="0.824219"/><stop stop-opacity="1" stop-color="rgb(100%, 61.853027%, 30.970764%)" offset="0.832031"/><stop stop-opacity="1" stop-color="rgb(100%, 61.618042%, 30.934143%)" offset="0.839844"/><stop stop-opacity="1" stop-color="rgb(100%, 61.381531%, 30.897522%)" offset="0.847656"/><stop stop-opacity="1" stop-color="rgb(100%, 61.14502%, 30.859375%)" offset="0.855469"/><stop stop-opacity="1" stop-color="rgb(100%, 60.910034%, 30.822754%)" offset="0.863281"/><stop stop-opacity="1" stop-color="rgb(100%, 60.673523%, 30.786133%)" offset="0.871094"/><stop stop-opacity="1" stop-color="rgb(100%, 60.379028%, 30.740356%)" offset="0.878906"/><stop stop-opacity="1" stop-color="rgb(100%, 60.025024%, 30.685425%)" offset="0.890625"/><stop stop-opacity="1" stop-color="rgb(100%, 59.671021%, 30.630493%)" offset="0.902344"/><stop stop-opacity="1" stop-color="rgb(100%, 59.376526%, 30.584717%)" offset="0.914062"/><stop stop-opacity="1" stop-color="rgb(100%, 59.140015%, 30.548096%)" offset="0.921875"/><stop stop-opacity="1" stop-color="rgb(100%, 58.903503%, 30.511475%)" offset="0.929688"/><stop stop-opacity="1" stop-color="rgb(100%, 58.668518%, 30.474854%)" offset="0.9375"/><stop stop-opacity="1" stop-color="rgb(100%, 58.374023%, 30.429077%)" offset="0.945312"/><stop stop-opacity="1" stop-color="rgb(100%, 58.078003%, 30.383301%)" offset="0.957031"/><stop stop-opacity="1" stop-color="rgb(100%, 57.843018%, 30.34668%)" offset="0.964844"/><stop stop-opacity="1" stop-color="rgb(100%, 57.548523%, 30.300903%)" offset="0.972656"/><stop stop-opacity="1" stop-color="rgb(100%, 57.252502%, 30.253601%)" offset="0.984375"/><stop stop-opacity="1" stop-color="rgb(100%, 57.015991%, 30.21698%)" offset="0.992188"/><stop stop-opacity="1" stop-color="rgb(100%, 56.898499%, 30.198669%)" offset="1"/></radialGradient><clipPath id="86d9ebc55d"><path d="M 17.171875 17.042969 L 57.671875 17.042969 L 57.671875 58 L 17.171875 58 Z M 17.171875 17.042969 " clip-rule="nonzero"/></clipPath></defs><g clip-path="url(#e9486f40f4)"><g clip-path="url(#b1fe2c9890)"><path fill="url(#4bae7dbd48)" d="M 1.164062 1.164062 L 1.164062 73.835938 L 73.835938 73.835938 L 73.835938 1.164062 Z M 1.164062 1.164062 " fill-rule="nonzero"/></g></g><g clip-path="url(#86d9ebc55d)"><path fill="#ffffff" d="M 29.539062 40.320312 C 30.464844 39.140625 31.019531 37.65625 31.019531 36.039062 C 31.019531 32.21875 27.921875 29.121094 24.101562 29.121094 C 20.28125 29.121094 17.183594 32.21875 17.183594 36.039062 C 17.183594 39.859375 20.28125 42.957031 24.101562 42.957031 C 25.769531 42.957031 27.300781 42.367188 28.496094 41.382812 C 28.527344 41.355469 28.578125 41.355469 28.613281 41.386719 L 31.390625 44.039062 C 31.40625 44.054688 31.417969 44.078125 31.417969 44.105469 L 31.417969 47.199219 C 31.417969 47.234375 31.433594 47.257812 31.457031 47.277344 C 31.484375 47.292969 31.515625 47.292969 31.542969 47.28125 L 32.699219 46.71875 C 32.730469 46.703125 32.746094 46.671875 32.746094 46.636719 L 32.746094 43.78125 C 32.746094 43.589844 32.667969 43.417969 32.539062 43.296875 L 32.542969 43.296875 L 29.546875 40.4375 C 29.511719 40.40625 29.507812 40.355469 29.539062 40.320312 Z M 26.199219 57.882812 L 26.199219 48.210938 C 26.199219 48.175781 26.167969 48.144531 26.128906 48.144531 L 23.855469 48.144531 C 23.820312 48.144531 23.789062 48.175781 23.789062 48.210938 L 23.789062 57.882812 C 23.789062 57.917969 23.820312 57.949219 23.855469 57.949219 L 26.128906 57.949219 C 26.167969 57.949219 26.199219 57.917969 26.199219 57.882812 Z M 30.351562 49.035156 C 30.996094 48.894531 32.214844 48.296875 33.375 47.742188 C 35.355469 46.792969 35.855469 46.6875 37.21875 46.949219 C 37.226562 46.953125 37.234375 46.953125 37.238281 46.957031 C 37.316406 46.988281 37.402344 47.007812 37.492188 47.007812 C 37.5 47.007812 37.503906 47.011719 37.507812 47.011719 L 38.078125 47.132812 C 39.0625 47.347656 42.511719 47.988281 42.511719 49.078125 C 42.511719 49.257812 42.503906 49.355469 42.449219 49.53125 C 42.355469 49.816406 42.335938 49.757812 42.230469 49.875 C 41.917969 50.226562 41.460938 50.40625 40.980469 50.367188 L 35.152344 49.902344 C 34.785156 49.871094 34.460938 50.144531 34.433594 50.515625 C 34.40625 50.882812 34.679688 51.203125 35.046875 51.230469 L 40.875 51.699219 C 41.324219 51.734375 41.761719 51.664062 42.15625 51.503906 C 42.484375 51.375 42.78125 51.183594 43.035156 50.949219 C 43.042969 50.945312 43.050781 50.9375 43.058594 50.933594 C 43.082031 50.925781 43.101562 50.914062 43.125 50.902344 C 43.125 50.902344 43.125 50.898438 43.125 50.898438 L 50.390625 46.683594 C 50.769531 46.460938 51.207031 46.414062 51.609375 46.511719 C 52.980469 46.847656 53.242188 48.605469 52.039062 49.3125 C 48.492188 51.398438 40.40625 56.496094 38.382812 56.378906 C 34.773438 56.171875 31.167969 55.515625 27.636719 56.027344 C 27.609375 56.03125 27.585938 56.027344 27.566406 56.007812 C 27.546875 55.992188 27.535156 55.96875 27.535156 55.941406 L 27.535156 49.472656 C 27.535156 49.425781 27.570312 49.386719 27.617188 49.386719 C 28.535156 49.332031 29.460938 49.230469 30.351562 49.035156 Z M 43.980469 36.039062 C 43.980469 37.65625 44.535156 39.140625 45.464844 40.320312 C 45.492188 40.355469 45.488281 40.40625 45.457031 40.4375 L 42.496094 43.261719 C 42.496094 43.265625 42.492188 43.265625 42.492188 43.265625 C 42.34375 43.390625 42.25 43.574219 42.25 43.78125 L 42.25 47.050781 C 42.25 47.089844 42.269531 47.117188 42.304688 47.132812 C 42.707031 47.320312 43.097656 47.542969 43.4375 47.824219 C 43.464844 47.847656 43.5 47.851562 43.53125 47.835938 C 43.5625 47.824219 43.582031 47.792969 43.582031 47.757812 L 43.585938 44.101562 C 43.585938 44.074219 43.597656 44.054688 43.617188 44.035156 L 46.390625 41.386719 C 46.421875 41.355469 46.472656 41.355469 46.507812 41.382812 C 47.703125 42.367188 49.234375 42.957031 50.902344 42.957031 C 54.722656 42.957031 57.820312 39.859375 57.820312 36.039062 C 57.820312 32.21875 54.722656 29.121094 50.902344 29.121094 C 47.078125 29.121094 43.980469 32.21875 43.980469 36.039062 Z M 48.082031 39.277344 L 48.082031 34.53125 C 48.082031 34.480469 48.121094 34.441406 48.167969 34.441406 L 49.398438 34.441406 C 49.449219 34.441406 49.488281 34.402344 49.488281 34.351562 L 49.488281 32.800781 C 49.488281 32.199219 49.980469 31.707031 50.582031 31.707031 C 51.183594 31.707031 51.675781 32.199219 51.675781 32.800781 L 51.675781 34.351562 C 51.675781 34.402344 51.714844 34.441406 51.765625 34.441406 L 52.496094 34.441406 C 53.851562 34.441406 54.960938 35.550781 54.960938 36.902344 C 54.960938 38.257812 53.851562 39.367188 52.496094 39.367188 L 48.167969 39.367188 C 48.121094 39.367188 48.082031 39.328125 48.082031 39.277344 Z M 38.25 30.839844 C 38.203125 30.84375 38.167969 30.882812 38.167969 30.929688 L 38.167969 45.863281 C 38.167969 45.890625 38.15625 45.914062 38.136719 45.929688 C 38.113281 45.949219 38.089844 45.953125 38.0625 45.949219 L 37.613281 45.855469 C 37.609375 45.855469 37.609375 45.855469 37.609375 45.855469 L 36.910156 45.75 C 36.863281 45.742188 36.832031 45.707031 36.832031 45.660156 L 36.832031 30.929688 C 36.832031 30.882812 36.800781 30.84375 36.753906 30.839844 C 33.285156 30.46875 30.582031 27.53125 30.582031 23.960938 C 30.582031 20.140625 33.679688 17.042969 37.5 17.042969 C 41.320312 17.042969 44.417969 20.140625 44.417969 23.960938 C 44.417969 27.53125 41.71875 30.46875 38.25 30.839844 Z M 41.375 24.039062 C 41.402344 24.023438 41.421875 23.996094 41.421875 23.960938 C 41.421875 23.929688 41.402344 23.902344 41.375 23.886719 L 35.65625 20.582031 C 35.628906 20.566406 35.59375 20.566406 35.566406 20.582031 C 35.539062 20.597656 35.523438 20.628906 35.523438 20.660156 L 35.523438 27.265625 C 35.523438 27.296875 35.539062 27.324219 35.566406 27.34375 C 35.59375 27.359375 35.628906 27.359375 35.65625 27.34375 Z M 25.609375 32.957031 C 26.71875 32.957031 27.617188 33.855469 27.617188 34.964844 C 27.617188 36.769531 25.734375 38.828125 24.136719 39.550781 C 24.113281 39.5625 24.089844 39.5625 24.066406 39.550781 C 22.46875 38.828125 20.585938 36.769531 20.585938 34.964844 C 20.585938 33.855469 21.484375 32.957031 22.589844 32.957031 C 23.160156 32.957031 23.671875 33.191406 24.039062 33.570312 C 24.054688 33.589844 24.074219 33.597656 24.101562 33.597656 C 24.125 33.597656 24.148438 33.589844 24.164062 33.570312 C 24.53125 33.191406 25.042969 32.957031 25.609375 32.957031 Z M 25.609375 32.957031 " fill-opacity="1" fill-rule="evenodd"/></g></svg>