<svg xmlns="http://www.w3.org/2000/svg" xmlns:xlink="http://www.w3.org/1999/xlink" width="100" zoomAndPan="magnify" viewBox="0 0 75 74.999997" height="100" preserveAspectRatio="xMidYMid meet" version="1.0"><defs><clipPath id="f1aa08430b"><path d="M 1.164062 1.164062 L 73.835938 1.164062 L 73.835938 73.835938 L 1.164062 73.835938 Z M 1.164062 1.164062 " clip-rule="nonzero"/></clipPath><clipPath id="f390ddc046"><path d="M 37.5 1.164062 C 17.429688 1.164062 1.164062 17.429688 1.164062 37.5 C 1.164062 57.570312 17.429688 73.835938 37.5 73.835938 C 57.570312 73.835938 73.835938 57.570312 73.835938 37.5 C 73.835938 17.429688 57.570312 1.164062 37.5 1.164062 Z M 37.5 1.164062 " clip-rule="nonzero"/></clipPath><linearGradient x1="-0.000000241073" gradientTransform="matrix(0.283887, 0, 0, 0.283887, 1.162501, 1.162498)" y1="128" x2="256.000006" gradientUnits="userSpaceOnUse" y2="128" id="e1ac7f7569"><stop stop-opacity="1" stop-color="rgb(38.798523%, 8.599854%, 39.199829%)" offset="0"/><stop stop-opacity="1" stop-color="rgb(38.728333%, 8.644104%, 39.360046%)" offset="0.0078125"/><stop stop-opacity="1" stop-color="rgb(38.587952%, 8.732605%, 39.682007%)" offset="0.015625"/><stop stop-opacity="1" stop-color="rgb(38.447571%, 8.821106%, 40.002441%)" offset="0.0234375"/><stop stop-opacity="1" stop-color="rgb(38.30719%, 8.911133%, 40.324402%)" offset="0.03125"/><stop stop-opacity="1" stop-color="rgb(38.166809%, 8.999634%, 40.646362%)" offset="0.0390625"/><stop stop-opacity="1" stop-color="rgb(38.026428%, 9.088135%, 40.968323%)" offset="0.046875"/><stop stop-opacity="1" stop-color="rgb(37.884521%, 9.178162%, 41.290283%)" offset="0.0546875"/><stop stop-opacity="1" stop-color="rgb(37.744141%, 9.266663%, 41.612244%)" offset="0.0625"/><stop stop-opacity="1" stop-color="rgb(37.60376%, 9.356689%, 41.934204%)" offset="0.0703125"/><stop stop-opacity="1" stop-color="rgb(37.463379%, 9.44519%, 42.256165%)" offset="0.078125"/><stop stop-opacity="1" stop-color="rgb(37.322998%, 9.533691%, 42.578125%)" offset="0.0859375"/><stop stop-opacity="1" stop-color="rgb(37.182617%, 9.623718%, 42.900085%)" offset="0.09375"/><stop stop-opacity="1" stop-color="rgb(37.04071%, 9.712219%, 43.222046%)" offset="0.101563"/><stop stop-opacity="1" stop-color="rgb(36.90033%, 9.80072%, 43.544006%)" offset="0.109375"/><stop stop-opacity="1" stop-color="rgb(36.759949%, 9.890747%, 43.865967%)" offset="0.117188"/><stop stop-opacity="1" stop-color="rgb(36.619568%, 9.979248%, 44.187927%)" offset="0.125"/><stop stop-opacity="1" stop-color="rgb(36.479187%, 10.067749%, 44.509888%)" offset="0.132813"/><stop stop-opacity="1" stop-color="rgb(36.338806%, 10.157776%, 44.831848%)" offset="0.140625"/><stop stop-opacity="1" stop-color="rgb(36.196899%, 10.246277%, 45.153809%)" offset="0.148438"/><stop stop-opacity="1" stop-color="rgb(36.056519%, 10.336304%, 45.475769%)" offset="0.15625"/><stop stop-opacity="1" stop-color="rgb(35.916138%, 10.424805%, 45.796204%)" offset="0.164063"/><stop stop-opacity="1" stop-color="rgb(35.775757%, 10.513306%, 46.118164%)" offset="0.171875"/><stop stop-opacity="1" stop-color="rgb(35.635376%, 10.603333%, 46.440125%)" offset="0.179688"/><stop stop-opacity="1" stop-color="rgb(35.494995%, 10.691833%, 46.762085%)" offset="0.1875"/><stop stop-opacity="1" stop-color="rgb(35.353088%, 10.780334%, 47.084045%)" offset="0.195313"/><stop stop-opacity="1" stop-color="rgb(35.212708%, 10.870361%, 47.406006%)" offset="0.203125"/><stop stop-opacity="1" stop-color="rgb(35.072327%, 10.958862%, 47.727966%)" offset="0.210938"/><stop stop-opacity="1" stop-color="rgb(34.931946%, 11.048889%, 48.049927%)" offset="0.21875"/><stop stop-opacity="1" stop-color="rgb(34.791565%, 11.13739%, 48.371887%)" offset="0.226563"/><stop stop-opacity="1" stop-color="rgb(34.651184%, 11.225891%, 48.693848%)" offset="0.234375"/><stop stop-opacity="1" stop-color="rgb(34.510803%, 11.315918%, 49.015808%)" offset="0.242188"/><stop stop-opacity="1" stop-color="rgb(34.368896%, 11.404419%, 49.337769%)" offset="0.25"/><stop stop-opacity="1" stop-color="rgb(34.228516%, 11.49292%, 49.659729%)" offset="0.257813"/><stop stop-opacity="1" stop-color="rgb(34.088135%, 11.582947%, 49.981689%)" offset="0.265625"/><stop stop-opacity="1" stop-color="rgb(33.947754%, 11.671448%, 50.30365%)" offset="0.273438"/><stop stop-opacity="1" stop-color="rgb(33.807373%, 11.759949%, 50.62561%)" offset="0.28125"/><stop stop-opacity="1" stop-color="rgb(33.666992%, 11.849976%, 50.947571%)" offset="0.289063"/><stop stop-opacity="1" stop-color="rgb(33.525085%, 11.938477%, 51.269531%)" offset="0.296875"/><stop stop-opacity="1" stop-color="rgb(33.384705%, 12.028503%, 51.589966%)" offset="0.304688"/><stop stop-opacity="1" stop-color="rgb(33.244324%, 12.117004%, 51.911926%)" offset="0.3125"/><stop stop-opacity="1" stop-color="rgb(33.103943%, 12.205505%, 52.233887%)" offset="0.320313"/><stop stop-opacity="1" stop-color="rgb(32.963562%, 12.295532%, 52.555847%)" offset="0.328125"/><stop stop-opacity="1" stop-color="rgb(32.823181%, 12.384033%, 52.877808%)" offset="0.335938"/><stop stop-opacity="1" stop-color="rgb(32.681274%, 12.472534%, 53.199768%)" offset="0.34375"/><stop stop-opacity="1" stop-color="rgb(32.540894%, 12.562561%, 53.521729%)" offset="0.351563"/><stop stop-opacity="1" stop-color="rgb(32.400513%, 12.651062%, 53.843689%)" offset="0.359375"/><stop stop-opacity="1" stop-color="rgb(32.260132%, 12.741089%, 54.165649%)" offset="0.367188"/><stop stop-opacity="1" stop-color="rgb(32.119751%, 12.82959%, 54.48761%)" offset="0.375"/><stop stop-opacity="1" stop-color="rgb(31.97937%, 12.918091%, 54.80957%)" offset="0.382812"/><stop stop-opacity="1" stop-color="rgb(31.837463%, 13.008118%, 55.131531%)" offset="0.390625"/><stop stop-opacity="1" stop-color="rgb(31.697083%, 13.096619%, 55.453491%)" offset="0.398438"/><stop stop-opacity="1" stop-color="rgb(31.556702%, 13.18512%, 55.775452%)" offset="0.40625"/><stop stop-opacity="1" stop-color="rgb(31.416321%, 13.275146%, 56.097412%)" offset="0.414062"/><stop stop-opacity="1" stop-color="rgb(31.27594%, 13.363647%, 56.419373%)" offset="0.421875"/><stop stop-opacity="1" stop-color="rgb(31.135559%, 13.452148%, 56.741333%)" offset="0.429687"/><stop stop-opacity="1" stop-color="rgb(30.995178%, 13.542175%, 57.063293%)" offset="0.4375"/><stop stop-opacity="1" stop-color="rgb(30.853271%, 13.630676%, 57.383728%)" offset="0.445312"/><stop stop-opacity="1" stop-color="rgb(30.712891%, 13.720703%, 57.705688%)" offset="0.453125"/><stop stop-opacity="1" stop-color="rgb(30.57251%, 13.809204%, 58.027649%)" offset="0.460937"/><stop stop-opacity="1" stop-color="rgb(30.432129%, 13.897705%, 58.349609%)" offset="0.46875"/><stop stop-opacity="1" stop-color="rgb(30.291748%, 13.987732%, 58.67157%)" offset="0.476562"/><stop stop-opacity="1" stop-color="rgb(30.151367%, 14.076233%, 58.99353%)" offset="0.484375"/><stop stop-opacity="1" stop-color="rgb(30.00946%, 14.164734%, 59.315491%)" offset="0.492187"/><stop stop-opacity="1" stop-color="rgb(29.86908%, 14.254761%, 59.637451%)" offset="0.5"/><stop stop-opacity="1" stop-color="rgb(29.728699%, 14.343262%, 59.959412%)" offset="0.507812"/><stop stop-opacity="1" stop-color="rgb(29.588318%, 14.433289%, 60.281372%)" offset="0.515625"/><stop stop-opacity="1" stop-color="rgb(29.447937%, 14.52179%, 60.603333%)" offset="0.523438"/><stop stop-opacity="1" stop-color="rgb(29.307556%, 14.610291%, 60.925293%)" offset="0.53125"/><stop stop-opacity="1" stop-color="rgb(29.165649%, 14.700317%, 61.247253%)" offset="0.539062"/><stop stop-opacity="1" stop-color="rgb(29.025269%, 14.788818%, 61.569214%)" offset="0.546875"/><stop stop-opacity="1" stop-color="rgb(28.884888%, 14.877319%, 61.891174%)" offset="0.554688"/><stop stop-opacity="1" stop-color="rgb(28.744507%, 14.967346%, 62.213135%)" offset="0.5625"/><stop stop-opacity="1" stop-color="rgb(28.604126%, 15.055847%, 62.535095%)" offset="0.570313"/><stop stop-opacity="1" stop-color="rgb(28.463745%, 15.144348%, 62.857056%)" offset="0.578125"/><stop stop-opacity="1" stop-color="rgb(28.321838%, 15.234375%, 63.17749%)" offset="0.585938"/><stop stop-opacity="1" stop-color="rgb(28.181458%, 15.322876%, 63.499451%)" offset="0.59375"/><stop stop-opacity="1" stop-color="rgb(28.041077%, 15.412903%, 63.821411%)" offset="0.601563"/><stop stop-opacity="1" stop-color="rgb(27.900696%, 15.501404%, 64.143372%)" offset="0.609375"/><stop stop-opacity="1" stop-color="rgb(27.760315%, 15.589905%, 64.465332%)" offset="0.617188"/><stop stop-opacity="1" stop-color="rgb(27.619934%, 15.679932%, 64.787292%)" offset="0.625"/><stop stop-opacity="1" stop-color="rgb(27.479553%, 15.768433%, 65.109253%)" offset="0.632813"/><stop stop-opacity="1" stop-color="rgb(27.337646%, 15.856934%, 65.431213%)" offset="0.640625"/><stop stop-opacity="1" stop-color="rgb(27.197266%, 15.94696%, 65.753174%)" offset="0.648438"/><stop stop-opacity="1" stop-color="rgb(27.056885%, 16.035461%, 66.075134%)" offset="0.65625"/><stop stop-opacity="1" stop-color="rgb(26.916504%, 16.125488%, 66.397095%)" offset="0.664063"/><stop stop-opacity="1" stop-color="rgb(26.776123%, 16.213989%, 66.719055%)" offset="0.671875"/><stop stop-opacity="1" stop-color="rgb(26.635742%, 16.30249%, 67.041016%)" offset="0.679688"/><stop stop-opacity="1" stop-color="rgb(26.493835%, 16.392517%, 67.362976%)" offset="0.6875"/><stop stop-opacity="1" stop-color="rgb(26.353455%, 16.481018%, 67.684937%)" offset="0.695312"/><stop stop-opacity="1" stop-color="rgb(26.213074%, 16.569519%, 68.006897%)" offset="0.703125"/><stop stop-opacity="1" stop-color="rgb(26.072693%, 16.659546%, 68.328857%)" offset="0.710938"/><stop stop-opacity="1" stop-color="rgb(25.932312%, 16.748047%, 68.650818%)" offset="0.71875"/><stop stop-opacity="1" stop-color="rgb(25.791931%, 16.836548%, 68.971252%)" offset="0.726562"/><stop stop-opacity="1" stop-color="rgb(25.650024%, 16.926575%, 69.293213%)" offset="0.734375"/><stop stop-opacity="1" stop-color="rgb(25.509644%, 17.015076%, 69.615173%)" offset="0.742188"/><stop stop-opacity="1" stop-color="rgb(25.369263%, 17.105103%, 69.937134%)" offset="0.75"/><stop stop-opacity="1" stop-color="rgb(25.228882%, 17.193604%, 70.259094%)" offset="0.757812"/><stop stop-opacity="1" stop-color="rgb(25.088501%, 17.282104%, 70.581055%)" offset="0.765625"/><stop stop-opacity="1" stop-color="rgb(24.94812%, 17.372131%, 70.903015%)" offset="0.773438"/><stop stop-opacity="1" stop-color="rgb(24.806213%, 17.460632%, 71.224976%)" offset="0.78125"/><stop stop-opacity="1" stop-color="rgb(24.665833%, 17.549133%, 71.546936%)" offset="0.789062"/><stop stop-opacity="1" stop-color="rgb(24.525452%, 17.63916%, 71.868896%)" offset="0.796875"/><stop stop-opacity="1" stop-color="rgb(24.385071%, 17.727661%, 72.190857%)" offset="0.804688"/><stop stop-opacity="1" stop-color="rgb(24.24469%, 17.817688%, 72.512817%)" offset="0.8125"/><stop stop-opacity="1" stop-color="rgb(24.104309%, 17.906189%, 72.834778%)" offset="0.820312"/><stop stop-opacity="1" stop-color="rgb(23.963928%, 17.99469%, 73.156738%)" offset="0.828125"/><stop stop-opacity="1" stop-color="rgb(23.822021%, 18.084717%, 73.478699%)" offset="0.835937"/><stop stop-opacity="1" stop-color="rgb(23.681641%, 18.173218%, 73.800659%)" offset="0.84375"/><stop stop-opacity="1" stop-color="rgb(23.54126%, 18.261719%, 74.12262%)" offset="0.851562"/><stop stop-opacity="1" stop-color="rgb(23.400879%, 18.351746%, 74.44458%)" offset="0.859375"/><stop stop-opacity="1" stop-color="rgb(23.260498%, 18.440247%, 74.765015%)" offset="0.867187"/><stop stop-opacity="1" stop-color="rgb(23.120117%, 18.528748%, 75.086975%)" offset="0.875"/><stop stop-opacity="1" stop-color="rgb(22.97821%, 18.618774%, 75.408936%)" offset="0.882812"/><stop stop-opacity="1" stop-color="rgb(22.83783%, 18.707275%, 75.730896%)" offset="0.890625"/><stop stop-opacity="1" stop-color="rgb(22.697449%, 18.797302%, 76.052856%)" offset="0.898437"/><stop stop-opacity="1" stop-color="rgb(22.557068%, 18.885803%, 76.374817%)" offset="0.90625"/><stop stop-opacity="1" stop-color="rgb(22.416687%, 18.974304%, 76.696777%)" offset="0.914062"/><stop stop-opacity="1" stop-color="rgb(22.276306%, 19.064331%, 77.018738%)" offset="0.921875"/><stop stop-opacity="1" stop-color="rgb(22.134399%, 19.152832%, 77.340698%)" offset="0.929687"/><stop stop-opacity="1" stop-color="rgb(21.994019%, 19.241333%, 77.662659%)" offset="0.9375"/><stop stop-opacity="1" stop-color="rgb(21.853638%, 19.33136%, 77.984619%)" offset="0.945312"/><stop stop-opacity="1" stop-color="rgb(21.713257%, 19.419861%, 78.30658%)" offset="0.953125"/><stop stop-opacity="1" stop-color="rgb(21.572876%, 19.508362%, 78.62854%)" offset="0.960938"/><stop stop-opacity="1" stop-color="rgb(21.432495%, 19.598389%, 78.9505%)" offset="0.96875"/><stop stop-opacity="1" stop-color="rgb(21.290588%, 19.68689%, 79.272461%)" offset="0.976562"/><stop stop-opacity="1" stop-color="rgb(21.150208%, 19.776917%, 79.594421%)" offset="0.984375"/><stop stop-opacity="1" stop-color="rgb(21.009827%, 19.865417%, 79.916382%)" offset="0.992188"/><stop stop-opacity="1" stop-color="rgb(20.869446%, 19.953918%, 80.238342%)" offset="1"/></linearGradient><clipPath id="5401ec19c3"><path d="M 18.863281 18.863281 L 46 18.863281 L 46 37 L 18.863281 37 Z M 18.863281 18.863281 " clip-rule="nonzero"/></clipPath><clipPath id="5a1c0e48c0"><path d="M 18.863281 31 L 56.363281 31 L 56.363281 56.363281 L 18.863281 56.363281 Z M 18.863281 31 " clip-rule="nonzero"/></clipPath><clipPath id="83c446b6cf"><path d="M 18.863281 32 L 21 32 L 21 35 L 18.863281 35 Z M 18.863281 32 " clip-rule="nonzero"/></clipPath></defs><g clip-path="url(#f1aa08430b)"><g clip-path="url(#f390ddc046)"><path fill="url(#e1ac7f7569)" d="M 1.164062 1.164062 L 1.164062 73.835938 L 73.835938 73.835938 L 73.835938 1.164062 Z M 1.164062 1.164062 " fill-rule="nonzero"/></g></g><g clip-path="url(#5401ec19c3)"><path fill="#ffffff" d="M 19.445312 31.671875 C 19.605469 31.671875 19.742188 31.617188 19.855469 31.503906 C 19.96875 31.386719 20.027344 31.25 20.027344 31.089844 L 20.027344 21.773438 C 20.027344 21.542969 20.070312 21.320312 20.160156 21.105469 C 20.25 20.890625 20.375 20.703125 20.539062 20.539062 C 20.703125 20.375 20.890625 20.25 21.105469 20.160156 C 21.320312 20.070312 21.542969 20.027344 21.773438 20.027344 L 42.734375 20.027344 C 42.96875 20.027344 43.191406 20.070312 43.402344 20.160156 C 43.617188 20.25 43.804688 20.375 43.96875 20.539062 C 44.132812 20.703125 44.261719 20.890625 44.347656 21.105469 C 44.4375 21.320312 44.480469 21.542969 44.484375 21.773438 L 44.484375 31.089844 L 38.660156 31.089844 C 38.082031 31.089844 37.550781 31.25 37.066406 31.566406 C 36.585938 31.882812 36.226562 32.308594 35.996094 32.835938 L 23.519531 32.835938 C 23.359375 32.835938 23.222656 32.78125 23.109375 32.667969 C 22.996094 32.554688 22.9375 32.414062 22.9375 32.253906 L 22.9375 22.9375 C 22.9375 22.777344 22.996094 22.640625 23.109375 22.527344 C 23.222656 22.414062 23.359375 22.355469 23.519531 22.355469 L 40.988281 22.355469 C 41.148438 22.355469 41.285156 22.414062 41.402344 22.527344 C 41.515625 22.640625 41.570312 22.777344 41.570312 22.9375 L 41.570312 28.761719 C 41.570312 28.921875 41.628906 29.058594 41.742188 29.171875 C 41.855469 29.285156 41.992188 29.34375 42.152344 29.34375 C 42.3125 29.34375 42.453125 29.285156 42.566406 29.171875 C 42.679688 29.058594 42.734375 28.921875 42.734375 28.761719 L 42.734375 22.9375 C 42.734375 22.707031 42.691406 22.484375 42.601562 22.269531 C 42.511719 22.054688 42.386719 21.867188 42.222656 21.703125 C 42.058594 21.539062 41.871094 21.414062 41.65625 21.324219 C 41.441406 21.238281 41.21875 21.191406 40.988281 21.191406 L 23.519531 21.191406 C 23.289062 21.191406 23.066406 21.238281 22.851562 21.324219 C 22.640625 21.414062 22.449219 21.539062 22.285156 21.703125 C 22.121094 21.867188 21.996094 22.054688 21.90625 22.269531 C 21.820312 22.484375 21.773438 22.707031 21.773438 22.9375 L 21.773438 32.253906 C 21.773438 32.488281 21.820312 32.710938 21.90625 32.921875 C 21.996094 33.136719 22.121094 33.324219 22.285156 33.488281 C 22.449219 33.652344 22.640625 33.78125 22.851562 33.867188 C 23.066406 33.957031 23.289062 34 23.519531 34 L 35.75 34 L 35.75 35.75 C 35.75 35.910156 35.804688 36.046875 35.917969 36.160156 C 36.03125 36.273438 36.171875 36.332031 36.332031 36.332031 C 36.492188 36.332031 36.628906 36.273438 36.742188 36.160156 C 36.855469 36.046875 36.914062 35.910156 36.914062 35.75 L 36.914062 34 C 36.914062 33.769531 36.957031 33.546875 37.046875 33.332031 C 37.136719 33.121094 37.261719 32.929688 37.425781 32.765625 C 37.589844 32.601562 37.777344 32.476562 37.992188 32.386719 C 38.207031 32.300781 38.429688 32.253906 38.660156 32.253906 L 45.066406 32.253906 C 45.226562 32.253906 45.363281 32.199219 45.476562 32.085938 C 45.589844 31.96875 45.648438 31.832031 45.648438 31.671875 L 45.648438 21.773438 C 45.648438 21.386719 45.574219 21.015625 45.425781 20.660156 C 45.277344 20.304688 45.066406 19.988281 44.792969 19.714844 C 44.519531 19.441406 44.207031 19.234375 43.847656 19.085938 C 43.492188 18.9375 43.121094 18.863281 42.734375 18.863281 L 21.773438 18.863281 C 21.386719 18.863281 21.015625 18.9375 20.660156 19.085938 C 20.304688 19.234375 19.988281 19.441406 19.714844 19.714844 C 19.441406 19.988281 19.234375 20.304688 19.085938 20.660156 C 18.9375 21.015625 18.863281 21.386719 18.863281 21.773438 L 18.863281 31.089844 C 18.863281 31.25 18.917969 31.386719 19.03125 31.503906 C 19.148438 31.617188 19.285156 31.671875 19.445312 31.671875 Z M 19.445312 31.671875 " fill-opacity="1" fill-rule="nonzero"/></g><path fill="#ffffff" d="M 35.21875 26.601562 L 31.109375 24.132812 C 30.71875 23.898438 30.328125 23.894531 29.933594 24.117188 C 29.539062 24.34375 29.34375 24.679688 29.34375 25.132812 L 29.34375 30.058594 C 29.339844 30.511719 29.535156 30.851562 29.929688 31.074219 C 30.324219 31.292969 30.71875 31.289062 31.109375 31.0625 L 35.21875 28.59375 C 35.304688 28.539062 35.382812 28.480469 35.453125 28.40625 C 35.523438 28.335938 35.582031 28.257812 35.632812 28.167969 C 35.683594 28.082031 35.71875 27.988281 35.746094 27.894531 C 35.769531 27.796875 35.785156 27.695312 35.785156 27.597656 C 35.785156 27.496094 35.769531 27.398438 35.746094 27.300781 C 35.71875 27.203125 35.683594 27.113281 35.632812 27.023438 C 35.582031 26.9375 35.523438 26.859375 35.453125 26.785156 C 35.382812 26.714844 35.304688 26.652344 35.21875 26.601562 Z M 30.507812 30.058594 L 30.507812 25.132812 L 34.617188 27.597656 Z M 30.507812 30.058594 " fill-opacity="1" fill-rule="nonzero"/><path fill="#ffffff" d="M 34.585938 35.746094 C 34.585938 35.90625 34.53125 36.046875 34.414062 36.160156 C 34.300781 36.273438 34.164062 36.332031 34 36.332031 C 33.839844 36.332031 33.703125 36.273438 33.585938 36.160156 C 33.472656 36.046875 33.417969 35.90625 33.417969 35.746094 C 33.417969 35.582031 33.472656 35.445312 33.585938 35.332031 C 33.703125 35.21875 33.839844 35.160156 34 35.160156 C 34.164062 35.160156 34.300781 35.21875 34.414062 35.332031 C 34.53125 35.445312 34.585938 35.582031 34.585938 35.746094 Z M 34.585938 35.746094 " fill-opacity="1" fill-rule="nonzero"/><path fill="#ffffff" d="M 22.9375 35.167969 C 22.777344 35.167969 22.640625 35.222656 22.527344 35.335938 C 22.414062 35.449219 22.355469 35.585938 22.355469 35.75 C 22.355469 35.910156 22.414062 36.046875 22.527344 36.160156 C 22.640625 36.273438 22.777344 36.332031 22.9375 36.332031 L 29.925781 36.332031 C 30.085938 36.332031 30.222656 36.273438 30.335938 36.160156 C 30.449219 36.046875 30.507812 35.910156 30.507812 35.75 C 30.507812 35.585938 30.449219 35.449219 30.335938 35.335938 C 30.222656 35.222656 30.085938 35.167969 29.925781 35.167969 Z M 22.9375 35.167969 " fill-opacity="1" fill-rule="nonzero"/><g clip-path="url(#5a1c0e48c0)"><path fill="#ffffff" d="M 53.214844 31.089844 L 47.394531 31.089844 C 47.234375 31.089844 47.097656 31.148438 46.980469 31.261719 C 46.867188 31.375 46.8125 31.511719 46.8125 31.671875 C 46.8125 31.832031 46.867188 31.96875 46.980469 32.085938 C 47.097656 32.199219 47.234375 32.253906 47.394531 32.253906 L 53.214844 32.253906 C 53.449219 32.253906 53.671875 32.300781 53.882812 32.390625 C 54.097656 32.476562 54.285156 32.605469 54.449219 32.769531 C 54.613281 32.929688 54.742188 33.121094 54.828125 33.332031 C 54.917969 33.546875 54.964844 33.769531 54.964844 34 L 54.964844 43.316406 C 54.964844 43.550781 54.917969 43.773438 54.828125 43.984375 C 54.742188 44.199219 54.613281 44.386719 54.449219 44.550781 C 54.285156 44.714844 54.097656 44.839844 53.882812 44.929688 C 53.671875 45.019531 53.449219 45.0625 53.214844 45.066406 L 40.40625 45.066406 L 40.40625 44.484375 C 40.40625 44.097656 40.332031 43.726562 40.183594 43.367188 C 40.035156 43.011719 39.828125 42.695312 39.554688 42.425781 C 39.28125 42.152344 38.964844 41.941406 38.609375 41.792969 C 38.253906 41.644531 37.882812 41.570312 37.496094 41.570312 L 36.914062 41.570312 L 36.914062 38.078125 C 36.914062 37.917969 36.855469 37.78125 36.742188 37.667969 C 36.628906 37.554688 36.492188 37.496094 36.332031 37.496094 L 21.773438 37.496094 C 21.542969 37.496094 21.320312 37.449219 21.105469 37.359375 C 20.890625 37.273438 20.703125 37.144531 20.539062 36.980469 C 20.375 36.820312 20.25 36.628906 20.160156 36.417969 C 20.074219 36.203125 20.027344 35.980469 20.027344 35.75 C 20.027344 35.585938 19.96875 35.449219 19.855469 35.335938 C 19.742188 35.222656 19.605469 35.167969 19.445312 35.167969 C 19.285156 35.167969 19.148438 35.222656 19.03125 35.335938 C 18.917969 35.449219 18.863281 35.585938 18.863281 35.75 C 18.863281 36.132812 18.9375 36.503906 19.085938 36.863281 C 19.230469 37.21875 19.441406 37.535156 19.714844 37.808594 C 19.988281 38.078125 20.304688 38.289062 20.660156 38.4375 C 21.015625 38.585938 21.386719 38.660156 21.773438 38.660156 L 35.75 38.660156 L 35.75 41.570312 L 21.773438 41.570312 C 21.386719 41.570312 21.015625 41.644531 20.660156 41.792969 C 20.304688 41.941406 19.988281 42.152344 19.714844 42.425781 C 19.441406 42.695312 19.230469 43.011719 19.085938 43.367188 C 18.9375 43.726562 18.863281 44.097656 18.863281 44.484375 L 18.863281 53.214844 C 18.863281 53.601562 18.9375 53.972656 19.085938 54.332031 C 19.230469 54.6875 19.441406 55.003906 19.714844 55.273438 C 19.988281 55.546875 20.304688 55.757812 20.660156 55.90625 C 21.015625 56.054688 21.386719 56.128906 21.773438 56.128906 L 37.496094 56.128906 C 37.882812 56.128906 38.253906 56.054688 38.609375 55.90625 C 38.964844 55.757812 39.28125 55.546875 39.554688 55.273438 C 39.828125 55.003906 40.035156 54.6875 40.183594 54.332031 C 40.332031 53.972656 40.40625 53.601562 40.40625 53.214844 L 40.40625 48.558594 C 40.40625 48.398438 40.351562 48.261719 40.234375 48.148438 C 40.121094 48.03125 39.984375 47.976562 39.824219 47.976562 C 39.664062 47.976562 39.527344 48.03125 39.414062 48.148438 C 39.300781 48.261719 39.242188 48.398438 39.242188 48.558594 L 39.242188 50.648438 L 37.328125 48.726562 C 37.210938 48.617188 37.074219 48.5625 36.914062 48.5625 C 36.753906 48.5625 36.613281 48.617188 36.5 48.726562 L 32.539062 52.699219 L 27.410156 47.5625 C 27.296875 47.449219 27.15625 47.390625 26.996094 47.390625 C 26.835938 47.390625 26.699219 47.449219 26.582031 47.5625 L 20.195312 53.957031 C 20.085938 53.722656 20.027344 53.476562 20.027344 53.214844 L 20.027344 44.484375 C 20.027344 44.25 20.074219 44.027344 20.160156 43.816406 C 20.25 43.601562 20.375 43.414062 20.539062 43.25 C 20.703125 43.085938 20.890625 42.960938 21.105469 42.871094 C 21.320312 42.78125 21.542969 42.738281 21.773438 42.734375 L 37.496094 42.734375 C 37.726562 42.738281 37.949219 42.78125 38.164062 42.871094 C 38.375 42.960938 38.566406 43.085938 38.730469 43.25 C 38.894531 43.414062 39.019531 43.601562 39.109375 43.816406 C 39.195312 44.027344 39.242188 44.25 39.242188 44.484375 L 39.242188 45.648438 C 39.242188 45.808594 39.300781 45.945312 39.414062 46.058594 C 39.527344 46.171875 39.664062 46.230469 39.824219 46.230469 L 53.214844 46.230469 C 53.601562 46.230469 53.972656 46.15625 54.332031 46.007812 C 54.6875 45.859375 55.003906 45.648438 55.273438 45.375 C 55.546875 45.101562 55.757812 44.789062 55.90625 44.433594 C 56.054688 44.074219 56.128906 43.703125 56.128906 43.316406 L 56.128906 34 C 56.128906 33.617188 56.054688 33.246094 55.90625 32.886719 C 55.757812 32.53125 55.546875 32.214844 55.273438 31.941406 C 55.003906 31.671875 54.6875 31.460938 54.332031 31.3125 C 53.972656 31.164062 53.601562 31.089844 53.214844 31.089844 Z M 36.914062 49.960938 L 39.242188 52.289062 L 39.242188 53.214844 C 39.242188 53.449219 39.195312 53.671875 39.109375 53.882812 C 39.019531 54.097656 38.894531 54.285156 38.730469 54.449219 C 38.566406 54.613281 38.375 54.742188 38.164062 54.828125 C 37.949219 54.917969 37.726562 54.964844 37.496094 54.964844 L 34.804688 54.964844 L 33.359375 53.519531 Z M 26.996094 48.796875 L 33.164062 54.964844 L 21.773438 54.964844 C 21.507812 54.960938 21.253906 54.902344 21.015625 54.78125 Z M 26.996094 48.796875 " fill-opacity="1" fill-rule="nonzero"/></g><path fill="#ffffff" d="M 49.578125 34.492188 C 49.09375 34.136719 48.570312 34.058594 48.003906 34.253906 L 42.644531 36.039062 L 40.988281 36.039062 C 40.757812 36.039062 40.535156 36.085938 40.320312 36.175781 C 40.109375 36.261719 39.917969 36.390625 39.753906 36.554688 C 39.589844 36.714844 39.464844 36.90625 39.375 37.117188 C 39.289062 37.332031 39.242188 37.554688 39.242188 37.785156 L 39.242188 38.367188 C 39.242188 38.777344 39.371094 39.144531 39.628906 39.460938 C 39.886719 39.78125 40.214844 39.984375 40.617188 40.074219 L 40.867188 42.082031 C 40.894531 42.292969 40.957031 42.492188 41.058594 42.679688 C 41.15625 42.867188 41.289062 43.03125 41.449219 43.171875 C 41.605469 43.3125 41.785156 43.421875 41.984375 43.496094 C 42.183594 43.570312 42.390625 43.609375 42.601562 43.609375 L 43.316406 43.609375 C 43.480469 43.609375 43.617188 43.550781 43.730469 43.4375 C 43.84375 43.324219 43.898438 43.1875 43.898438 43.027344 L 43.898438 40.535156 L 48.003906 41.902344 C 48.570312 42.085938 49.09375 42.003906 49.578125 41.664062 C 50.066406 41.320312 50.308594 40.847656 50.304688 40.25 L 50.304688 35.90625 C 50.308594 35.308594 50.066406 34.835938 49.578125 34.492188 Z M 40.988281 38.949219 C 40.828125 38.949219 40.691406 38.894531 40.578125 38.78125 C 40.464844 38.667969 40.40625 38.53125 40.40625 38.367188 L 40.40625 37.785156 C 40.40625 37.625 40.464844 37.488281 40.578125 37.375 C 40.691406 37.261719 40.828125 37.203125 40.988281 37.203125 L 42.152344 37.203125 L 42.152344 38.949219 Z M 42.734375 42.445312 C 42.398438 42.445312 42.070312 42.316406 42.019531 41.9375 L 41.792969 40.117188 L 42.644531 40.117188 L 42.734375 40.144531 Z M 49.140625 40.25 C 49.140625 40.449219 49.058594 40.605469 48.894531 40.722656 C 48.734375 40.839844 48.558594 40.863281 48.371094 40.796875 L 43.316406 39.113281 L 43.316406 37.042969 L 48.371094 35.359375 C 48.558594 35.289062 48.734375 35.316406 48.894531 35.433594 C 49.058594 35.546875 49.140625 35.707031 49.140625 35.90625 Z M 49.140625 40.25 " fill-opacity="1" fill-rule="nonzero"/><path fill="#ffffff" d="M 52.632812 39.242188 L 52.632812 36.914062 C 52.632812 36.753906 52.578125 36.613281 52.464844 36.5 C 52.351562 36.386719 52.214844 36.332031 52.050781 36.332031 C 51.890625 36.332031 51.753906 36.386719 51.640625 36.5 C 51.527344 36.613281 51.46875 36.753906 51.46875 36.914062 L 51.46875 39.242188 C 51.46875 39.402344 51.527344 39.539062 51.640625 39.652344 C 51.753906 39.765625 51.890625 39.824219 52.050781 39.824219 C 52.214844 39.824219 52.351562 39.765625 52.464844 39.652344 C 52.578125 39.539062 52.632812 39.402344 52.632812 39.242188 Z M 52.632812 39.242188 " fill-opacity="1" fill-rule="nonzero"/><path fill="#ffffff" d="M 33.417969 43.898438 C 33.1875 43.898438 32.964844 43.945312 32.75 44.035156 C 32.535156 44.121094 32.347656 44.25 32.183594 44.410156 C 32.019531 44.574219 31.894531 44.765625 31.804688 44.980469 C 31.71875 45.191406 31.671875 45.414062 31.671875 45.648438 C 31.671875 45.878906 31.71875 46.101562 31.804688 46.316406 C 31.894531 46.53125 32.019531 46.71875 32.183594 46.882812 C 32.347656 47.046875 32.535156 47.171875 32.75 47.261719 C 32.964844 47.351562 33.1875 47.394531 33.417969 47.394531 C 33.652344 47.394531 33.875 47.351562 34.085938 47.261719 C 34.300781 47.171875 34.492188 47.046875 34.65625 46.882812 C 34.820312 46.71875 34.945312 46.53125 35.035156 46.316406 C 35.121094 46.101562 35.167969 45.878906 35.167969 45.648438 C 35.164062 45.414062 35.121094 45.191406 35.03125 44.980469 C 34.941406 44.765625 34.816406 44.578125 34.652344 44.414062 C 34.488281 44.25 34.300781 44.125 34.085938 44.035156 C 33.875 43.945312 33.652344 43.902344 33.417969 43.898438 Z M 33.417969 46.230469 C 33.257812 46.230469 33.121094 46.171875 33.007812 46.058594 C 32.894531 45.945312 32.835938 45.808594 32.835938 45.648438 C 32.835938 45.488281 32.894531 45.347656 33.007812 45.234375 C 33.121094 45.121094 33.257812 45.066406 33.417969 45.066406 C 33.582031 45.066406 33.71875 45.121094 33.832031 45.234375 C 33.945312 45.347656 34 45.488281 34 45.648438 C 34 45.808594 33.945312 45.945312 33.832031 46.058594 C 33.71875 46.171875 33.578125 46.230469 33.417969 46.230469 Z M 33.417969 46.230469 " fill-opacity="1" fill-rule="nonzero"/><g clip-path="url(#83c446b6cf)"><path fill="#ffffff" d="M 20.03125 33.421875 C 20.03125 33.582031 19.976562 33.722656 19.863281 33.835938 C 19.746094 33.949219 19.609375 34.007812 19.449219 34.007812 C 19.285156 34.007812 19.148438 33.949219 19.035156 33.835938 C 18.917969 33.722656 18.863281 33.582031 18.863281 33.421875 C 18.863281 33.261719 18.917969 33.121094 19.035156 33.007812 C 19.148438 32.894531 19.285156 32.835938 19.449219 32.835938 C 19.609375 32.835938 19.746094 32.894531 19.863281 33.007812 C 19.976562 33.121094 20.03125 33.261719 20.03125 33.421875 Z M 20.03125 33.421875 " fill-opacity="1" fill-rule="nonzero"/></g></svg>