<svg xmlns="http://www.w3.org/2000/svg" xmlns:xlink="http://www.w3.org/1999/xlink" width="100" zoomAndPan="magnify" viewBox="0 0 75 74.999997" height="100" preserveAspectRatio="xMidYMid meet" version="1.0"><defs><clipPath id="e577a15d9a"><path d="M 1.164062 1.164062 L 73.835938 1.164062 L 73.835938 73.835938 L 1.164062 73.835938 Z M 1.164062 1.164062 " clip-rule="nonzero"/></clipPath><clipPath id="601d5ddaab"><path d="M 37.5 1.164062 C 17.429688 1.164062 1.164062 17.429688 1.164062 37.5 C 1.164062 57.570312 17.429688 73.835938 37.5 73.835938 C 57.570312 73.835938 73.835938 57.570312 73.835938 37.5 C 73.835938 17.429688 57.570312 1.164062 37.5 1.164062 Z M 37.5 1.164062 " clip-rule="nonzero"/></clipPath><radialGradient gradientTransform="matrix(1, 0, 0, 1, 1.162501, 1.162498)" gradientUnits="userSpaceOnUse" r="102.778053" cx="0" id="4b709be586" cy="0" fx="0" fy="0"><stop stop-opacity="1" stop-color="rgb(100%, 86.981201%, 34.881592%)" offset="0"/><stop stop-opacity="1" stop-color="rgb(100%, 86.686707%, 34.83429%)" offset="0.0078125"/><stop stop-opacity="1" stop-color="rgb(100%, 86.332703%, 34.779358%)" offset="0.0195312"/><stop stop-opacity="1" stop-color="rgb(100%, 85.978699%, 34.724426%)" offset="0.03125"/><stop stop-opacity="1" stop-color="rgb(100%, 85.624695%, 34.669495%)" offset="0.0429688"/><stop stop-opacity="1" stop-color="rgb(100%, 85.270691%, 34.614563%)" offset="0.0546875"/><stop stop-opacity="1" stop-color="rgb(100%, 84.916687%, 34.559631%)" offset="0.0664062"/><stop stop-opacity="1" stop-color="rgb(100%, 84.562683%, 34.5047%)" offset="0.078125"/><stop stop-opacity="1" stop-color="rgb(100%, 84.208679%, 34.449768%)" offset="0.0898438"/><stop stop-opacity="1" stop-color="rgb(100%, 83.854675%, 34.394836%)" offset="0.101562"/><stop stop-opacity="1" stop-color="rgb(100%, 83.500671%, 34.339905%)" offset="0.113281"/><stop stop-opacity="1" stop-color="rgb(100%, 83.146667%, 34.283447%)" offset="0.125"/><stop stop-opacity="1" stop-color="rgb(100%, 82.792664%, 34.228516%)" offset="0.136719"/><stop stop-opacity="1" stop-color="rgb(100%, 82.440186%, 34.173584%)" offset="0.148438"/><stop stop-opacity="1" stop-color="rgb(100%, 82.086182%, 34.118652%)" offset="0.160156"/><stop stop-opacity="1" stop-color="rgb(100%, 81.732178%, 34.063721%)" offset="0.171875"/><stop stop-opacity="1" stop-color="rgb(100%, 81.378174%, 34.008789%)" offset="0.183594"/><stop stop-opacity="1" stop-color="rgb(100%, 81.02417%, 33.953857%)" offset="0.195312"/><stop stop-opacity="1" stop-color="rgb(100%, 80.670166%, 33.898926%)" offset="0.207031"/><stop stop-opacity="1" stop-color="rgb(100%, 80.316162%, 33.843994%)" offset="0.21875"/><stop stop-opacity="1" stop-color="rgb(100%, 79.962158%, 33.789062%)" offset="0.230469"/><stop stop-opacity="1" stop-color="rgb(100%, 79.608154%, 33.732605%)" offset="0.242188"/><stop stop-opacity="1" stop-color="rgb(100%, 79.312134%, 33.686829%)" offset="0.253906"/><stop stop-opacity="1" stop-color="rgb(100%, 79.077148%, 33.650208%)" offset="0.261719"/><stop stop-opacity="1" stop-color="rgb(100%, 78.840637%, 33.613586%)" offset="0.269531"/><stop stop-opacity="1" stop-color="rgb(100%, 78.605652%, 33.576965%)" offset="0.277344"/><stop stop-opacity="1" stop-color="rgb(100%, 78.369141%, 33.540344%)" offset="0.285156"/><stop stop-opacity="1" stop-color="rgb(100%, 78.132629%, 33.503723%)" offset="0.292969"/><stop stop-opacity="1" stop-color="rgb(100%, 77.897644%, 33.467102%)" offset="0.300781"/><stop stop-opacity="1" stop-color="rgb(100%, 77.661133%, 33.430481%)" offset="0.308594"/><stop stop-opacity="1" stop-color="rgb(100%, 77.424622%, 33.39386%)" offset="0.316406"/><stop stop-opacity="1" stop-color="rgb(100%, 77.189636%, 33.357239%)" offset="0.324219"/><stop stop-opacity="1" stop-color="rgb(100%, 76.953125%, 33.320618%)" offset="0.332031"/><stop stop-opacity="1" stop-color="rgb(100%, 76.71814%, 33.283997%)" offset="0.339844"/><stop stop-opacity="1" stop-color="rgb(100%, 76.481628%, 33.247375%)" offset="0.347656"/><stop stop-opacity="1" stop-color="rgb(100%, 76.245117%, 33.210754%)" offset="0.355469"/><stop stop-opacity="1" stop-color="rgb(100%, 76.010132%, 33.174133%)" offset="0.363281"/><stop stop-opacity="1" stop-color="rgb(100%, 75.773621%, 33.135986%)" offset="0.371094"/><stop stop-opacity="1" stop-color="rgb(100%, 75.537109%, 33.099365%)" offset="0.378906"/><stop stop-opacity="1" stop-color="rgb(100%, 75.302124%, 33.062744%)" offset="0.386719"/><stop stop-opacity="1" stop-color="rgb(100%, 75.065613%, 33.026123%)" offset="0.394531"/><stop stop-opacity="1" stop-color="rgb(100%, 74.830627%, 32.989502%)" offset="0.402344"/><stop stop-opacity="1" stop-color="rgb(100%, 74.594116%, 32.952881%)" offset="0.410156"/><stop stop-opacity="1" stop-color="rgb(100%, 74.357605%, 32.91626%)" offset="0.417969"/><stop stop-opacity="1" stop-color="rgb(100%, 74.12262%, 32.879639%)" offset="0.425781"/><stop stop-opacity="1" stop-color="rgb(100%, 73.886108%, 32.843018%)" offset="0.433594"/><stop stop-opacity="1" stop-color="rgb(100%, 73.649597%, 32.806396%)" offset="0.441406"/><stop stop-opacity="1" stop-color="rgb(100%, 73.414612%, 32.769775%)" offset="0.449219"/><stop stop-opacity="1" stop-color="rgb(100%, 73.178101%, 32.733154%)" offset="0.457031"/><stop stop-opacity="1" stop-color="rgb(100%, 72.943115%, 32.696533%)" offset="0.464844"/><stop stop-opacity="1" stop-color="rgb(100%, 72.706604%, 32.659912%)" offset="0.472656"/><stop stop-opacity="1" stop-color="rgb(100%, 72.470093%, 32.623291%)" offset="0.480469"/><stop stop-opacity="1" stop-color="rgb(100%, 72.235107%, 32.58667%)" offset="0.488281"/><stop stop-opacity="1" stop-color="rgb(100%, 71.998596%, 32.548523%)" offset="0.496094"/><stop stop-opacity="1" stop-color="rgb(100%, 71.704102%, 32.502747%)" offset="0.503906"/><stop stop-opacity="1" stop-color="rgb(100%, 71.350098%, 32.447815%)" offset="0.515625"/><stop stop-opacity="1" stop-color="rgb(100%, 70.996094%, 32.392883%)" offset="0.527344"/><stop stop-opacity="1" stop-color="rgb(100%, 70.64209%, 32.337952%)" offset="0.539062"/><stop stop-opacity="1" stop-color="rgb(100%, 70.288086%, 32.28302%)" offset="0.550781"/><stop stop-opacity="1" stop-color="rgb(100%, 69.934082%, 32.228088%)" offset="0.5625"/><stop stop-opacity="1" stop-color="rgb(100%, 69.580078%, 32.173157%)" offset="0.574219"/><stop stop-opacity="1" stop-color="rgb(100%, 69.2276%, 32.118225%)" offset="0.585938"/><stop stop-opacity="1" stop-color="rgb(100%, 68.873596%, 32.063293%)" offset="0.597656"/><stop stop-opacity="1" stop-color="rgb(100%, 68.519592%, 32.006836%)" offset="0.609375"/><stop stop-opacity="1" stop-color="rgb(100%, 68.165588%, 31.951904%)" offset="0.621094"/><stop stop-opacity="1" stop-color="rgb(100%, 67.869568%, 31.906128%)" offset="0.632812"/><stop stop-opacity="1" stop-color="rgb(100%, 67.634583%, 31.869507%)" offset="0.640625"/><stop stop-opacity="1" stop-color="rgb(100%, 67.398071%, 31.832886%)" offset="0.648438"/><stop stop-opacity="1" stop-color="rgb(100%, 67.16156%, 31.796265%)" offset="0.65625"/><stop stop-opacity="1" stop-color="rgb(100%, 66.926575%, 31.759644%)" offset="0.664062"/><stop stop-opacity="1" stop-color="rgb(100%, 66.690063%, 31.723022%)" offset="0.671875"/><stop stop-opacity="1" stop-color="rgb(100%, 66.453552%, 31.686401%)" offset="0.679688"/><stop stop-opacity="1" stop-color="rgb(100%, 66.218567%, 31.64978%)" offset="0.6875"/><stop stop-opacity="1" stop-color="rgb(100%, 65.982056%, 31.613159%)" offset="0.695312"/><stop stop-opacity="1" stop-color="rgb(100%, 65.74707%, 31.576538%)" offset="0.703125"/><stop stop-opacity="1" stop-color="rgb(100%, 65.510559%, 31.539917%)" offset="0.710938"/><stop stop-opacity="1" stop-color="rgb(100%, 65.274048%, 31.503296%)" offset="0.71875"/><stop stop-opacity="1" stop-color="rgb(100%, 65.039062%, 31.466675%)" offset="0.726562"/><stop stop-opacity="1" stop-color="rgb(100%, 64.802551%, 31.428528%)" offset="0.734375"/><stop stop-opacity="1" stop-color="rgb(100%, 64.56604%, 31.391907%)" offset="0.742188"/><stop stop-opacity="1" stop-color="rgb(100%, 64.331055%, 31.355286%)" offset="0.75"/><stop stop-opacity="1" stop-color="rgb(100%, 64.03656%, 31.309509%)" offset="0.757812"/><stop stop-opacity="1" stop-color="rgb(100%, 63.682556%, 31.254578%)" offset="0.769531"/><stop stop-opacity="1" stop-color="rgb(100%, 63.328552%, 31.199646%)" offset="0.78125"/><stop stop-opacity="1" stop-color="rgb(100%, 62.974548%, 31.144714%)" offset="0.792969"/><stop stop-opacity="1" stop-color="rgb(100%, 62.620544%, 31.089783%)" offset="0.804688"/><stop stop-opacity="1" stop-color="rgb(100%, 62.32605%, 31.044006%)" offset="0.816406"/><stop stop-opacity="1" stop-color="rgb(100%, 62.089539%, 31.007385%)" offset="0.824219"/><stop stop-opacity="1" stop-color="rgb(100%, 61.853027%, 30.970764%)" offset="0.832031"/><stop stop-opacity="1" stop-color="rgb(100%, 61.618042%, 30.934143%)" offset="0.839844"/><stop stop-opacity="1" stop-color="rgb(100%, 61.381531%, 30.897522%)" offset="0.847656"/><stop stop-opacity="1" stop-color="rgb(100%, 61.14502%, 30.859375%)" offset="0.855469"/><stop stop-opacity="1" stop-color="rgb(100%, 60.910034%, 30.822754%)" offset="0.863281"/><stop stop-opacity="1" stop-color="rgb(100%, 60.673523%, 30.786133%)" offset="0.871094"/><stop stop-opacity="1" stop-color="rgb(100%, 60.379028%, 30.740356%)" offset="0.878906"/><stop stop-opacity="1" stop-color="rgb(100%, 60.025024%, 30.685425%)" offset="0.890625"/><stop stop-opacity="1" stop-color="rgb(100%, 59.671021%, 30.630493%)" offset="0.902344"/><stop stop-opacity="1" stop-color="rgb(100%, 59.376526%, 30.584717%)" offset="0.914062"/><stop stop-opacity="1" stop-color="rgb(100%, 59.140015%, 30.548096%)" offset="0.921875"/><stop stop-opacity="1" stop-color="rgb(100%, 58.903503%, 30.511475%)" offset="0.929688"/><stop stop-opacity="1" stop-color="rgb(100%, 58.668518%, 30.474854%)" offset="0.9375"/><stop stop-opacity="1" stop-color="rgb(100%, 58.374023%, 30.429077%)" offset="0.945312"/><stop stop-opacity="1" stop-color="rgb(100%, 58.078003%, 30.383301%)" offset="0.957031"/><stop stop-opacity="1" stop-color="rgb(100%, 57.843018%, 30.34668%)" offset="0.964844"/><stop stop-opacity="1" stop-color="rgb(100%, 57.548523%, 30.300903%)" offset="0.972656"/><stop stop-opacity="1" stop-color="rgb(100%, 57.252502%, 30.253601%)" offset="0.984375"/><stop stop-opacity="1" stop-color="rgb(100%, 57.015991%, 30.21698%)" offset="0.992188"/><stop stop-opacity="1" stop-color="rgb(100%, 56.898499%, 30.198669%)" offset="1"/></radialGradient><clipPath id="5ae2b1c505"><path d="M 48 34 L 56.914062 34 L 56.914062 39 L 48 39 Z M 48 34 " clip-rule="nonzero"/></clipPath><clipPath id="7a1c751a1e"><path d="M 48 54 L 56.914062 54 L 56.914062 57.675781 L 48 57.675781 Z M 48 54 " clip-rule="nonzero"/></clipPath><clipPath id="10336b2121"><path d="M 55 39 L 56.914062 39 L 56.914062 54 L 55 54 Z M 55 39 " clip-rule="nonzero"/></clipPath><clipPath id="1f2c326658"><path d="M 39 17.175781 L 42 17.175781 L 42 21 L 39 21 Z M 39 17.175781 " clip-rule="nonzero"/></clipPath><clipPath id="7808a27b9f"><path d="M 30 39 L 52 39 L 52 57.675781 L 30 57.675781 Z M 30 39 " clip-rule="nonzero"/></clipPath><clipPath id="254f992ffd"><path d="M 17.914062 42 L 34 42 L 34 57.675781 L 17.914062 57.675781 Z M 17.914062 42 " clip-rule="nonzero"/></clipPath></defs><g clip-path="url(#e577a15d9a)"><g clip-path="url(#601d5ddaab)"><path fill="url(#4b709be586)" d="M 1.164062 1.164062 L 1.164062 73.835938 L 73.835938 73.835938 L 73.835938 1.164062 Z M 1.164062 1.164062 " fill-rule="nonzero"/></g></g><path fill="#ffffff" d="M 51.59375 47.128906 L 51.050781 47.414062 L 51.050781 53.300781 L 54.058594 53.300781 L 54.058594 39.753906 L 51.796875 39.753906 C 51.796875 40.484375 51.722656 41.203125 51.578125 41.921875 C 51.53125 42.105469 51.554688 42.28125 51.644531 42.445312 L 52.546875 44.074219 C 52.828125 44.621094 52.875 45.1875 52.691406 45.773438 C 52.511719 46.378906 52.148438 46.828125 51.59375 47.128906 Z M 51.59375 47.128906 " fill-opacity="1" fill-rule="nonzero"/><g clip-path="url(#5ae2b1c505)"><path fill="#ffffff" d="M 56.605469 38.246094 L 54.527344 34.023438 C 53.902344 34.328125 53.242188 34.480469 52.546875 34.480469 C 51.851562 34.480469 51.191406 34.328125 50.566406 34.023438 L 48.492188 38.246094 Z M 56.605469 38.246094 " fill-opacity="1" fill-rule="nonzero"/></g><path fill="#ffffff" d="M 53.871094 32.679688 L 52.546875 29.96875 L 51.222656 32.679688 C 51.640625 32.878906 52.082031 32.976562 52.546875 32.976562 C 53.011719 32.976562 53.453125 32.878906 53.871094 32.679688 Z M 53.871094 32.679688 " fill-opacity="1" fill-rule="nonzero"/><g clip-path="url(#7a1c751a1e)"><path fill="#ffffff" d="M 48.03125 57.0625 C 48.03125 57.269531 48.105469 57.449219 48.253906 57.59375 C 48.398438 57.742188 48.578125 57.816406 48.785156 57.816406 L 56.3125 57.816406 C 56.519531 57.816406 56.695312 57.742188 56.84375 57.59375 C 56.988281 57.449219 57.0625 57.269531 57.0625 57.0625 L 57.0625 54.804688 L 48.03125 54.804688 Z M 48.03125 57.0625 " fill-opacity="1" fill-rule="nonzero"/></g><path fill="#ffffff" d="M 48.785156 49.023438 L 48.785156 50.289062 C 48.785156 50.960938 48.53125 51.519531 48.03125 51.96875 L 48.03125 53.300781 L 49.539062 53.300781 L 49.539062 48.1875 L 49.199219 48.355469 C 48.921875 48.492188 48.785156 48.714844 48.785156 49.023438 Z M 48.785156 49.023438 " fill-opacity="1" fill-rule="nonzero"/><g clip-path="url(#10336b2121)"><path fill="#ffffff" d="M 55.558594 39.753906 L 57.0625 39.753906 L 57.0625 53.300781 L 55.558594 53.300781 Z M 55.558594 39.753906 " fill-opacity="1" fill-rule="nonzero"/></g><path fill="#ffffff" d="M 20.832031 36.523438 L 22.445312 36.523438 C 22.78125 36.523438 23.015625 36.675781 23.144531 36.992188 C 23.269531 37.300781 23.214844 37.574219 22.976562 37.8125 L 21.839844 39 C 21.714844 39.125 21.652344 39.277344 21.652344 39.457031 C 21.652344 39.632812 21.714844 39.785156 21.839844 39.910156 L 23.121094 41.191406 C 23.523438 40.746094 24.023438 40.527344 24.625 40.535156 L 26.28125 40.535156 C 26.339844 40.527344 26.398438 40.527344 26.453125 40.535156 C 26.511719 40.527344 26.570312 40.527344 26.628906 40.535156 L 27.09375 40.535156 C 27.332031 40.535156 27.5625 40.574219 27.785156 40.65625 C 28.003906 40.738281 28.207031 40.859375 28.386719 41.011719 C 28.566406 41.164062 28.714844 41.347656 28.832031 41.550781 C 28.945312 41.757812 29.023438 41.980469 29.058594 42.214844 C 29.1875 42.121094 29.324219 42.046875 29.472656 41.996094 C 29.308594 41.257812 29.222656 40.507812 29.21875 39.753906 C 29.21875 39.472656 29.21875 39.203125 29.21875 38.933594 C 29.234375 38.738281 29.316406 38.574219 29.460938 38.441406 C 29.605469 38.3125 29.773438 38.246094 29.96875 38.246094 L 35.839844 38.246094 L 35.402344 37.8125 C 35.164062 37.574219 35.109375 37.300781 35.238281 36.992188 C 35.367188 36.675781 35.597656 36.523438 35.9375 36.523438 L 36.691406 36.523438 L 36.691406 34.484375 C 36.6875 34.230469 36.585938 34.03125 36.382812 33.882812 C 35.921875 33.535156 35.511719 33.136719 35.152344 32.6875 C 34.792969 32.234375 34.496094 31.746094 34.261719 31.21875 C 34.027344 30.691406 33.863281 30.144531 33.765625 29.574219 C 33.671875 29.007812 33.652344 28.4375 33.703125 27.863281 C 33.742188 27.554688 33.800781 27.253906 33.882812 26.957031 C 33.8125 26.984375 33.753906 27.023438 33.703125 27.078125 L 32.542969 28.238281 C 32.308594 28.476562 32.035156 28.53125 31.722656 28.402344 C 31.410156 28.273438 31.253906 28.042969 31.257812 27.703125 L 31.257812 26.101562 C 31.257812 25.921875 31.195312 25.769531 31.070312 25.644531 C 30.945312 25.515625 30.792969 25.453125 30.617188 25.453125 L 27.816406 25.453125 C 27.640625 25.453125 27.488281 25.515625 27.363281 25.644531 C 27.238281 25.769531 27.175781 25.921875 27.175781 26.101562 L 27.175781 27.710938 C 27.179688 28.050781 27.023438 28.28125 26.710938 28.410156 C 26.398438 28.539062 26.125 28.484375 25.890625 28.246094 L 24.703125 27.109375 C 24.574219 26.984375 24.421875 26.921875 24.246094 26.921875 C 24.070312 26.921875 23.917969 26.984375 23.789062 27.109375 L 21.839844 29.089844 C 21.714844 29.214844 21.652344 29.367188 21.652344 29.542969 C 21.652344 29.722656 21.714844 29.871094 21.839844 30 L 23 31.15625 C 23.25 31.386719 23.316406 31.660156 23.195312 31.976562 C 23.066406 32.289062 22.835938 32.445312 22.496094 32.445312 L 20.832031 32.445312 C 20.65625 32.441406 20.503906 32.503906 20.375 32.628906 C 20.25 32.753906 20.1875 32.90625 20.1875 33.085938 L 20.1875 35.882812 C 20.1875 36.0625 20.25 36.214844 20.375 36.339844 C 20.503906 36.464844 20.65625 36.527344 20.832031 36.523438 Z M 29.21875 30.941406 C 29.6875 30.941406 30.140625 31.03125 30.574219 31.210938 C 31.007812 31.390625 31.390625 31.644531 31.722656 31.976562 C 32.054688 32.308594 32.3125 32.695312 32.492188 33.128906 C 32.671875 33.5625 32.761719 34.015625 32.761719 34.484375 C 32.761719 34.953125 32.671875 35.40625 32.492188 35.839844 C 32.3125 36.273438 32.054688 36.660156 31.722656 36.992188 C 31.390625 37.324219 31.007812 37.578125 30.574219 37.757812 C 30.140625 37.9375 29.6875 38.027344 29.21875 38.027344 C 28.746094 38.027344 28.292969 37.9375 27.859375 37.757812 C 27.425781 37.578125 27.042969 37.324219 26.710938 36.992188 C 26.378906 36.660156 26.121094 36.273438 25.941406 35.839844 C 25.761719 35.40625 25.671875 34.953125 25.671875 34.484375 C 25.671875 34.015625 25.761719 33.5625 25.941406 33.128906 C 26.121094 32.695312 26.378906 32.308594 26.710938 31.976562 C 27.042969 31.644531 27.425781 31.390625 27.859375 31.210938 C 28.292969 31.03125 28.746094 30.941406 29.21875 30.941406 Z M 29.21875 30.941406 " fill-opacity="1" fill-rule="nonzero"/><path fill="#ffffff" d="M 29.21875 36.523438 C 29.488281 36.523438 29.746094 36.472656 29.996094 36.367188 C 30.246094 36.265625 30.46875 36.117188 30.660156 35.925781 C 30.851562 35.734375 30.996094 35.515625 31.101562 35.265625 C 31.203125 35.015625 31.257812 34.753906 31.257812 34.484375 C 31.257812 34.214844 31.203125 33.953125 31.101562 33.703125 C 30.996094 33.453125 30.851562 33.234375 30.660156 33.042969 C 30.46875 32.851562 30.246094 32.703125 29.996094 32.601562 C 29.746094 32.496094 29.488281 32.445312 29.21875 32.445312 C 28.945312 32.445312 28.6875 32.496094 28.4375 32.601562 C 28.1875 32.703125 27.964844 32.851562 27.773438 33.042969 C 27.582031 33.234375 27.4375 33.453125 27.332031 33.703125 C 27.230469 33.953125 27.175781 34.214844 27.175781 34.484375 C 27.175781 34.753906 27.230469 35.015625 27.332031 35.265625 C 27.4375 35.515625 27.582031 35.734375 27.773438 35.925781 C 27.964844 36.117188 28.1875 36.265625 28.4375 36.367188 C 28.6875 36.472656 28.945312 36.523438 29.21875 36.523438 Z M 29.21875 36.523438 " fill-opacity="1" fill-rule="nonzero"/><path fill="#ffffff" d="M 37.066406 32.445312 C 37.152344 32.527344 37.242188 32.601562 37.335938 32.671875 C 37.945312 33.121094 38.25 33.726562 38.25 34.484375 L 38.25 35.238281 L 42.765625 35.238281 L 42.765625 34.484375 C 42.765625 33.734375 43.066406 33.136719 43.667969 32.6875 C 44.003906 32.433594 44.308594 32.140625 44.574219 31.816406 C 44.84375 31.488281 45.066406 31.136719 45.25 30.753906 C 45.433594 30.375 45.570312 29.976562 45.65625 29.566406 C 45.742188 29.152344 45.78125 28.734375 45.769531 28.3125 C 45.753906 27.890625 45.691406 27.476562 45.582031 27.070312 C 45.46875 26.660156 45.308594 26.273438 45.101562 25.90625 C 44.898438 25.535156 44.648438 25.199219 44.363281 24.886719 C 44.074219 24.578125 43.757812 24.308594 43.402344 24.074219 C 42.738281 23.632812 42.007812 23.359375 41.214844 23.25 C 40.425781 23.140625 39.648438 23.207031 38.886719 23.449219 C 38.410156 23.601562 37.960938 23.8125 37.546875 24.089844 C 37.128906 24.367188 36.761719 24.699219 36.4375 25.082031 C 36.117188 25.464844 35.855469 25.886719 35.65625 26.347656 C 35.457031 26.804688 35.324219 27.28125 35.261719 27.777344 L 35.261719 27.980469 C 35.175781 28.972656 35.355469 29.917969 35.792969 30.8125 C 36.109375 31.441406 36.535156 31.984375 37.066406 32.445312 Z M 40.507812 24.699219 C 41.003906 24.699219 41.484375 24.796875 41.945312 24.988281 C 42.40625 25.179688 42.8125 25.449219 43.167969 25.800781 C 43.519531 26.15625 43.792969 26.5625 43.984375 27.023438 C 44.171875 27.484375 44.269531 27.964844 44.269531 28.464844 C 44.269531 28.671875 44.195312 28.847656 44.046875 28.996094 C 43.902344 29.144531 43.722656 29.214844 43.515625 29.214844 C 43.308594 29.214844 43.132812 29.144531 42.984375 28.996094 C 42.835938 28.847656 42.765625 28.671875 42.765625 28.464844 C 42.765625 28.164062 42.707031 27.875 42.59375 27.597656 C 42.476562 27.324219 42.3125 27.078125 42.101562 26.867188 C 41.890625 26.65625 41.648438 26.492188 41.371094 26.378906 C 41.09375 26.261719 40.804688 26.207031 40.507812 26.207031 C 40.296875 26.207031 40.121094 26.132812 39.972656 25.984375 C 39.828125 25.839844 39.753906 25.660156 39.753906 25.453125 C 39.753906 25.246094 39.828125 25.066406 39.972656 24.921875 C 40.121094 24.773438 40.296875 24.699219 40.507812 24.699219 Z M 40.507812 24.699219 " fill-opacity="1" fill-rule="nonzero"/><path fill="#ffffff" d="M 38.25 36.742188 L 42.765625 36.742188 L 42.765625 38.246094 L 38.25 38.246094 Z M 38.25 36.742188 " fill-opacity="1" fill-rule="nonzero"/><g clip-path="url(#1f2c326658)"><path fill="#ffffff" d="M 40.507812 20.183594 C 40.714844 20.183594 40.890625 20.113281 41.039062 19.964844 C 41.183594 19.816406 41.257812 19.640625 41.257812 19.433594 L 41.257812 17.925781 C 41.257812 17.71875 41.183594 17.542969 41.039062 17.394531 C 40.890625 17.246094 40.714844 17.175781 40.507812 17.175781 C 40.296875 17.175781 40.121094 17.246094 39.972656 17.394531 C 39.828125 17.542969 39.753906 17.71875 39.753906 17.925781 L 39.753906 19.433594 C 39.753906 19.640625 39.828125 19.816406 39.972656 19.964844 C 40.121094 20.113281 40.296875 20.183594 40.507812 20.183594 Z M 40.507812 20.183594 " fill-opacity="1" fill-rule="nonzero"/></g><path fill="#ffffff" d="M 33.589844 22.609375 C 33.734375 22.753906 33.914062 22.828125 34.121094 22.828125 C 34.328125 22.828125 34.503906 22.753906 34.652344 22.609375 C 34.796875 22.460938 34.871094 22.285156 34.871094 22.078125 C 34.871094 21.871094 34.796875 21.695312 34.652344 21.546875 L 33.589844 20.476562 C 33.441406 20.332031 33.265625 20.257812 33.054688 20.257812 C 32.847656 20.257812 32.667969 20.332031 32.519531 20.480469 C 32.375 20.625 32.300781 20.804688 32.300781 21.011719 C 32.300781 21.222656 32.375 21.398438 32.519531 21.546875 Z M 33.589844 22.609375 " fill-opacity="1" fill-rule="nonzero"/><path fill="#ffffff" d="M 46.894531 22.828125 C 47.101562 22.824219 47.277344 22.753906 47.421875 22.609375 L 48.492188 21.546875 C 48.636719 21.398438 48.710938 21.222656 48.710938 21.011719 C 48.710938 20.804688 48.636719 20.625 48.492188 20.476562 C 48.34375 20.332031 48.164062 20.257812 47.957031 20.257812 C 47.75 20.257812 47.570312 20.332031 47.421875 20.476562 L 46.359375 21.546875 C 46.214844 21.695312 46.140625 21.871094 46.140625 22.078125 C 46.140625 22.285156 46.214844 22.460938 46.359375 22.609375 C 46.507812 22.753906 46.6875 22.828125 46.894531 22.828125 Z M 46.894531 22.828125 " fill-opacity="1" fill-rule="nonzero"/><g clip-path="url(#7808a27b9f)"><path fill="#ffffff" d="M 48.527344 47.007812 C 48.84375 46.855469 49.199219 46.675781 49.539062 46.496094 L 50.882812 45.773438 C 50.945312 45.742188 50.996094 45.703125 51.042969 45.652344 C 51.136719 45.558594 51.207031 45.449219 51.246094 45.320312 C 51.308594 45.125 51.289062 44.933594 51.191406 44.75 L 51.042969 44.472656 L 50.289062 43.132812 C 50.039062 42.65625 49.964844 42.152344 50.070312 41.625 C 50.207031 41.007812 50.28125 40.382812 50.289062 39.753906 L 30.722656 39.753906 C 30.71875 40.515625 30.808594 41.269531 30.984375 42.011719 C 31.222656 42.101562 31.429688 42.238281 31.609375 42.417969 L 33.355469 44.164062 C 33.746094 44.550781 33.9375 45.019531 33.9375 45.570312 C 33.941406 45.980469 33.824219 46.355469 33.589844 46.691406 L 33.664062 46.757812 C 34 46.832031 34.296875 46.984375 34.554688 47.210938 C 34.8125 47.433594 35 47.710938 35.117188 48.03125 C 35.195312 48.152344 35.234375 48.285156 35.238281 48.429688 L 35.238281 57.0625 C 35.238281 57.269531 35.3125 57.449219 35.457031 57.59375 C 35.605469 57.742188 35.78125 57.816406 35.992188 57.816406 L 42.765625 57.816406 C 42.972656 57.816406 43.148438 57.742188 43.296875 57.59375 C 43.441406 57.449219 43.515625 57.269531 43.515625 57.0625 L 43.515625 53.300781 C 43.515625 53 43.574219 52.710938 43.6875 52.433594 C 43.804688 52.160156 43.964844 51.914062 44.175781 51.703125 C 44.390625 51.492188 44.632812 51.328125 44.910156 51.214844 C 45.1875 51.097656 45.476562 51.042969 45.773438 51.042969 L 46.527344 51.042969 C 46.734375 51.042969 46.910156 50.96875 47.058594 50.820312 C 47.207031 50.675781 47.28125 50.496094 47.28125 50.289062 L 47.28125 49.023438 C 47.28125 48.351562 47.53125 47.792969 48.03125 47.347656 C 48.179688 47.210938 48.347656 47.097656 48.527344 47.007812 Z M 48.527344 47.007812 " fill-opacity="1" fill-rule="nonzero"/></g><g clip-path="url(#254f992ffd)"><path fill="#ffffff" d="M 33.25 48.1875 L 31.796875 48.1875 C 31.464844 48.1875 31.234375 48.035156 31.105469 47.730469 C 30.976562 47.417969 31.035156 47.144531 31.273438 46.910156 L 32.296875 45.886719 C 32.386719 45.789062 32.433594 45.675781 32.429688 45.539062 C 32.433594 45.410156 32.386719 45.296875 32.296875 45.203125 L 30.542969 43.449219 C 30.445312 43.359375 30.332031 43.3125 30.199219 43.3125 C 30.066406 43.3125 29.953125 43.359375 29.855469 43.449219 L 28.839844 44.464844 C 28.605469 44.703125 28.332031 44.757812 28.019531 44.628906 C 27.714844 44.5 27.5625 44.269531 27.5625 43.9375 L 27.5625 42.492188 C 27.554688 42.238281 27.429688 42.082031 27.183594 42.027344 L 24.597656 42.027344 C 24.460938 42.023438 24.347656 42.070312 24.253906 42.164062 C 24.15625 42.261719 24.109375 42.375 24.105469 42.507812 L 24.105469 43.960938 C 24.105469 44.292969 23.953125 44.523438 23.648438 44.652344 C 23.335938 44.78125 23.0625 44.722656 22.828125 44.488281 L 21.804688 43.460938 C 21.707031 43.375 21.59375 43.328125 21.460938 43.328125 C 21.328125 43.328125 21.214844 43.375 21.117188 43.460938 L 19.367188 45.203125 C 19.273438 45.296875 19.226562 45.410156 19.230469 45.539062 C 19.226562 45.675781 19.273438 45.789062 19.367188 45.886719 L 20.390625 46.910156 C 20.628906 47.144531 20.683594 47.417969 20.554688 47.730469 C 20.425781 48.035156 20.195312 48.1875 19.863281 48.1875 L 18.410156 48.1875 C 18.277344 48.191406 18.164062 48.238281 18.070312 48.335938 C 17.976562 48.429688 17.929688 48.542969 17.929688 48.679688 L 17.929688 51.148438 C 17.929688 51.28125 17.976562 51.394531 18.070312 51.492188 C 18.164062 51.585938 18.277344 51.632812 18.410156 51.636719 L 19.863281 51.636719 C 20.195312 51.636719 20.425781 51.789062 20.554688 52.09375 C 20.683594 52.40625 20.628906 52.679688 20.390625 52.914062 L 19.367188 53.9375 C 19.273438 54.035156 19.226562 54.152344 19.230469 54.285156 C 19.226562 54.417969 19.273438 54.53125 19.367188 54.625 L 21.117188 56.378906 C 21.214844 56.464844 21.332031 56.507812 21.460938 56.507812 C 21.59375 56.507812 21.707031 56.464844 21.804688 56.378906 L 22.828125 55.355469 C 22.972656 55.207031 23.148438 55.132812 23.355469 55.128906 C 23.457031 55.128906 23.554688 55.148438 23.648438 55.1875 C 23.953125 55.316406 24.105469 55.546875 24.105469 55.878906 L 24.105469 57.332031 C 24.109375 57.46875 24.15625 57.582031 24.253906 57.675781 C 24.347656 57.769531 24.460938 57.816406 24.597656 57.816406 L 27.066406 57.816406 C 27.199219 57.816406 27.3125 57.769531 27.40625 57.675781 C 27.503906 57.582031 27.550781 57.46875 27.554688 57.332031 L 27.554688 55.878906 C 27.554688 55.546875 27.707031 55.316406 28.011719 55.1875 C 28.324219 55.0625 28.597656 55.117188 28.832031 55.355469 L 29.855469 56.378906 C 29.953125 56.46875 30.066406 56.511719 30.199219 56.511719 C 30.332031 56.511719 30.445312 56.46875 30.542969 56.378906 L 32.296875 54.625 C 32.386719 54.53125 32.433594 54.417969 32.429688 54.285156 C 32.433594 54.152344 32.386719 54.035156 32.296875 53.9375 L 31.273438 52.914062 C 31.035156 52.679688 30.976562 52.40625 31.105469 52.09375 C 31.234375 51.789062 31.464844 51.636719 31.796875 51.636719 L 33.25 51.636719 C 33.382812 51.632812 33.5 51.585938 33.59375 51.492188 C 33.6875 51.394531 33.734375 51.28125 33.734375 51.148438 L 33.734375 48.679688 C 33.734375 48.542969 33.6875 48.429688 33.59375 48.335938 C 33.5 48.238281 33.382812 48.191406 33.25 48.1875 Z M 25.832031 53.140625 C 25.402344 53.140625 24.988281 53.058594 24.59375 52.894531 C 24.199219 52.730469 23.851562 52.5 23.546875 52.195312 C 23.246094 51.894531 23.011719 51.542969 22.847656 51.148438 C 22.683594 50.753906 22.601562 50.339844 22.601562 49.914062 C 22.601562 49.484375 22.683594 49.074219 22.847656 48.675781 C 23.011719 48.28125 23.246094 47.933594 23.546875 47.628906 C 23.851562 47.328125 24.199219 47.09375 24.59375 46.929688 C 24.988281 46.765625 25.402344 46.683594 25.832031 46.683594 C 26.257812 46.683594 26.671875 46.765625 27.066406 46.929688 C 27.460938 47.09375 27.808594 47.328125 28.113281 47.628906 C 28.414062 47.933594 28.648438 48.28125 28.8125 48.675781 C 28.976562 49.074219 29.058594 49.484375 29.058594 49.914062 C 29.058594 50.339844 28.976562 50.753906 28.8125 51.148438 C 28.648438 51.542969 28.414062 51.890625 28.109375 52.195312 C 27.808594 52.496094 27.460938 52.730469 27.066406 52.894531 C 26.667969 53.058594 26.257812 53.140625 25.832031 53.140625 Z M 25.832031 53.140625 " fill-opacity="1" fill-rule="nonzero"/></g><path fill="#ffffff" d="M 25.832031 48.1875 C 25.601562 48.1875 25.382812 48.234375 25.171875 48.320312 C 24.960938 48.40625 24.773438 48.53125 24.613281 48.695312 C 24.449219 48.855469 24.324219 49.042969 24.238281 49.253906 C 24.152344 49.464844 24.105469 49.683594 24.105469 49.914062 C 24.105469 50.140625 24.152344 50.359375 24.238281 50.570312 C 24.324219 50.785156 24.449219 50.96875 24.613281 51.132812 C 24.773438 51.292969 24.960938 51.417969 25.171875 51.503906 C 25.382812 51.59375 25.601562 51.636719 25.832031 51.636719 C 26.058594 51.636719 26.277344 51.59375 26.488281 51.503906 C 26.699219 51.417969 26.886719 51.292969 27.050781 51.132812 C 27.210938 50.96875 27.335938 50.785156 27.421875 50.570312 C 27.511719 50.359375 27.554688 50.140625 27.554688 49.914062 C 27.550781 49.683594 27.507812 49.464844 27.421875 49.253906 C 27.332031 49.042969 27.207031 48.859375 27.046875 48.695312 C 26.886719 48.535156 26.699219 48.410156 26.488281 48.324219 C 26.277344 48.234375 26.058594 48.191406 25.832031 48.1875 Z M 25.832031 48.1875 " fill-opacity="1" fill-rule="nonzero"/></svg>