<svg xmlns="http://www.w3.org/2000/svg" xmlns:xlink="http://www.w3.org/1999/xlink" width="100" zoomAndPan="magnify" viewBox="0 0 75 74.999997" height="100" preserveAspectRatio="xMidYMid meet" version="1.0"><defs><clipPath id="cfb14d23f7"><path d="M 1.164062 1.164062 L 73.835938 1.164062 L 73.835938 73.835938 L 1.164062 73.835938 Z M 1.164062 1.164062 " clip-rule="nonzero"/></clipPath><clipPath id="b71230cc43"><path d="M 37.5 1.164062 C 17.429688 1.164062 1.164062 17.429688 1.164062 37.5 C 1.164062 57.570312 17.429688 73.835938 37.5 73.835938 C 57.570312 73.835938 73.835938 57.570312 73.835938 37.5 C 73.835938 17.429688 57.570312 1.164062 37.5 1.164062 Z M 37.5 1.164062 " clip-rule="nonzero"/></clipPath><linearGradient x1="-0.000000241073" gradientTransform="matrix(0.283887, 0, 0, 0.283887, 1.162501, 1.162498)" y1="128" x2="256.000006" gradientUnits="userSpaceOnUse" y2="128" id="3576cfe618"><stop stop-opacity="1" stop-color="rgb(38.798523%, 8.599854%, 39.199829%)" offset="0"/><stop stop-opacity="1" stop-color="rgb(38.728333%, 8.644104%, 39.360046%)" offset="0.0078125"/><stop stop-opacity="1" stop-color="rgb(38.587952%, 8.732605%, 39.682007%)" offset="0.015625"/><stop stop-opacity="1" stop-color="rgb(38.447571%, 8.821106%, 40.002441%)" offset="0.0234375"/><stop stop-opacity="1" stop-color="rgb(38.30719%, 8.911133%, 40.324402%)" offset="0.03125"/><stop stop-opacity="1" stop-color="rgb(38.166809%, 8.999634%, 40.646362%)" offset="0.0390625"/><stop stop-opacity="1" stop-color="rgb(38.026428%, 9.088135%, 40.968323%)" offset="0.046875"/><stop stop-opacity="1" stop-color="rgb(37.884521%, 9.178162%, 41.290283%)" offset="0.0546875"/><stop stop-opacity="1" stop-color="rgb(37.744141%, 9.266663%, 41.612244%)" offset="0.0625"/><stop stop-opacity="1" stop-color="rgb(37.60376%, 9.356689%, 41.934204%)" offset="0.0703125"/><stop stop-opacity="1" stop-color="rgb(37.463379%, 9.44519%, 42.256165%)" offset="0.078125"/><stop stop-opacity="1" stop-color="rgb(37.322998%, 9.533691%, 42.578125%)" offset="0.0859375"/><stop stop-opacity="1" stop-color="rgb(37.182617%, 9.623718%, 42.900085%)" offset="0.09375"/><stop stop-opacity="1" stop-color="rgb(37.04071%, 9.712219%, 43.222046%)" offset="0.101563"/><stop stop-opacity="1" stop-color="rgb(36.90033%, 9.80072%, 43.544006%)" offset="0.109375"/><stop stop-opacity="1" stop-color="rgb(36.759949%, 9.890747%, 43.865967%)" offset="0.117188"/><stop stop-opacity="1" stop-color="rgb(36.619568%, 9.979248%, 44.187927%)" offset="0.125"/><stop stop-opacity="1" stop-color="rgb(36.479187%, 10.067749%, 44.509888%)" offset="0.132813"/><stop stop-opacity="1" stop-color="rgb(36.338806%, 10.157776%, 44.831848%)" offset="0.140625"/><stop stop-opacity="1" stop-color="rgb(36.196899%, 10.246277%, 45.153809%)" offset="0.148438"/><stop stop-opacity="1" stop-color="rgb(36.056519%, 10.336304%, 45.475769%)" offset="0.15625"/><stop stop-opacity="1" stop-color="rgb(35.916138%, 10.424805%, 45.796204%)" offset="0.164063"/><stop stop-opacity="1" stop-color="rgb(35.775757%, 10.513306%, 46.118164%)" offset="0.171875"/><stop stop-opacity="1" stop-color="rgb(35.635376%, 10.603333%, 46.440125%)" offset="0.179688"/><stop stop-opacity="1" stop-color="rgb(35.494995%, 10.691833%, 46.762085%)" offset="0.1875"/><stop stop-opacity="1" stop-color="rgb(35.353088%, 10.780334%, 47.084045%)" offset="0.195313"/><stop stop-opacity="1" stop-color="rgb(35.212708%, 10.870361%, 47.406006%)" offset="0.203125"/><stop stop-opacity="1" stop-color="rgb(35.072327%, 10.958862%, 47.727966%)" offset="0.210938"/><stop stop-opacity="1" stop-color="rgb(34.931946%, 11.048889%, 48.049927%)" offset="0.21875"/><stop stop-opacity="1" stop-color="rgb(34.791565%, 11.13739%, 48.371887%)" offset="0.226563"/><stop stop-opacity="1" stop-color="rgb(34.651184%, 11.225891%, 48.693848%)" offset="0.234375"/><stop stop-opacity="1" stop-color="rgb(34.510803%, 11.315918%, 49.015808%)" offset="0.242188"/><stop stop-opacity="1" stop-color="rgb(34.368896%, 11.404419%, 49.337769%)" offset="0.25"/><stop stop-opacity="1" stop-color="rgb(34.228516%, 11.49292%, 49.659729%)" offset="0.257813"/><stop stop-opacity="1" stop-color="rgb(34.088135%, 11.582947%, 49.981689%)" offset="0.265625"/><stop stop-opacity="1" stop-color="rgb(33.947754%, 11.671448%, 50.30365%)" offset="0.273438"/><stop stop-opacity="1" stop-color="rgb(33.807373%, 11.759949%, 50.62561%)" offset="0.28125"/><stop stop-opacity="1" stop-color="rgb(33.666992%, 11.849976%, 50.947571%)" offset="0.289063"/><stop stop-opacity="1" stop-color="rgb(33.525085%, 11.938477%, 51.269531%)" offset="0.296875"/><stop stop-opacity="1" stop-color="rgb(33.384705%, 12.028503%, 51.589966%)" offset="0.304688"/><stop stop-opacity="1" stop-color="rgb(33.244324%, 12.117004%, 51.911926%)" offset="0.3125"/><stop stop-opacity="1" stop-color="rgb(33.103943%, 12.205505%, 52.233887%)" offset="0.320313"/><stop stop-opacity="1" stop-color="rgb(32.963562%, 12.295532%, 52.555847%)" offset="0.328125"/><stop stop-opacity="1" stop-color="rgb(32.823181%, 12.384033%, 52.877808%)" offset="0.335938"/><stop stop-opacity="1" stop-color="rgb(32.681274%, 12.472534%, 53.199768%)" offset="0.34375"/><stop stop-opacity="1" stop-color="rgb(32.540894%, 12.562561%, 53.521729%)" offset="0.351563"/><stop stop-opacity="1" stop-color="rgb(32.400513%, 12.651062%, 53.843689%)" offset="0.359375"/><stop stop-opacity="1" stop-color="rgb(32.260132%, 12.741089%, 54.165649%)" offset="0.367188"/><stop stop-opacity="1" stop-color="rgb(32.119751%, 12.82959%, 54.48761%)" offset="0.375"/><stop stop-opacity="1" stop-color="rgb(31.97937%, 12.918091%, 54.80957%)" offset="0.382812"/><stop stop-opacity="1" stop-color="rgb(31.837463%, 13.008118%, 55.131531%)" offset="0.390625"/><stop stop-opacity="1" stop-color="rgb(31.697083%, 13.096619%, 55.453491%)" offset="0.398438"/><stop stop-opacity="1" stop-color="rgb(31.556702%, 13.18512%, 55.775452%)" offset="0.40625"/><stop stop-opacity="1" stop-color="rgb(31.416321%, 13.275146%, 56.097412%)" offset="0.414062"/><stop stop-opacity="1" stop-color="rgb(31.27594%, 13.363647%, 56.419373%)" offset="0.421875"/><stop stop-opacity="1" stop-color="rgb(31.135559%, 13.452148%, 56.741333%)" offset="0.429687"/><stop stop-opacity="1" stop-color="rgb(30.995178%, 13.542175%, 57.063293%)" offset="0.4375"/><stop stop-opacity="1" stop-color="rgb(30.853271%, 13.630676%, 57.383728%)" offset="0.445312"/><stop stop-opacity="1" stop-color="rgb(30.712891%, 13.720703%, 57.705688%)" offset="0.453125"/><stop stop-opacity="1" stop-color="rgb(30.57251%, 13.809204%, 58.027649%)" offset="0.460937"/><stop stop-opacity="1" stop-color="rgb(30.432129%, 13.897705%, 58.349609%)" offset="0.46875"/><stop stop-opacity="1" stop-color="rgb(30.291748%, 13.987732%, 58.67157%)" offset="0.476562"/><stop stop-opacity="1" stop-color="rgb(30.151367%, 14.076233%, 58.99353%)" offset="0.484375"/><stop stop-opacity="1" stop-color="rgb(30.00946%, 14.164734%, 59.315491%)" offset="0.492187"/><stop stop-opacity="1" stop-color="rgb(29.86908%, 14.254761%, 59.637451%)" offset="0.5"/><stop stop-opacity="1" stop-color="rgb(29.728699%, 14.343262%, 59.959412%)" offset="0.507812"/><stop stop-opacity="1" stop-color="rgb(29.588318%, 14.433289%, 60.281372%)" offset="0.515625"/><stop stop-opacity="1" stop-color="rgb(29.447937%, 14.52179%, 60.603333%)" offset="0.523438"/><stop stop-opacity="1" stop-color="rgb(29.307556%, 14.610291%, 60.925293%)" offset="0.53125"/><stop stop-opacity="1" stop-color="rgb(29.165649%, 14.700317%, 61.247253%)" offset="0.539062"/><stop stop-opacity="1" stop-color="rgb(29.025269%, 14.788818%, 61.569214%)" offset="0.546875"/><stop stop-opacity="1" stop-color="rgb(28.884888%, 14.877319%, 61.891174%)" offset="0.554688"/><stop stop-opacity="1" stop-color="rgb(28.744507%, 14.967346%, 62.213135%)" offset="0.5625"/><stop stop-opacity="1" stop-color="rgb(28.604126%, 15.055847%, 62.535095%)" offset="0.570313"/><stop stop-opacity="1" stop-color="rgb(28.463745%, 15.144348%, 62.857056%)" offset="0.578125"/><stop stop-opacity="1" stop-color="rgb(28.321838%, 15.234375%, 63.17749%)" offset="0.585938"/><stop stop-opacity="1" stop-color="rgb(28.181458%, 15.322876%, 63.499451%)" offset="0.59375"/><stop stop-opacity="1" stop-color="rgb(28.041077%, 15.412903%, 63.821411%)" offset="0.601563"/><stop stop-opacity="1" stop-color="rgb(27.900696%, 15.501404%, 64.143372%)" offset="0.609375"/><stop stop-opacity="1" stop-color="rgb(27.760315%, 15.589905%, 64.465332%)" offset="0.617188"/><stop stop-opacity="1" stop-color="rgb(27.619934%, 15.679932%, 64.787292%)" offset="0.625"/><stop stop-opacity="1" stop-color="rgb(27.479553%, 15.768433%, 65.109253%)" offset="0.632813"/><stop stop-opacity="1" stop-color="rgb(27.337646%, 15.856934%, 65.431213%)" offset="0.640625"/><stop stop-opacity="1" stop-color="rgb(27.197266%, 15.94696%, 65.753174%)" offset="0.648438"/><stop stop-opacity="1" stop-color="rgb(27.056885%, 16.035461%, 66.075134%)" offset="0.65625"/><stop stop-opacity="1" stop-color="rgb(26.916504%, 16.125488%, 66.397095%)" offset="0.664063"/><stop stop-opacity="1" stop-color="rgb(26.776123%, 16.213989%, 66.719055%)" offset="0.671875"/><stop stop-opacity="1" stop-color="rgb(26.635742%, 16.30249%, 67.041016%)" offset="0.679688"/><stop stop-opacity="1" stop-color="rgb(26.493835%, 16.392517%, 67.362976%)" offset="0.6875"/><stop stop-opacity="1" stop-color="rgb(26.353455%, 16.481018%, 67.684937%)" offset="0.695312"/><stop stop-opacity="1" stop-color="rgb(26.213074%, 16.569519%, 68.006897%)" offset="0.703125"/><stop stop-opacity="1" stop-color="rgb(26.072693%, 16.659546%, 68.328857%)" offset="0.710938"/><stop stop-opacity="1" stop-color="rgb(25.932312%, 16.748047%, 68.650818%)" offset="0.71875"/><stop stop-opacity="1" stop-color="rgb(25.791931%, 16.836548%, 68.971252%)" offset="0.726562"/><stop stop-opacity="1" stop-color="rgb(25.650024%, 16.926575%, 69.293213%)" offset="0.734375"/><stop stop-opacity="1" stop-color="rgb(25.509644%, 17.015076%, 69.615173%)" offset="0.742188"/><stop stop-opacity="1" stop-color="rgb(25.369263%, 17.105103%, 69.937134%)" offset="0.75"/><stop stop-opacity="1" stop-color="rgb(25.228882%, 17.193604%, 70.259094%)" offset="0.757812"/><stop stop-opacity="1" stop-color="rgb(25.088501%, 17.282104%, 70.581055%)" offset="0.765625"/><stop stop-opacity="1" stop-color="rgb(24.94812%, 17.372131%, 70.903015%)" offset="0.773438"/><stop stop-opacity="1" stop-color="rgb(24.806213%, 17.460632%, 71.224976%)" offset="0.78125"/><stop stop-opacity="1" stop-color="rgb(24.665833%, 17.549133%, 71.546936%)" offset="0.789062"/><stop stop-opacity="1" stop-color="rgb(24.525452%, 17.63916%, 71.868896%)" offset="0.796875"/><stop stop-opacity="1" stop-color="rgb(24.385071%, 17.727661%, 72.190857%)" offset="0.804688"/><stop stop-opacity="1" stop-color="rgb(24.24469%, 17.817688%, 72.512817%)" offset="0.8125"/><stop stop-opacity="1" stop-color="rgb(24.104309%, 17.906189%, 72.834778%)" offset="0.820312"/><stop stop-opacity="1" stop-color="rgb(23.963928%, 17.99469%, 73.156738%)" offset="0.828125"/><stop stop-opacity="1" stop-color="rgb(23.822021%, 18.084717%, 73.478699%)" offset="0.835937"/><stop stop-opacity="1" stop-color="rgb(23.681641%, 18.173218%, 73.800659%)" offset="0.84375"/><stop stop-opacity="1" stop-color="rgb(23.54126%, 18.261719%, 74.12262%)" offset="0.851562"/><stop stop-opacity="1" stop-color="rgb(23.400879%, 18.351746%, 74.44458%)" offset="0.859375"/><stop stop-opacity="1" stop-color="rgb(23.260498%, 18.440247%, 74.765015%)" offset="0.867187"/><stop stop-opacity="1" stop-color="rgb(23.120117%, 18.528748%, 75.086975%)" offset="0.875"/><stop stop-opacity="1" stop-color="rgb(22.97821%, 18.618774%, 75.408936%)" offset="0.882812"/><stop stop-opacity="1" stop-color="rgb(22.83783%, 18.707275%, 75.730896%)" offset="0.890625"/><stop stop-opacity="1" stop-color="rgb(22.697449%, 18.797302%, 76.052856%)" offset="0.898437"/><stop stop-opacity="1" stop-color="rgb(22.557068%, 18.885803%, 76.374817%)" offset="0.90625"/><stop stop-opacity="1" stop-color="rgb(22.416687%, 18.974304%, 76.696777%)" offset="0.914062"/><stop stop-opacity="1" stop-color="rgb(22.276306%, 19.064331%, 77.018738%)" offset="0.921875"/><stop stop-opacity="1" stop-color="rgb(22.134399%, 19.152832%, 77.340698%)" offset="0.929687"/><stop stop-opacity="1" stop-color="rgb(21.994019%, 19.241333%, 77.662659%)" offset="0.9375"/><stop stop-opacity="1" stop-color="rgb(21.853638%, 19.33136%, 77.984619%)" offset="0.945312"/><stop stop-opacity="1" stop-color="rgb(21.713257%, 19.419861%, 78.30658%)" offset="0.953125"/><stop stop-opacity="1" stop-color="rgb(21.572876%, 19.508362%, 78.62854%)" offset="0.960938"/><stop stop-opacity="1" stop-color="rgb(21.432495%, 19.598389%, 78.9505%)" offset="0.96875"/><stop stop-opacity="1" stop-color="rgb(21.290588%, 19.68689%, 79.272461%)" offset="0.976562"/><stop stop-opacity="1" stop-color="rgb(21.150208%, 19.776917%, 79.594421%)" offset="0.984375"/><stop stop-opacity="1" stop-color="rgb(21.009827%, 19.865417%, 79.916382%)" offset="0.992188"/><stop stop-opacity="1" stop-color="rgb(20.869446%, 19.953918%, 80.238342%)" offset="1"/></linearGradient><clipPath id="c2e7030d40"><path d="M 14 13.710938 L 61 13.710938 L 61 60.960938 L 14 60.960938 Z M 14 13.710938 " clip-rule="nonzero"/></clipPath></defs><g clip-path="url(#cfb14d23f7)"><g clip-path="url(#b71230cc43)"><path fill="url(#3576cfe618)" d="M 1.164062 1.164062 L 1.164062 73.835938 L 73.835938 73.835938 L 73.835938 1.164062 Z M 1.164062 1.164062 " fill-rule="nonzero"/></g></g><g clip-path="url(#c2e7030d40)"><path fill="#ffffff" d="M 37.53125 52.617188 C 29.140625 52.625 22.410156 45.90625 22.390625 37.535156 C 22.363281 29.179688 29.113281 22.40625 37.484375 22.378906 C 45.828125 22.351562 52.589844 29.113281 52.601562 37.484375 C 52.613281 45.878906 45.90625 52.597656 37.53125 52.617188 Z M 56.089844 41.660156 C 56.042969 41.640625 56.003906 41.617188 55.96875 41.589844 C 56.253906 40.273438 56.402344 38.902344 56.402344 37.492188 C 56.402344 36.085938 56.246094 34.730469 55.960938 33.421875 C 56 33.394531 56.039062 33.371094 56.078125 33.355469 C 57.71875 32.433594 59.332031 31.476562 60.988281 30.511719 C 59.089844 27.230469 57.210938 23.96875 55.304688 20.664062 C 55.0625 20.796875 54.855469 20.910156 54.644531 21.03125 C 53.191406 21.867188 51.730469 22.699219 50.289062 23.550781 C 48.277344 21.695312 45.867188 20.28125 43.199219 19.4375 C 43.226562 17.746094 43.210938 16.050781 43.210938 14.359375 L 43.210938 13.722656 L 31.792969 13.722656 L 31.792969 14.421875 C 31.792969 16.09375 31.78125 17.773438 31.804688 19.453125 C 29.132812 20.296875 26.722656 21.71875 24.710938 23.550781 C 23.828125 23.027344 22.9375 22.523438 22.050781 22.007812 C 21.285156 21.570312 20.515625 21.132812 19.703125 20.664062 C 17.800781 23.964844 15.921875 27.214844 14.007812 30.519531 C 15.722656 31.511719 17.371094 32.46875 19.015625 33.410156 L 19.027344 33.421875 C 18.734375 34.742188 18.585938 36.121094 18.59375 37.535156 C 18.597656 38.941406 18.746094 40.289062 19.03125 41.601562 C 18.9375 41.65625 18.828125 41.699219 18.714844 41.769531 C 17.167969 42.691406 15.601562 43.578125 14.007812 44.492188 C 15.914062 47.796875 17.800781 51.0625 19.691406 54.355469 C 19.9375 54.222656 20.113281 54.125 20.289062 54.03125 C 21.765625 53.171875 23.238281 52.328125 24.710938 51.46875 C 26.714844 53.304688 29.128906 54.71875 31.800781 55.550781 C 31.777344 56.734375 31.792969 57.9375 31.792969 59.128906 L 31.792969 61.304688 L 43.210938 61.304688 C 43.210938 59.351562 43.222656 57.457031 43.207031 55.554688 C 45.878906 54.726562 48.285156 53.308594 50.292969 51.46875 C 51.054688 51.925781 51.832031 52.367188 52.601562 52.808594 C 53.496094 53.320312 54.386719 53.820312 55.300781 54.355469 C 57.210938 51.046875 59.089844 47.785156 60.980469 44.519531 C 60.863281 44.4375 60.765625 44.359375 60.660156 44.308594 C 59.140625 43.425781 57.625 42.519531 56.089844 41.660156 " fill-opacity="1" fill-rule="nonzero"/></g><path fill="#ffffff" d="M 40.753906 47.777344 L 40.75 47.757812 C 40.742188 47.695312 40.726562 47.632812 40.707031 47.574219 C 40.6875 47.511719 40.664062 47.457031 40.636719 47.402344 L 40.609375 47.359375 C 40.589844 47.324219 40.570312 47.285156 40.546875 47.253906 C 40.394531 47.035156 40.175781 46.878906 39.910156 46.816406 C 39.816406 46.789062 39.714844 46.773438 39.609375 46.773438 L 35.332031 46.773438 C 35.109375 46.773438 34.90625 46.835938 34.730469 46.945312 L 34.71875 46.953125 C 34.667969 46.984375 34.625 47.019531 34.582031 47.054688 L 34.5625 47.070312 C 34.371094 47.242188 34.238281 47.472656 34.195312 47.734375 L 34.191406 47.742188 C 34.183594 47.800781 34.175781 47.863281 34.175781 47.921875 L 34.175781 48.054688 C 34.175781 48.691406 34.695312 49.210938 35.332031 49.210938 L 39.609375 49.210938 C 40.25 49.210938 40.765625 48.691406 40.765625 48.054688 L 40.765625 47.929688 L 40.757812 47.855469 C 40.757812 47.828125 40.757812 47.804688 40.753906 47.777344 " fill-opacity="1" fill-rule="nonzero"/><path fill="#ffffff" d="M 41.652344 45.046875 C 41.648438 45.007812 41.648438 44.96875 41.640625 44.929688 C 41.636719 44.902344 41.625 44.878906 41.621094 44.851562 C 41.605469 44.804688 41.59375 44.753906 41.574219 44.707031 L 41.5625 44.683594 C 41.535156 44.621094 41.503906 44.5625 41.46875 44.507812 L 41.457031 44.496094 C 41.417969 44.441406 41.378906 44.390625 41.332031 44.34375 C 41.121094 44.128906 40.832031 43.996094 40.507812 43.996094 L 34.425781 43.996094 C 33.84375 43.996094 33.371094 44.425781 33.285156 44.980469 C 33.277344 45.027344 33.273438 45.074219 33.269531 45.121094 L 33.269531 45.167969 C 33.269531 45.226562 33.277344 45.289062 33.289062 45.347656 C 33.320312 45.546875 33.40625 45.730469 33.53125 45.878906 C 33.550781 45.90625 33.570312 45.929688 33.59375 45.957031 L 33.613281 45.976562 C 33.761719 46.136719 33.949219 46.242188 34.171875 46.28125 C 34.253906 46.300781 34.339844 46.3125 34.425781 46.3125 L 40.507812 46.3125 C 40.886719 46.3125 41.21875 46.125 41.429688 45.84375 L 41.464844 45.800781 L 41.476562 45.78125 C 41.554688 45.664062 41.613281 45.53125 41.640625 45.390625 L 41.644531 45.351562 C 41.652344 45.292969 41.664062 45.238281 41.664062 45.175781 L 41.664062 45.15625 C 41.664062 45.117188 41.65625 45.082031 41.652344 45.046875 " fill-opacity="1" fill-rule="nonzero"/><path fill="#ffffff" d="M 37.425781 25.816406 C 35.417969 25.820312 33.644531 26.542969 32.210938 27.96875 C 30.15625 30.015625 29.453125 32.480469 30.117188 35.3125 C 30.457031 36.757812 31.195312 37.988281 32.273438 39.007812 C 32.660156 39.371094 32.953125 39.796875 33.128906 40.296875 C 33.417969 41.101562 33.542969 41.9375 33.527344 42.796875 C 33.519531 43.339844 33.652344 43.484375 34.199219 43.488281 C 35.289062 43.488281 36.382812 43.488281 37.472656 43.488281 C 38.582031 43.488281 39.691406 43.488281 40.804688 43.488281 C 41.296875 43.484375 41.453125 43.324219 41.460938 42.824219 C 41.460938 42.695312 41.460938 42.570312 41.460938 42.445312 C 41.503906 40.96875 41.925781 39.6875 43.046875 38.613281 C 44.230469 37.484375 44.859375 36.011719 45.0625 34.378906 C 45.320312 32.277344 44.789062 30.371094 43.46875 28.71875 C 41.929688 26.789062 39.890625 25.8125 37.425781 25.816406 " fill-opacity="1" fill-rule="nonzero"/></svg>