<svg xmlns="http://www.w3.org/2000/svg" xmlns:xlink="http://www.w3.org/1999/xlink" width="100" zoomAndPan="magnify" viewBox="0 0 75 74.999997" height="100" preserveAspectRatio="xMidYMid meet" version="1.0"><defs><clipPath id="91515c39d7"><path d="M 1.164062 1.164062 L 73.835938 1.164062 L 73.835938 73.835938 L 1.164062 73.835938 Z M 1.164062 1.164062 " clip-rule="nonzero"/></clipPath><clipPath id="9994c0eabf"><path d="M 37.5 1.164062 C 17.429688 1.164062 1.164062 17.429688 1.164062 37.5 C 1.164062 57.570312 17.429688 73.835938 37.5 73.835938 C 57.570312 73.835938 73.835938 57.570312 73.835938 37.5 C 73.835938 17.429688 57.570312 1.164062 37.5 1.164062 Z M 37.5 1.164062 " clip-rule="nonzero"/></clipPath><linearGradient x1="-0.000000241073" gradientTransform="matrix(0.283887, 0, 0, 0.283887, 1.162501, 1.162498)" y1="128" x2="256.000006" gradientUnits="userSpaceOnUse" y2="128" id="f1ec048cb2"><stop stop-opacity="1" stop-color="rgb(33.699036%, 66.699219%, 0.799561%)" offset="0"/><stop stop-opacity="1" stop-color="rgb(33.802795%, 66.828918%, 0.965881%)" offset="0.0078125"/><stop stop-opacity="1" stop-color="rgb(34.011841%, 67.089844%, 1.298523%)" offset="0.015625"/><stop stop-opacity="1" stop-color="rgb(34.220886%, 67.349243%, 1.63269%)" offset="0.0234375"/><stop stop-opacity="1" stop-color="rgb(34.428406%, 67.608643%, 1.966858%)" offset="0.03125"/><stop stop-opacity="1" stop-color="rgb(34.637451%, 67.869568%, 2.2995%)" offset="0.0390625"/><stop stop-opacity="1" stop-color="rgb(34.846497%, 68.128967%, 2.633667%)" offset="0.046875"/><stop stop-opacity="1" stop-color="rgb(35.054016%, 68.389893%, 2.967834%)" offset="0.0546875"/><stop stop-opacity="1" stop-color="rgb(35.263062%, 68.649292%, 3.300476%)" offset="0.0625"/><stop stop-opacity="1" stop-color="rgb(35.472107%, 68.910217%, 3.634644%)" offset="0.0703125"/><stop stop-opacity="1" stop-color="rgb(35.679626%, 69.169617%, 3.967285%)" offset="0.078125"/><stop stop-opacity="1" stop-color="rgb(35.888672%, 69.430542%, 4.301453%)" offset="0.0859375"/><stop stop-opacity="1" stop-color="rgb(36.097717%, 69.689941%, 4.63562%)" offset="0.09375"/><stop stop-opacity="1" stop-color="rgb(36.306763%, 69.950867%, 4.968262%)" offset="0.101563"/><stop stop-opacity="1" stop-color="rgb(36.514282%, 70.210266%, 5.302429%)" offset="0.109375"/><stop stop-opacity="1" stop-color="rgb(36.723328%, 70.471191%, 5.636597%)" offset="0.117188"/><stop stop-opacity="1" stop-color="rgb(36.932373%, 70.730591%, 5.969238%)" offset="0.125"/><stop stop-opacity="1" stop-color="rgb(37.139893%, 70.991516%, 6.303406%)" offset="0.132813"/><stop stop-opacity="1" stop-color="rgb(37.348938%, 71.250916%, 6.636047%)" offset="0.140625"/><stop stop-opacity="1" stop-color="rgb(37.557983%, 71.511841%, 6.970215%)" offset="0.148438"/><stop stop-opacity="1" stop-color="rgb(37.767029%, 71.77124%, 7.304382%)" offset="0.15625"/><stop stop-opacity="1" stop-color="rgb(37.974548%, 72.032166%, 7.637024%)" offset="0.164063"/><stop stop-opacity="1" stop-color="rgb(38.183594%, 72.291565%, 7.971191%)" offset="0.171875"/><stop stop-opacity="1" stop-color="rgb(38.392639%, 72.55249%, 8.305359%)" offset="0.179688"/><stop stop-opacity="1" stop-color="rgb(38.600159%, 72.81189%, 8.638%)" offset="0.1875"/><stop stop-opacity="1" stop-color="rgb(38.809204%, 73.072815%, 8.972168%)" offset="0.195313"/><stop stop-opacity="1" stop-color="rgb(39.01825%, 73.332214%, 9.30481%)" offset="0.203125"/><stop stop-opacity="1" stop-color="rgb(39.225769%, 73.59314%, 9.638977%)" offset="0.210938"/><stop stop-opacity="1" stop-color="rgb(39.434814%, 73.852539%, 9.973145%)" offset="0.21875"/><stop stop-opacity="1" stop-color="rgb(39.64386%, 74.113464%, 10.305786%)" offset="0.226563"/><stop stop-opacity="1" stop-color="rgb(39.852905%, 74.372864%, 10.639954%)" offset="0.234375"/><stop stop-opacity="1" stop-color="rgb(40.060425%, 74.633789%, 10.974121%)" offset="0.242188"/><stop stop-opacity="1" stop-color="rgb(40.26947%, 74.893188%, 11.306763%)" offset="0.25"/><stop stop-opacity="1" stop-color="rgb(40.478516%, 75.154114%, 11.64093%)" offset="0.257813"/><stop stop-opacity="1" stop-color="rgb(40.686035%, 75.413513%, 11.973572%)" offset="0.265625"/><stop stop-opacity="1" stop-color="rgb(40.895081%, 75.674438%, 12.307739%)" offset="0.273438"/><stop stop-opacity="1" stop-color="rgb(41.104126%, 75.933838%, 12.641907%)" offset="0.28125"/><stop stop-opacity="1" stop-color="rgb(41.311646%, 76.194763%, 12.974548%)" offset="0.289063"/><stop stop-opacity="1" stop-color="rgb(41.520691%, 76.454163%, 13.308716%)" offset="0.296875"/><stop stop-opacity="1" stop-color="rgb(41.729736%, 76.715088%, 13.642883%)" offset="0.304688"/><stop stop-opacity="1" stop-color="rgb(41.938782%, 76.974487%, 13.975525%)" offset="0.3125"/><stop stop-opacity="1" stop-color="rgb(42.146301%, 77.235413%, 14.309692%)" offset="0.320313"/><stop stop-opacity="1" stop-color="rgb(42.355347%, 77.494812%, 14.642334%)" offset="0.328125"/><stop stop-opacity="1" stop-color="rgb(42.564392%, 77.755737%, 14.976501%)" offset="0.335938"/><stop stop-opacity="1" stop-color="rgb(42.771912%, 78.015137%, 15.310669%)" offset="0.34375"/><stop stop-opacity="1" stop-color="rgb(42.980957%, 78.276062%, 15.643311%)" offset="0.351563"/><stop stop-opacity="1" stop-color="rgb(43.190002%, 78.535461%, 15.977478%)" offset="0.359375"/><stop stop-opacity="1" stop-color="rgb(43.399048%, 78.796387%, 16.31012%)" offset="0.367188"/><stop stop-opacity="1" stop-color="rgb(43.606567%, 79.055786%, 16.644287%)" offset="0.375"/><stop stop-opacity="1" stop-color="rgb(43.815613%, 79.316711%, 16.978455%)" offset="0.382812"/><stop stop-opacity="1" stop-color="rgb(44.024658%, 79.576111%, 17.311096%)" offset="0.390625"/><stop stop-opacity="1" stop-color="rgb(44.232178%, 79.837036%, 17.645264%)" offset="0.398438"/><stop stop-opacity="1" stop-color="rgb(44.441223%, 80.096436%, 17.979431%)" offset="0.40625"/><stop stop-opacity="1" stop-color="rgb(44.650269%, 80.357361%, 18.312073%)" offset="0.414062"/><stop stop-opacity="1" stop-color="rgb(44.857788%, 80.61676%, 18.64624%)" offset="0.421875"/><stop stop-opacity="1" stop-color="rgb(45.066833%, 80.877686%, 18.978882%)" offset="0.429687"/><stop stop-opacity="1" stop-color="rgb(45.275879%, 81.137085%, 19.313049%)" offset="0.4375"/><stop stop-opacity="1" stop-color="rgb(45.484924%, 81.39801%, 19.647217%)" offset="0.445312"/><stop stop-opacity="1" stop-color="rgb(45.692444%, 81.65741%, 19.979858%)" offset="0.453125"/><stop stop-opacity="1" stop-color="rgb(45.901489%, 81.918335%, 20.314026%)" offset="0.460937"/><stop stop-opacity="1" stop-color="rgb(46.110535%, 82.177734%, 20.648193%)" offset="0.46875"/><stop stop-opacity="1" stop-color="rgb(46.318054%, 82.43866%, 20.980835%)" offset="0.476562"/><stop stop-opacity="1" stop-color="rgb(46.5271%, 82.698059%, 21.315002%)" offset="0.484375"/><stop stop-opacity="1" stop-color="rgb(46.736145%, 82.958984%, 21.647644%)" offset="0.492187"/><stop stop-opacity="1" stop-color="rgb(46.943665%, 83.218384%, 21.981812%)" offset="0.5"/><stop stop-opacity="1" stop-color="rgb(47.15271%, 83.479309%, 22.315979%)" offset="0.507812"/><stop stop-opacity="1" stop-color="rgb(47.361755%, 83.738708%, 22.648621%)" offset="0.515625"/><stop stop-opacity="1" stop-color="rgb(47.570801%, 83.999634%, 22.982788%)" offset="0.523438"/><stop stop-opacity="1" stop-color="rgb(47.77832%, 84.259033%, 23.316956%)" offset="0.53125"/><stop stop-opacity="1" stop-color="rgb(47.987366%, 84.519958%, 23.649597%)" offset="0.539062"/><stop stop-opacity="1" stop-color="rgb(48.196411%, 84.779358%, 23.983765%)" offset="0.546875"/><stop stop-opacity="1" stop-color="rgb(48.403931%, 85.040283%, 24.316406%)" offset="0.554688"/><stop stop-opacity="1" stop-color="rgb(48.612976%, 85.299683%, 24.650574%)" offset="0.5625"/><stop stop-opacity="1" stop-color="rgb(48.822021%, 85.560608%, 24.984741%)" offset="0.570313"/><stop stop-opacity="1" stop-color="rgb(49.031067%, 85.820007%, 25.317383%)" offset="0.578125"/><stop stop-opacity="1" stop-color="rgb(49.238586%, 86.080933%, 25.65155%)" offset="0.585938"/><stop stop-opacity="1" stop-color="rgb(49.447632%, 86.340332%, 25.985718%)" offset="0.59375"/><stop stop-opacity="1" stop-color="rgb(49.656677%, 86.601257%, 26.318359%)" offset="0.601563"/><stop stop-opacity="1" stop-color="rgb(49.864197%, 86.860657%, 26.652527%)" offset="0.609375"/><stop stop-opacity="1" stop-color="rgb(50.073242%, 87.121582%, 26.985168%)" offset="0.617188"/><stop stop-opacity="1" stop-color="rgb(50.282288%, 87.380981%, 27.319336%)" offset="0.625"/><stop stop-opacity="1" stop-color="rgb(50.489807%, 87.641907%, 27.653503%)" offset="0.632813"/><stop stop-opacity="1" stop-color="rgb(50.698853%, 87.901306%, 27.986145%)" offset="0.640625"/><stop stop-opacity="1" stop-color="rgb(50.907898%, 88.162231%, 28.320312%)" offset="0.648438"/><stop stop-opacity="1" stop-color="rgb(51.116943%, 88.421631%, 28.65448%)" offset="0.65625"/><stop stop-opacity="1" stop-color="rgb(51.324463%, 88.682556%, 28.987122%)" offset="0.664063"/><stop stop-opacity="1" stop-color="rgb(51.533508%, 88.941956%, 29.321289%)" offset="0.671875"/><stop stop-opacity="1" stop-color="rgb(51.742554%, 89.202881%, 29.653931%)" offset="0.679688"/><stop stop-opacity="1" stop-color="rgb(51.950073%, 89.46228%, 29.988098%)" offset="0.6875"/><stop stop-opacity="1" stop-color="rgb(52.159119%, 89.723206%, 30.322266%)" offset="0.695312"/><stop stop-opacity="1" stop-color="rgb(52.368164%, 89.982605%, 30.654907%)" offset="0.703125"/><stop stop-opacity="1" stop-color="rgb(52.575684%, 90.24353%, 30.989075%)" offset="0.710938"/><stop stop-opacity="1" stop-color="rgb(52.784729%, 90.50293%, 31.323242%)" offset="0.71875"/><stop stop-opacity="1" stop-color="rgb(52.993774%, 90.763855%, 31.655884%)" offset="0.726562"/><stop stop-opacity="1" stop-color="rgb(53.20282%, 91.023254%, 31.990051%)" offset="0.734375"/><stop stop-opacity="1" stop-color="rgb(53.410339%, 91.28418%, 32.322693%)" offset="0.742188"/><stop stop-opacity="1" stop-color="rgb(53.619385%, 91.543579%, 32.65686%)" offset="0.75"/><stop stop-opacity="1" stop-color="rgb(53.82843%, 91.804504%, 32.991028%)" offset="0.757812"/><stop stop-opacity="1" stop-color="rgb(54.03595%, 92.063904%, 33.323669%)" offset="0.765625"/><stop stop-opacity="1" stop-color="rgb(54.244995%, 92.324829%, 33.657837%)" offset="0.773438"/><stop stop-opacity="1" stop-color="rgb(54.454041%, 92.584229%, 33.992004%)" offset="0.78125"/><stop stop-opacity="1" stop-color="rgb(54.663086%, 92.845154%, 34.324646%)" offset="0.789062"/><stop stop-opacity="1" stop-color="rgb(54.870605%, 93.104553%, 34.658813%)" offset="0.796875"/><stop stop-opacity="1" stop-color="rgb(55.079651%, 93.365479%, 34.991455%)" offset="0.804688"/><stop stop-opacity="1" stop-color="rgb(55.288696%, 93.624878%, 35.325623%)" offset="0.8125"/><stop stop-opacity="1" stop-color="rgb(55.496216%, 93.885803%, 35.65979%)" offset="0.820312"/><stop stop-opacity="1" stop-color="rgb(55.705261%, 94.145203%, 35.992432%)" offset="0.828125"/><stop stop-opacity="1" stop-color="rgb(55.914307%, 94.406128%, 36.326599%)" offset="0.835937"/><stop stop-opacity="1" stop-color="rgb(56.121826%, 94.665527%, 36.660767%)" offset="0.84375"/><stop stop-opacity="1" stop-color="rgb(56.330872%, 94.926453%, 36.993408%)" offset="0.851562"/><stop stop-opacity="1" stop-color="rgb(56.539917%, 95.185852%, 37.327576%)" offset="0.859375"/><stop stop-opacity="1" stop-color="rgb(56.748962%, 95.446777%, 37.660217%)" offset="0.867187"/><stop stop-opacity="1" stop-color="rgb(56.956482%, 95.706177%, 37.994385%)" offset="0.875"/><stop stop-opacity="1" stop-color="rgb(57.165527%, 95.967102%, 38.328552%)" offset="0.882812"/><stop stop-opacity="1" stop-color="rgb(57.374573%, 96.226501%, 38.661194%)" offset="0.890625"/><stop stop-opacity="1" stop-color="rgb(57.582092%, 96.487427%, 38.995361%)" offset="0.898437"/><stop stop-opacity="1" stop-color="rgb(57.791138%, 96.746826%, 39.329529%)" offset="0.90625"/><stop stop-opacity="1" stop-color="rgb(58.000183%, 97.007751%, 39.66217%)" offset="0.914062"/><stop stop-opacity="1" stop-color="rgb(58.209229%, 97.267151%, 39.996338%)" offset="0.921875"/><stop stop-opacity="1" stop-color="rgb(58.416748%, 97.528076%, 40.328979%)" offset="0.929687"/><stop stop-opacity="1" stop-color="rgb(58.625793%, 97.787476%, 40.663147%)" offset="0.9375"/><stop stop-opacity="1" stop-color="rgb(58.834839%, 98.048401%, 40.997314%)" offset="0.945312"/><stop stop-opacity="1" stop-color="rgb(59.042358%, 98.3078%, 41.329956%)" offset="0.953125"/><stop stop-opacity="1" stop-color="rgb(59.251404%, 98.568726%, 41.664124%)" offset="0.960938"/><stop stop-opacity="1" stop-color="rgb(59.460449%, 98.828125%, 41.998291%)" offset="0.96875"/><stop stop-opacity="1" stop-color="rgb(59.667969%, 99.08905%, 42.330933%)" offset="0.976562"/><stop stop-opacity="1" stop-color="rgb(59.877014%, 99.34845%, 42.6651%)" offset="0.984375"/><stop stop-opacity="1" stop-color="rgb(60.08606%, 99.609375%, 42.997742%)" offset="0.992188"/><stop stop-opacity="1" stop-color="rgb(60.295105%, 99.868774%, 43.331909%)" offset="1"/></linearGradient><clipPath id="9e2859d13a"><path d="M 18.605469 15.207031 L 56.105469 15.207031 L 56.105469 59.457031 L 18.605469 59.457031 Z M 18.605469 15.207031 " clip-rule="nonzero"/></clipPath></defs><g clip-path="url(#91515c39d7)"><g clip-path="url(#9994c0eabf)"><path fill="url(#f1ec048cb2)" d="M 1.164062 1.164062 L 1.164062 73.835938 L 73.835938 73.835938 L 73.835938 1.164062 Z M 1.164062 1.164062 " fill-rule="nonzero"/></g></g><path fill="#ffffff" d="M 35.824219 52.578125 C 35.964844 52.578125 36.097656 52.554688 36.230469 52.5 C 36.359375 52.445312 36.472656 52.367188 36.574219 52.269531 C 36.671875 52.171875 36.75 52.054688 36.800781 51.925781 C 36.855469 51.796875 36.882812 51.660156 36.882812 51.519531 C 36.882812 51.378906 36.855469 51.246094 36.800781 51.113281 C 36.75 50.984375 36.671875 50.871094 36.574219 50.769531 C 36.472656 50.671875 36.359375 50.59375 36.230469 50.542969 C 36.097656 50.488281 35.964844 50.460938 35.824219 50.460938 C 35.683594 50.460938 35.546875 50.488281 35.417969 50.542969 C 35.289062 50.59375 35.175781 50.671875 35.074219 50.769531 C 34.976562 50.871094 34.898438 50.984375 34.84375 51.113281 C 34.792969 51.246094 34.765625 51.378906 34.765625 51.519531 C 34.765625 51.660156 34.792969 51.796875 34.84375 51.925781 C 34.898438 52.054688 34.976562 52.171875 35.074219 52.269531 C 35.175781 52.367188 35.289062 52.445312 35.417969 52.5 C 35.546875 52.554688 35.683594 52.578125 35.824219 52.578125 Z M 35.824219 52.578125 " fill-opacity="1" fill-rule="nonzero"/><path fill="#ffffff" d="M 33.804688 17.828125 L 37.960938 17.828125 L 37.960938 18.605469 L 33.804688 18.605469 Z M 33.804688 17.828125 " fill-opacity="1" fill-rule="nonzero"/><path fill="#ffffff" d="M 29.984375 41.941406 C 29.984375 42.1875 29.894531 42.398438 29.71875 42.574219 C 29.542969 42.75 29.332031 42.839844 29.085938 42.839844 C 28.835938 42.839844 28.625 42.75 28.449219 42.574219 C 28.277344 42.398438 28.1875 42.1875 28.1875 41.941406 C 28.1875 41.691406 28.277344 41.480469 28.449219 41.304688 C 28.625 41.132812 28.835938 41.042969 29.085938 41.042969 C 29.332031 41.042969 29.542969 41.132812 29.71875 41.304688 C 29.894531 41.480469 29.984375 41.691406 29.984375 41.941406 Z M 29.984375 41.941406 " fill-opacity="1" fill-rule="nonzero"/><path fill="#ffffff" d="M 41.996094 32.777344 L 49.761719 32.777344 L 49.761719 33.792969 L 41.996094 33.792969 Z M 41.996094 32.777344 " fill-opacity="1" fill-rule="nonzero"/><g clip-path="url(#9e2859d13a)"><path fill="#ffffff" d="M 54.539062 25.074219 L 46.679688 25.074219 L 46.679688 18.21875 C 46.679688 16.558594 45.164062 15.207031 43.296875 15.207031 L 28.332031 15.207031 C 26.46875 15.207031 24.953125 16.558594 24.953125 18.21875 L 24.953125 30.851562 C 24.820312 30.933594 24.699219 31.03125 24.585938 31.140625 C 24.582031 31.140625 24.578125 31.140625 24.574219 31.140625 C 23.3125 31.140625 22.257812 32.160156 22.007812 33.511719 L 21.113281 33.511719 L 21.074219 34.453125 L 19.089844 34.453125 L 18.621094 46.191406 L 24.953125 46.191406 L 24.953125 51.128906 C 24.953125 52.789062 26.46875 54.140625 28.332031 54.140625 L 37.285156 54.140625 C 38.046875 54.757812 38.847656 55.316406 39.6875 55.816406 L 39.6875 59.769531 L 40.46875 59.769531 L 40.46875 55.363281 L 40.269531 55.253906 C 40.257812 55.246094 39.441406 54.78125 38.558594 54.140625 L 43.296875 54.140625 C 43.902344 54.144531 44.476562 54.003906 45.011719 53.722656 C 45.089844 53.824219 45.171875 53.921875 45.257812 54.015625 L 46.425781 55.292969 L 47 54.769531 L 45.832031 53.492188 C 45.773438 53.425781 45.714844 53.359375 45.65625 53.285156 C 45.492188 53.082031 45.34375 52.867188 45.210938 52.644531 C 44.46875 51.4375 44 49.953125 43.996094 49.933594 L 43.980469 49.886719 L 43.734375 49.488281 L 43.261719 48.710938 L 42.84375 48.03125 L 42.367188 47.253906 L 38.613281 41.125 C 38.53125 40.992188 38.480469 40.847656 38.453125 40.695312 C 38.429688 40.542969 38.433594 40.390625 38.46875 40.238281 C 38.503906 40.085938 38.566406 39.945312 38.65625 39.820312 C 38.746094 39.691406 38.855469 39.585938 38.984375 39.5 L 39.292969 39.289062 C 39.617188 39.070312 39.972656 39 40.355469 39.074219 C 40.722656 39.140625 41.011719 39.328125 41.222656 39.632812 L 44.285156 44.191406 L 44.632812 44.703125 L 44.738281 44.859375 L 44.929688 44.875 C 44.972656 44.875 45.015625 44.878906 45.0625 44.882812 C 45.308594 44.902344 45.601562 44.941406 45.902344 44.996094 C 46.164062 45.039062 46.421875 45.101562 46.679688 45.175781 C 47.003906 45.273438 47.28125 45.394531 47.441406 45.535156 L 47.957031 44.949219 C 47.648438 44.679688 47.167969 44.492188 46.679688 44.367188 L 46.679688 37.179688 L 51.539062 44.332031 L 51.023438 59.757812 L 51.800781 59.78125 L 52.324219 44.105469 L 46.738281 35.882812 L 54.539062 35.882812 C 54.785156 35.882812 55.015625 35.835938 55.242188 35.742188 C 55.464844 35.648438 55.664062 35.515625 55.835938 35.34375 C 56.007812 35.171875 56.140625 34.972656 56.234375 34.75 C 56.328125 34.523438 56.375 34.289062 56.375 34.046875 L 56.375 26.910156 C 56.375 26.667969 56.328125 26.433594 56.234375 26.207031 C 56.140625 25.984375 56.007812 25.785156 55.835938 25.613281 C 55.664062 25.441406 55.464844 25.308594 55.242188 25.214844 C 55.015625 25.121094 54.785156 25.074219 54.539062 25.074219 Z M 25.730469 18.21875 C 25.730469 16.984375 26.898438 15.984375 28.332031 15.984375 L 43.296875 15.984375 C 44.734375 15.984375 45.902344 16.984375 45.902344 18.21875 L 45.902344 25.074219 L 45.0625 25.074219 L 45.0625 19.085938 L 26.425781 19.085938 L 26.425781 30.507812 C 26.335938 30.496094 26.242188 30.488281 26.148438 30.488281 C 26.007812 30.488281 25.867188 30.503906 25.730469 30.53125 Z M 29.382812 23.199219 L 29.53125 22.632812 L 29.695312 22.007812 L 38.398438 22.007812 L 38.628906 22.632812 L 38.835938 23.199219 Z M 36.910156 23.976562 L 36.910156 25.0625 C 36.910156 25.316406 36.625 25.535156 36.289062 25.535156 C 35.953125 25.535156 35.667969 25.316406 35.667969 25.0625 L 35.667969 23.976562 Z M 34.777344 23.976562 L 34.777344 25.0625 C 34.777344 25.316406 34.496094 25.535156 34.160156 25.535156 C 33.824219 25.535156 33.539062 25.316406 33.539062 25.0625 L 33.539062 23.976562 Z M 32.648438 23.976562 L 32.648438 25.0625 C 32.648438 25.316406 32.363281 25.535156 32.027344 25.535156 C 31.691406 25.535156 31.40625 25.316406 31.40625 25.0625 L 31.40625 23.976562 Z M 30.515625 23.976562 L 30.515625 25.058594 C 30.515625 25.316406 30.230469 25.535156 29.894531 25.535156 C 29.777344 25.535156 29.660156 25.507812 29.554688 25.453125 C 29.382812 25.378906 29.289062 25.246094 29.277344 25.058594 L 29.277344 23.976562 Z M 29.554688 26.382812 C 29.667969 26.40625 29.78125 26.417969 29.894531 26.417969 C 30.304688 26.421875 30.65625 26.285156 30.960938 26.015625 C 31.101562 26.144531 31.261719 26.242188 31.441406 26.308594 C 31.628906 26.382812 31.824219 26.417969 32.027344 26.417969 C 32.433594 26.421875 32.789062 26.285156 33.09375 26.015625 C 33.242188 26.144531 33.40625 26.246094 33.589844 26.3125 C 33.773438 26.382812 33.960938 26.417969 34.160156 26.417969 C 34.355469 26.417969 34.542969 26.382812 34.726562 26.3125 C 34.910156 26.246094 35.078125 26.144531 35.222656 26.015625 C 35.371094 26.144531 35.539062 26.246094 35.722656 26.316406 C 35.90625 26.382812 36.097656 26.417969 36.296875 26.417969 C 36.492188 26.417969 36.683594 26.382812 36.867188 26.308594 C 37.050781 26.238281 37.21875 26.140625 37.363281 26.007812 C 37.667969 26.285156 38.027344 26.421875 38.4375 26.417969 C 38.480469 26.417969 38.523438 26.414062 38.566406 26.410156 L 38.566406 29.132812 L 29.554688 29.132812 Z M 38.4375 25.535156 C 38.101562 25.535156 37.820312 25.316406 37.820312 25.058594 L 37.820312 23.976562 L 39.058594 23.976562 L 39.058594 25.058594 C 39.058594 25.285156 38.84375 25.476562 38.566406 25.523438 C 38.523438 25.53125 38.480469 25.535156 38.4375 25.535156 Z M 25.730469 31.332031 C 25.867188 31.289062 26.007812 31.265625 26.148438 31.265625 C 26.242188 31.265625 26.335938 31.277344 26.425781 31.292969 C 26.730469 31.359375 26.988281 31.503906 27.203125 31.726562 C 27.609375 32.152344 27.808594 32.660156 27.800781 33.25 L 27.800781 33.511719 L 27.140625 33.511719 C 26.960938 32.550781 26.378906 31.757812 25.601562 31.378906 C 25.644531 31.363281 25.6875 31.34375 25.730469 31.332031 Z M 24.5 33.25 C 24.496094 32.777344 24.628906 32.34375 24.90625 31.953125 C 25.59375 32.105469 26.152344 32.714844 26.34375 33.511719 L 24.5 33.511719 Z M 23.96875 32.039062 C 23.804688 32.425781 23.722656 32.832031 23.722656 33.25 L 23.722656 33.511719 L 22.800781 33.511719 C 22.96875 32.824219 23.410156 32.273438 23.96875 32.039062 Z M 21.824219 35.230469 L 21.855469 34.453125 L 21.859375 34.289062 L 23.722656 34.289062 L 23.722656 35.535156 C 23.722656 35.640625 23.761719 35.734375 23.835938 35.808594 C 23.914062 35.882812 24.003906 35.921875 24.113281 35.921875 C 24.21875 35.921875 24.3125 35.882812 24.386719 35.808594 C 24.460938 35.734375 24.5 35.640625 24.5 35.535156 L 24.5 34.289062 L 27.800781 34.289062 L 27.800781 35.714844 C 27.800781 35.824219 27.835938 35.914062 27.914062 35.992188 C 27.988281 36.066406 28.082031 36.105469 28.1875 36.105469 C 28.296875 36.105469 28.386719 36.066406 28.464844 35.992188 C 28.539062 35.914062 28.578125 35.824219 28.578125 35.714844 L 28.578125 34.289062 L 30.324219 34.289062 L 30.921875 43.511719 L 21.492188 43.511719 Z M 19.429688 45.414062 L 19.835938 35.230469 L 21.042969 35.230469 L 20.683594 44.289062 L 29.769531 44.289062 L 29.839844 45.414062 Z M 42.824219 49.488281 L 43.265625 50.210938 C 43.355469 50.492188 43.824219 51.890625 44.566406 53.082031 C 44.164062 53.269531 43.742188 53.367188 43.296875 53.363281 L 28.332031 53.363281 C 26.898438 53.363281 25.730469 52.363281 25.730469 51.128906 L 25.730469 49.488281 Z M 42.347656 48.710938 L 25.730469 48.710938 L 25.730469 46.191406 L 26.425781 46.191406 L 26.425781 48.03125 L 41.929688 48.03125 Z M 45.902344 44.203125 C 45.601562 44.15625 45.34375 44.128906 45.171875 44.113281 L 45.0625 43.949219 L 45.0625 35.882812 L 45.902344 35.882812 Z M 55.597656 34.046875 C 55.597656 34.1875 55.570312 34.320312 55.515625 34.449219 C 55.460938 34.582031 55.386719 34.695312 55.285156 34.792969 C 55.1875 34.894531 55.074219 34.96875 54.945312 35.023438 C 54.816406 35.078125 54.679688 35.105469 54.539062 35.105469 L 42.019531 35.105469 C 41.878906 35.105469 41.746094 35.078125 41.617188 35.023438 C 41.488281 34.96875 41.371094 34.894531 41.273438 34.792969 C 41.175781 34.695312 41.097656 34.582031 41.042969 34.449219 C 40.992188 34.320312 40.964844 34.1875 40.964844 34.046875 L 40.964844 31.625 L 55.597656 31.625 Z M 55.597656 30.847656 L 40.964844 30.847656 L 40.964844 26.910156 C 40.964844 26.769531 40.992188 26.636719 41.042969 26.503906 C 41.097656 26.375 41.175781 26.261719 41.273438 26.164062 C 41.371094 26.0625 41.488281 25.988281 41.617188 25.933594 C 41.746094 25.878906 41.878906 25.851562 42.019531 25.851562 L 54.539062 25.851562 C 54.679688 25.851562 54.816406 25.878906 54.945312 25.933594 C 55.074219 25.988281 55.1875 26.0625 55.285156 26.164062 C 55.386719 26.261719 55.460938 26.375 55.515625 26.503906 C 55.570312 26.636719 55.597656 26.769531 55.597656 26.910156 Z M 55.597656 30.847656 " fill-opacity="1" fill-rule="nonzero"/></g><path fill="#ffffff" d="M 44.410156 26.75 L 42.855469 26.75 C 42.71875 26.75 42.589844 26.777344 42.464844 26.828125 C 42.339844 26.878906 42.230469 26.953125 42.132812 27.050781 C 42.039062 27.144531 41.964844 27.257812 41.914062 27.378906 C 41.859375 27.503906 41.835938 27.636719 41.835938 27.769531 L 41.835938 29.328125 C 41.835938 29.460938 41.859375 29.589844 41.914062 29.714844 C 41.964844 29.839844 42.039062 29.953125 42.132812 30.046875 C 42.230469 30.144531 42.339844 30.214844 42.464844 30.269531 C 42.589844 30.320312 42.71875 30.347656 42.855469 30.347656 L 44.410156 30.347656 C 44.546875 30.347656 44.675781 30.320312 44.800781 30.269531 C 44.925781 30.214844 45.035156 30.144531 45.132812 30.046875 C 45.226562 29.953125 45.300781 29.839844 45.351562 29.714844 C 45.402344 29.589844 45.429688 29.460938 45.429688 29.328125 L 45.429688 27.769531 C 45.429688 27.636719 45.402344 27.503906 45.351562 27.378906 C 45.300781 27.257812 45.226562 27.144531 45.132812 27.050781 C 45.035156 26.953125 44.925781 26.878906 44.800781 26.828125 C 44.675781 26.777344 44.546875 26.75 44.410156 26.75 Z M 44.652344 29.328125 C 44.652344 29.488281 44.570312 29.570312 44.410156 29.570312 L 42.855469 29.570312 C 42.691406 29.570312 42.613281 29.488281 42.613281 29.328125 L 42.613281 27.769531 C 42.613281 27.609375 42.691406 27.527344 42.855469 27.527344 L 44.410156 27.527344 C 44.570312 27.527344 44.652344 27.609375 44.652344 27.769531 Z M 44.652344 29.328125 " fill-opacity="1" fill-rule="nonzero"/><path fill="#ffffff" d="M 49.914062 29.664062 L 50.683594 29.664062 L 50.683594 30.433594 L 49.914062 30.433594 Z M 49.914062 29.664062 " fill-opacity="1" fill-rule="nonzero"/><path fill="#ffffff" d="M 51.953125 29.664062 L 52.722656 29.664062 L 52.722656 30.433594 L 51.953125 30.433594 Z M 51.953125 29.664062 " fill-opacity="1" fill-rule="nonzero"/><path fill="#ffffff" d="M 52.976562 29.664062 L 53.746094 29.664062 L 53.746094 30.433594 L 52.976562 30.433594 Z M 52.976562 29.664062 " fill-opacity="1" fill-rule="nonzero"/><path fill="#ffffff" d="M 53.996094 29.664062 L 54.765625 29.664062 L 54.765625 30.433594 L 53.996094 30.433594 Z M 53.996094 29.664062 " fill-opacity="1" fill-rule="nonzero"/><path fill="#ffffff" d="M 50.933594 29.664062 L 51.703125 29.664062 L 51.703125 30.433594 L 50.933594 30.433594 Z M 50.933594 29.664062 " fill-opacity="1" fill-rule="nonzero"/><path fill="#ffffff" d="M 52.148438 34.472656 C 52.441406 34.472656 52.703125 34.378906 52.929688 34.1875 C 53.046875 34.292969 53.175781 34.371094 53.324219 34.425781 C 53.472656 34.480469 53.621094 34.503906 53.78125 34.5 C 53.9375 34.496094 54.085938 34.464844 54.230469 34.402344 C 54.375 34.339844 54.5 34.25 54.609375 34.140625 C 54.722656 34.027344 54.804688 33.902344 54.867188 33.757812 C 54.929688 33.613281 54.960938 33.460938 54.960938 33.304688 C 54.964844 33.148438 54.9375 32.996094 54.882812 32.851562 C 54.828125 32.703125 54.746094 32.574219 54.640625 32.460938 C 54.535156 32.34375 54.410156 32.253906 54.269531 32.1875 C 54.128906 32.117188 53.976562 32.078125 53.820312 32.070312 C 53.664062 32.058594 53.511719 32.082031 53.363281 32.128906 C 53.214844 32.179688 53.082031 32.253906 52.960938 32.355469 C 52.8125 32.21875 52.640625 32.128906 52.449219 32.078125 C 52.253906 32.027344 52.058594 32.027344 51.863281 32.074219 C 51.667969 32.121094 51.496094 32.210938 51.34375 32.339844 C 51.195312 32.472656 51.082031 32.632812 51.011719 32.820312 C 50.9375 33.007812 50.914062 33.199219 50.9375 33.398438 C 50.960938 33.597656 51.03125 33.78125 51.144531 33.945312 C 51.257812 34.109375 51.402344 34.242188 51.582031 34.332031 C 51.757812 34.425781 51.945312 34.472656 52.148438 34.472656 Z M 53.351562 33.089844 C 53.414062 32.964844 53.515625 32.886719 53.652344 32.855469 C 53.792969 32.828125 53.914062 32.859375 54.023438 32.949219 C 54.132812 33.039062 54.1875 33.152344 54.183594 33.292969 C 54.179688 33.433594 54.125 33.546875 54.011719 33.632812 C 53.898438 33.71875 53.773438 33.746094 53.636719 33.710938 C 53.5 33.675781 53.402344 33.59375 53.34375 33.464844 C 53.359375 33.398438 53.363281 33.328125 53.363281 33.257812 C 53.363281 33.199219 53.359375 33.144531 53.351562 33.089844 Z M 52.148438 32.816406 C 52.335938 32.816406 52.46875 32.902344 52.546875 33.074219 C 52.523438 33.199219 52.519531 33.324219 52.539062 33.449219 C 52.492188 33.546875 52.417969 33.617188 52.316406 33.660156 C 52.21875 33.703125 52.117188 33.707031 52.015625 33.671875 C 51.910156 33.640625 51.832031 33.578125 51.773438 33.488281 C 51.714844 33.394531 51.695312 33.292969 51.710938 33.1875 C 51.730469 33.082031 51.777344 32.992188 51.859375 32.921875 C 51.945312 32.851562 52.039062 32.816406 52.148438 32.816406 Z M 52.148438 32.816406 " fill-opacity="1" fill-rule="nonzero"/></svg>