<svg xmlns="http://www.w3.org/2000/svg" xmlns:xlink="http://www.w3.org/1999/xlink" width="100" zoomAndPan="magnify" viewBox="0 0 75 74.999997" height="100" preserveAspectRatio="xMidYMid meet" version="1.0"><defs><clipPath id="542604587d"><path d="M 1.164062 1.164062 L 73.835938 1.164062 L 73.835938 73.835938 L 1.164062 73.835938 Z M 1.164062 1.164062 " clip-rule="nonzero"/></clipPath><clipPath id="437795707d"><path d="M 37.5 1.164062 C 17.429688 1.164062 1.164062 17.429688 1.164062 37.5 C 1.164062 57.570312 17.429688 73.835938 37.5 73.835938 C 57.570312 73.835938 73.835938 57.570312 73.835938 37.5 C 73.835938 17.429688 57.570312 1.164062 37.5 1.164062 Z M 37.5 1.164062 " clip-rule="nonzero"/></clipPath><linearGradient x1="-0.000000241073" gradientTransform="matrix(0.283887, 0, 0, 0.283887, 1.162501, 1.162498)" y1="128" x2="256.000006" gradientUnits="userSpaceOnUse" y2="128" id="c96abfcaca"><stop stop-opacity="1" stop-color="rgb(100%, 19.198608%, 19.198608%)" offset="0"/><stop stop-opacity="1" stop-color="rgb(100%, 19.345093%, 19.241333%)" offset="0.0078125"/><stop stop-opacity="1" stop-color="rgb(100%, 19.639587%, 19.328308%)" offset="0.015625"/><stop stop-opacity="1" stop-color="rgb(100%, 19.934082%, 19.413757%)" offset="0.0234375"/><stop stop-opacity="1" stop-color="rgb(100%, 20.230103%, 19.499207%)" offset="0.03125"/><stop stop-opacity="1" stop-color="rgb(100%, 20.524597%, 19.586182%)" offset="0.0390625"/><stop stop-opacity="1" stop-color="rgb(100%, 20.819092%, 19.671631%)" offset="0.046875"/><stop stop-opacity="1" stop-color="rgb(100%, 21.113586%, 19.75708%)" offset="0.0546875"/><stop stop-opacity="1" stop-color="rgb(100%, 21.408081%, 19.844055%)" offset="0.0625"/><stop stop-opacity="1" stop-color="rgb(100%, 21.702576%, 19.929504%)" offset="0.0703125"/><stop stop-opacity="1" stop-color="rgb(100%, 21.99707%, 20.014954%)" offset="0.078125"/><stop stop-opacity="1" stop-color="rgb(100%, 22.291565%, 20.101929%)" offset="0.0859375"/><stop stop-opacity="1" stop-color="rgb(100%, 22.58606%, 20.187378%)" offset="0.09375"/><stop stop-opacity="1" stop-color="rgb(100%, 22.880554%, 20.272827%)" offset="0.101563"/><stop stop-opacity="1" stop-color="rgb(100%, 23.175049%, 20.359802%)" offset="0.109375"/><stop stop-opacity="1" stop-color="rgb(100%, 23.469543%, 20.445251%)" offset="0.117188"/><stop stop-opacity="1" stop-color="rgb(100%, 23.764038%, 20.530701%)" offset="0.125"/><stop stop-opacity="1" stop-color="rgb(100%, 24.058533%, 20.617676%)" offset="0.132813"/><stop stop-opacity="1" stop-color="rgb(100%, 24.353027%, 20.703125%)" offset="0.140625"/><stop stop-opacity="1" stop-color="rgb(100%, 24.647522%, 20.788574%)" offset="0.148438"/><stop stop-opacity="1" stop-color="rgb(100%, 24.942017%, 20.874023%)" offset="0.15625"/><stop stop-opacity="1" stop-color="rgb(100%, 25.236511%, 20.960999%)" offset="0.164063"/><stop stop-opacity="1" stop-color="rgb(100%, 25.531006%, 21.046448%)" offset="0.171875"/><stop stop-opacity="1" stop-color="rgb(100%, 25.8255%, 21.131897%)" offset="0.179688"/><stop stop-opacity="1" stop-color="rgb(100%, 26.119995%, 21.218872%)" offset="0.1875"/><stop stop-opacity="1" stop-color="rgb(100%, 26.41449%, 21.304321%)" offset="0.195313"/><stop stop-opacity="1" stop-color="rgb(100%, 26.708984%, 21.389771%)" offset="0.203125"/><stop stop-opacity="1" stop-color="rgb(100%, 27.003479%, 21.476746%)" offset="0.210938"/><stop stop-opacity="1" stop-color="rgb(100%, 27.297974%, 21.562195%)" offset="0.21875"/><stop stop-opacity="1" stop-color="rgb(100%, 27.592468%, 21.647644%)" offset="0.226563"/><stop stop-opacity="1" stop-color="rgb(100%, 27.886963%, 21.734619%)" offset="0.234375"/><stop stop-opacity="1" stop-color="rgb(100%, 28.181458%, 21.820068%)" offset="0.242188"/><stop stop-opacity="1" stop-color="rgb(100%, 28.475952%, 21.905518%)" offset="0.25"/><stop stop-opacity="1" stop-color="rgb(100%, 28.770447%, 21.992493%)" offset="0.257813"/><stop stop-opacity="1" stop-color="rgb(100%, 29.064941%, 22.077942%)" offset="0.265625"/><stop stop-opacity="1" stop-color="rgb(100%, 29.359436%, 22.163391%)" offset="0.273438"/><stop stop-opacity="1" stop-color="rgb(100%, 29.653931%, 22.250366%)" offset="0.28125"/><stop stop-opacity="1" stop-color="rgb(100%, 29.948425%, 22.335815%)" offset="0.289063"/><stop stop-opacity="1" stop-color="rgb(100%, 30.24292%, 22.421265%)" offset="0.296875"/><stop stop-opacity="1" stop-color="rgb(100%, 30.537415%, 22.50824%)" offset="0.304688"/><stop stop-opacity="1" stop-color="rgb(100%, 30.831909%, 22.593689%)" offset="0.3125"/><stop stop-opacity="1" stop-color="rgb(100%, 31.126404%, 22.679138%)" offset="0.320313"/><stop stop-opacity="1" stop-color="rgb(100%, 31.420898%, 22.766113%)" offset="0.328125"/><stop stop-opacity="1" stop-color="rgb(100%, 31.715393%, 22.851562%)" offset="0.335938"/><stop stop-opacity="1" stop-color="rgb(100%, 32.009888%, 22.937012%)" offset="0.34375"/><stop stop-opacity="1" stop-color="rgb(100%, 32.304382%, 23.022461%)" offset="0.351563"/><stop stop-opacity="1" stop-color="rgb(100%, 32.600403%, 23.109436%)" offset="0.359375"/><stop stop-opacity="1" stop-color="rgb(100%, 32.894897%, 23.194885%)" offset="0.367188"/><stop stop-opacity="1" stop-color="rgb(100%, 33.189392%, 23.280334%)" offset="0.375"/><stop stop-opacity="1" stop-color="rgb(100%, 33.483887%, 23.36731%)" offset="0.382812"/><stop stop-opacity="1" stop-color="rgb(100%, 33.778381%, 23.452759%)" offset="0.390625"/><stop stop-opacity="1" stop-color="rgb(100%, 34.072876%, 23.538208%)" offset="0.398438"/><stop stop-opacity="1" stop-color="rgb(100%, 34.367371%, 23.625183%)" offset="0.40625"/><stop stop-opacity="1" stop-color="rgb(100%, 34.661865%, 23.710632%)" offset="0.414062"/><stop stop-opacity="1" stop-color="rgb(100%, 34.95636%, 23.796082%)" offset="0.421875"/><stop stop-opacity="1" stop-color="rgb(100%, 35.250854%, 23.883057%)" offset="0.429687"/><stop stop-opacity="1" stop-color="rgb(100%, 35.545349%, 23.968506%)" offset="0.4375"/><stop stop-opacity="1" stop-color="rgb(100%, 35.839844%, 24.053955%)" offset="0.445312"/><stop stop-opacity="1" stop-color="rgb(100%, 36.134338%, 24.14093%)" offset="0.453125"/><stop stop-opacity="1" stop-color="rgb(100%, 36.428833%, 24.226379%)" offset="0.460937"/><stop stop-opacity="1" stop-color="rgb(100%, 36.723328%, 24.311829%)" offset="0.46875"/><stop stop-opacity="1" stop-color="rgb(100%, 37.017822%, 24.398804%)" offset="0.476562"/><stop stop-opacity="1" stop-color="rgb(100%, 37.312317%, 24.484253%)" offset="0.484375"/><stop stop-opacity="1" stop-color="rgb(100%, 37.606812%, 24.569702%)" offset="0.492187"/><stop stop-opacity="1" stop-color="rgb(100%, 37.901306%, 24.656677%)" offset="0.5"/><stop stop-opacity="1" stop-color="rgb(100%, 38.195801%, 24.742126%)" offset="0.507812"/><stop stop-opacity="1" stop-color="rgb(100%, 38.490295%, 24.827576%)" offset="0.515625"/><stop stop-opacity="1" stop-color="rgb(100%, 38.78479%, 24.914551%)" offset="0.523438"/><stop stop-opacity="1" stop-color="rgb(100%, 39.079285%, 25%)" offset="0.53125"/><stop stop-opacity="1" stop-color="rgb(100%, 39.373779%, 25.085449%)" offset="0.539062"/><stop stop-opacity="1" stop-color="rgb(100%, 39.668274%, 25.170898%)" offset="0.546875"/><stop stop-opacity="1" stop-color="rgb(100%, 39.962769%, 25.257874%)" offset="0.554688"/><stop stop-opacity="1" stop-color="rgb(100%, 40.257263%, 25.343323%)" offset="0.5625"/><stop stop-opacity="1" stop-color="rgb(100%, 40.551758%, 25.428772%)" offset="0.570313"/><stop stop-opacity="1" stop-color="rgb(100%, 40.846252%, 25.515747%)" offset="0.578125"/><stop stop-opacity="1" stop-color="rgb(100%, 41.140747%, 25.601196%)" offset="0.585938"/><stop stop-opacity="1" stop-color="rgb(100%, 41.435242%, 25.686646%)" offset="0.59375"/><stop stop-opacity="1" stop-color="rgb(100%, 41.729736%, 25.773621%)" offset="0.601563"/><stop stop-opacity="1" stop-color="rgb(100%, 42.024231%, 25.85907%)" offset="0.609375"/><stop stop-opacity="1" stop-color="rgb(100%, 42.318726%, 25.944519%)" offset="0.617188"/><stop stop-opacity="1" stop-color="rgb(100%, 42.61322%, 26.031494%)" offset="0.625"/><stop stop-opacity="1" stop-color="rgb(100%, 42.907715%, 26.116943%)" offset="0.632813"/><stop stop-opacity="1" stop-color="rgb(100%, 43.202209%, 26.202393%)" offset="0.640625"/><stop stop-opacity="1" stop-color="rgb(100%, 43.496704%, 26.289368%)" offset="0.648438"/><stop stop-opacity="1" stop-color="rgb(100%, 43.791199%, 26.374817%)" offset="0.65625"/><stop stop-opacity="1" stop-color="rgb(100%, 44.085693%, 26.460266%)" offset="0.664063"/><stop stop-opacity="1" stop-color="rgb(100%, 44.380188%, 26.547241%)" offset="0.671875"/><stop stop-opacity="1" stop-color="rgb(100%, 44.676208%, 26.63269%)" offset="0.679688"/><stop stop-opacity="1" stop-color="rgb(100%, 44.970703%, 26.71814%)" offset="0.6875"/><stop stop-opacity="1" stop-color="rgb(100%, 45.265198%, 26.805115%)" offset="0.695312"/><stop stop-opacity="1" stop-color="rgb(100%, 45.559692%, 26.890564%)" offset="0.703125"/><stop stop-opacity="1" stop-color="rgb(100%, 45.854187%, 26.976013%)" offset="0.710938"/><stop stop-opacity="1" stop-color="rgb(100%, 46.148682%, 27.062988%)" offset="0.71875"/><stop stop-opacity="1" stop-color="rgb(100%, 46.443176%, 27.148438%)" offset="0.726562"/><stop stop-opacity="1" stop-color="rgb(100%, 46.737671%, 27.233887%)" offset="0.734375"/><stop stop-opacity="1" stop-color="rgb(100%, 47.032166%, 27.319336%)" offset="0.742188"/><stop stop-opacity="1" stop-color="rgb(100%, 47.32666%, 27.406311%)" offset="0.75"/><stop stop-opacity="1" stop-color="rgb(100%, 47.621155%, 27.49176%)" offset="0.757812"/><stop stop-opacity="1" stop-color="rgb(100%, 47.915649%, 27.577209%)" offset="0.765625"/><stop stop-opacity="1" stop-color="rgb(100%, 48.210144%, 27.664185%)" offset="0.773438"/><stop stop-opacity="1" stop-color="rgb(100%, 48.504639%, 27.749634%)" offset="0.78125"/><stop stop-opacity="1" stop-color="rgb(100%, 48.799133%, 27.835083%)" offset="0.789062"/><stop stop-opacity="1" stop-color="rgb(100%, 49.093628%, 27.922058%)" offset="0.796875"/><stop stop-opacity="1" stop-color="rgb(100%, 49.388123%, 28.007507%)" offset="0.804688"/><stop stop-opacity="1" stop-color="rgb(100%, 49.682617%, 28.092957%)" offset="0.8125"/><stop stop-opacity="1" stop-color="rgb(100%, 49.977112%, 28.179932%)" offset="0.820312"/><stop stop-opacity="1" stop-color="rgb(100%, 50.271606%, 28.265381%)" offset="0.828125"/><stop stop-opacity="1" stop-color="rgb(100%, 50.566101%, 28.35083%)" offset="0.835937"/><stop stop-opacity="1" stop-color="rgb(100%, 50.860596%, 28.437805%)" offset="0.84375"/><stop stop-opacity="1" stop-color="rgb(100%, 51.15509%, 28.523254%)" offset="0.851562"/><stop stop-opacity="1" stop-color="rgb(100%, 51.449585%, 28.608704%)" offset="0.859375"/><stop stop-opacity="1" stop-color="rgb(100%, 51.74408%, 28.695679%)" offset="0.867187"/><stop stop-opacity="1" stop-color="rgb(100%, 52.038574%, 28.781128%)" offset="0.875"/><stop stop-opacity="1" stop-color="rgb(100%, 52.333069%, 28.866577%)" offset="0.882812"/><stop stop-opacity="1" stop-color="rgb(100%, 52.627563%, 28.953552%)" offset="0.890625"/><stop stop-opacity="1" stop-color="rgb(100%, 52.922058%, 29.039001%)" offset="0.898437"/><stop stop-opacity="1" stop-color="rgb(100%, 53.216553%, 29.124451%)" offset="0.90625"/><stop stop-opacity="1" stop-color="rgb(100%, 53.511047%, 29.211426%)" offset="0.914062"/><stop stop-opacity="1" stop-color="rgb(100%, 53.805542%, 29.296875%)" offset="0.921875"/><stop stop-opacity="1" stop-color="rgb(100%, 54.100037%, 29.382324%)" offset="0.929687"/><stop stop-opacity="1" stop-color="rgb(100%, 54.394531%, 29.467773%)" offset="0.9375"/><stop stop-opacity="1" stop-color="rgb(100%, 54.689026%, 29.554749%)" offset="0.945312"/><stop stop-opacity="1" stop-color="rgb(100%, 54.983521%, 29.640198%)" offset="0.953125"/><stop stop-opacity="1" stop-color="rgb(100%, 55.278015%, 29.725647%)" offset="0.960938"/><stop stop-opacity="1" stop-color="rgb(100%, 55.57251%, 29.812622%)" offset="0.96875"/><stop stop-opacity="1" stop-color="rgb(100%, 55.867004%, 29.898071%)" offset="0.976562"/><stop stop-opacity="1" stop-color="rgb(100%, 56.161499%, 29.983521%)" offset="0.984375"/><stop stop-opacity="1" stop-color="rgb(100%, 56.455994%, 30.070496%)" offset="0.992188"/><stop stop-opacity="1" stop-color="rgb(100%, 56.750488%, 30.155945%)" offset="1"/></linearGradient><clipPath id="ed4a68fa5c"><path d="M 18 18 L 56.960938 18 L 56.960938 56.960938 L 18 56.960938 Z M 18 18 " clip-rule="nonzero"/></clipPath></defs><g clip-path="url(#542604587d)"><g clip-path="url(#437795707d)"><path fill="url(#c96abfcaca)" d="M 1.164062 1.164062 L 1.164062 73.835938 L 73.835938 73.835938 L 73.835938 1.164062 Z M 1.164062 1.164062 " fill-rule="nonzero"/></g></g><g clip-path="url(#ed4a68fa5c)"><path fill="#ffffff" d="M 18.222656 31.675781 L 18.222656 21.324219 C 18.222656 20.898438 18.304688 20.484375 18.46875 20.089844 C 18.632812 19.691406 18.867188 19.34375 19.167969 19.039062 C 19.472656 18.738281 19.824219 18.503906 20.21875 18.339844 C 20.613281 18.175781 21.027344 18.09375 21.457031 18.09375 L 36.980469 18.09375 C 37.410156 18.09375 37.820312 18.175781 38.21875 18.339844 C 38.613281 18.503906 38.960938 18.738281 39.265625 19.039062 C 39.570312 19.34375 39.804688 19.691406 39.96875 20.089844 C 40.132812 20.484375 40.214844 20.898438 40.214844 21.324219 L 40.214844 21.972656 C 40.214844 22.152344 40.152344 22.304688 40.023438 22.429688 C 39.898438 22.558594 39.746094 22.621094 39.566406 22.621094 C 39.390625 22.621094 39.238281 22.558594 39.109375 22.429688 C 38.984375 22.304688 38.921875 22.152344 38.921875 21.972656 L 38.921875 21.324219 C 38.921875 21.070312 38.871094 20.820312 38.773438 20.582031 C 38.675781 20.347656 38.535156 20.136719 38.351562 19.953125 C 38.167969 19.773438 37.960938 19.632812 37.722656 19.535156 C 37.484375 19.433594 37.238281 19.386719 36.980469 19.386719 L 21.457031 19.386719 C 21.199219 19.386719 20.949219 19.433594 20.714844 19.535156 C 20.476562 19.632812 20.265625 19.773438 20.082031 19.953125 C 19.902344 20.136719 19.761719 20.347656 19.664062 20.582031 C 19.566406 20.820312 19.515625 21.070312 19.515625 21.324219 L 19.515625 31.675781 C 19.515625 31.933594 19.566406 32.179688 19.664062 32.417969 C 19.761719 32.65625 19.902344 32.867188 20.082031 33.046875 C 20.265625 33.230469 20.476562 33.371094 20.714844 33.46875 C 20.949219 33.566406 21.199219 33.617188 21.457031 33.617188 L 23.394531 33.617188 C 23.574219 33.617188 23.726562 33.679688 23.851562 33.804688 L 27.46875 37.417969 C 27.554688 37.492188 27.648438 37.507812 27.753906 37.464844 C 27.859375 37.421875 27.914062 37.34375 27.925781 37.230469 L 27.925781 34.261719 C 27.925781 34.085938 27.988281 33.933594 28.113281 33.804688 C 28.238281 33.679688 28.390625 33.617188 28.570312 33.617188 L 33.097656 33.617188 C 33.277344 33.617188 33.429688 33.679688 33.554688 33.804688 C 33.683594 33.933594 33.746094 34.085938 33.746094 34.261719 C 33.746094 34.441406 33.683594 34.59375 33.554688 34.722656 C 33.429688 34.847656 33.277344 34.910156 33.097656 34.910156 L 29.21875 34.910156 L 29.21875 37.230469 C 29.21875 37.546875 29.128906 37.835938 28.953125 38.097656 C 28.777344 38.359375 28.546875 38.550781 28.253906 38.671875 C 27.960938 38.792969 27.660156 38.824219 27.351562 38.761719 C 27.042969 38.699219 26.777344 38.558594 26.550781 38.335938 L 23.128906 34.910156 L 21.457031 34.910156 C 21.027344 34.910156 20.613281 34.828125 20.21875 34.664062 C 19.824219 34.5 19.472656 34.265625 19.167969 33.960938 C 18.867188 33.660156 18.632812 33.308594 18.46875 32.914062 C 18.304688 32.515625 18.222656 32.105469 18.222656 31.675781 Z M 57.03125 27.148438 L 57.03125 37.496094 C 57.03125 37.925781 56.949219 38.339844 56.785156 38.734375 C 56.621094 39.128906 56.386719 39.480469 56.085938 39.785156 C 55.78125 40.085938 55.433594 40.320312 55.035156 40.484375 C 54.640625 40.648438 54.226562 40.730469 53.796875 40.730469 L 48.246094 40.730469 L 44.820312 44.15625 C 44.597656 44.378906 44.332031 44.523438 44.019531 44.582031 C 43.710938 44.644531 43.410156 44.613281 43.117188 44.496094 C 42.828125 44.375 42.59375 44.183594 42.417969 43.917969 C 42.242188 43.65625 42.15625 43.367188 42.15625 43.050781 L 42.15625 40.730469 L 38.273438 40.730469 C 37.84375 40.730469 37.433594 40.648438 37.035156 40.484375 C 36.640625 40.320312 36.292969 40.085938 35.988281 39.785156 C 35.683594 39.480469 35.449219 39.128906 35.285156 38.734375 C 35.121094 38.339844 35.039062 37.925781 35.039062 37.496094 L 35.039062 27.148438 C 35.039062 26.71875 35.121094 26.308594 35.285156 25.910156 C 35.449219 25.515625 35.683594 25.164062 35.988281 24.863281 C 36.292969 24.558594 36.640625 24.324219 37.035156 24.160156 C 37.433594 23.996094 37.84375 23.914062 38.273438 23.914062 L 53.796875 23.914062 C 54.226562 23.914062 54.640625 23.996094 55.035156 24.160156 C 55.433594 24.324219 55.78125 24.558594 56.085938 24.863281 C 56.386719 25.164062 56.621094 25.515625 56.785156 25.910156 C 56.949219 26.308594 57.03125 26.71875 57.03125 27.148438 Z M 55.738281 27.148438 C 55.738281 26.890625 55.6875 26.644531 55.589844 26.40625 C 55.492188 26.167969 55.351562 25.957031 55.171875 25.777344 C 54.988281 25.59375 54.777344 25.453125 54.539062 25.355469 C 54.304688 25.257812 54.054688 25.207031 53.796875 25.207031 L 38.273438 25.207031 C 38.015625 25.207031 37.769531 25.257812 37.53125 25.355469 C 37.292969 25.453125 37.085938 25.59375 36.902344 25.777344 C 36.71875 25.957031 36.582031 26.167969 36.480469 26.40625 C 36.382812 26.644531 36.332031 26.890625 36.332031 27.148438 L 36.332031 37.496094 C 36.332031 37.753906 36.382812 38.003906 36.480469 38.238281 C 36.582031 38.476562 36.71875 38.6875 36.902344 38.871094 C 37.085938 39.050781 37.292969 39.191406 37.53125 39.289062 C 37.769531 39.386719 38.015625 39.4375 38.273438 39.4375 L 42.800781 39.4375 C 42.980469 39.4375 43.132812 39.5 43.257812 39.628906 C 43.386719 39.753906 43.449219 39.90625 43.449219 40.085938 L 43.449219 43.050781 C 43.457031 43.164062 43.515625 43.242188 43.621094 43.285156 C 43.722656 43.328125 43.820312 43.3125 43.90625 43.242188 L 47.519531 39.628906 C 47.644531 39.5 47.796875 39.4375 47.976562 39.4375 L 53.796875 39.4375 C 54.054688 39.4375 54.304688 39.386719 54.539062 39.289062 C 54.777344 39.191406 54.988281 39.050781 55.171875 38.871094 C 55.351562 38.6875 55.492188 38.476562 55.589844 38.238281 C 55.6875 38.003906 55.738281 37.753906 55.738281 37.496094 Z M 31.554688 25.207031 L 30.816406 27.792969 L 32.453125 27.792969 C 32.628906 27.792969 32.785156 27.859375 32.910156 27.984375 C 33.035156 28.109375 33.097656 28.261719 33.097656 28.441406 C 33.097656 28.621094 33.035156 28.773438 32.910156 28.898438 C 32.785156 29.023438 32.628906 29.089844 32.453125 29.089844 L 30.445312 29.089844 L 29.839844 31.207031 C 29.800781 31.34375 29.722656 31.457031 29.609375 31.546875 C 29.492188 31.632812 29.363281 31.675781 29.21875 31.675781 C 29.15625 31.675781 29.097656 31.667969 29.039062 31.652344 C 28.867188 31.601562 28.738281 31.5 28.652344 31.34375 C 28.566406 31.1875 28.546875 31.023438 28.59375 30.851562 L 29.097656 29.089844 L 26.5625 29.089844 L 25.957031 31.207031 C 25.917969 31.34375 25.839844 31.457031 25.726562 31.546875 C 25.613281 31.632812 25.480469 31.675781 25.335938 31.675781 C 25.277344 31.675781 25.21875 31.667969 25.160156 31.652344 C 24.988281 31.601562 24.859375 31.5 24.769531 31.34375 C 24.683594 31.1875 24.664062 31.023438 24.714844 30.851562 L 25.21875 29.089844 L 23.394531 29.089844 C 23.21875 29.089844 23.066406 29.023438 22.9375 28.898438 C 22.8125 28.773438 22.75 28.621094 22.75 28.441406 C 22.75 28.261719 22.8125 28.109375 22.9375 27.984375 C 23.066406 27.859375 23.21875 27.792969 23.394531 27.792969 L 25.585938 27.792969 L 26.328125 25.207031 L 24.691406 25.207031 C 24.511719 25.207031 24.359375 25.144531 24.234375 25.019531 C 24.105469 24.890625 24.042969 24.738281 24.042969 24.558594 C 24.042969 24.382812 24.105469 24.230469 24.234375 24.101562 C 24.359375 23.976562 24.511719 23.914062 24.691406 23.914062 L 26.695312 23.914062 L 27.300781 21.796875 C 27.351562 21.625 27.453125 21.496094 27.609375 21.410156 C 27.765625 21.324219 27.929688 21.304688 28.101562 21.351562 C 28.273438 21.402344 28.402344 21.503906 28.488281 21.660156 C 28.574219 21.816406 28.59375 21.980469 28.546875 22.152344 L 28.042969 23.914062 L 30.578125 23.914062 L 31.183594 21.796875 C 31.234375 21.625 31.335938 21.496094 31.492188 21.410156 C 31.648438 21.324219 31.8125 21.304688 31.980469 21.351562 C 32.152344 21.402344 32.28125 21.503906 32.371094 21.660156 C 32.457031 21.816406 32.476562 21.980469 32.425781 22.152344 L 31.921875 23.914062 L 33.746094 23.914062 C 33.925781 23.914062 34.078125 23.976562 34.203125 24.101562 C 34.328125 24.230469 34.394531 24.382812 34.394531 24.558594 C 34.394531 24.738281 34.328125 24.890625 34.203125 25.019531 C 34.078125 25.144531 33.925781 25.207031 33.746094 25.207031 Z M 30.207031 25.207031 L 27.671875 25.207031 L 26.933594 27.792969 L 29.46875 27.792969 Z M 51.859375 32.324219 L 51.859375 36.203125 C 51.859375 36.460938 51.808594 36.707031 51.710938 36.945312 C 51.609375 37.183594 51.472656 37.394531 51.289062 37.574219 C 51.105469 37.757812 50.898438 37.898438 50.660156 37.996094 C 50.421875 38.09375 50.175781 38.144531 49.917969 38.144531 L 46.683594 38.144531 C 45.710938 38.136719 44.808594 37.882812 43.976562 37.386719 C 43.871094 37.617188 43.714844 37.800781 43.5 37.9375 C 43.289062 38.074219 43.054688 38.144531 42.800781 38.144531 L 41.507812 38.144531 C 41.335938 38.144531 41.171875 38.109375 41.011719 38.046875 C 40.855469 37.980469 40.714844 37.886719 40.59375 37.765625 C 40.472656 37.644531 40.378906 37.503906 40.3125 37.34375 C 40.246094 37.1875 40.214844 37.023438 40.214844 36.851562 L 40.214844 31.027344 C 40.214844 30.859375 40.246094 30.691406 40.3125 30.535156 C 40.378906 30.375 40.472656 30.234375 40.59375 30.113281 C 40.714844 29.992188 40.855469 29.898438 41.011719 29.835938 C 41.171875 29.769531 41.335938 29.734375 41.507812 29.734375 L 42.800781 29.734375 C 43.109375 29.734375 43.382812 29.835938 43.621094 30.03125 C 43.859375 30.226562 44.011719 30.476562 44.070312 30.777344 C 44.226562 30.671875 44.367188 30.550781 44.496094 30.414062 C 45.035156 29.882812 45.332031 29.234375 45.390625 28.476562 C 45.355469 27.9375 45.519531 27.46875 45.882812 27.074219 C 46.28125 26.667969 46.761719 26.476562 47.328125 26.5 C 47.617188 26.507812 47.882812 26.585938 48.125 26.730469 C 48.371094 26.878906 48.566406 27.074219 48.707031 27.324219 C 48.957031 27.796875 49.097656 28.296875 49.136719 28.832031 C 49.171875 29.363281 49.101562 29.878906 48.917969 30.382812 L 49.917969 30.382812 C 50.175781 30.382812 50.421875 30.433594 50.660156 30.53125 C 50.898438 30.628906 51.105469 30.769531 51.289062 30.953125 C 51.472656 31.132812 51.609375 31.34375 51.710938 31.582031 C 51.808594 31.816406 51.859375 32.066406 51.859375 32.324219 Z M 42.804688 36.851562 L 42.800781 31.027344 L 41.507812 31.027344 L 41.507812 36.851562 Z M 50.5625 32.324219 C 50.5625 32.144531 50.5 31.992188 50.375 31.867188 C 50.25 31.738281 50.097656 31.675781 49.917969 31.675781 L 47.976562 31.675781 C 47.867188 31.675781 47.761719 31.648438 47.664062 31.59375 C 47.566406 31.542969 47.488281 31.46875 47.429688 31.375 C 47.371094 31.28125 47.335938 31.175781 47.332031 31.066406 C 47.324219 30.953125 47.34375 30.847656 47.394531 30.75 C 47.972656 29.539062 47.921875 28.503906 47.613281 28.011719 C 47.5625 27.929688 47.457031 27.792969 47.328125 27.792969 C 47.136719 27.777344 46.96875 27.832031 46.824219 27.960938 C 46.714844 28.089844 46.667969 28.238281 46.683594 28.40625 C 46.65625 29.539062 46.238281 30.503906 45.433594 31.304688 C 45.0625 31.714844 44.617188 32.011719 44.09375 32.199219 L 44.09375 35.90625 C 44.851562 36.515625 45.714844 36.828125 46.683594 36.851562 L 49.917969 36.851562 C 50.097656 36.851562 50.25 36.789062 50.375 36.660156 C 50.5 36.535156 50.5625 36.382812 50.5625 36.203125 Z M 36.332031 46.554688 C 36.332031 46.898438 36.265625 47.226562 36.136719 47.542969 C 36.003906 47.859375 35.816406 48.140625 35.574219 48.382812 C 35.332031 48.625 35.050781 48.8125 34.734375 48.945312 C 34.417969 49.074219 34.089844 49.140625 33.746094 49.140625 L 33.746094 53.667969 C 33.746094 53.816406 33.703125 53.945312 33.613281 54.0625 C 33.527344 54.175781 33.410156 54.253906 33.273438 54.292969 C 33.132812 54.332031 32.992188 54.324219 32.859375 54.269531 C 32.722656 54.214844 32.621094 54.125 32.542969 54.003906 C 32.476562 53.890625 30.816406 51.320312 25.984375 51.101562 L 25.984375 54.640625 C 25.984375 54.941406 25.925781 55.226562 25.8125 55.503906 C 25.695312 55.78125 25.53125 56.027344 25.320312 56.242188 C 25.109375 56.453125 24.863281 56.617188 24.585938 56.730469 C 24.308594 56.847656 24.019531 56.902344 23.71875 56.902344 C 23.417969 56.902344 23.128906 56.847656 22.851562 56.730469 C 22.574219 56.617188 22.332031 56.453125 22.117188 56.242188 C 21.90625 56.027344 21.742188 55.78125 21.628906 55.503906 C 21.511719 55.226562 21.457031 54.941406 21.457031 54.640625 L 21.457031 50.890625 C 20.933594 50.734375 20.457031 50.496094 20.023438 50.167969 C 19.589844 49.839844 19.226562 49.445312 18.933594 48.988281 C 18.640625 48.53125 18.4375 48.035156 18.320312 47.503906 C 18.207031 46.972656 18.191406 46.4375 18.269531 45.898438 C 18.347656 45.359375 18.515625 44.851562 18.777344 44.375 C 19.039062 43.898438 19.375 43.484375 19.789062 43.128906 C 20.199219 42.773438 20.660156 42.5 21.167969 42.308594 C 21.679688 42.121094 22.207031 42.027344 22.75 42.027344 L 25.335938 42.027344 C 30.679688 42.027344 32.472656 39.222656 32.546875 39.101562 C 32.621094 38.980469 32.726562 38.890625 32.863281 38.839844 C 33 38.785156 33.136719 38.777344 33.273438 38.816406 C 33.414062 38.855469 33.527344 38.933594 33.613281 39.050781 C 33.703125 39.164062 33.746094 39.292969 33.746094 39.4375 L 33.746094 43.964844 C 34.089844 43.964844 34.417969 44.03125 34.734375 44.164062 C 35.050781 44.296875 35.332031 44.480469 35.574219 44.726562 C 35.816406 44.96875 36.003906 45.246094 36.136719 45.5625 C 36.265625 45.878906 36.332031 46.210938 36.332031 46.554688 Z M 22.75 49.789062 L 24.691406 49.789062 L 24.691406 43.320312 L 22.75 43.320312 C 22.320312 43.320312 21.90625 43.402344 21.511719 43.566406 C 21.117188 43.730469 20.765625 43.964844 20.460938 44.265625 C 20.160156 44.570312 19.925781 44.917969 19.761719 45.316406 C 19.597656 45.710938 19.515625 46.125 19.515625 46.554688 C 19.515625 46.984375 19.597656 47.394531 19.761719 47.792969 C 19.925781 48.1875 20.160156 48.539062 20.460938 48.839844 C 20.765625 49.144531 21.117188 49.378906 21.511719 49.542969 C 21.90625 49.707031 22.320312 49.789062 22.75 49.789062 Z M 24.691406 54.640625 L 24.691406 51.082031 L 22.75 51.082031 L 22.75 54.640625 C 22.75 54.90625 22.84375 55.136719 23.035156 55.324219 C 23.222656 55.515625 23.453125 55.609375 23.71875 55.609375 C 23.988281 55.609375 24.214844 55.515625 24.40625 55.324219 C 24.59375 55.136719 24.691406 54.90625 24.691406 54.640625 Z M 32.453125 41.082031 C 31.3125 42.03125 29.261719 43.15625 25.984375 43.292969 L 25.984375 49.816406 C 29.261719 49.953125 31.3125 51.078125 32.453125 52.027344 Z M 35.039062 46.554688 C 35.039062 46.382812 35.007812 46.21875 34.941406 46.058594 C 34.875 45.902344 34.78125 45.761719 34.660156 45.640625 C 34.539062 45.519531 34.398438 45.425781 34.242188 45.359375 C 34.082031 45.292969 33.917969 45.261719 33.746094 45.261719 L 33.746094 47.847656 C 33.917969 47.847656 34.082031 47.8125 34.242188 47.75 C 34.398438 47.683594 34.539062 47.589844 34.660156 47.46875 C 34.78125 47.347656 34.875 47.207031 34.941406 47.046875 C 35.007812 46.890625 35.039062 46.726562 35.039062 46.554688 Z M 40.214844 45.90625 L 38.273438 45.90625 C 38.09375 45.90625 37.941406 45.96875 37.816406 46.097656 C 37.691406 46.222656 37.628906 46.375 37.628906 46.554688 C 37.628906 46.730469 37.691406 46.886719 37.816406 47.011719 C 37.941406 47.136719 38.09375 47.199219 38.273438 47.199219 L 40.214844 47.199219 C 40.394531 47.199219 40.546875 47.136719 40.671875 47.011719 C 40.796875 46.886719 40.859375 46.730469 40.859375 46.554688 C 40.859375 46.375 40.796875 46.222656 40.671875 46.097656 C 40.546875 45.96875 40.394531 45.90625 40.214844 45.90625 Z M 40.417969 49.175781 L 38.480469 48.527344 C 38.308594 48.472656 38.144531 48.480469 37.984375 48.5625 C 37.824219 48.640625 37.714844 48.765625 37.660156 48.9375 C 37.601562 49.105469 37.613281 49.269531 37.695312 49.429688 C 37.773438 49.589844 37.898438 49.699219 38.070312 49.753906 L 40.011719 50.402344 C 40.179688 50.457031 40.34375 50.445312 40.503906 50.367188 C 40.660156 50.285156 40.769531 50.160156 40.828125 49.992188 C 40.882812 49.824219 40.871094 49.660156 40.792969 49.5 C 40.710938 49.339844 40.589844 49.230469 40.417969 49.175781 Z M 38.273438 44.613281 C 38.34375 44.613281 38.414062 44.601562 38.480469 44.578125 L 40.417969 43.933594 C 40.589844 43.875 40.714844 43.769531 40.792969 43.609375 C 40.875 43.449219 40.886719 43.285156 40.828125 43.113281 C 40.773438 42.945312 40.664062 42.820312 40.503906 42.738281 C 40.34375 42.660156 40.179688 42.648438 40.011719 42.707031 L 38.070312 43.351562 C 37.917969 43.402344 37.800781 43.496094 37.71875 43.632812 C 37.636719 43.765625 37.609375 43.914062 37.636719 44.070312 C 37.660156 44.226562 37.734375 44.355469 37.855469 44.457031 C 37.976562 44.5625 38.117188 44.613281 38.273438 44.613281 Z M 38.273438 44.613281 " fill-opacity="1" fill-rule="nonzero"/></g></svg>