<svg xmlns="http://www.w3.org/2000/svg" xmlns:xlink="http://www.w3.org/1999/xlink" width="100" zoomAndPan="magnify" viewBox="0 0 75 74.999997" height="100" preserveAspectRatio="xMidYMid meet" version="1.0"><defs><clipPath id="a1bc4324a3"><path d="M 1.164062 1.164062 L 73.835938 1.164062 L 73.835938 73.835938 L 1.164062 73.835938 Z M 1.164062 1.164062 " clip-rule="nonzero"/></clipPath><clipPath id="dd21750ee9"><path d="M 37.5 1.164062 C 17.429688 1.164062 1.164062 17.429688 1.164062 37.5 C 1.164062 57.570312 17.429688 73.835938 37.5 73.835938 C 57.570312 73.835938 73.835938 57.570312 73.835938 37.5 C 73.835938 17.429688 57.570312 1.164062 37.5 1.164062 Z M 37.5 1.164062 " clip-rule="nonzero"/></clipPath><linearGradient x1="-0.000000241073" gradientTransform="matrix(0.283887, 0, 0, 0.283887, 1.162501, 1.162498)" y1="128" x2="256.000006" gradientUnits="userSpaceOnUse" y2="128" id="3c3135ef52"><stop stop-opacity="1" stop-color="rgb(38.798523%, 8.599854%, 39.199829%)" offset="0"/><stop stop-opacity="1" stop-color="rgb(38.728333%, 8.644104%, 39.360046%)" offset="0.0078125"/><stop stop-opacity="1" stop-color="rgb(38.587952%, 8.732605%, 39.682007%)" offset="0.015625"/><stop stop-opacity="1" stop-color="rgb(38.447571%, 8.821106%, 40.002441%)" offset="0.0234375"/><stop stop-opacity="1" stop-color="rgb(38.30719%, 8.911133%, 40.324402%)" offset="0.03125"/><stop stop-opacity="1" stop-color="rgb(38.166809%, 8.999634%, 40.646362%)" offset="0.0390625"/><stop stop-opacity="1" stop-color="rgb(38.026428%, 9.088135%, 40.968323%)" offset="0.046875"/><stop stop-opacity="1" stop-color="rgb(37.884521%, 9.178162%, 41.290283%)" offset="0.0546875"/><stop stop-opacity="1" stop-color="rgb(37.744141%, 9.266663%, 41.612244%)" offset="0.0625"/><stop stop-opacity="1" stop-color="rgb(37.60376%, 9.356689%, 41.934204%)" offset="0.0703125"/><stop stop-opacity="1" stop-color="rgb(37.463379%, 9.44519%, 42.256165%)" offset="0.078125"/><stop stop-opacity="1" stop-color="rgb(37.322998%, 9.533691%, 42.578125%)" offset="0.0859375"/><stop stop-opacity="1" stop-color="rgb(37.182617%, 9.623718%, 42.900085%)" offset="0.09375"/><stop stop-opacity="1" stop-color="rgb(37.04071%, 9.712219%, 43.222046%)" offset="0.101563"/><stop stop-opacity="1" stop-color="rgb(36.90033%, 9.80072%, 43.544006%)" offset="0.109375"/><stop stop-opacity="1" stop-color="rgb(36.759949%, 9.890747%, 43.865967%)" offset="0.117188"/><stop stop-opacity="1" stop-color="rgb(36.619568%, 9.979248%, 44.187927%)" offset="0.125"/><stop stop-opacity="1" stop-color="rgb(36.479187%, 10.067749%, 44.509888%)" offset="0.132813"/><stop stop-opacity="1" stop-color="rgb(36.338806%, 10.157776%, 44.831848%)" offset="0.140625"/><stop stop-opacity="1" stop-color="rgb(36.196899%, 10.246277%, 45.153809%)" offset="0.148438"/><stop stop-opacity="1" stop-color="rgb(36.056519%, 10.336304%, 45.475769%)" offset="0.15625"/><stop stop-opacity="1" stop-color="rgb(35.916138%, 10.424805%, 45.796204%)" offset="0.164063"/><stop stop-opacity="1" stop-color="rgb(35.775757%, 10.513306%, 46.118164%)" offset="0.171875"/><stop stop-opacity="1" stop-color="rgb(35.635376%, 10.603333%, 46.440125%)" offset="0.179688"/><stop stop-opacity="1" stop-color="rgb(35.494995%, 10.691833%, 46.762085%)" offset="0.1875"/><stop stop-opacity="1" stop-color="rgb(35.353088%, 10.780334%, 47.084045%)" offset="0.195313"/><stop stop-opacity="1" stop-color="rgb(35.212708%, 10.870361%, 47.406006%)" offset="0.203125"/><stop stop-opacity="1" stop-color="rgb(35.072327%, 10.958862%, 47.727966%)" offset="0.210938"/><stop stop-opacity="1" stop-color="rgb(34.931946%, 11.048889%, 48.049927%)" offset="0.21875"/><stop stop-opacity="1" stop-color="rgb(34.791565%, 11.13739%, 48.371887%)" offset="0.226563"/><stop stop-opacity="1" stop-color="rgb(34.651184%, 11.225891%, 48.693848%)" offset="0.234375"/><stop stop-opacity="1" stop-color="rgb(34.510803%, 11.315918%, 49.015808%)" offset="0.242188"/><stop stop-opacity="1" stop-color="rgb(34.368896%, 11.404419%, 49.337769%)" offset="0.25"/><stop stop-opacity="1" stop-color="rgb(34.228516%, 11.49292%, 49.659729%)" offset="0.257813"/><stop stop-opacity="1" stop-color="rgb(34.088135%, 11.582947%, 49.981689%)" offset="0.265625"/><stop stop-opacity="1" stop-color="rgb(33.947754%, 11.671448%, 50.30365%)" offset="0.273438"/><stop stop-opacity="1" stop-color="rgb(33.807373%, 11.759949%, 50.62561%)" offset="0.28125"/><stop stop-opacity="1" stop-color="rgb(33.666992%, 11.849976%, 50.947571%)" offset="0.289063"/><stop stop-opacity="1" stop-color="rgb(33.525085%, 11.938477%, 51.269531%)" offset="0.296875"/><stop stop-opacity="1" stop-color="rgb(33.384705%, 12.028503%, 51.589966%)" offset="0.304688"/><stop stop-opacity="1" stop-color="rgb(33.244324%, 12.117004%, 51.911926%)" offset="0.3125"/><stop stop-opacity="1" stop-color="rgb(33.103943%, 12.205505%, 52.233887%)" offset="0.320313"/><stop stop-opacity="1" stop-color="rgb(32.963562%, 12.295532%, 52.555847%)" offset="0.328125"/><stop stop-opacity="1" stop-color="rgb(32.823181%, 12.384033%, 52.877808%)" offset="0.335938"/><stop stop-opacity="1" stop-color="rgb(32.681274%, 12.472534%, 53.199768%)" offset="0.34375"/><stop stop-opacity="1" stop-color="rgb(32.540894%, 12.562561%, 53.521729%)" offset="0.351563"/><stop stop-opacity="1" stop-color="rgb(32.400513%, 12.651062%, 53.843689%)" offset="0.359375"/><stop stop-opacity="1" stop-color="rgb(32.260132%, 12.741089%, 54.165649%)" offset="0.367188"/><stop stop-opacity="1" stop-color="rgb(32.119751%, 12.82959%, 54.48761%)" offset="0.375"/><stop stop-opacity="1" stop-color="rgb(31.97937%, 12.918091%, 54.80957%)" offset="0.382812"/><stop stop-opacity="1" stop-color="rgb(31.837463%, 13.008118%, 55.131531%)" offset="0.390625"/><stop stop-opacity="1" stop-color="rgb(31.697083%, 13.096619%, 55.453491%)" offset="0.398438"/><stop stop-opacity="1" stop-color="rgb(31.556702%, 13.18512%, 55.775452%)" offset="0.40625"/><stop stop-opacity="1" stop-color="rgb(31.416321%, 13.275146%, 56.097412%)" offset="0.414062"/><stop stop-opacity="1" stop-color="rgb(31.27594%, 13.363647%, 56.419373%)" offset="0.421875"/><stop stop-opacity="1" stop-color="rgb(31.135559%, 13.452148%, 56.741333%)" offset="0.429687"/><stop stop-opacity="1" stop-color="rgb(30.995178%, 13.542175%, 57.063293%)" offset="0.4375"/><stop stop-opacity="1" stop-color="rgb(30.853271%, 13.630676%, 57.383728%)" offset="0.445312"/><stop stop-opacity="1" stop-color="rgb(30.712891%, 13.720703%, 57.705688%)" offset="0.453125"/><stop stop-opacity="1" stop-color="rgb(30.57251%, 13.809204%, 58.027649%)" offset="0.460937"/><stop stop-opacity="1" stop-color="rgb(30.432129%, 13.897705%, 58.349609%)" offset="0.46875"/><stop stop-opacity="1" stop-color="rgb(30.291748%, 13.987732%, 58.67157%)" offset="0.476562"/><stop stop-opacity="1" stop-color="rgb(30.151367%, 14.076233%, 58.99353%)" offset="0.484375"/><stop stop-opacity="1" stop-color="rgb(30.00946%, 14.164734%, 59.315491%)" offset="0.492187"/><stop stop-opacity="1" stop-color="rgb(29.86908%, 14.254761%, 59.637451%)" offset="0.5"/><stop stop-opacity="1" stop-color="rgb(29.728699%, 14.343262%, 59.959412%)" offset="0.507812"/><stop stop-opacity="1" stop-color="rgb(29.588318%, 14.433289%, 60.281372%)" offset="0.515625"/><stop stop-opacity="1" stop-color="rgb(29.447937%, 14.52179%, 60.603333%)" offset="0.523438"/><stop stop-opacity="1" stop-color="rgb(29.307556%, 14.610291%, 60.925293%)" offset="0.53125"/><stop stop-opacity="1" stop-color="rgb(29.165649%, 14.700317%, 61.247253%)" offset="0.539062"/><stop stop-opacity="1" stop-color="rgb(29.025269%, 14.788818%, 61.569214%)" offset="0.546875"/><stop stop-opacity="1" stop-color="rgb(28.884888%, 14.877319%, 61.891174%)" offset="0.554688"/><stop stop-opacity="1" stop-color="rgb(28.744507%, 14.967346%, 62.213135%)" offset="0.5625"/><stop stop-opacity="1" stop-color="rgb(28.604126%, 15.055847%, 62.535095%)" offset="0.570313"/><stop stop-opacity="1" stop-color="rgb(28.463745%, 15.144348%, 62.857056%)" offset="0.578125"/><stop stop-opacity="1" stop-color="rgb(28.321838%, 15.234375%, 63.17749%)" offset="0.585938"/><stop stop-opacity="1" stop-color="rgb(28.181458%, 15.322876%, 63.499451%)" offset="0.59375"/><stop stop-opacity="1" stop-color="rgb(28.041077%, 15.412903%, 63.821411%)" offset="0.601563"/><stop stop-opacity="1" stop-color="rgb(27.900696%, 15.501404%, 64.143372%)" offset="0.609375"/><stop stop-opacity="1" stop-color="rgb(27.760315%, 15.589905%, 64.465332%)" offset="0.617188"/><stop stop-opacity="1" stop-color="rgb(27.619934%, 15.679932%, 64.787292%)" offset="0.625"/><stop stop-opacity="1" stop-color="rgb(27.479553%, 15.768433%, 65.109253%)" offset="0.632813"/><stop stop-opacity="1" stop-color="rgb(27.337646%, 15.856934%, 65.431213%)" offset="0.640625"/><stop stop-opacity="1" stop-color="rgb(27.197266%, 15.94696%, 65.753174%)" offset="0.648438"/><stop stop-opacity="1" stop-color="rgb(27.056885%, 16.035461%, 66.075134%)" offset="0.65625"/><stop stop-opacity="1" stop-color="rgb(26.916504%, 16.125488%, 66.397095%)" offset="0.664063"/><stop stop-opacity="1" stop-color="rgb(26.776123%, 16.213989%, 66.719055%)" offset="0.671875"/><stop stop-opacity="1" stop-color="rgb(26.635742%, 16.30249%, 67.041016%)" offset="0.679688"/><stop stop-opacity="1" stop-color="rgb(26.493835%, 16.392517%, 67.362976%)" offset="0.6875"/><stop stop-opacity="1" stop-color="rgb(26.353455%, 16.481018%, 67.684937%)" offset="0.695312"/><stop stop-opacity="1" stop-color="rgb(26.213074%, 16.569519%, 68.006897%)" offset="0.703125"/><stop stop-opacity="1" stop-color="rgb(26.072693%, 16.659546%, 68.328857%)" offset="0.710938"/><stop stop-opacity="1" stop-color="rgb(25.932312%, 16.748047%, 68.650818%)" offset="0.71875"/><stop stop-opacity="1" stop-color="rgb(25.791931%, 16.836548%, 68.971252%)" offset="0.726562"/><stop stop-opacity="1" stop-color="rgb(25.650024%, 16.926575%, 69.293213%)" offset="0.734375"/><stop stop-opacity="1" stop-color="rgb(25.509644%, 17.015076%, 69.615173%)" offset="0.742188"/><stop stop-opacity="1" stop-color="rgb(25.369263%, 17.105103%, 69.937134%)" offset="0.75"/><stop stop-opacity="1" stop-color="rgb(25.228882%, 17.193604%, 70.259094%)" offset="0.757812"/><stop stop-opacity="1" stop-color="rgb(25.088501%, 17.282104%, 70.581055%)" offset="0.765625"/><stop stop-opacity="1" stop-color="rgb(24.94812%, 17.372131%, 70.903015%)" offset="0.773438"/><stop stop-opacity="1" stop-color="rgb(24.806213%, 17.460632%, 71.224976%)" offset="0.78125"/><stop stop-opacity="1" stop-color="rgb(24.665833%, 17.549133%, 71.546936%)" offset="0.789062"/><stop stop-opacity="1" stop-color="rgb(24.525452%, 17.63916%, 71.868896%)" offset="0.796875"/><stop stop-opacity="1" stop-color="rgb(24.385071%, 17.727661%, 72.190857%)" offset="0.804688"/><stop stop-opacity="1" stop-color="rgb(24.24469%, 17.817688%, 72.512817%)" offset="0.8125"/><stop stop-opacity="1" stop-color="rgb(24.104309%, 17.906189%, 72.834778%)" offset="0.820312"/><stop stop-opacity="1" stop-color="rgb(23.963928%, 17.99469%, 73.156738%)" offset="0.828125"/><stop stop-opacity="1" stop-color="rgb(23.822021%, 18.084717%, 73.478699%)" offset="0.835937"/><stop stop-opacity="1" stop-color="rgb(23.681641%, 18.173218%, 73.800659%)" offset="0.84375"/><stop stop-opacity="1" stop-color="rgb(23.54126%, 18.261719%, 74.12262%)" offset="0.851562"/><stop stop-opacity="1" stop-color="rgb(23.400879%, 18.351746%, 74.44458%)" offset="0.859375"/><stop stop-opacity="1" stop-color="rgb(23.260498%, 18.440247%, 74.765015%)" offset="0.867187"/><stop stop-opacity="1" stop-color="rgb(23.120117%, 18.528748%, 75.086975%)" offset="0.875"/><stop stop-opacity="1" stop-color="rgb(22.97821%, 18.618774%, 75.408936%)" offset="0.882812"/><stop stop-opacity="1" stop-color="rgb(22.83783%, 18.707275%, 75.730896%)" offset="0.890625"/><stop stop-opacity="1" stop-color="rgb(22.697449%, 18.797302%, 76.052856%)" offset="0.898437"/><stop stop-opacity="1" stop-color="rgb(22.557068%, 18.885803%, 76.374817%)" offset="0.90625"/><stop stop-opacity="1" stop-color="rgb(22.416687%, 18.974304%, 76.696777%)" offset="0.914062"/><stop stop-opacity="1" stop-color="rgb(22.276306%, 19.064331%, 77.018738%)" offset="0.921875"/><stop stop-opacity="1" stop-color="rgb(22.134399%, 19.152832%, 77.340698%)" offset="0.929687"/><stop stop-opacity="1" stop-color="rgb(21.994019%, 19.241333%, 77.662659%)" offset="0.9375"/><stop stop-opacity="1" stop-color="rgb(21.853638%, 19.33136%, 77.984619%)" offset="0.945312"/><stop stop-opacity="1" stop-color="rgb(21.713257%, 19.419861%, 78.30658%)" offset="0.953125"/><stop stop-opacity="1" stop-color="rgb(21.572876%, 19.508362%, 78.62854%)" offset="0.960938"/><stop stop-opacity="1" stop-color="rgb(21.432495%, 19.598389%, 78.9505%)" offset="0.96875"/><stop stop-opacity="1" stop-color="rgb(21.290588%, 19.68689%, 79.272461%)" offset="0.976562"/><stop stop-opacity="1" stop-color="rgb(21.150208%, 19.776917%, 79.594421%)" offset="0.984375"/><stop stop-opacity="1" stop-color="rgb(21.009827%, 19.865417%, 79.916382%)" offset="0.992188"/><stop stop-opacity="1" stop-color="rgb(20.869446%, 19.953918%, 80.238342%)" offset="1"/></linearGradient><clipPath id="d3e0871be7"><path d="M 18.203125 17.933594 L 56.453125 17.933594 L 56.453125 56.933594 L 18.203125 56.933594 Z M 18.203125 17.933594 " clip-rule="nonzero"/></clipPath></defs><g clip-path="url(#a1bc4324a3)"><g clip-path="url(#dd21750ee9)"><path fill="url(#3c3135ef52)" d="M 1.164062 1.164062 L 1.164062 73.835938 L 73.835938 73.835938 L 73.835938 1.164062 Z M 1.164062 1.164062 " fill-rule="nonzero"/></g></g><g clip-path="url(#d3e0871be7)"><path fill="#ffffff" d="M 53.277344 21.871094 L 50.332031 21.871094 L 50.59375 21.285156 C 50.699219 21.042969 50.648438 20.765625 50.464844 20.582031 L 49.25 19.367188 C 49.066406 19.183594 48.789062 19.132812 48.546875 19.238281 L 47.8125 19.566406 C 47.449219 19.367188 47.0625 19.207031 46.667969 19.089844 L 46.378906 18.339844 C 46.285156 18.09375 46.050781 17.933594 45.789062 17.933594 L 44.074219 17.933594 C 43.8125 17.933594 43.578125 18.09375 43.484375 18.339844 L 43.195312 19.089844 C 42.796875 19.207031 42.414062 19.367188 42.050781 19.566406 L 41.3125 19.238281 C 41.074219 19.132812 40.796875 19.183594 40.609375 19.367188 L 39.398438 20.582031 C 39.214844 20.765625 39.160156 21.042969 39.269531 21.285156 L 39.527344 21.871094 L 37.566406 21.871094 L 37.566406 20.578125 C 37.566406 19.457031 36.65625 18.542969 35.535156 18.542969 L 34.972656 18.542969 C 33.851562 18.542969 32.9375 19.457031 32.9375 20.578125 L 32.9375 21.871094 L 21.710938 21.871094 C 19.78125 21.871094 18.210938 23.441406 18.210938 25.371094 L 18.210938 45.101562 C 18.210938 47.027344 19.78125 48.597656 21.710938 48.597656 L 31 48.597656 L 31 51.894531 L 27.265625 51.894531 C 25.570312 51.894531 24.191406 53.050781 24.191406 54.476562 L 24.191406 56.433594 C 24.191406 56.78125 24.472656 57.0625 24.820312 57.0625 L 50.167969 57.0625 C 50.515625 57.0625 50.796875 56.78125 50.796875 56.433594 L 50.796875 54.476562 C 50.796875 53.050781 49.417969 51.894531 47.722656 51.894531 L 43.988281 51.894531 L 43.988281 48.597656 L 53.277344 48.597656 C 55.207031 48.597656 56.777344 47.027344 56.777344 45.101562 L 56.777344 25.371094 C 56.777344 23.441406 55.207031 21.871094 53.277344 21.871094 Z M 40.257812 23.785156 C 40.375 23.292969 40.570312 22.820312 40.839844 22.386719 C 40.949219 22.210938 40.960938 21.988281 40.878906 21.800781 L 40.597656 21.167969 L 41.195312 20.566406 L 41.828125 20.847656 C 42.019531 20.933594 42.238281 20.917969 42.417969 20.808594 C 42.851562 20.542969 43.320312 20.347656 43.816406 20.230469 C 44.019531 20.179688 44.183594 20.035156 44.257812 19.84375 L 44.507812 19.195312 L 45.355469 19.195312 L 45.605469 19.84375 C 45.679688 20.035156 45.84375 20.179688 46.046875 20.230469 C 46.539062 20.347656 47.011719 20.542969 47.445312 20.808594 C 47.621094 20.917969 47.84375 20.933594 48.03125 20.847656 L 48.664062 20.566406 L 49.265625 21.167969 L 48.984375 21.800781 C 48.898438 21.988281 48.914062 22.210938 49.023438 22.386719 C 49.289062 22.820312 49.484375 23.292969 49.601562 23.785156 C 49.652344 23.988281 49.796875 24.152344 49.992188 24.226562 L 50.636719 24.476562 L 50.636719 25.324219 L 49.992188 25.574219 C 49.796875 25.648438 49.652344 25.8125 49.601562 26.015625 C 49.484375 26.511719 49.289062 26.980469 49.023438 27.414062 C 48.914062 27.59375 48.898438 27.8125 48.984375 28.003906 L 49.265625 28.632812 L 48.664062 29.234375 L 48.03125 28.953125 C 47.84375 28.867188 47.621094 28.882812 47.445312 28.992188 C 47.011719 29.261719 46.539062 29.457031 46.046875 29.574219 C 45.84375 29.621094 45.679688 29.765625 45.605469 29.960938 L 45.355469 30.605469 L 44.507812 30.605469 L 44.257812 29.960938 C 44.183594 29.765625 44.019531 29.621094 43.816406 29.574219 C 43.320312 29.457031 42.851562 29.261719 42.417969 28.992188 C 42.238281 28.882812 42.019531 28.871094 41.828125 28.953125 L 41.199219 29.234375 L 40.597656 28.636719 L 40.878906 28.003906 C 40.964844 27.8125 40.949219 27.59375 40.839844 27.414062 C 40.570312 26.980469 40.375 26.511719 40.257812 26.015625 C 40.210938 25.8125 40.066406 25.648438 39.871094 25.574219 L 39.226562 25.324219 L 39.226562 24.476562 L 39.871094 24.230469 C 40.066406 24.152344 40.210938 23.988281 40.257812 23.785156 Z M 33.023438 35.144531 L 34.707031 38.0625 C 34.820312 38.257812 35.027344 38.375 35.253906 38.375 C 35.480469 38.375 35.6875 38.257812 35.800781 38.0625 L 37.484375 35.144531 C 37.539062 35.050781 37.566406 34.941406 37.566406 34.828125 L 37.566406 25.53125 L 37.964844 25.53125 L 37.964844 25.757812 C 37.964844 26.019531 38.125 26.253906 38.367188 26.347656 L 39.117188 26.636719 C 39.238281 27.035156 39.398438 27.417969 39.59375 27.78125 L 39.269531 28.519531 C 39.160156 28.757812 39.214844 29.035156 39.398438 29.222656 L 40.609375 30.433594 C 40.796875 30.617188 41.074219 30.671875 41.3125 30.5625 L 42.046875 30.238281 C 42.414062 30.433594 42.796875 30.59375 43.195312 30.714844 L 43.484375 31.464844 C 43.578125 31.707031 43.8125 31.867188 44.074219 31.867188 L 45.789062 31.867188 C 46.050781 31.867188 46.285156 31.707031 46.378906 31.464844 L 46.667969 30.714844 C 47.0625 30.59375 47.449219 30.433594 47.8125 30.238281 L 48.546875 30.5625 C 48.785156 30.671875 49.066406 30.617188 49.25 30.433594 L 50.464844 29.222656 C 50.648438 29.035156 50.699219 28.757812 50.59375 28.519531 L 50.265625 27.785156 C 50.464844 27.417969 50.625 27.035156 50.742188 26.636719 L 51.492188 26.347656 C 51.738281 26.253906 51.898438 26.019531 51.898438 25.757812 L 51.898438 25.53125 L 53.117188 25.53125 L 53.117188 42.503906 L 21.871094 42.503906 L 21.871094 25.53125 L 32.9375 25.53125 L 32.9375 34.828125 C 32.9375 34.941406 32.96875 35.050781 33.023438 35.144531 Z M 34.664062 35.460938 L 35.84375 35.460938 L 35.253906 36.484375 Z M 39.128906 23.132812 C 39.125 23.144531 39.121094 23.15625 39.117188 23.164062 L 38.367188 23.453125 C 38.125 23.546875 37.964844 23.78125 37.964844 24.042969 L 37.964844 24.269531 L 37.566406 24.269531 L 37.566406 23.132812 Z M 34.972656 19.804688 L 35.535156 19.804688 C 35.960938 19.804688 36.304688 20.152344 36.304688 20.578125 L 36.304688 34.199219 L 34.203125 34.199219 L 34.203125 20.578125 C 34.203125 20.152344 34.546875 19.804688 34.972656 19.804688 Z M 49.535156 54.476562 L 49.535156 55.800781 L 25.453125 55.800781 L 25.453125 54.476562 C 25.453125 53.761719 26.285156 53.15625 27.265625 53.15625 L 47.722656 53.15625 C 48.707031 53.15625 49.535156 53.761719 49.535156 54.476562 Z M 42.726562 51.894531 L 32.261719 51.894531 L 32.261719 48.597656 L 42.726562 48.597656 Z M 55.515625 45.101562 C 55.515625 46.332031 54.511719 47.335938 53.277344 47.335938 L 21.710938 47.335938 C 20.476562 47.335938 19.472656 46.332031 19.472656 45.101562 L 19.472656 25.371094 C 19.472656 24.136719 20.476562 23.132812 21.710938 23.132812 L 32.9375 23.132812 L 32.9375 24.269531 L 21.636719 24.269531 C 21.070312 24.269531 20.609375 24.730469 20.609375 25.296875 L 20.609375 43.136719 C 20.609375 43.484375 20.890625 43.769531 21.238281 43.769531 L 53.75 43.769531 C 54.097656 43.769531 54.378906 43.484375 54.378906 43.136719 L 54.378906 25.296875 C 54.378906 24.730469 53.917969 24.269531 53.351562 24.269531 L 51.898438 24.269531 L 51.898438 24.042969 C 51.898438 23.78125 51.738281 23.546875 51.492188 23.453125 L 50.742188 23.164062 C 50.738281 23.15625 50.734375 23.144531 50.734375 23.132812 L 53.277344 23.132812 C 54.511719 23.132812 55.515625 24.136719 55.515625 25.371094 Z M 44.929688 28.523438 C 46.929688 28.523438 48.554688 26.898438 48.554688 24.902344 C 48.554688 22.902344 46.929688 21.277344 44.929688 21.277344 C 42.933594 21.277344 41.308594 22.902344 41.308594 24.902344 C 41.308594 26.898438 42.933594 28.523438 44.929688 28.523438 Z M 44.929688 22.542969 C 46.230469 22.542969 47.289062 23.601562 47.289062 24.902344 C 47.289062 26.203125 46.230469 27.261719 44.929688 27.261719 C 43.628906 27.261719 42.570312 26.203125 42.570312 24.902344 C 42.570312 23.601562 43.628906 22.542969 44.929688 22.542969 Z M 43.894531 40.28125 L 45.519531 34.21875 C 45.609375 33.878906 45.957031 33.679688 46.292969 33.769531 C 46.628906 33.863281 46.828125 34.207031 46.738281 34.542969 L 45.113281 40.609375 C 45.039062 40.890625 44.78125 41.078125 44.503906 41.078125 C 44.449219 41.078125 44.394531 41.070312 44.339844 41.054688 C 44.003906 40.964844 43.804688 40.621094 43.894531 40.28125 Z M 39.632812 37.414062 C 39.632812 37.226562 39.714844 37.050781 39.859375 36.929688 L 42.503906 34.699219 C 42.773438 34.476562 43.171875 34.507812 43.394531 34.773438 C 43.621094 35.042969 43.585938 35.441406 43.320312 35.664062 L 41.242188 37.414062 L 43.320312 39.164062 C 43.585938 39.386719 43.621094 39.785156 43.394531 40.050781 C 43.269531 40.199219 43.089844 40.277344 42.910156 40.277344 C 42.769531 40.277344 42.625 40.226562 42.503906 40.128906 L 39.859375 37.894531 C 39.714844 37.777344 39.632812 37.601562 39.632812 37.414062 Z M 47.3125 39.164062 L 49.386719 37.414062 L 47.3125 35.664062 C 47.046875 35.441406 47.011719 35.042969 47.238281 34.773438 C 47.460938 34.507812 47.859375 34.476562 48.125 34.699219 L 50.773438 36.929688 C 50.917969 37.050781 51 37.226562 51 37.414062 C 51 37.601562 50.917969 37.777344 50.773438 37.894531 L 48.125 40.128906 C 48.007812 40.226562 47.863281 40.277344 47.71875 40.277344 C 47.539062 40.277344 47.363281 40.199219 47.238281 40.050781 C 47.011719 39.785156 47.046875 39.386719 47.3125 39.164062 Z M 24.011719 39.679688 L 37.152344 39.679688 C 37.5 39.679688 37.785156 39.960938 37.785156 40.3125 C 37.785156 40.660156 37.5 40.941406 37.152344 40.941406 L 24.011719 40.941406 C 23.664062 40.941406 23.382812 40.660156 23.382812 40.3125 C 23.382812 39.960938 23.664062 39.679688 24.011719 39.679688 Z M 23.335938 35.222656 C 23.335938 34.871094 23.621094 34.589844 23.96875 34.589844 L 30.796875 34.589844 C 31.144531 34.589844 31.429688 34.871094 31.429688 35.222656 C 31.429688 35.570312 31.144531 35.851562 30.796875 35.851562 L 23.96875 35.851562 C 23.621094 35.851562 23.335938 35.570312 23.335938 35.222656 Z M 23.359375 37.765625 C 23.359375 37.417969 23.640625 37.136719 23.992188 37.136719 L 30.820312 37.136719 C 31.167969 37.136719 31.449219 37.417969 31.449219 37.765625 C 31.449219 38.113281 31.167969 38.398438 30.820312 38.398438 L 23.992188 38.398438 C 23.640625 38.398438 23.359375 38.113281 23.359375 37.765625 Z M 23.382812 27.585938 C 23.382812 27.238281 23.664062 26.953125 24.011719 26.953125 L 30.839844 26.953125 C 31.191406 26.953125 31.472656 27.238281 31.472656 27.585938 C 31.472656 27.933594 31.191406 28.214844 30.839844 28.214844 L 24.011719 28.214844 C 23.664062 28.214844 23.382812 27.933594 23.382812 27.585938 Z M 23.359375 30.128906 C 23.359375 29.78125 23.640625 29.5 23.992188 29.5 L 30.820312 29.5 C 31.167969 29.5 31.449219 29.78125 31.449219 30.128906 C 31.449219 30.480469 31.167969 30.761719 30.820312 30.761719 L 23.992188 30.761719 C 23.640625 30.761719 23.359375 30.480469 23.359375 30.128906 Z M 23.335938 32.675781 C 23.335938 32.328125 23.621094 32.042969 23.96875 32.042969 L 30.796875 32.042969 C 31.144531 32.042969 31.429688 32.328125 31.429688 32.675781 C 31.429688 33.023438 31.144531 33.308594 30.796875 33.308594 L 23.96875 33.308594 C 23.621094 33.308594 23.335938 33.023438 23.335938 32.675781 Z M 23.335938 32.675781 " fill-opacity="1" fill-rule="nonzero"/></g></svg>