<svg xmlns="http://www.w3.org/2000/svg" xmlns:xlink="http://www.w3.org/1999/xlink" width="100" zoomAndPan="magnify" viewBox="0 0 75 74.999997" height="100" preserveAspectRatio="xMidYMid meet" version="1.0"><defs><clipPath id="2705d4df09"><path d="M 1.164062 1.164062 L 73.835938 1.164062 L 73.835938 73.835938 L 1.164062 73.835938 Z M 1.164062 1.164062 " clip-rule="nonzero"/></clipPath><clipPath id="f9270f13b2"><path d="M 37.5 1.164062 C 17.429688 1.164062 1.164062 17.429688 1.164062 37.5 C 1.164062 57.570312 17.429688 73.835938 37.5 73.835938 C 57.570312 73.835938 73.835938 57.570312 73.835938 37.5 C 73.835938 17.429688 57.570312 1.164062 37.5 1.164062 Z M 37.5 1.164062 " clip-rule="nonzero"/></clipPath><radialGradient gradientTransform="matrix(1, 0, 0, 1, 1.162501, 1.162498)" gradientUnits="userSpaceOnUse" r="102.778053" cx="0" id="793bdc649d" cy="0" fx="0" fy="0"><stop stop-opacity="1" stop-color="rgb(100%, 86.981201%, 34.881592%)" offset="0"/><stop stop-opacity="1" stop-color="rgb(100%, 86.686707%, 34.83429%)" offset="0.0078125"/><stop stop-opacity="1" stop-color="rgb(100%, 86.332703%, 34.779358%)" offset="0.0195312"/><stop stop-opacity="1" stop-color="rgb(100%, 85.978699%, 34.724426%)" offset="0.03125"/><stop stop-opacity="1" stop-color="rgb(100%, 85.624695%, 34.669495%)" offset="0.0429688"/><stop stop-opacity="1" stop-color="rgb(100%, 85.270691%, 34.614563%)" offset="0.0546875"/><stop stop-opacity="1" stop-color="rgb(100%, 84.916687%, 34.559631%)" offset="0.0664062"/><stop stop-opacity="1" stop-color="rgb(100%, 84.562683%, 34.5047%)" offset="0.078125"/><stop stop-opacity="1" stop-color="rgb(100%, 84.208679%, 34.449768%)" offset="0.0898438"/><stop stop-opacity="1" stop-color="rgb(100%, 83.854675%, 34.394836%)" offset="0.101562"/><stop stop-opacity="1" stop-color="rgb(100%, 83.500671%, 34.339905%)" offset="0.113281"/><stop stop-opacity="1" stop-color="rgb(100%, 83.146667%, 34.283447%)" offset="0.125"/><stop stop-opacity="1" stop-color="rgb(100%, 82.792664%, 34.228516%)" offset="0.136719"/><stop stop-opacity="1" stop-color="rgb(100%, 82.440186%, 34.173584%)" offset="0.148438"/><stop stop-opacity="1" stop-color="rgb(100%, 82.086182%, 34.118652%)" offset="0.160156"/><stop stop-opacity="1" stop-color="rgb(100%, 81.732178%, 34.063721%)" offset="0.171875"/><stop stop-opacity="1" stop-color="rgb(100%, 81.378174%, 34.008789%)" offset="0.183594"/><stop stop-opacity="1" stop-color="rgb(100%, 81.02417%, 33.953857%)" offset="0.195312"/><stop stop-opacity="1" stop-color="rgb(100%, 80.670166%, 33.898926%)" offset="0.207031"/><stop stop-opacity="1" stop-color="rgb(100%, 80.316162%, 33.843994%)" offset="0.21875"/><stop stop-opacity="1" stop-color="rgb(100%, 79.962158%, 33.789062%)" offset="0.230469"/><stop stop-opacity="1" stop-color="rgb(100%, 79.608154%, 33.732605%)" offset="0.242188"/><stop stop-opacity="1" stop-color="rgb(100%, 79.312134%, 33.686829%)" offset="0.253906"/><stop stop-opacity="1" stop-color="rgb(100%, 79.077148%, 33.650208%)" offset="0.261719"/><stop stop-opacity="1" stop-color="rgb(100%, 78.840637%, 33.613586%)" offset="0.269531"/><stop stop-opacity="1" stop-color="rgb(100%, 78.605652%, 33.576965%)" offset="0.277344"/><stop stop-opacity="1" stop-color="rgb(100%, 78.369141%, 33.540344%)" offset="0.285156"/><stop stop-opacity="1" stop-color="rgb(100%, 78.132629%, 33.503723%)" offset="0.292969"/><stop stop-opacity="1" stop-color="rgb(100%, 77.897644%, 33.467102%)" offset="0.300781"/><stop stop-opacity="1" stop-color="rgb(100%, 77.661133%, 33.430481%)" offset="0.308594"/><stop stop-opacity="1" stop-color="rgb(100%, 77.424622%, 33.39386%)" offset="0.316406"/><stop stop-opacity="1" stop-color="rgb(100%, 77.189636%, 33.357239%)" offset="0.324219"/><stop stop-opacity="1" stop-color="rgb(100%, 76.953125%, 33.320618%)" offset="0.332031"/><stop stop-opacity="1" stop-color="rgb(100%, 76.71814%, 33.283997%)" offset="0.339844"/><stop stop-opacity="1" stop-color="rgb(100%, 76.481628%, 33.247375%)" offset="0.347656"/><stop stop-opacity="1" stop-color="rgb(100%, 76.245117%, 33.210754%)" offset="0.355469"/><stop stop-opacity="1" stop-color="rgb(100%, 76.010132%, 33.174133%)" offset="0.363281"/><stop stop-opacity="1" stop-color="rgb(100%, 75.773621%, 33.135986%)" offset="0.371094"/><stop stop-opacity="1" stop-color="rgb(100%, 75.537109%, 33.099365%)" offset="0.378906"/><stop stop-opacity="1" stop-color="rgb(100%, 75.302124%, 33.062744%)" offset="0.386719"/><stop stop-opacity="1" stop-color="rgb(100%, 75.065613%, 33.026123%)" offset="0.394531"/><stop stop-opacity="1" stop-color="rgb(100%, 74.830627%, 32.989502%)" offset="0.402344"/><stop stop-opacity="1" stop-color="rgb(100%, 74.594116%, 32.952881%)" offset="0.410156"/><stop stop-opacity="1" stop-color="rgb(100%, 74.357605%, 32.91626%)" offset="0.417969"/><stop stop-opacity="1" stop-color="rgb(100%, 74.12262%, 32.879639%)" offset="0.425781"/><stop stop-opacity="1" stop-color="rgb(100%, 73.886108%, 32.843018%)" offset="0.433594"/><stop stop-opacity="1" stop-color="rgb(100%, 73.649597%, 32.806396%)" offset="0.441406"/><stop stop-opacity="1" stop-color="rgb(100%, 73.414612%, 32.769775%)" offset="0.449219"/><stop stop-opacity="1" stop-color="rgb(100%, 73.178101%, 32.733154%)" offset="0.457031"/><stop stop-opacity="1" stop-color="rgb(100%, 72.943115%, 32.696533%)" offset="0.464844"/><stop stop-opacity="1" stop-color="rgb(100%, 72.706604%, 32.659912%)" offset="0.472656"/><stop stop-opacity="1" stop-color="rgb(100%, 72.470093%, 32.623291%)" offset="0.480469"/><stop stop-opacity="1" stop-color="rgb(100%, 72.235107%, 32.58667%)" offset="0.488281"/><stop stop-opacity="1" stop-color="rgb(100%, 71.998596%, 32.548523%)" offset="0.496094"/><stop stop-opacity="1" stop-color="rgb(100%, 71.704102%, 32.502747%)" offset="0.503906"/><stop stop-opacity="1" stop-color="rgb(100%, 71.350098%, 32.447815%)" offset="0.515625"/><stop stop-opacity="1" stop-color="rgb(100%, 70.996094%, 32.392883%)" offset="0.527344"/><stop stop-opacity="1" stop-color="rgb(100%, 70.64209%, 32.337952%)" offset="0.539062"/><stop stop-opacity="1" stop-color="rgb(100%, 70.288086%, 32.28302%)" offset="0.550781"/><stop stop-opacity="1" stop-color="rgb(100%, 69.934082%, 32.228088%)" offset="0.5625"/><stop stop-opacity="1" stop-color="rgb(100%, 69.580078%, 32.173157%)" offset="0.574219"/><stop stop-opacity="1" stop-color="rgb(100%, 69.2276%, 32.118225%)" offset="0.585938"/><stop stop-opacity="1" stop-color="rgb(100%, 68.873596%, 32.063293%)" offset="0.597656"/><stop stop-opacity="1" stop-color="rgb(100%, 68.519592%, 32.006836%)" offset="0.609375"/><stop stop-opacity="1" stop-color="rgb(100%, 68.165588%, 31.951904%)" offset="0.621094"/><stop stop-opacity="1" stop-color="rgb(100%, 67.869568%, 31.906128%)" offset="0.632812"/><stop stop-opacity="1" stop-color="rgb(100%, 67.634583%, 31.869507%)" offset="0.640625"/><stop stop-opacity="1" stop-color="rgb(100%, 67.398071%, 31.832886%)" offset="0.648438"/><stop stop-opacity="1" stop-color="rgb(100%, 67.16156%, 31.796265%)" offset="0.65625"/><stop stop-opacity="1" stop-color="rgb(100%, 66.926575%, 31.759644%)" offset="0.664062"/><stop stop-opacity="1" stop-color="rgb(100%, 66.690063%, 31.723022%)" offset="0.671875"/><stop stop-opacity="1" stop-color="rgb(100%, 66.453552%, 31.686401%)" offset="0.679688"/><stop stop-opacity="1" stop-color="rgb(100%, 66.218567%, 31.64978%)" offset="0.6875"/><stop stop-opacity="1" stop-color="rgb(100%, 65.982056%, 31.613159%)" offset="0.695312"/><stop stop-opacity="1" stop-color="rgb(100%, 65.74707%, 31.576538%)" offset="0.703125"/><stop stop-opacity="1" stop-color="rgb(100%, 65.510559%, 31.539917%)" offset="0.710938"/><stop stop-opacity="1" stop-color="rgb(100%, 65.274048%, 31.503296%)" offset="0.71875"/><stop stop-opacity="1" stop-color="rgb(100%, 65.039062%, 31.466675%)" offset="0.726562"/><stop stop-opacity="1" stop-color="rgb(100%, 64.802551%, 31.428528%)" offset="0.734375"/><stop stop-opacity="1" stop-color="rgb(100%, 64.56604%, 31.391907%)" offset="0.742188"/><stop stop-opacity="1" stop-color="rgb(100%, 64.331055%, 31.355286%)" offset="0.75"/><stop stop-opacity="1" stop-color="rgb(100%, 64.03656%, 31.309509%)" offset="0.757812"/><stop stop-opacity="1" stop-color="rgb(100%, 63.682556%, 31.254578%)" offset="0.769531"/><stop stop-opacity="1" stop-color="rgb(100%, 63.328552%, 31.199646%)" offset="0.78125"/><stop stop-opacity="1" stop-color="rgb(100%, 62.974548%, 31.144714%)" offset="0.792969"/><stop stop-opacity="1" stop-color="rgb(100%, 62.620544%, 31.089783%)" offset="0.804688"/><stop stop-opacity="1" stop-color="rgb(100%, 62.32605%, 31.044006%)" offset="0.816406"/><stop stop-opacity="1" stop-color="rgb(100%, 62.089539%, 31.007385%)" offset="0.824219"/><stop stop-opacity="1" stop-color="rgb(100%, 61.853027%, 30.970764%)" offset="0.832031"/><stop stop-opacity="1" stop-color="rgb(100%, 61.618042%, 30.934143%)" offset="0.839844"/><stop stop-opacity="1" stop-color="rgb(100%, 61.381531%, 30.897522%)" offset="0.847656"/><stop stop-opacity="1" stop-color="rgb(100%, 61.14502%, 30.859375%)" offset="0.855469"/><stop stop-opacity="1" stop-color="rgb(100%, 60.910034%, 30.822754%)" offset="0.863281"/><stop stop-opacity="1" stop-color="rgb(100%, 60.673523%, 30.786133%)" offset="0.871094"/><stop stop-opacity="1" stop-color="rgb(100%, 60.379028%, 30.740356%)" offset="0.878906"/><stop stop-opacity="1" stop-color="rgb(100%, 60.025024%, 30.685425%)" offset="0.890625"/><stop stop-opacity="1" stop-color="rgb(100%, 59.671021%, 30.630493%)" offset="0.902344"/><stop stop-opacity="1" stop-color="rgb(100%, 59.376526%, 30.584717%)" offset="0.914062"/><stop stop-opacity="1" stop-color="rgb(100%, 59.140015%, 30.548096%)" offset="0.921875"/><stop stop-opacity="1" stop-color="rgb(100%, 58.903503%, 30.511475%)" offset="0.929688"/><stop stop-opacity="1" stop-color="rgb(100%, 58.668518%, 30.474854%)" offset="0.9375"/><stop stop-opacity="1" stop-color="rgb(100%, 58.374023%, 30.429077%)" offset="0.945312"/><stop stop-opacity="1" stop-color="rgb(100%, 58.078003%, 30.383301%)" offset="0.957031"/><stop stop-opacity="1" stop-color="rgb(100%, 57.843018%, 30.34668%)" offset="0.964844"/><stop stop-opacity="1" stop-color="rgb(100%, 57.548523%, 30.300903%)" offset="0.972656"/><stop stop-opacity="1" stop-color="rgb(100%, 57.252502%, 30.253601%)" offset="0.984375"/><stop stop-opacity="1" stop-color="rgb(100%, 57.015991%, 30.21698%)" offset="0.992188"/><stop stop-opacity="1" stop-color="rgb(100%, 56.898499%, 30.198669%)" offset="1"/></radialGradient><clipPath id="fe1b6326c0"><path d="M 42 19.078125 L 55.539062 19.078125 L 55.539062 32 L 42 32 Z M 42 19.078125 " clip-rule="nonzero"/></clipPath><clipPath id="a5a3f91e5d"><path d="M 19.539062 49 L 24 49 L 24 54 L 19.539062 54 Z M 19.539062 49 " clip-rule="nonzero"/></clipPath><clipPath id="66627bdaea"><path d="M 20 34 L 40 34 L 40 55.828125 L 20 55.828125 Z M 20 34 " clip-rule="nonzero"/></clipPath><clipPath id="ee75ccd68e"><path d="M 42 40 L 55.539062 40 L 55.539062 54 L 42 54 Z M 42 40 " clip-rule="nonzero"/></clipPath><clipPath id="e7b9fd13f8"><path d="M 21 19.078125 L 34 19.078125 L 34 32 L 21 32 Z M 21 19.078125 " clip-rule="nonzero"/></clipPath></defs><rect x="-7.5" width="90" fill="#ffffff" y="-7.5" height="89.999996" fill-opacity="1"/><rect x="-7.5" width="90" fill="#ffffff" y="-7.5" height="89.999996" fill-opacity="1"/><g clip-path="url(#2705d4df09)"><g clip-path="url(#f9270f13b2)"><path fill="url(#793bdc649d)" d="M 1.164062 1.164062 L 1.164062 73.835938 L 73.835938 73.835938 L 73.835938 1.164062 Z M 1.164062 1.164062 " fill-rule="nonzero"/></g></g><path fill="#ffffff" d="M 51.078125 26.871094 C 50.683594 26.871094 50.363281 27.195312 50.363281 27.589844 C 50.363281 27.988281 50.683594 28.3125 51.078125 28.3125 C 51.476562 28.3125 51.800781 27.988281 51.800781 27.589844 C 51.800781 27.195312 51.476562 26.871094 51.078125 26.871094 " fill-opacity="1" fill-rule="nonzero"/><path fill="#ffffff" d="M 46.601562 24.601562 C 46.207031 24.601562 45.886719 24.921875 45.886719 25.320312 C 45.886719 25.71875 46.207031 26.039062 46.601562 26.039062 C 47 26.039062 47.324219 25.71875 47.324219 25.320312 C 47.324219 24.921875 47 24.601562 46.601562 24.601562 " fill-opacity="1" fill-rule="nonzero"/><g clip-path="url(#fe1b6326c0)"><path fill="#ffffff" d="M 52.601562 27.878906 C 52.460938 28.632812 51.789062 29.171875 51.019531 29.140625 C 50.25 29.109375 49.625 28.519531 49.542969 27.753906 L 47.574219 26.523438 C 46.9375 27.039062 46.011719 26.96875 45.460938 26.363281 C 44.90625 25.757812 44.921875 24.828125 45.492188 24.238281 C 46.066406 23.65625 46.996094 23.613281 47.617188 24.152344 L 49.53125 23.042969 C 49.535156 22.1875 50.230469 21.5 51.085938 21.503906 C 51.9375 21.503906 52.628906 22.199219 52.628906 23.054688 C 52.625 23.90625 51.933594 24.597656 51.078125 24.597656 C 50.546875 24.597656 50.046875 24.320312 49.765625 23.863281 L 48.074219 24.839844 C 48.179688 25.167969 48.175781 25.523438 48.058594 25.847656 L 49.707031 26.882812 C 50.058594 26.199219 50.859375 25.878906 51.585938 26.128906 C 52.3125 26.378906 52.746094 27.121094 52.601562 27.878906 Z M 49.1875 19.089844 C 45.746094 19.089844 42.957031 21.878906 42.957031 25.320312 C 42.957031 28.761719 45.746094 31.550781 49.1875 31.550781 C 52.628906 31.550781 55.417969 28.761719 55.417969 25.320312 C 55.414062 21.878906 52.625 19.09375 49.1875 19.089844 " fill-opacity="1" fill-rule="nonzero"/></g><path fill="#ffffff" d="M 51.078125 23.769531 C 51.476562 23.769531 51.800781 23.449219 51.800781 23.050781 C 51.800781 22.652344 51.476562 22.332031 51.078125 22.332031 C 50.683594 22.332031 50.363281 22.652344 50.363281 23.050781 C 50.363281 23.449219 50.683594 23.769531 51.078125 23.769531 " fill-opacity="1" fill-rule="nonzero"/><path fill="#ffffff" d="M 33.988281 37.3125 L 36.820312 40.507812 C 37.59375 39.824219 37.585938 38.554688 36.800781 37.667969 C 36.019531 36.789062 34.761719 36.625 33.988281 37.3125 " fill-opacity="1" fill-rule="nonzero"/><path fill="#ffffff" d="M 38.730469 40.175781 L 39.324219 40.84375 C 39.324219 40.84375 40.476562 38.484375 38.457031 36.207031 C 36.441406 33.929688 33.957031 34.785156 33.957031 34.785156 L 34.554688 35.460938 C 34.554688 35.460938 36.21875 34.902344 37.851562 36.742188 C 39.484375 38.585938 38.730469 40.175781 38.730469 40.175781 " fill-opacity="1" fill-rule="nonzero"/><path fill="#ffffff" d="M 40.996094 39.074219 L 41.675781 39.839844 C 41.675781 39.839844 42.609375 37.230469 40.273438 34.59375 C 37.941406 31.960938 35.238281 32.570312 35.238281 32.570312 L 35.894531 33.3125 C 35.894531 33.3125 37.804688 33.023438 39.667969 35.128906 C 41.535156 37.238281 40.996094 39.074219 40.996094 39.074219 " fill-opacity="1" fill-rule="nonzero"/><path fill="#ffffff" d="M 43.324219 38.039062 L 44.03125 38.835938 C 44.03125 38.835938 45.078125 36.351562 42.089844 32.984375 C 39.109375 29.617188 36.515625 30.355469 36.515625 30.355469 L 37.210938 31.144531 C 37.210938 31.144531 39.019531 30.738281 41.484375 33.519531 C 43.953125 36.308594 43.324219 38.039062 43.324219 38.039062 " fill-opacity="1" fill-rule="nonzero"/><g clip-path="url(#a5a3f91e5d)"><path fill="#ffffff" d="M 19.996094 49.453125 C 19.554688 49.84375 20.273438 51.375 20.726562 51.890625 C 21.183594 52.40625 22.621094 53.308594 23.0625 52.917969 L 23.316406 52.667969 L 20.21875 49.238281 L 19.996094 49.453125 " fill-opacity="1" fill-rule="nonzero"/></g><g clip-path="url(#66627bdaea)"><path fill="#ffffff" d="M 39.375 45.367188 L 29.464844 34.179688 C 29.464844 34.179688 27.699219 42.644531 21.703125 47.953125 L 20.851562 48.773438 L 23.945312 52.195312 L 24.445312 51.707031 L 27.96875 55.675781 C 28.164062 55.898438 28.5 55.917969 28.722656 55.722656 L 30.632812 54.027344 C 30.855469 53.832031 30.875 53.496094 30.679688 53.273438 L 27.359375 49.523438 C 32.929688 46.0625 39.375 45.367188 39.375 45.367188 " fill-opacity="1" fill-rule="nonzero"/></g><path fill="#ffffff" d="M 49.523438 44.835938 C 49.398438 44.773438 49.230469 44.703125 49.011719 44.632812 C 48.816406 44.566406 48.683594 44.511719 48.625 44.464844 C 48.5625 44.421875 48.535156 44.355469 48.535156 44.273438 C 48.535156 44.191406 48.566406 44.121094 48.628906 44.0625 C 48.691406 44.003906 48.773438 43.976562 48.878906 43.976562 C 49.082031 43.976562 49.234375 44.105469 49.332031 44.363281 L 49.835938 44.175781 C 49.714844 43.796875 49.453125 43.585938 49.042969 43.542969 L 49.042969 43.234375 L 48.679688 43.234375 L 48.679688 43.542969 C 48.40625 43.574219 48.207031 43.671875 48.082031 43.828125 C 47.957031 43.980469 47.894531 44.160156 47.894531 44.351562 C 47.894531 44.503906 47.929688 44.632812 48 44.746094 C 48.070312 44.859375 48.160156 44.945312 48.273438 45.007812 C 48.386719 45.070312 48.542969 45.132812 48.746094 45.195312 C 48.96875 45.269531 49.113281 45.328125 49.179688 45.375 C 49.242188 45.421875 49.277344 45.492188 49.277344 45.582031 C 49.277344 45.667969 49.242188 45.746094 49.179688 45.808594 C 49.113281 45.871094 49.011719 45.898438 48.875 45.898438 C 48.582031 45.898438 48.40625 45.757812 48.355469 45.464844 L 47.789062 45.597656 C 47.902344 46.0625 48.199219 46.316406 48.679688 46.359375 L 48.679688 46.757812 L 49.042969 46.757812 L 49.042969 46.359375 C 49.328125 46.332031 49.550781 46.238281 49.699219 46.082031 C 49.855469 45.929688 49.929688 45.734375 49.929688 45.5 C 49.929688 45.347656 49.894531 45.21875 49.820312 45.105469 C 49.746094 44.992188 49.648438 44.902344 49.523438 44.835938 " fill-opacity="1" fill-rule="nonzero"/><g clip-path="url(#ee75ccd68e)"><path fill="#ffffff" d="M 50.800781 49.207031 C 50.96875 49.054688 51.136719 48.910156 51.300781 48.757812 C 51.421875 48.648438 51.539062 48.539062 51.660156 48.425781 C 51.78125 48.3125 51.902344 48.195312 52.019531 48.082031 C 52.136719 47.964844 52.253906 47.847656 52.367188 47.726562 C 52.480469 47.605469 52.589844 47.484375 52.699219 47.363281 C 52.753906 47.300781 52.804688 47.242188 52.855469 47.175781 C 52.875 47.15625 52.890625 47.132812 52.90625 47.113281 C 52.917969 47.097656 52.925781 47.085938 52.9375 47.074219 C 52.945312 47.058594 52.957031 47.042969 52.96875 47.03125 C 52.910156 47.082031 52.855469 47.140625 52.804688 47.195312 C 52.761719 47.242188 52.71875 47.289062 52.675781 47.332031 C 52.5625 47.441406 52.445312 47.554688 52.328125 47.664062 C 52.210938 47.777344 52.09375 47.886719 51.976562 47.996094 C 51.859375 48.105469 51.738281 48.214844 51.613281 48.320312 C 51.492188 48.429688 51.371094 48.535156 51.242188 48.640625 C 51.117188 48.746094 50.988281 48.851562 50.859375 48.953125 C 50.828125 48.980469 50.792969 49.003906 50.761719 49.03125 C 50.742188 49.042969 50.726562 49.054688 50.710938 49.066406 C 50.703125 49.074219 50.660156 49.097656 50.660156 49.105469 C 50.660156 49.046875 50.660156 49.011719 50.660156 48.984375 C 50.695312 48.230469 50.898438 47.527344 51.273438 46.875 C 51.554688 46.382812 51.953125 46.019531 52.492188 45.8125 C 53.039062 45.605469 53.617188 45.546875 54.183594 45.449219 C 54.335938 45.421875 54.492188 45.367188 54.652344 45.390625 C 54.683594 47.707031 53.007812 49.214844 50.800781 49.207031 Z M 48.867188 47.433594 C 47.550781 47.445312 46.441406 46.359375 46.425781 45.042969 C 46.410156 43.734375 47.382812 42.566406 48.851562 42.554688 C 50.285156 42.546875 51.269531 43.683594 51.289062 44.945312 C 51.3125 46.324219 50.234375 47.421875 48.867188 47.433594 Z M 49.992188 50.675781 C 49.96875 50.777344 49.941406 50.878906 49.910156 50.980469 C 49.835938 50.976562 49.757812 50.972656 49.679688 50.972656 C 49.507812 50.972656 49.347656 50.988281 49.199219 51.007812 C 49.246094 50.886719 49.292969 50.765625 49.335938 50.644531 C 49.601562 49.890625 49.667969 49.136719 49.3125 48.390625 C 49.265625 48.292969 49.261719 48.183594 49.285156 48.078125 C 49.320312 47.90625 49.484375 47.859375 49.613281 47.972656 C 49.6875 48.042969 49.738281 48.128906 49.785156 48.21875 C 50.015625 48.648438 50.089844 49.121094 50.121094 49.644531 C 50.085938 49.960938 50.074219 50.320312 49.992188 50.675781 Z M 48.785156 49.289062 C 48.066406 49.597656 47.320312 49.75 46.539062 49.683594 C 46.050781 49.644531 45.59375 49.511719 45.199219 49.1875 C 44.574219 48.671875 44.203125 47.957031 43.71875 47.308594 C 45.632812 46.386719 47.695312 46.914062 48.855469 49.242188 C 48.832031 49.257812 48.808594 49.277344 48.785156 49.289062 Z M 49.1875 40.550781 C 45.746094 40.550781 42.957031 43.339844 42.957031 46.78125 C 42.957031 50.222656 45.746094 53.011719 49.1875 53.011719 C 52.628906 53.011719 55.417969 50.222656 55.417969 46.78125 C 55.414062 43.339844 52.625 40.554688 49.1875 40.550781 " fill-opacity="1" fill-rule="nonzero"/></g><path fill="#ffffff" d="M 25.792969 26.640625 C 25.78125 26.628906 25.757812 26.628906 25.742188 26.632812 C 25.683594 26.664062 25.628906 26.679688 25.570312 26.679688 L 25.285156 26.679688 C 25.230469 26.679688 25.171875 26.664062 25.113281 26.632812 C 25.097656 26.628906 25.074219 26.628906 25.0625 26.640625 C 25.046875 26.652344 25.035156 26.667969 25.039062 26.6875 L 25.078125 26.992188 C 25.078125 26.996094 25.078125 27 25.082031 27.007812 L 25.378906 27.65625 C 25.390625 27.671875 25.40625 27.683594 25.429688 27.683594 C 25.445312 27.683594 25.46875 27.671875 25.472656 27.65625 L 25.773438 27.007812 C 25.777344 27 25.777344 27 25.777344 26.992188 L 25.816406 26.6875 C 25.816406 26.667969 25.8125 26.652344 25.792969 26.640625 " fill-opacity="1" fill-rule="nonzero"/><path fill="#ffffff" d="M 27.019531 28.554688 C 26.910156 28.554688 26.824219 28.644531 26.824219 28.753906 C 26.824219 28.859375 26.910156 28.949219 27.019531 28.949219 C 27.128906 28.949219 27.214844 28.859375 27.214844 28.753906 C 27.214844 28.644531 27.128906 28.554688 27.019531 28.554688 " fill-opacity="1" fill-rule="nonzero"/><path fill="#ffffff" d="M 27.03125 26.835938 C 26.683594 26.835938 26.449219 27.023438 26.414062 27.328125 C 26.410156 27.367188 26.417969 27.40625 26.441406 27.4375 C 26.464844 27.464844 26.503906 27.484375 26.539062 27.488281 L 26.550781 27.488281 C 26.628906 27.5 26.703125 27.441406 26.710938 27.363281 C 26.726562 27.210938 26.835938 27.136719 27.027344 27.136719 C 27.175781 27.136719 27.347656 27.179688 27.347656 27.386719 C 27.347656 27.566406 27.265625 27.640625 27.15625 27.746094 C 27.035156 27.859375 26.886719 28 26.875 28.289062 C 26.875 28.328125 26.890625 28.363281 26.917969 28.390625 C 26.945312 28.421875 26.984375 28.433594 27.019531 28.433594 L 27.035156 28.433594 C 27.109375 28.433594 27.175781 28.375 27.175781 28.296875 C 27.183594 28.128906 27.265625 28.050781 27.371094 27.949219 C 27.496094 27.835938 27.648438 27.691406 27.648438 27.390625 C 27.648438 27.050781 27.40625 26.835938 27.03125 26.835938 " fill-opacity="1" fill-rule="nonzero"/><path fill="#ffffff" d="M 26.132812 25.613281 L 26.132812 25.527344 C 26.132812 25.5 26.109375 25.476562 26.082031 25.476562 L 26.058594 25.476562 L 26.058594 25.472656 C 26.058594 25.449219 26.042969 25.425781 26.015625 25.421875 C 25.980469 25.417969 25.9375 25.40625 25.882812 25.386719 C 25.75 25.34375 25.574219 25.292969 25.359375 25.292969 C 25.34375 25.292969 25.328125 25.292969 25.308594 25.292969 C 25.296875 25.292969 25.28125 25.292969 25.269531 25.292969 C 25.226562 25.292969 25.175781 25.296875 25.128906 25.296875 C 25.054688 25.296875 24.949219 25.292969 24.871094 25.253906 C 24.855469 25.246094 24.835938 25.246094 24.820312 25.253906 C 24.804688 25.265625 24.796875 25.28125 24.796875 25.300781 L 24.796875 25.476562 L 24.777344 25.476562 C 24.746094 25.476562 24.722656 25.5 24.722656 25.527344 L 24.722656 25.613281 C 24.722656 25.632812 24.730469 25.648438 24.746094 25.65625 L 24.796875 25.6875 L 24.800781 25.710938 C 24.816406 25.832031 24.886719 25.992188 24.984375 26.136719 C 25.109375 26.320312 25.230469 26.402344 25.289062 26.402344 L 25.566406 26.402344 C 25.628906 26.402344 25.746094 26.320312 25.871094 26.136719 C 25.972656 25.992188 26.039062 25.832031 26.054688 25.710938 L 26.058594 25.6875 L 26.109375 25.65625 C 26.125 25.648438 26.132812 25.628906 26.132812 25.613281 " fill-opacity="1" fill-rule="nonzero"/><g clip-path="url(#e7b9fd13f8)"><path fill="#ffffff" d="M 31.878906 28.707031 C 31.878906 28.878906 31.738281 29.015625 31.566406 29.015625 L 30.1875 29.015625 L 30.675781 27.070312 L 30.460938 26.855469 L 31.257812 26.855469 C 31.601562 26.855469 31.878906 27.132812 31.878906 27.472656 Z M 29.714844 27.164062 L 30.023438 26.855469 L 30.332031 27.164062 L 30.023438 28.398438 Z M 28.480469 29.015625 C 28.308594 29.015625 28.167969 28.878906 28.167969 28.707031 L 28.167969 27.472656 C 28.167969 27.132812 28.445312 26.855469 28.789062 26.855469 L 29.585938 26.855469 L 29.371094 27.070312 L 29.859375 29.015625 Z M 27.539062 28.140625 C 27.4375 28.234375 27.429688 28.246094 27.425781 28.304688 C 27.425781 28.371094 27.40625 28.429688 27.378906 28.484375 C 27.429688 28.5625 27.464844 28.652344 27.464844 28.753906 C 27.464844 29.003906 27.261719 29.207031 27.011719 29.207031 C 26.761719 29.207031 26.558594 29.003906 26.558594 28.757812 L 23.726562 28.757812 C 23.644531 28.757812 23.574219 28.6875 23.574219 28.605469 C 23.574219 28.597656 23.574219 28.59375 23.574219 28.585938 C 23.574219 28.585938 23.816406 26.84375 24.21875 26.726562 L 24.792969 26.554688 C 23.875 26.554688 24.210938 24.265625 25.296875 24.265625 L 25.558594 24.265625 C 26.488281 24.265625 27.03125 26.554688 26.066406 26.554688 L 26.535156 26.699219 C 26.675781 26.617188 26.839844 26.578125 27.023438 26.578125 C 27.269531 26.578125 27.484375 26.652344 27.644531 26.792969 C 27.808594 26.941406 27.898438 27.152344 27.898438 27.390625 C 27.898438 27.804688 27.671875 28.015625 27.539062 28.140625 Z M 25.339844 21.164062 C 25.339844 21.144531 25.351562 21.132812 25.371094 21.132812 L 26.929688 21.132812 L 26.929688 20.71875 C 26.929688 20.703125 26.945312 20.691406 26.960938 20.691406 L 30.101562 20.691406 C 30.113281 20.691406 30.128906 20.703125 30.128906 20.71875 L 30.128906 22.691406 C 30.128906 22.707031 30.113281 22.71875 30.101562 22.71875 L 29.355469 22.71875 L 29.355469 23.394531 C 29.355469 23.460938 29.328125 23.484375 29.304688 23.488281 C 29.300781 23.492188 29.296875 23.492188 29.289062 23.492188 C 29.289062 23.492188 29.289062 23.492188 29.285156 23.492188 C 29.285156 23.492188 29.28125 23.492188 29.28125 23.492188 C 29.28125 23.492188 29.28125 23.492188 29.277344 23.492188 C 29.277344 23.492188 29.273438 23.492188 29.273438 23.492188 C 29.273438 23.492188 29.273438 23.492188 29.273438 23.488281 C 29.273438 23.488281 29.273438 23.488281 29.269531 23.488281 C 29.265625 23.488281 29.265625 23.488281 29.265625 23.488281 C 29.261719 23.488281 29.261719 23.488281 29.261719 23.484375 C 29.257812 23.484375 29.257812 23.484375 29.257812 23.484375 C 29.253906 23.484375 29.253906 23.484375 29.25 23.484375 C 29.25 23.480469 29.25 23.480469 29.25 23.480469 C 29.246094 23.480469 29.246094 23.480469 29.242188 23.476562 C 29.238281 23.476562 29.238281 23.472656 29.234375 23.472656 C 29.234375 23.472656 29.230469 23.472656 29.230469 23.472656 C 29.226562 23.46875 29.226562 23.46875 29.222656 23.464844 C 29.199219 23.449219 29.171875 23.425781 29.136719 23.386719 L 29.078125 23.324219 L 28.6875 22.871094 L 28.6875 23.285156 C 28.6875 23.300781 28.675781 23.3125 28.660156 23.3125 L 26.964844 23.3125 L 26.433594 23.90625 L 26.429688 23.910156 L 26.386719 23.957031 C 26.316406 24.03125 26.269531 24.0625 26.238281 24.070312 C 26.222656 24.078125 26.210938 24.078125 26.203125 24.078125 C 26.199219 24.078125 26.195312 24.078125 26.1875 24.078125 C 26.1875 24.078125 26.183594 24.074219 26.183594 24.074219 C 26.183594 24.074219 26.179688 24.074219 26.175781 24.074219 C 26.171875 24.070312 26.167969 24.070312 26.164062 24.070312 C 26.164062 24.070312 26.160156 24.070312 26.160156 24.066406 C 26.160156 24.066406 26.15625 24.066406 26.15625 24.0625 C 26.152344 24.0625 26.148438 24.058594 26.144531 24.054688 C 26.144531 24.054688 26.140625 24.050781 26.140625 24.050781 C 26.136719 24.046875 26.136719 24.042969 26.132812 24.039062 C 26.128906 24.03125 26.125 24.027344 26.121094 24.019531 C 26.121094 24.011719 26.117188 24.003906 26.117188 24 C 26.117188 23.996094 26.117188 23.996094 26.117188 23.992188 C 26.113281 23.984375 26.113281 23.976562 26.113281 23.96875 L 26.113281 23.3125 L 25.371094 23.3125 C 25.351562 23.3125 25.339844 23.300781 25.339844 23.285156 Z M 31.257812 25.3125 C 31.257812 25.992188 30.707031 26.546875 30.023438 26.546875 C 29.34375 26.546875 28.789062 25.992188 28.789062 25.3125 C 28.789062 24.628906 29.34375 24.074219 30.023438 24.074219 C 30.707031 24.074219 31.257812 24.628906 31.257812 25.3125 Z M 27.726562 19.089844 C 24.285156 19.089844 21.496094 21.878906 21.496094 25.320312 C 21.5 28.761719 24.285156 31.546875 27.726562 31.550781 C 31.167969 31.550781 33.957031 28.761719 33.957031 25.320312 C 33.957031 21.878906 31.167969 19.089844 27.726562 19.089844 " fill-opacity="1" fill-rule="nonzero"/></g><path fill="#ffffff" d="M 29.714844 24.695312 C 29.457031 25.09375 29.097656 25.3125 29.097656 25.3125 C 29.097656 25.820312 29.511719 26.238281 30.023438 26.238281 C 30.535156 26.238281 30.949219 25.820312 30.949219 25.3125 C 30.023438 25.3125 29.894531 24.871094 29.714844 24.695312 " fill-opacity="1" fill-rule="nonzero"/></svg>