<svg xmlns="http://www.w3.org/2000/svg" xmlns:xlink="http://www.w3.org/1999/xlink" width="100" zoomAndPan="magnify" viewBox="0 0 75 74.999997" height="100" preserveAspectRatio="xMidYMid meet" version="1.0"><defs><clipPath id="3660b20f5f"><path d="M 1.164062 1.164062 L 73.835938 1.164062 L 73.835938 73.835938 L 1.164062 73.835938 Z M 1.164062 1.164062 " clip-rule="nonzero"/></clipPath><clipPath id="ab1712142e"><path d="M 37.5 1.164062 C 17.429688 1.164062 1.164062 17.429688 1.164062 37.5 C 1.164062 57.570312 17.429688 73.835938 37.5 73.835938 C 57.570312 73.835938 73.835938 57.570312 73.835938 37.5 C 73.835938 17.429688 57.570312 1.164062 37.5 1.164062 Z M 37.5 1.164062 " clip-rule="nonzero"/></clipPath><linearGradient x1="-0.000000241073" gradientTransform="matrix(0.283887, 0, 0, 0.283887, 1.162501, 1.162498)" y1="128" x2="256.000006" gradientUnits="userSpaceOnUse" y2="128" id="c00c1b9102"><stop stop-opacity="1" stop-color="rgb(100%, 19.198608%, 19.198608%)" offset="0"/><stop stop-opacity="1" stop-color="rgb(100%, 19.345093%, 19.241333%)" offset="0.0078125"/><stop stop-opacity="1" stop-color="rgb(100%, 19.639587%, 19.328308%)" offset="0.015625"/><stop stop-opacity="1" stop-color="rgb(100%, 19.934082%, 19.413757%)" offset="0.0234375"/><stop stop-opacity="1" stop-color="rgb(100%, 20.230103%, 19.499207%)" offset="0.03125"/><stop stop-opacity="1" stop-color="rgb(100%, 20.524597%, 19.586182%)" offset="0.0390625"/><stop stop-opacity="1" stop-color="rgb(100%, 20.819092%, 19.671631%)" offset="0.046875"/><stop stop-opacity="1" stop-color="rgb(100%, 21.113586%, 19.75708%)" offset="0.0546875"/><stop stop-opacity="1" stop-color="rgb(100%, 21.408081%, 19.844055%)" offset="0.0625"/><stop stop-opacity="1" stop-color="rgb(100%, 21.702576%, 19.929504%)" offset="0.0703125"/><stop stop-opacity="1" stop-color="rgb(100%, 21.99707%, 20.014954%)" offset="0.078125"/><stop stop-opacity="1" stop-color="rgb(100%, 22.291565%, 20.101929%)" offset="0.0859375"/><stop stop-opacity="1" stop-color="rgb(100%, 22.58606%, 20.187378%)" offset="0.09375"/><stop stop-opacity="1" stop-color="rgb(100%, 22.880554%, 20.272827%)" offset="0.101563"/><stop stop-opacity="1" stop-color="rgb(100%, 23.175049%, 20.359802%)" offset="0.109375"/><stop stop-opacity="1" stop-color="rgb(100%, 23.469543%, 20.445251%)" offset="0.117188"/><stop stop-opacity="1" stop-color="rgb(100%, 23.764038%, 20.530701%)" offset="0.125"/><stop stop-opacity="1" stop-color="rgb(100%, 24.058533%, 20.617676%)" offset="0.132813"/><stop stop-opacity="1" stop-color="rgb(100%, 24.353027%, 20.703125%)" offset="0.140625"/><stop stop-opacity="1" stop-color="rgb(100%, 24.647522%, 20.788574%)" offset="0.148438"/><stop stop-opacity="1" stop-color="rgb(100%, 24.942017%, 20.874023%)" offset="0.15625"/><stop stop-opacity="1" stop-color="rgb(100%, 25.236511%, 20.960999%)" offset="0.164063"/><stop stop-opacity="1" stop-color="rgb(100%, 25.531006%, 21.046448%)" offset="0.171875"/><stop stop-opacity="1" stop-color="rgb(100%, 25.8255%, 21.131897%)" offset="0.179688"/><stop stop-opacity="1" stop-color="rgb(100%, 26.119995%, 21.218872%)" offset="0.1875"/><stop stop-opacity="1" stop-color="rgb(100%, 26.41449%, 21.304321%)" offset="0.195313"/><stop stop-opacity="1" stop-color="rgb(100%, 26.708984%, 21.389771%)" offset="0.203125"/><stop stop-opacity="1" stop-color="rgb(100%, 27.003479%, 21.476746%)" offset="0.210938"/><stop stop-opacity="1" stop-color="rgb(100%, 27.297974%, 21.562195%)" offset="0.21875"/><stop stop-opacity="1" stop-color="rgb(100%, 27.592468%, 21.647644%)" offset="0.226563"/><stop stop-opacity="1" stop-color="rgb(100%, 27.886963%, 21.734619%)" offset="0.234375"/><stop stop-opacity="1" stop-color="rgb(100%, 28.181458%, 21.820068%)" offset="0.242188"/><stop stop-opacity="1" stop-color="rgb(100%, 28.475952%, 21.905518%)" offset="0.25"/><stop stop-opacity="1" stop-color="rgb(100%, 28.770447%, 21.992493%)" offset="0.257813"/><stop stop-opacity="1" stop-color="rgb(100%, 29.064941%, 22.077942%)" offset="0.265625"/><stop stop-opacity="1" stop-color="rgb(100%, 29.359436%, 22.163391%)" offset="0.273438"/><stop stop-opacity="1" stop-color="rgb(100%, 29.653931%, 22.250366%)" offset="0.28125"/><stop stop-opacity="1" stop-color="rgb(100%, 29.948425%, 22.335815%)" offset="0.289063"/><stop stop-opacity="1" stop-color="rgb(100%, 30.24292%, 22.421265%)" offset="0.296875"/><stop stop-opacity="1" stop-color="rgb(100%, 30.537415%, 22.50824%)" offset="0.304688"/><stop stop-opacity="1" stop-color="rgb(100%, 30.831909%, 22.593689%)" offset="0.3125"/><stop stop-opacity="1" stop-color="rgb(100%, 31.126404%, 22.679138%)" offset="0.320313"/><stop stop-opacity="1" stop-color="rgb(100%, 31.420898%, 22.766113%)" offset="0.328125"/><stop stop-opacity="1" stop-color="rgb(100%, 31.715393%, 22.851562%)" offset="0.335938"/><stop stop-opacity="1" stop-color="rgb(100%, 32.009888%, 22.937012%)" offset="0.34375"/><stop stop-opacity="1" stop-color="rgb(100%, 32.304382%, 23.022461%)" offset="0.351563"/><stop stop-opacity="1" stop-color="rgb(100%, 32.600403%, 23.109436%)" offset="0.359375"/><stop stop-opacity="1" stop-color="rgb(100%, 32.894897%, 23.194885%)" offset="0.367188"/><stop stop-opacity="1" stop-color="rgb(100%, 33.189392%, 23.280334%)" offset="0.375"/><stop stop-opacity="1" stop-color="rgb(100%, 33.483887%, 23.36731%)" offset="0.382812"/><stop stop-opacity="1" stop-color="rgb(100%, 33.778381%, 23.452759%)" offset="0.390625"/><stop stop-opacity="1" stop-color="rgb(100%, 34.072876%, 23.538208%)" offset="0.398438"/><stop stop-opacity="1" stop-color="rgb(100%, 34.367371%, 23.625183%)" offset="0.40625"/><stop stop-opacity="1" stop-color="rgb(100%, 34.661865%, 23.710632%)" offset="0.414062"/><stop stop-opacity="1" stop-color="rgb(100%, 34.95636%, 23.796082%)" offset="0.421875"/><stop stop-opacity="1" stop-color="rgb(100%, 35.250854%, 23.883057%)" offset="0.429687"/><stop stop-opacity="1" stop-color="rgb(100%, 35.545349%, 23.968506%)" offset="0.4375"/><stop stop-opacity="1" stop-color="rgb(100%, 35.839844%, 24.053955%)" offset="0.445312"/><stop stop-opacity="1" stop-color="rgb(100%, 36.134338%, 24.14093%)" offset="0.453125"/><stop stop-opacity="1" stop-color="rgb(100%, 36.428833%, 24.226379%)" offset="0.460937"/><stop stop-opacity="1" stop-color="rgb(100%, 36.723328%, 24.311829%)" offset="0.46875"/><stop stop-opacity="1" stop-color="rgb(100%, 37.017822%, 24.398804%)" offset="0.476562"/><stop stop-opacity="1" stop-color="rgb(100%, 37.312317%, 24.484253%)" offset="0.484375"/><stop stop-opacity="1" stop-color="rgb(100%, 37.606812%, 24.569702%)" offset="0.492187"/><stop stop-opacity="1" stop-color="rgb(100%, 37.901306%, 24.656677%)" offset="0.5"/><stop stop-opacity="1" stop-color="rgb(100%, 38.195801%, 24.742126%)" offset="0.507812"/><stop stop-opacity="1" stop-color="rgb(100%, 38.490295%, 24.827576%)" offset="0.515625"/><stop stop-opacity="1" stop-color="rgb(100%, 38.78479%, 24.914551%)" offset="0.523438"/><stop stop-opacity="1" stop-color="rgb(100%, 39.079285%, 25%)" offset="0.53125"/><stop stop-opacity="1" stop-color="rgb(100%, 39.373779%, 25.085449%)" offset="0.539062"/><stop stop-opacity="1" stop-color="rgb(100%, 39.668274%, 25.170898%)" offset="0.546875"/><stop stop-opacity="1" stop-color="rgb(100%, 39.962769%, 25.257874%)" offset="0.554688"/><stop stop-opacity="1" stop-color="rgb(100%, 40.257263%, 25.343323%)" offset="0.5625"/><stop stop-opacity="1" stop-color="rgb(100%, 40.551758%, 25.428772%)" offset="0.570313"/><stop stop-opacity="1" stop-color="rgb(100%, 40.846252%, 25.515747%)" offset="0.578125"/><stop stop-opacity="1" stop-color="rgb(100%, 41.140747%, 25.601196%)" offset="0.585938"/><stop stop-opacity="1" stop-color="rgb(100%, 41.435242%, 25.686646%)" offset="0.59375"/><stop stop-opacity="1" stop-color="rgb(100%, 41.729736%, 25.773621%)" offset="0.601563"/><stop stop-opacity="1" stop-color="rgb(100%, 42.024231%, 25.85907%)" offset="0.609375"/><stop stop-opacity="1" stop-color="rgb(100%, 42.318726%, 25.944519%)" offset="0.617188"/><stop stop-opacity="1" stop-color="rgb(100%, 42.61322%, 26.031494%)" offset="0.625"/><stop stop-opacity="1" stop-color="rgb(100%, 42.907715%, 26.116943%)" offset="0.632813"/><stop stop-opacity="1" stop-color="rgb(100%, 43.202209%, 26.202393%)" offset="0.640625"/><stop stop-opacity="1" stop-color="rgb(100%, 43.496704%, 26.289368%)" offset="0.648438"/><stop stop-opacity="1" stop-color="rgb(100%, 43.791199%, 26.374817%)" offset="0.65625"/><stop stop-opacity="1" stop-color="rgb(100%, 44.085693%, 26.460266%)" offset="0.664063"/><stop stop-opacity="1" stop-color="rgb(100%, 44.380188%, 26.547241%)" offset="0.671875"/><stop stop-opacity="1" stop-color="rgb(100%, 44.676208%, 26.63269%)" offset="0.679688"/><stop stop-opacity="1" stop-color="rgb(100%, 44.970703%, 26.71814%)" offset="0.6875"/><stop stop-opacity="1" stop-color="rgb(100%, 45.265198%, 26.805115%)" offset="0.695312"/><stop stop-opacity="1" stop-color="rgb(100%, 45.559692%, 26.890564%)" offset="0.703125"/><stop stop-opacity="1" stop-color="rgb(100%, 45.854187%, 26.976013%)" offset="0.710938"/><stop stop-opacity="1" stop-color="rgb(100%, 46.148682%, 27.062988%)" offset="0.71875"/><stop stop-opacity="1" stop-color="rgb(100%, 46.443176%, 27.148438%)" offset="0.726562"/><stop stop-opacity="1" stop-color="rgb(100%, 46.737671%, 27.233887%)" offset="0.734375"/><stop stop-opacity="1" stop-color="rgb(100%, 47.032166%, 27.319336%)" offset="0.742188"/><stop stop-opacity="1" stop-color="rgb(100%, 47.32666%, 27.406311%)" offset="0.75"/><stop stop-opacity="1" stop-color="rgb(100%, 47.621155%, 27.49176%)" offset="0.757812"/><stop stop-opacity="1" stop-color="rgb(100%, 47.915649%, 27.577209%)" offset="0.765625"/><stop stop-opacity="1" stop-color="rgb(100%, 48.210144%, 27.664185%)" offset="0.773438"/><stop stop-opacity="1" stop-color="rgb(100%, 48.504639%, 27.749634%)" offset="0.78125"/><stop stop-opacity="1" stop-color="rgb(100%, 48.799133%, 27.835083%)" offset="0.789062"/><stop stop-opacity="1" stop-color="rgb(100%, 49.093628%, 27.922058%)" offset="0.796875"/><stop stop-opacity="1" stop-color="rgb(100%, 49.388123%, 28.007507%)" offset="0.804688"/><stop stop-opacity="1" stop-color="rgb(100%, 49.682617%, 28.092957%)" offset="0.8125"/><stop stop-opacity="1" stop-color="rgb(100%, 49.977112%, 28.179932%)" offset="0.820312"/><stop stop-opacity="1" stop-color="rgb(100%, 50.271606%, 28.265381%)" offset="0.828125"/><stop stop-opacity="1" stop-color="rgb(100%, 50.566101%, 28.35083%)" offset="0.835937"/><stop stop-opacity="1" stop-color="rgb(100%, 50.860596%, 28.437805%)" offset="0.84375"/><stop stop-opacity="1" stop-color="rgb(100%, 51.15509%, 28.523254%)" offset="0.851562"/><stop stop-opacity="1" stop-color="rgb(100%, 51.449585%, 28.608704%)" offset="0.859375"/><stop stop-opacity="1" stop-color="rgb(100%, 51.74408%, 28.695679%)" offset="0.867187"/><stop stop-opacity="1" stop-color="rgb(100%, 52.038574%, 28.781128%)" offset="0.875"/><stop stop-opacity="1" stop-color="rgb(100%, 52.333069%, 28.866577%)" offset="0.882812"/><stop stop-opacity="1" stop-color="rgb(100%, 52.627563%, 28.953552%)" offset="0.890625"/><stop stop-opacity="1" stop-color="rgb(100%, 52.922058%, 29.039001%)" offset="0.898437"/><stop stop-opacity="1" stop-color="rgb(100%, 53.216553%, 29.124451%)" offset="0.90625"/><stop stop-opacity="1" stop-color="rgb(100%, 53.511047%, 29.211426%)" offset="0.914062"/><stop stop-opacity="1" stop-color="rgb(100%, 53.805542%, 29.296875%)" offset="0.921875"/><stop stop-opacity="1" stop-color="rgb(100%, 54.100037%, 29.382324%)" offset="0.929687"/><stop stop-opacity="1" stop-color="rgb(100%, 54.394531%, 29.467773%)" offset="0.9375"/><stop stop-opacity="1" stop-color="rgb(100%, 54.689026%, 29.554749%)" offset="0.945312"/><stop stop-opacity="1" stop-color="rgb(100%, 54.983521%, 29.640198%)" offset="0.953125"/><stop stop-opacity="1" stop-color="rgb(100%, 55.278015%, 29.725647%)" offset="0.960938"/><stop stop-opacity="1" stop-color="rgb(100%, 55.57251%, 29.812622%)" offset="0.96875"/><stop stop-opacity="1" stop-color="rgb(100%, 55.867004%, 29.898071%)" offset="0.976562"/><stop stop-opacity="1" stop-color="rgb(100%, 56.161499%, 29.983521%)" offset="0.984375"/><stop stop-opacity="1" stop-color="rgb(100%, 56.455994%, 30.070496%)" offset="0.992188"/><stop stop-opacity="1" stop-color="rgb(100%, 56.750488%, 30.155945%)" offset="1"/></linearGradient><clipPath id="d3c4aee329"><path d="M 20.476562 20.476562 L 52 20.476562 L 52 46 L 20.476562 46 Z M 20.476562 20.476562 " clip-rule="nonzero"/></clipPath><clipPath id="1188ad4e04"><path d="M 34 34 L 54.226562 34 L 54.226562 54.226562 L 34 54.226562 Z M 34 34 " clip-rule="nonzero"/></clipPath></defs><rect x="-7.5" width="90" fill="#ffffff" y="-7.5" height="89.999996" fill-opacity="1"/><rect x="-7.5" width="90" fill="#ffffff" y="-7.5" height="89.999996" fill-opacity="1"/><g clip-path="url(#3660b20f5f)"><g clip-path="url(#ab1712142e)"><path fill="url(#c00c1b9102)" d="M 1.164062 1.164062 L 1.164062 73.835938 L 73.835938 73.835938 L 73.835938 1.164062 Z M 1.164062 1.164062 " fill-rule="nonzero"/></g></g><g clip-path="url(#d3c4aee329)"><path fill="#ffffff" d="M 37.917969 44.871094 C 37.917969 44.558594 37.660156 44.304688 37.347656 44.304688 L 22.746094 44.304688 C 22.121094 44.304688 21.609375 43.792969 21.609375 43.171875 L 21.609375 22.746094 C 21.609375 22.121094 22.121094 21.609375 22.746094 21.609375 L 48.84375 21.609375 C 49.46875 21.609375 49.980469 22.121094 49.980469 22.746094 L 49.980469 33.246094 C 49.980469 33.558594 50.234375 33.8125 50.546875 33.8125 C 50.859375 33.8125 51.113281 33.558594 51.113281 33.246094 L 51.113281 22.746094 C 51.113281 21.492188 50.097656 20.476562 48.84375 20.476562 L 22.746094 20.476562 C 21.492188 20.476562 20.476562 21.492188 20.476562 22.746094 L 20.476562 43.171875 C 20.476562 44.425781 21.492188 45.441406 22.746094 45.441406 L 37.347656 45.441406 C 37.660156 45.441406 37.917969 45.183594 37.917969 44.871094 Z M 37.917969 44.871094 " fill-opacity="1" fill-rule="nonzero"/></g><path fill="#ffffff" d="M 32.238281 38.609375 C 32.507812 38.6875 32.796875 38.550781 32.910156 38.289062 L 35.035156 33.519531 L 39.773438 33.519531 C 40.011719 33.519531 40.21875 33.371094 40.304688 33.148438 L 41.90625 28.882812 L 47.867188 27.253906 C 48.167969 27.171875 48.351562 26.859375 48.265625 26.558594 C 48.179688 26.257812 47.867188 26.074219 47.566406 26.160156 L 41.328125 27.863281 C 41.152344 27.90625 41.007812 28.039062 40.945312 28.207031 L 39.378906 32.378906 L 34.664062 32.378906 C 34.4375 32.378906 34.238281 32.507812 34.148438 32.714844 L 32.078125 37.371094 L 28.578125 36.375 C 28.367188 36.316406 28.140625 36.375 28 36.542969 L 24.453125 40.53125 L 24.453125 37.148438 L 26.886719 34.714844 L 30.535156 35.761719 C 30.6875 35.804688 30.851562 35.78125 30.984375 35.699219 C 31.117188 35.613281 31.214844 35.480469 31.242188 35.324219 L 32.269531 30.175781 L 35.710938 30.671875 C 35.9375 30.703125 36.152344 30.601562 36.269531 30.410156 L 38.976562 26.082031 L 47.8125 24.425781 C 48.117188 24.367188 48.320312 24.070312 48.265625 23.761719 C 48.207031 23.453125 47.914062 23.25 47.601562 23.304688 L 38.523438 25.007812 C 38.371094 25.035156 38.226562 25.132812 38.148438 25.265625 L 35.503906 29.492188 L 31.894531 28.972656 C 31.59375 28.929688 31.316406 29.128906 31.261719 29.421875 L 30.246094 34.496094 L 26.863281 33.53125 C 26.664062 33.472656 26.457031 33.53125 26.308594 33.671875 L 24.441406 35.539062 L 24.441406 23.878906 C 24.441406 23.566406 24.1875 23.3125 23.875 23.3125 C 23.5625 23.3125 23.304688 23.566406 23.304688 23.878906 L 23.304688 42.035156 C 23.304688 42.035156 23.304688 42.046875 23.304688 42.050781 C 23.304688 42.09375 23.324219 42.132812 23.328125 42.171875 C 23.335938 42.207031 23.339844 42.234375 23.351562 42.269531 C 23.363281 42.296875 23.386719 42.320312 23.402344 42.347656 C 23.425781 42.382812 23.449219 42.421875 23.480469 42.449219 C 23.480469 42.449219 23.480469 42.460938 23.492188 42.460938 C 23.523438 42.484375 23.554688 42.496094 23.585938 42.519531 C 23.613281 42.535156 23.636719 42.550781 23.664062 42.5625 C 23.730469 42.589844 23.800781 42.601562 23.875 42.601562 L 36.921875 42.601562 C 37.234375 42.601562 37.492188 42.347656 37.492188 42.035156 C 37.492188 41.722656 37.234375 41.46875 36.921875 41.46875 L 25.144531 41.46875 L 28.605469 37.570312 Z M 32.238281 38.609375 " fill-opacity="1" fill-rule="nonzero"/><g clip-path="url(#1188ad4e04)"><path fill="#ffffff" d="M 46.574219 34.09375 C 42.195312 34.09375 38.632812 37.65625 38.632812 42.035156 C 38.632812 43.613281 39.097656 45.078125 39.890625 46.3125 L 38.726562 47.476562 L 38.558594 47.304688 C 38.34375 47.089844 37.96875 47.089844 37.757812 47.304688 L 34.828125 50.234375 C 34.359375 50.707031 34.097656 51.335938 34.097656 52.003906 C 34.097656 52.675781 34.359375 53.304688 34.828125 53.773438 C 35.300781 54.246094 35.929688 54.507812 36.601562 54.507812 C 37.269531 54.507812 37.898438 54.246094 38.371094 53.773438 L 41.296875 50.847656 C 41.40625 50.738281 41.460938 50.597656 41.460938 50.445312 C 41.460938 50.289062 41.398438 50.148438 41.296875 50.042969 L 41.128906 49.871094 L 42.289062 48.707031 C 43.527344 49.503906 44.992188 49.96875 46.570312 49.96875 C 50.949219 49.96875 54.511719 46.40625 54.511719 42.023438 C 54.511719 37.644531 50.949219 34.082031 46.570312 34.082031 Z M 37.570312 52.980469 C 37.046875 53.496094 36.144531 53.496094 35.628906 52.980469 C 35.367188 52.71875 35.226562 52.378906 35.226562 52.011719 C 35.226562 51.640625 35.367188 51.300781 35.628906 51.039062 L 38.160156 48.507812 L 38.324219 48.675781 C 38.324219 48.675781 38.324219 48.675781 38.324219 48.679688 C 38.324219 48.683594 38.324219 48.679688 38.332031 48.679688 L 39.917969 50.269531 C 39.917969 50.269531 39.917969 50.269531 39.917969 50.273438 C 39.917969 50.28125 39.917969 50.273438 39.925781 50.273438 L 40.089844 50.4375 L 37.558594 52.96875 Z M 40.328125 49.078125 L 39.527344 48.277344 L 40.578125 47.226562 C 40.828125 47.511719 41.089844 47.777344 41.378906 48.027344 Z M 46.574219 48.84375 C 42.820312 48.84375 39.765625 45.792969 39.765625 42.035156 C 39.765625 38.28125 42.820312 35.226562 46.574219 35.226562 C 50.332031 35.226562 53.382812 38.28125 53.382812 42.035156 C 53.382812 45.792969 50.332031 48.84375 46.574219 48.84375 Z M 46.574219 48.84375 " fill-opacity="1" fill-rule="nonzero"/></g><path fill="#ffffff" d="M 46.574219 36.363281 C 43.449219 36.363281 40.902344 38.910156 40.902344 42.035156 C 40.902344 45.160156 43.449219 47.710938 46.574219 47.710938 C 49.699219 47.710938 52.25 45.160156 52.25 42.035156 C 52.25 38.910156 49.699219 36.363281 46.574219 36.363281 Z M 46.574219 46.574219 C 44.074219 46.574219 42.035156 44.539062 42.035156 42.035156 C 42.035156 39.535156 44.074219 37.496094 46.574219 37.496094 C 49.078125 37.496094 51.113281 39.535156 51.113281 42.035156 C 51.113281 44.539062 49.078125 46.574219 46.574219 46.574219 Z M 46.574219 46.574219 " fill-opacity="1" fill-rule="nonzero"/></svg>