<svg xmlns="http://www.w3.org/2000/svg" xmlns:xlink="http://www.w3.org/1999/xlink" width="100" zoomAndPan="magnify" viewBox="0 0 75 74.999997" height="100" preserveAspectRatio="xMidYMid meet" version="1.0"><defs><clipPath id="0f339a8cf7"><path d="M 1.164062 1.164062 L 73.835938 1.164062 L 73.835938 73.835938 L 1.164062 73.835938 Z M 1.164062 1.164062 " clip-rule="nonzero"/></clipPath><clipPath id="129b5aa572"><path d="M 37.5 1.164062 C 17.429688 1.164062 1.164062 17.429688 1.164062 37.5 C 1.164062 57.570312 17.429688 73.835938 37.5 73.835938 C 57.570312 73.835938 73.835938 57.570312 73.835938 37.5 C 73.835938 17.429688 57.570312 1.164062 37.5 1.164062 Z M 37.5 1.164062 " clip-rule="nonzero"/></clipPath><linearGradient x1="-0.000000241073" gradientTransform="matrix(0.283887, 0, 0, 0.283887, 1.162501, 1.162498)" y1="128" x2="256.000006" gradientUnits="userSpaceOnUse" y2="128" id="c77d2c342f"><stop stop-opacity="1" stop-color="rgb(100%, 19.198608%, 19.198608%)" offset="0"/><stop stop-opacity="1" stop-color="rgb(100%, 19.345093%, 19.241333%)" offset="0.0078125"/><stop stop-opacity="1" stop-color="rgb(100%, 19.639587%, 19.328308%)" offset="0.015625"/><stop stop-opacity="1" stop-color="rgb(100%, 19.934082%, 19.413757%)" offset="0.0234375"/><stop stop-opacity="1" stop-color="rgb(100%, 20.230103%, 19.499207%)" offset="0.03125"/><stop stop-opacity="1" stop-color="rgb(100%, 20.524597%, 19.586182%)" offset="0.0390625"/><stop stop-opacity="1" stop-color="rgb(100%, 20.819092%, 19.671631%)" offset="0.046875"/><stop stop-opacity="1" stop-color="rgb(100%, 21.113586%, 19.75708%)" offset="0.0546875"/><stop stop-opacity="1" stop-color="rgb(100%, 21.408081%, 19.844055%)" offset="0.0625"/><stop stop-opacity="1" stop-color="rgb(100%, 21.702576%, 19.929504%)" offset="0.0703125"/><stop stop-opacity="1" stop-color="rgb(100%, 21.99707%, 20.014954%)" offset="0.078125"/><stop stop-opacity="1" stop-color="rgb(100%, 22.291565%, 20.101929%)" offset="0.0859375"/><stop stop-opacity="1" stop-color="rgb(100%, 22.58606%, 20.187378%)" offset="0.09375"/><stop stop-opacity="1" stop-color="rgb(100%, 22.880554%, 20.272827%)" offset="0.101563"/><stop stop-opacity="1" stop-color="rgb(100%, 23.175049%, 20.359802%)" offset="0.109375"/><stop stop-opacity="1" stop-color="rgb(100%, 23.469543%, 20.445251%)" offset="0.117188"/><stop stop-opacity="1" stop-color="rgb(100%, 23.764038%, 20.530701%)" offset="0.125"/><stop stop-opacity="1" stop-color="rgb(100%, 24.058533%, 20.617676%)" offset="0.132813"/><stop stop-opacity="1" stop-color="rgb(100%, 24.353027%, 20.703125%)" offset="0.140625"/><stop stop-opacity="1" stop-color="rgb(100%, 24.647522%, 20.788574%)" offset="0.148438"/><stop stop-opacity="1" stop-color="rgb(100%, 24.942017%, 20.874023%)" offset="0.15625"/><stop stop-opacity="1" stop-color="rgb(100%, 25.236511%, 20.960999%)" offset="0.164063"/><stop stop-opacity="1" stop-color="rgb(100%, 25.531006%, 21.046448%)" offset="0.171875"/><stop stop-opacity="1" stop-color="rgb(100%, 25.8255%, 21.131897%)" offset="0.179688"/><stop stop-opacity="1" stop-color="rgb(100%, 26.119995%, 21.218872%)" offset="0.1875"/><stop stop-opacity="1" stop-color="rgb(100%, 26.41449%, 21.304321%)" offset="0.195313"/><stop stop-opacity="1" stop-color="rgb(100%, 26.708984%, 21.389771%)" offset="0.203125"/><stop stop-opacity="1" stop-color="rgb(100%, 27.003479%, 21.476746%)" offset="0.210938"/><stop stop-opacity="1" stop-color="rgb(100%, 27.297974%, 21.562195%)" offset="0.21875"/><stop stop-opacity="1" stop-color="rgb(100%, 27.592468%, 21.647644%)" offset="0.226563"/><stop stop-opacity="1" stop-color="rgb(100%, 27.886963%, 21.734619%)" offset="0.234375"/><stop stop-opacity="1" stop-color="rgb(100%, 28.181458%, 21.820068%)" offset="0.242188"/><stop stop-opacity="1" stop-color="rgb(100%, 28.475952%, 21.905518%)" offset="0.25"/><stop stop-opacity="1" stop-color="rgb(100%, 28.770447%, 21.992493%)" offset="0.257813"/><stop stop-opacity="1" stop-color="rgb(100%, 29.064941%, 22.077942%)" offset="0.265625"/><stop stop-opacity="1" stop-color="rgb(100%, 29.359436%, 22.163391%)" offset="0.273438"/><stop stop-opacity="1" stop-color="rgb(100%, 29.653931%, 22.250366%)" offset="0.28125"/><stop stop-opacity="1" stop-color="rgb(100%, 29.948425%, 22.335815%)" offset="0.289063"/><stop stop-opacity="1" stop-color="rgb(100%, 30.24292%, 22.421265%)" offset="0.296875"/><stop stop-opacity="1" stop-color="rgb(100%, 30.537415%, 22.50824%)" offset="0.304688"/><stop stop-opacity="1" stop-color="rgb(100%, 30.831909%, 22.593689%)" offset="0.3125"/><stop stop-opacity="1" stop-color="rgb(100%, 31.126404%, 22.679138%)" offset="0.320313"/><stop stop-opacity="1" stop-color="rgb(100%, 31.420898%, 22.766113%)" offset="0.328125"/><stop stop-opacity="1" stop-color="rgb(100%, 31.715393%, 22.851562%)" offset="0.335938"/><stop stop-opacity="1" stop-color="rgb(100%, 32.009888%, 22.937012%)" offset="0.34375"/><stop stop-opacity="1" stop-color="rgb(100%, 32.304382%, 23.022461%)" offset="0.351563"/><stop stop-opacity="1" stop-color="rgb(100%, 32.600403%, 23.109436%)" offset="0.359375"/><stop stop-opacity="1" stop-color="rgb(100%, 32.894897%, 23.194885%)" offset="0.367188"/><stop stop-opacity="1" stop-color="rgb(100%, 33.189392%, 23.280334%)" offset="0.375"/><stop stop-opacity="1" stop-color="rgb(100%, 33.483887%, 23.36731%)" offset="0.382812"/><stop stop-opacity="1" stop-color="rgb(100%, 33.778381%, 23.452759%)" offset="0.390625"/><stop stop-opacity="1" stop-color="rgb(100%, 34.072876%, 23.538208%)" offset="0.398438"/><stop stop-opacity="1" stop-color="rgb(100%, 34.367371%, 23.625183%)" offset="0.40625"/><stop stop-opacity="1" stop-color="rgb(100%, 34.661865%, 23.710632%)" offset="0.414062"/><stop stop-opacity="1" stop-color="rgb(100%, 34.95636%, 23.796082%)" offset="0.421875"/><stop stop-opacity="1" stop-color="rgb(100%, 35.250854%, 23.883057%)" offset="0.429687"/><stop stop-opacity="1" stop-color="rgb(100%, 35.545349%, 23.968506%)" offset="0.4375"/><stop stop-opacity="1" stop-color="rgb(100%, 35.839844%, 24.053955%)" offset="0.445312"/><stop stop-opacity="1" stop-color="rgb(100%, 36.134338%, 24.14093%)" offset="0.453125"/><stop stop-opacity="1" stop-color="rgb(100%, 36.428833%, 24.226379%)" offset="0.460937"/><stop stop-opacity="1" stop-color="rgb(100%, 36.723328%, 24.311829%)" offset="0.46875"/><stop stop-opacity="1" stop-color="rgb(100%, 37.017822%, 24.398804%)" offset="0.476562"/><stop stop-opacity="1" stop-color="rgb(100%, 37.312317%, 24.484253%)" offset="0.484375"/><stop stop-opacity="1" stop-color="rgb(100%, 37.606812%, 24.569702%)" offset="0.492187"/><stop stop-opacity="1" stop-color="rgb(100%, 37.901306%, 24.656677%)" offset="0.5"/><stop stop-opacity="1" stop-color="rgb(100%, 38.195801%, 24.742126%)" offset="0.507812"/><stop stop-opacity="1" stop-color="rgb(100%, 38.490295%, 24.827576%)" offset="0.515625"/><stop stop-opacity="1" stop-color="rgb(100%, 38.78479%, 24.914551%)" offset="0.523438"/><stop stop-opacity="1" stop-color="rgb(100%, 39.079285%, 25%)" offset="0.53125"/><stop stop-opacity="1" stop-color="rgb(100%, 39.373779%, 25.085449%)" offset="0.539062"/><stop stop-opacity="1" stop-color="rgb(100%, 39.668274%, 25.170898%)" offset="0.546875"/><stop stop-opacity="1" stop-color="rgb(100%, 39.962769%, 25.257874%)" offset="0.554688"/><stop stop-opacity="1" stop-color="rgb(100%, 40.257263%, 25.343323%)" offset="0.5625"/><stop stop-opacity="1" stop-color="rgb(100%, 40.551758%, 25.428772%)" offset="0.570313"/><stop stop-opacity="1" stop-color="rgb(100%, 40.846252%, 25.515747%)" offset="0.578125"/><stop stop-opacity="1" stop-color="rgb(100%, 41.140747%, 25.601196%)" offset="0.585938"/><stop stop-opacity="1" stop-color="rgb(100%, 41.435242%, 25.686646%)" offset="0.59375"/><stop stop-opacity="1" stop-color="rgb(100%, 41.729736%, 25.773621%)" offset="0.601563"/><stop stop-opacity="1" stop-color="rgb(100%, 42.024231%, 25.85907%)" offset="0.609375"/><stop stop-opacity="1" stop-color="rgb(100%, 42.318726%, 25.944519%)" offset="0.617188"/><stop stop-opacity="1" stop-color="rgb(100%, 42.61322%, 26.031494%)" offset="0.625"/><stop stop-opacity="1" stop-color="rgb(100%, 42.907715%, 26.116943%)" offset="0.632813"/><stop stop-opacity="1" stop-color="rgb(100%, 43.202209%, 26.202393%)" offset="0.640625"/><stop stop-opacity="1" stop-color="rgb(100%, 43.496704%, 26.289368%)" offset="0.648438"/><stop stop-opacity="1" stop-color="rgb(100%, 43.791199%, 26.374817%)" offset="0.65625"/><stop stop-opacity="1" stop-color="rgb(100%, 44.085693%, 26.460266%)" offset="0.664063"/><stop stop-opacity="1" stop-color="rgb(100%, 44.380188%, 26.547241%)" offset="0.671875"/><stop stop-opacity="1" stop-color="rgb(100%, 44.676208%, 26.63269%)" offset="0.679688"/><stop stop-opacity="1" stop-color="rgb(100%, 44.970703%, 26.71814%)" offset="0.6875"/><stop stop-opacity="1" stop-color="rgb(100%, 45.265198%, 26.805115%)" offset="0.695312"/><stop stop-opacity="1" stop-color="rgb(100%, 45.559692%, 26.890564%)" offset="0.703125"/><stop stop-opacity="1" stop-color="rgb(100%, 45.854187%, 26.976013%)" offset="0.710938"/><stop stop-opacity="1" stop-color="rgb(100%, 46.148682%, 27.062988%)" offset="0.71875"/><stop stop-opacity="1" stop-color="rgb(100%, 46.443176%, 27.148438%)" offset="0.726562"/><stop stop-opacity="1" stop-color="rgb(100%, 46.737671%, 27.233887%)" offset="0.734375"/><stop stop-opacity="1" stop-color="rgb(100%, 47.032166%, 27.319336%)" offset="0.742188"/><stop stop-opacity="1" stop-color="rgb(100%, 47.32666%, 27.406311%)" offset="0.75"/><stop stop-opacity="1" stop-color="rgb(100%, 47.621155%, 27.49176%)" offset="0.757812"/><stop stop-opacity="1" stop-color="rgb(100%, 47.915649%, 27.577209%)" offset="0.765625"/><stop stop-opacity="1" stop-color="rgb(100%, 48.210144%, 27.664185%)" offset="0.773438"/><stop stop-opacity="1" stop-color="rgb(100%, 48.504639%, 27.749634%)" offset="0.78125"/><stop stop-opacity="1" stop-color="rgb(100%, 48.799133%, 27.835083%)" offset="0.789062"/><stop stop-opacity="1" stop-color="rgb(100%, 49.093628%, 27.922058%)" offset="0.796875"/><stop stop-opacity="1" stop-color="rgb(100%, 49.388123%, 28.007507%)" offset="0.804688"/><stop stop-opacity="1" stop-color="rgb(100%, 49.682617%, 28.092957%)" offset="0.8125"/><stop stop-opacity="1" stop-color="rgb(100%, 49.977112%, 28.179932%)" offset="0.820312"/><stop stop-opacity="1" stop-color="rgb(100%, 50.271606%, 28.265381%)" offset="0.828125"/><stop stop-opacity="1" stop-color="rgb(100%, 50.566101%, 28.35083%)" offset="0.835937"/><stop stop-opacity="1" stop-color="rgb(100%, 50.860596%, 28.437805%)" offset="0.84375"/><stop stop-opacity="1" stop-color="rgb(100%, 51.15509%, 28.523254%)" offset="0.851562"/><stop stop-opacity="1" stop-color="rgb(100%, 51.449585%, 28.608704%)" offset="0.859375"/><stop stop-opacity="1" stop-color="rgb(100%, 51.74408%, 28.695679%)" offset="0.867187"/><stop stop-opacity="1" stop-color="rgb(100%, 52.038574%, 28.781128%)" offset="0.875"/><stop stop-opacity="1" stop-color="rgb(100%, 52.333069%, 28.866577%)" offset="0.882812"/><stop stop-opacity="1" stop-color="rgb(100%, 52.627563%, 28.953552%)" offset="0.890625"/><stop stop-opacity="1" stop-color="rgb(100%, 52.922058%, 29.039001%)" offset="0.898437"/><stop stop-opacity="1" stop-color="rgb(100%, 53.216553%, 29.124451%)" offset="0.90625"/><stop stop-opacity="1" stop-color="rgb(100%, 53.511047%, 29.211426%)" offset="0.914062"/><stop stop-opacity="1" stop-color="rgb(100%, 53.805542%, 29.296875%)" offset="0.921875"/><stop stop-opacity="1" stop-color="rgb(100%, 54.100037%, 29.382324%)" offset="0.929687"/><stop stop-opacity="1" stop-color="rgb(100%, 54.394531%, 29.467773%)" offset="0.9375"/><stop stop-opacity="1" stop-color="rgb(100%, 54.689026%, 29.554749%)" offset="0.945312"/><stop stop-opacity="1" stop-color="rgb(100%, 54.983521%, 29.640198%)" offset="0.953125"/><stop stop-opacity="1" stop-color="rgb(100%, 55.278015%, 29.725647%)" offset="0.960938"/><stop stop-opacity="1" stop-color="rgb(100%, 55.57251%, 29.812622%)" offset="0.96875"/><stop stop-opacity="1" stop-color="rgb(100%, 55.867004%, 29.898071%)" offset="0.976562"/><stop stop-opacity="1" stop-color="rgb(100%, 56.161499%, 29.983521%)" offset="0.984375"/><stop stop-opacity="1" stop-color="rgb(100%, 56.455994%, 30.070496%)" offset="0.992188"/><stop stop-opacity="1" stop-color="rgb(100%, 56.750488%, 30.155945%)" offset="1"/></linearGradient><clipPath id="69613258ec"><path d="M 37 19.355469 L 45 19.355469 L 45 27 L 37 27 Z M 37 19.355469 " clip-rule="nonzero"/></clipPath><clipPath id="5d03df30ac"><path d="M 47 27 L 54.464844 27 L 54.464844 39 L 47 39 Z M 47 27 " clip-rule="nonzero"/></clipPath><clipPath id="25f33d177f"><path d="M 20.714844 43 L 36 43 L 36 51 L 20.714844 51 Z M 20.714844 43 " clip-rule="nonzero"/></clipPath><clipPath id="d544d6c70b"><path d="M 24 51 L 33 51 L 33 55.355469 L 24 55.355469 Z M 24 51 " clip-rule="nonzero"/></clipPath></defs><rect x="-7.5" width="90" fill="#ffffff" y="-7.5" height="89.999996" fill-opacity="1"/><rect x="-7.5" width="90" fill="#ffffff" y="-7.5" height="89.999996" fill-opacity="1"/><g clip-path="url(#0f339a8cf7)"><g clip-path="url(#129b5aa572)"><path fill="url(#c77d2c342f)" d="M 1.164062 1.164062 L 1.164062 73.835938 L 73.835938 73.835938 L 73.835938 1.164062 Z M 1.164062 1.164062 " fill-rule="nonzero"/></g></g><path fill="#ffffff" d="M 33.824219 37.027344 L 33.824219 38.894531 L 46.28125 38.894531 C 46.367188 38.890625 46.445312 38.859375 46.507812 38.796875 C 46.570312 38.734375 46.601562 38.660156 46.601562 38.570312 C 46.601562 35.5 46.601562 31.019531 46.601562 27.949219 C 46.601562 27.859375 46.570312 27.785156 46.507812 27.722656 C 46.445312 27.660156 46.367188 27.628906 46.28125 27.625 L 28.65625 27.625 C 28.566406 27.628906 28.492188 27.660156 28.429688 27.722656 C 28.367188 27.785156 28.335938 27.859375 28.332031 27.949219 L 28.332031 32.011719 C 28.683594 31.984375 29.027344 31.992188 29.375 32.03125 C 29.722656 32.074219 30.058594 32.152344 30.390625 32.265625 C 30.722656 32.378906 31.035156 32.523438 31.335938 32.699219 C 31.636719 32.878906 31.917969 33.082031 32.175781 33.320312 C 32.433594 33.554688 32.664062 33.8125 32.867188 34.097656 C 33.070312 34.378906 33.246094 34.679688 33.386719 35 C 33.527344 35.320312 33.636719 35.648438 33.710938 35.992188 C 33.78125 36.332031 33.820312 36.675781 33.824219 37.027344 Z M 36.5625 30.347656 C 36.5625 30.289062 36.578125 30.230469 36.609375 30.179688 C 36.636719 30.125 36.679688 30.085938 36.730469 30.054688 C 36.78125 30.023438 36.839844 30.007812 36.898438 30.007812 C 36.960938 30.007812 37.015625 30.023438 37.066406 30.050781 L 42.113281 32.96875 C 42.226562 33.035156 42.285156 33.132812 42.28125 33.261719 C 42.285156 33.394531 42.226562 33.488281 42.113281 33.550781 L 37.066406 36.46875 C 37.015625 36.496094 36.960938 36.511719 36.898438 36.511719 C 36.839844 36.511719 36.785156 36.496094 36.730469 36.464844 C 36.679688 36.433594 36.640625 36.390625 36.609375 36.339844 C 36.578125 36.289062 36.566406 36.234375 36.5625 36.171875 Z M 36.5625 30.347656 " fill-opacity="1" fill-rule="nonzero"/><path fill="#ffffff" d="M 37.238281 30.925781 L 37.238281 35.59375 L 41.273438 33.261719 Z M 37.238281 30.925781 " fill-opacity="1" fill-rule="nonzero"/><path fill="#ffffff" d="M 32.929688 26.953125 C 37.320312 27.027344 37.484375 20.625 33.089844 20.472656 C 28.898438 20.589844 28.757812 26.632812 32.929688 26.953125 Z M 32.929688 26.953125 " fill-opacity="1" fill-rule="nonzero"/><g clip-path="url(#69613258ec)"><path fill="#ffffff" d="M 40.683594 26.953125 C 45.785156 26.953125 45.921875 19.546875 40.808594 19.355469 C 35.859375 19.503906 35.75 26.65625 40.683594 26.953125 Z M 40.683594 26.953125 " fill-opacity="1" fill-rule="nonzero"/></g><g clip-path="url(#5d03df30ac)"><path fill="#ffffff" d="M 52.3125 28.75 L 52.3125 33.976562 C 52.3125 34.066406 52.277344 34.144531 52.210938 34.207031 C 52.144531 34.269531 52.066406 34.300781 51.976562 34.300781 C 51.886719 34.300781 51.808594 34.269531 51.742188 34.207031 C 51.675781 34.144531 51.644531 34.066406 51.640625 33.976562 L 51.640625 29.070312 C 51.632812 29.070312 47.273438 31.171875 47.265625 31.167969 L 47.265625 35.359375 C 47.273438 35.355469 54.230469 38.691406 54.234375 38.691406 L 54.234375 27.828125 Z M 52.3125 28.75 " fill-opacity="1" fill-rule="nonzero"/></g><path fill="#ffffff" d="M 27.996094 47.628906 C 30.699219 47.914062 33.132812 46.109375 33.152344 43.292969 L 33.152344 37.027344 C 33.152344 36.742188 33.125 36.460938 33.066406 36.179688 C 33.011719 35.902344 32.929688 35.628906 32.820312 35.367188 C 32.714844 35.105469 32.582031 34.855469 32.421875 34.617188 C 32.265625 34.382812 32.085938 34.164062 31.886719 33.960938 C 31.683594 33.761719 31.464844 33.578125 31.230469 33.421875 C 30.992188 33.261719 30.742188 33.128906 30.480469 33.019531 C 30.21875 32.910156 29.949219 32.828125 29.667969 32.769531 C 29.390625 32.714844 29.109375 32.6875 28.824219 32.683594 C 26.117188 32.398438 23.679688 34.210938 23.664062 37.027344 L 23.664062 37.1875 L 27.996094 37.1875 C 28.089844 37.191406 28.167969 37.222656 28.230469 37.289062 C 28.292969 37.355469 28.324219 37.433594 28.324219 37.523438 C 28.324219 37.613281 28.292969 37.691406 28.230469 37.757812 C 28.167969 37.824219 28.089844 37.855469 27.996094 37.859375 L 23.664062 37.859375 L 23.664062 39.820312 L 27.996094 39.820312 C 28.089844 39.824219 28.167969 39.855469 28.230469 39.921875 C 28.292969 39.988281 28.324219 40.066406 28.324219 40.15625 C 28.324219 40.246094 28.292969 40.324219 28.230469 40.390625 C 28.167969 40.457031 28.089844 40.488281 27.996094 40.492188 L 23.664062 40.492188 L 23.664062 42.453125 L 27.996094 42.453125 C 28.089844 42.453125 28.167969 42.488281 28.234375 42.554688 C 28.300781 42.617188 28.332031 42.699219 28.332031 42.789062 C 28.335938 42.882812 28.300781 42.964844 28.238281 43.027344 C 28.171875 43.09375 28.089844 43.128906 27.996094 43.125 L 23.664062 43.125 C 23.652344 43.417969 23.671875 43.707031 23.71875 43.996094 C 23.769531 44.28125 23.84375 44.5625 23.949219 44.835938 C 24.050781 45.105469 24.183594 45.367188 24.339844 45.613281 C 24.496094 45.859375 24.675781 46.085938 24.875 46.296875 C 25.078125 46.507812 25.300781 46.695312 25.539062 46.859375 C 25.78125 47.027344 26.035156 47.164062 26.300781 47.28125 C 26.570312 47.394531 26.847656 47.480469 27.132812 47.539062 C 27.417969 47.597656 27.707031 47.628906 27.996094 47.628906 Z M 27.996094 47.628906 " fill-opacity="1" fill-rule="nonzero"/><g clip-path="url(#25f33d177f)"><path fill="#ffffff" d="M 33.824219 43.292969 C 33.816406 43.65625 33.773438 44.015625 33.695312 44.371094 C 33.613281 44.722656 33.496094 45.066406 33.339844 45.394531 C 33.1875 45.722656 33 46.03125 32.78125 46.320312 C 32.5625 46.609375 32.3125 46.875 32.039062 47.109375 C 31.761719 47.347656 31.464844 47.550781 31.148438 47.726562 C 30.828125 47.898438 30.496094 48.035156 30.144531 48.140625 C 29.796875 48.242188 29.441406 48.308594 29.082031 48.332031 C 28.71875 48.359375 28.359375 48.347656 27.996094 48.300781 C 27.667969 48.300781 27.34375 48.265625 27.023438 48.203125 C 26.699219 48.136719 26.386719 48.042969 26.082031 47.917969 C 25.78125 47.792969 25.492188 47.636719 25.21875 47.453125 C 24.945312 47.273438 24.691406 47.066406 24.460938 46.832031 C 24.226562 46.601562 24.019531 46.347656 23.835938 46.074219 C 23.65625 45.800781 23.5 45.511719 23.375 45.210938 C 23.25 44.90625 23.152344 44.59375 23.089844 44.269531 C 23.023438 43.949219 22.992188 43.621094 22.992188 43.292969 L 22.992188 43.125 L 20.761719 43.125 C 20.746094 43.902344 20.851562 44.664062 21.070312 45.410156 C 21.289062 46.15625 21.613281 46.851562 22.046875 47.5 C 22.480469 48.144531 22.996094 48.710938 23.605469 49.199219 C 24.210938 49.6875 24.875 50.070312 25.597656 50.355469 C 26.324219 50.640625 27.074219 50.808594 27.847656 50.863281 C 28.625 50.914062 29.390625 50.851562 30.144531 50.671875 C 30.902344 50.492188 31.613281 50.199219 32.28125 49.800781 C 32.949219 49.402344 33.539062 48.914062 34.058594 48.332031 C 34.679688 47.609375 35.152344 46.800781 35.480469 45.902344 C 35.804688 45.007812 35.960938 44.082031 35.945312 43.125 L 33.824219 43.125 Z M 33.824219 43.292969 " fill-opacity="1" fill-rule="nonzero"/></g><g clip-path="url(#d544d6c70b)"><path fill="#ffffff" d="M 32.324219 54.964844 C 31.820312 54.964844 29.871094 54.964844 29.410156 54.964844 L 29.410156 51.59375 C 28.710938 51.683594 28.011719 51.683594 27.3125 51.59375 L 27.3125 54.964844 C 26.859375 54.964844 24.917969 54.964844 24.429688 54.964844 C 24.339844 54.96875 24.261719 55 24.199219 55.066406 C 24.136719 55.132812 24.101562 55.210938 24.101562 55.300781 C 24.101562 55.390625 24.136719 55.46875 24.199219 55.535156 C 24.261719 55.601562 24.339844 55.632812 24.429688 55.636719 C 25.75 55.636719 28.421875 55.636719 29.746094 55.636719 L 32.324219 55.636719 C 32.414062 55.632812 32.492188 55.601562 32.558594 55.535156 C 32.621094 55.46875 32.652344 55.390625 32.652344 55.300781 C 32.652344 55.210938 32.621094 55.132812 32.558594 55.066406 C 32.492188 55 32.414062 54.96875 32.324219 54.964844 Z M 32.324219 54.964844 " fill-opacity="1" fill-rule="nonzero"/></g><path fill="#ffffff" d="M 52.855469 44.175781 L 49.640625 44.175781 C 49.546875 44.175781 49.46875 44.140625 49.402344 44.074219 C 49.335938 44.011719 49.304688 43.929688 49.304688 43.839844 L 49.304688 42.695312 C 49.304688 42.566406 49.277344 42.441406 49.230469 42.320312 C 49.179688 42.199219 49.109375 42.09375 49.015625 42 C 48.925781 41.910156 48.820312 41.839844 48.699219 41.789062 C 48.578125 41.738281 48.453125 41.714844 48.320312 41.714844 L 44.59375 41.714844 C 44.324219 41.714844 44.089844 41.8125 43.898438 42.003906 C 43.707031 42.195312 43.613281 42.425781 43.613281 42.695312 L 43.613281 43.839844 C 43.613281 43.933594 43.582031 44.011719 43.515625 44.078125 C 43.449219 44.144531 43.371094 44.175781 43.277344 44.175781 L 39.898438 44.175781 C 39.625 44.175781 39.394531 44.269531 39.203125 44.460938 C 39.011719 44.652344 38.917969 44.882812 38.914062 45.15625 L 38.914062 53.984375 C 38.914062 54.113281 38.941406 54.238281 38.988281 54.359375 C 39.039062 54.480469 39.109375 54.585938 39.203125 54.679688 C 39.292969 54.769531 39.402344 54.839844 39.519531 54.890625 C 39.640625 54.941406 39.765625 54.964844 39.898438 54.964844 L 52.855469 54.964844 C 52.988281 54.964844 53.113281 54.941406 53.234375 54.890625 C 53.355469 54.839844 53.460938 54.769531 53.550781 54.679688 C 53.644531 54.585938 53.714844 54.480469 53.765625 54.359375 C 53.8125 54.238281 53.839844 54.113281 53.839844 53.984375 L 53.839844 45.15625 C 53.839844 44.882812 53.742188 44.652344 53.550781 44.460938 C 53.359375 44.269531 53.128906 44.175781 52.855469 44.175781 Z M 46.378906 53.566406 C 41.089844 53.378906 41.089844 45.757812 46.378906 45.570312 C 51.65625 45.738281 51.652344 53.402344 46.378906 53.566406 Z M 46.378906 53.566406 " fill-opacity="1" fill-rule="nonzero"/><path fill="#ffffff" d="M 46.378906 46.242188 C 41.984375 46.382812 41.984375 52.757812 46.378906 52.894531 C 50.765625 52.753906 50.765625 46.382812 46.378906 46.242188 Z M 46.378906 51.335938 C 46.148438 51.335938 45.921875 51.289062 45.707031 51.199219 C 45.492188 51.109375 45.304688 50.980469 45.140625 50.8125 C 44.976562 50.648438 44.847656 50.457031 44.761719 50.242188 C 44.671875 50.027344 44.625 49.804688 44.625 49.570312 C 44.625 49.335938 44.671875 49.113281 44.761719 48.898438 C 44.847656 48.679688 44.976562 48.492188 45.140625 48.324219 C 45.304688 48.160156 45.492188 48.03125 45.707031 47.941406 C 45.921875 47.851562 46.148438 47.804688 46.378906 47.800781 C 46.613281 47.804688 46.835938 47.851562 47.050781 47.941406 C 47.265625 48.03125 47.457031 48.160156 47.621094 48.324219 C 47.785156 48.492188 47.910156 48.679688 48 48.898438 C 48.089844 49.113281 48.132812 49.335938 48.132812 49.570312 C 48.132812 49.804688 48.089844 50.027344 48 50.242188 C 47.910156 50.457031 47.785156 50.648438 47.621094 50.8125 C 47.457031 50.980469 47.265625 51.109375 47.050781 51.199219 C 46.835938 51.289062 46.613281 51.335938 46.378906 51.335938 Z M 46.378906 51.335938 " fill-opacity="1" fill-rule="nonzero"/><path fill="#ffffff" d="M 46.378906 48.472656 C 46.234375 48.476562 46.097656 48.503906 45.964844 48.5625 C 45.832031 48.617188 45.714844 48.695312 45.613281 48.796875 C 45.511719 48.902344 45.433594 49.019531 45.378906 49.152344 C 45.324219 49.285156 45.296875 49.425781 45.296875 49.570312 C 45.296875 49.714844 45.324219 49.851562 45.378906 49.988281 C 45.433594 50.121094 45.511719 50.238281 45.613281 50.339844 C 45.714844 50.441406 45.832031 50.523438 45.964844 50.578125 C 46.097656 50.636719 46.234375 50.664062 46.378906 50.664062 C 46.523438 50.664062 46.664062 50.636719 46.796875 50.578125 C 46.929688 50.523438 47.046875 50.441406 47.148438 50.339844 C 47.25 50.238281 47.328125 50.121094 47.382812 49.988281 C 47.4375 49.851562 47.464844 49.714844 47.464844 49.570312 C 47.464844 49.425781 47.4375 49.285156 47.382812 49.152344 C 47.328125 49.019531 47.25 48.902344 47.148438 48.796875 C 47.046875 48.695312 46.929688 48.617188 46.796875 48.5625 C 46.664062 48.503906 46.523438 48.476562 46.378906 48.472656 Z M 46.378906 48.472656 " fill-opacity="1" fill-rule="nonzero"/></svg>