<svg xmlns="http://www.w3.org/2000/svg" xmlns:xlink="http://www.w3.org/1999/xlink" width="100" zoomAndPan="magnify" viewBox="0 0 75 74.999997" height="100" preserveAspectRatio="xMidYMid meet" version="1.0"><defs><clipPath id="ecfde0d9d9"><path d="M 1.164062 1.164062 L 73.835938 1.164062 L 73.835938 73.835938 L 1.164062 73.835938 Z M 1.164062 1.164062 " clip-rule="nonzero"/></clipPath><clipPath id="ea6f2f61ec"><path d="M 37.5 1.164062 C 17.429688 1.164062 1.164062 17.429688 1.164062 37.5 C 1.164062 57.570312 17.429688 73.835938 37.5 73.835938 C 57.570312 73.835938 73.835938 57.570312 73.835938 37.5 C 73.835938 17.429688 57.570312 1.164062 37.5 1.164062 Z M 37.5 1.164062 " clip-rule="nonzero"/></clipPath><radialGradient gradientTransform="matrix(1, 0, 0, 1, 1.162501, 1.162498)" gradientUnits="userSpaceOnUse" r="102.778053" cx="0" id="7a3507be54" cy="0" fx="0" fy="0"><stop stop-opacity="1" stop-color="rgb(100%, 86.981201%, 34.881592%)" offset="0"/><stop stop-opacity="1" stop-color="rgb(100%, 86.686707%, 34.83429%)" offset="0.0078125"/><stop stop-opacity="1" stop-color="rgb(100%, 86.332703%, 34.779358%)" offset="0.0195312"/><stop stop-opacity="1" stop-color="rgb(100%, 85.978699%, 34.724426%)" offset="0.03125"/><stop stop-opacity="1" stop-color="rgb(100%, 85.624695%, 34.669495%)" offset="0.0429688"/><stop stop-opacity="1" stop-color="rgb(100%, 85.270691%, 34.614563%)" offset="0.0546875"/><stop stop-opacity="1" stop-color="rgb(100%, 84.916687%, 34.559631%)" offset="0.0664062"/><stop stop-opacity="1" stop-color="rgb(100%, 84.562683%, 34.5047%)" offset="0.078125"/><stop stop-opacity="1" stop-color="rgb(100%, 84.208679%, 34.449768%)" offset="0.0898438"/><stop stop-opacity="1" stop-color="rgb(100%, 83.854675%, 34.394836%)" offset="0.101562"/><stop stop-opacity="1" stop-color="rgb(100%, 83.500671%, 34.339905%)" offset="0.113281"/><stop stop-opacity="1" stop-color="rgb(100%, 83.146667%, 34.283447%)" offset="0.125"/><stop stop-opacity="1" stop-color="rgb(100%, 82.792664%, 34.228516%)" offset="0.136719"/><stop stop-opacity="1" stop-color="rgb(100%, 82.440186%, 34.173584%)" offset="0.148438"/><stop stop-opacity="1" stop-color="rgb(100%, 82.086182%, 34.118652%)" offset="0.160156"/><stop stop-opacity="1" stop-color="rgb(100%, 81.732178%, 34.063721%)" offset="0.171875"/><stop stop-opacity="1" stop-color="rgb(100%, 81.378174%, 34.008789%)" offset="0.183594"/><stop stop-opacity="1" stop-color="rgb(100%, 81.02417%, 33.953857%)" offset="0.195312"/><stop stop-opacity="1" stop-color="rgb(100%, 80.670166%, 33.898926%)" offset="0.207031"/><stop stop-opacity="1" stop-color="rgb(100%, 80.316162%, 33.843994%)" offset="0.21875"/><stop stop-opacity="1" stop-color="rgb(100%, 79.962158%, 33.789062%)" offset="0.230469"/><stop stop-opacity="1" stop-color="rgb(100%, 79.608154%, 33.732605%)" offset="0.242188"/><stop stop-opacity="1" stop-color="rgb(100%, 79.312134%, 33.686829%)" offset="0.253906"/><stop stop-opacity="1" stop-color="rgb(100%, 79.077148%, 33.650208%)" offset="0.261719"/><stop stop-opacity="1" stop-color="rgb(100%, 78.840637%, 33.613586%)" offset="0.269531"/><stop stop-opacity="1" stop-color="rgb(100%, 78.605652%, 33.576965%)" offset="0.277344"/><stop stop-opacity="1" stop-color="rgb(100%, 78.369141%, 33.540344%)" offset="0.285156"/><stop stop-opacity="1" stop-color="rgb(100%, 78.132629%, 33.503723%)" offset="0.292969"/><stop stop-opacity="1" stop-color="rgb(100%, 77.897644%, 33.467102%)" offset="0.300781"/><stop stop-opacity="1" stop-color="rgb(100%, 77.661133%, 33.430481%)" offset="0.308594"/><stop stop-opacity="1" stop-color="rgb(100%, 77.424622%, 33.39386%)" offset="0.316406"/><stop stop-opacity="1" stop-color="rgb(100%, 77.189636%, 33.357239%)" offset="0.324219"/><stop stop-opacity="1" stop-color="rgb(100%, 76.953125%, 33.320618%)" offset="0.332031"/><stop stop-opacity="1" stop-color="rgb(100%, 76.71814%, 33.283997%)" offset="0.339844"/><stop stop-opacity="1" stop-color="rgb(100%, 76.481628%, 33.247375%)" offset="0.347656"/><stop stop-opacity="1" stop-color="rgb(100%, 76.245117%, 33.210754%)" offset="0.355469"/><stop stop-opacity="1" stop-color="rgb(100%, 76.010132%, 33.174133%)" offset="0.363281"/><stop stop-opacity="1" stop-color="rgb(100%, 75.773621%, 33.135986%)" offset="0.371094"/><stop stop-opacity="1" stop-color="rgb(100%, 75.537109%, 33.099365%)" offset="0.378906"/><stop stop-opacity="1" stop-color="rgb(100%, 75.302124%, 33.062744%)" offset="0.386719"/><stop stop-opacity="1" stop-color="rgb(100%, 75.065613%, 33.026123%)" offset="0.394531"/><stop stop-opacity="1" stop-color="rgb(100%, 74.830627%, 32.989502%)" offset="0.402344"/><stop stop-opacity="1" stop-color="rgb(100%, 74.594116%, 32.952881%)" offset="0.410156"/><stop stop-opacity="1" stop-color="rgb(100%, 74.357605%, 32.91626%)" offset="0.417969"/><stop stop-opacity="1" stop-color="rgb(100%, 74.12262%, 32.879639%)" offset="0.425781"/><stop stop-opacity="1" stop-color="rgb(100%, 73.886108%, 32.843018%)" offset="0.433594"/><stop stop-opacity="1" stop-color="rgb(100%, 73.649597%, 32.806396%)" offset="0.441406"/><stop stop-opacity="1" stop-color="rgb(100%, 73.414612%, 32.769775%)" offset="0.449219"/><stop stop-opacity="1" stop-color="rgb(100%, 73.178101%, 32.733154%)" offset="0.457031"/><stop stop-opacity="1" stop-color="rgb(100%, 72.943115%, 32.696533%)" offset="0.464844"/><stop stop-opacity="1" stop-color="rgb(100%, 72.706604%, 32.659912%)" offset="0.472656"/><stop stop-opacity="1" stop-color="rgb(100%, 72.470093%, 32.623291%)" offset="0.480469"/><stop stop-opacity="1" stop-color="rgb(100%, 72.235107%, 32.58667%)" offset="0.488281"/><stop stop-opacity="1" stop-color="rgb(100%, 71.998596%, 32.548523%)" offset="0.496094"/><stop stop-opacity="1" stop-color="rgb(100%, 71.704102%, 32.502747%)" offset="0.503906"/><stop stop-opacity="1" stop-color="rgb(100%, 71.350098%, 32.447815%)" offset="0.515625"/><stop stop-opacity="1" stop-color="rgb(100%, 70.996094%, 32.392883%)" offset="0.527344"/><stop stop-opacity="1" stop-color="rgb(100%, 70.64209%, 32.337952%)" offset="0.539062"/><stop stop-opacity="1" stop-color="rgb(100%, 70.288086%, 32.28302%)" offset="0.550781"/><stop stop-opacity="1" stop-color="rgb(100%, 69.934082%, 32.228088%)" offset="0.5625"/><stop stop-opacity="1" stop-color="rgb(100%, 69.580078%, 32.173157%)" offset="0.574219"/><stop stop-opacity="1" stop-color="rgb(100%, 69.2276%, 32.118225%)" offset="0.585938"/><stop stop-opacity="1" stop-color="rgb(100%, 68.873596%, 32.063293%)" offset="0.597656"/><stop stop-opacity="1" stop-color="rgb(100%, 68.519592%, 32.006836%)" offset="0.609375"/><stop stop-opacity="1" stop-color="rgb(100%, 68.165588%, 31.951904%)" offset="0.621094"/><stop stop-opacity="1" stop-color="rgb(100%, 67.869568%, 31.906128%)" offset="0.632812"/><stop stop-opacity="1" stop-color="rgb(100%, 67.634583%, 31.869507%)" offset="0.640625"/><stop stop-opacity="1" stop-color="rgb(100%, 67.398071%, 31.832886%)" offset="0.648438"/><stop stop-opacity="1" stop-color="rgb(100%, 67.16156%, 31.796265%)" offset="0.65625"/><stop stop-opacity="1" stop-color="rgb(100%, 66.926575%, 31.759644%)" offset="0.664062"/><stop stop-opacity="1" stop-color="rgb(100%, 66.690063%, 31.723022%)" offset="0.671875"/><stop stop-opacity="1" stop-color="rgb(100%, 66.453552%, 31.686401%)" offset="0.679688"/><stop stop-opacity="1" stop-color="rgb(100%, 66.218567%, 31.64978%)" offset="0.6875"/><stop stop-opacity="1" stop-color="rgb(100%, 65.982056%, 31.613159%)" offset="0.695312"/><stop stop-opacity="1" stop-color="rgb(100%, 65.74707%, 31.576538%)" offset="0.703125"/><stop stop-opacity="1" stop-color="rgb(100%, 65.510559%, 31.539917%)" offset="0.710938"/><stop stop-opacity="1" stop-color="rgb(100%, 65.274048%, 31.503296%)" offset="0.71875"/><stop stop-opacity="1" stop-color="rgb(100%, 65.039062%, 31.466675%)" offset="0.726562"/><stop stop-opacity="1" stop-color="rgb(100%, 64.802551%, 31.428528%)" offset="0.734375"/><stop stop-opacity="1" stop-color="rgb(100%, 64.56604%, 31.391907%)" offset="0.742188"/><stop stop-opacity="1" stop-color="rgb(100%, 64.331055%, 31.355286%)" offset="0.75"/><stop stop-opacity="1" stop-color="rgb(100%, 64.03656%, 31.309509%)" offset="0.757812"/><stop stop-opacity="1" stop-color="rgb(100%, 63.682556%, 31.254578%)" offset="0.769531"/><stop stop-opacity="1" stop-color="rgb(100%, 63.328552%, 31.199646%)" offset="0.78125"/><stop stop-opacity="1" stop-color="rgb(100%, 62.974548%, 31.144714%)" offset="0.792969"/><stop stop-opacity="1" stop-color="rgb(100%, 62.620544%, 31.089783%)" offset="0.804688"/><stop stop-opacity="1" stop-color="rgb(100%, 62.32605%, 31.044006%)" offset="0.816406"/><stop stop-opacity="1" stop-color="rgb(100%, 62.089539%, 31.007385%)" offset="0.824219"/><stop stop-opacity="1" stop-color="rgb(100%, 61.853027%, 30.970764%)" offset="0.832031"/><stop stop-opacity="1" stop-color="rgb(100%, 61.618042%, 30.934143%)" offset="0.839844"/><stop stop-opacity="1" stop-color="rgb(100%, 61.381531%, 30.897522%)" offset="0.847656"/><stop stop-opacity="1" stop-color="rgb(100%, 61.14502%, 30.859375%)" offset="0.855469"/><stop stop-opacity="1" stop-color="rgb(100%, 60.910034%, 30.822754%)" offset="0.863281"/><stop stop-opacity="1" stop-color="rgb(100%, 60.673523%, 30.786133%)" offset="0.871094"/><stop stop-opacity="1" stop-color="rgb(100%, 60.379028%, 30.740356%)" offset="0.878906"/><stop stop-opacity="1" stop-color="rgb(100%, 60.025024%, 30.685425%)" offset="0.890625"/><stop stop-opacity="1" stop-color="rgb(100%, 59.671021%, 30.630493%)" offset="0.902344"/><stop stop-opacity="1" stop-color="rgb(100%, 59.376526%, 30.584717%)" offset="0.914062"/><stop stop-opacity="1" stop-color="rgb(100%, 59.140015%, 30.548096%)" offset="0.921875"/><stop stop-opacity="1" stop-color="rgb(100%, 58.903503%, 30.511475%)" offset="0.929688"/><stop stop-opacity="1" stop-color="rgb(100%, 58.668518%, 30.474854%)" offset="0.9375"/><stop stop-opacity="1" stop-color="rgb(100%, 58.374023%, 30.429077%)" offset="0.945312"/><stop stop-opacity="1" stop-color="rgb(100%, 58.078003%, 30.383301%)" offset="0.957031"/><stop stop-opacity="1" stop-color="rgb(100%, 57.843018%, 30.34668%)" offset="0.964844"/><stop stop-opacity="1" stop-color="rgb(100%, 57.548523%, 30.300903%)" offset="0.972656"/><stop stop-opacity="1" stop-color="rgb(100%, 57.252502%, 30.253601%)" offset="0.984375"/><stop stop-opacity="1" stop-color="rgb(100%, 57.015991%, 30.21698%)" offset="0.992188"/><stop stop-opacity="1" stop-color="rgb(100%, 56.898499%, 30.198669%)" offset="1"/></radialGradient><clipPath id="5bfb264bd0"><path d="M 18.171875 23.800781 L 57 23.800781 L 57 51.550781 L 18.171875 51.550781 Z M 18.171875 23.800781 " clip-rule="nonzero"/></clipPath></defs><rect x="-7.5" width="90" fill="#ffffff" y="-7.5" height="89.999996" fill-opacity="1"/><rect x="-7.5" width="90" fill="#ffffff" y="-7.5" height="89.999996" fill-opacity="1"/><g clip-path="url(#ecfde0d9d9)"><g clip-path="url(#ea6f2f61ec)"><path fill="url(#7a3507be54)" d="M 1.164062 1.164062 L 1.164062 73.835938 L 73.835938 73.835938 L 73.835938 1.164062 Z M 1.164062 1.164062 " fill-rule="nonzero"/></g></g><g clip-path="url(#5bfb264bd0)"><path fill="#ffffff" d="M 56.457031 27.371094 C 56.15625 26.832031 55.527344 26.644531 54.90625 26.53125 C 54.671875 26.484375 53.53125 26.175781 52.214844 25.820312 C 48.597656 24.835938 45.550781 24.019531 44.898438 23.996094 C 43.773438 23.988281 35.375 26.085938 33.476562 26.621094 C 29.324219 23.800781 20.785156 25.417969 20.800781 31.320312 L 20.800781 36.699219 C 18.386719 37.695312 18.191406 39.753906 18.191406 39.792969 L 18.191406 47.289062 C 18.191406 50.980469 22.246094 51.199219 22.296875 51.199219 L 34.671875 51.199219 C 37.539062 51.199219 38.347656 48.605469 38.554688 47.613281 C 39.847656 48.792969 43.539062 50.828125 44.242188 50.8125 C 53.320312 48.1875 56.800781 39.617188 56.761719 31.773438 C 56.792969 30.0625 56.761719 27.898438 56.457031 27.371094 Z M 21.34375 31.320312 C 21.464844 23.898438 35.832031 23.945312 35.648438 31.667969 C 35.648438 31.667969 35.648438 36.46875 35.648438 36.46875 C 35.601562 36.457031 35.558594 36.449219 35.511719 36.425781 C 34.234375 36.085938 34.160156 36.183594 33.128906 36.167969 L 33.128906 31.804688 C 33.152344 31.078125 32.964844 30.359375 32.539062 29.761719 C 30.9375 27.65625 27.410156 27.4375 25.171875 28.664062 C 23.96875 29.335938 23.3125 30.410156 23.320312 31.675781 L 23.320312 36.191406 C 22.621094 36.226562 22.011719 36.328125 21.351562 36.515625 L 21.351562 31.320312 Z M 32.117188 33.019531 C 32.199219 34.179688 32.3125 35.207031 32.457031 36.160156 L 23.855469 36.160156 C 23.855469 36.160156 23.855469 31.660156 23.855469 31.660156 C 23.929688 27.898438 30.234375 27.589844 32.039062 29.996094 C 32.019531 30.941406 32.039062 31.953125 32.117188 33.019531 Z M 26.996094 43.390625 C 26.261719 42.945312 25.824219 42.175781 25.824219 41.320312 C 25.824219 39.980469 26.910156 38.898438 28.242188 38.898438 C 30.722656 38.921875 31.585938 42.183594 29.4375 43.429688 C 29.355469 43.476562 29.300781 43.566406 29.300781 43.664062 C 29.300781 43.664062 29.300781 47.039062 29.300781 47.039062 C 29.257812 48.476562 27.167969 48.476562 27.125 47.039062 C 27.125 47.039062 27.125 43.625 27.125 43.625 C 27.125 43.527344 27.070312 43.445312 26.996094 43.390625 Z M 40.800781 35.117188 L 40.972656 35.28125 C 41.761719 35.925781 42.636719 36.667969 42.738281 36.789062 C 42.941406 37.097656 43.335938 37.296875 43.691406 36.984375 C 43.71875 37.03125 50.40625 30.039062 50.792969 29.746094 C 50.808594 29.753906 50.832031 29.769531 50.847656 29.792969 C 50.882812 30.183594 51.074219 32.234375 51.085938 32.6875 C 51.074219 33.105469 50.867188 33.164062 50.800781 33.242188 C 50.730469 33.308594 44.203125 39.980469 43.578125 40.609375 C 43.160156 41.023438 42.886719 40.835938 42.851562 40.804688 C 42.820312 40.765625 39.535156 37.417969 39.265625 37.121094 C 39.203125 37.054688 39.195312 37.007812 39.242188 36.960938 L 40.988281 35.3125 Z M 38.605469 44.171875 C 40.007812 45.757812 42.054688 47.121094 44.113281 48.097656 C 51.542969 45.773438 54.136719 38.808594 54.195312 31.847656 C 54.210938 31.070312 54.210938 30.117188 54.167969 29.207031 C 54.160156 29.085938 54.074219 28.980469 53.953125 28.953125 C 50.90625 28.179688 47.878906 27.210938 44.785156 26.578125 C 41.617188 27.167969 38.433594 27.992188 35.488281 28.738281 C 35.40625 28.597656 35.324219 28.453125 35.234375 28.316406 C 47.214844 25.34375 42.871094 25.683594 54.582031 28.609375 C 55.453125 37.289062 52.667969 45.972656 44.210938 48.65625 C 42.054688 47.742188 40.125 46.476562 38.605469 44.949219 Z M 56.214844 31.773438 C 56.109375 40.035156 52.894531 47.460938 44.226562 50.269531 C 44.058594 50.230469 43.363281 50.042969 41.554688 49.019531 C 40.445312 48.382812 39.476562 47.710938 38.605469 46.96875 L 38.605469 45.714844 C 40.132812 47.128906 42.054688 48.382812 44.136719 49.210938 C 44.1875 49.222656 44.242188 49.222656 44.296875 49.210938 C 53.128906 46.410156 55.738281 37.6875 55.210938 29.550781 C 55.15625 29.035156 55.203125 28.558594 55.015625 28.253906 C 54.976562 28.210938 54.847656 28.082031 54.1875 27.953125 C 51.066406 27.210938 48.007812 26.160156 44.824219 25.5625 C 41.414062 26.121094 38.078125 27.046875 34.878906 27.855469 C 34.628906 27.550781 34.339844 27.273438 34.039062 27.023438 C 36.617188 26.320312 44.074219 24.503906 44.871094 24.535156 C 45.511719 24.554688 49.453125 25.628906 52.0625 26.339844 C 53.5 26.734375 54.539062 27.015625 54.792969 27.058594 C 55.484375 27.1875 55.816406 27.355469 55.972656 27.636719 C 56.117188 27.878906 56.261719 29.101562 56.214844 31.773438 Z M 56.214844 31.773438 " fill-opacity="1" fill-rule="nonzero"/></g></svg>