<svg xmlns="http://www.w3.org/2000/svg" xmlns:xlink="http://www.w3.org/1999/xlink" width="100" zoomAndPan="magnify" viewBox="0 0 75 74.999997" height="100" preserveAspectRatio="xMidYMid meet" version="1.0"><defs><clipPath id="94d9da55d5"><path d="M 1.164062 1.164062 L 73.835938 1.164062 L 73.835938 73.835938 L 1.164062 73.835938 Z M 1.164062 1.164062 " clip-rule="nonzero"/></clipPath><clipPath id="d1ee9b1f12"><path d="M 37.5 1.164062 C 17.429688 1.164062 1.164062 17.429688 1.164062 37.5 C 1.164062 57.570312 17.429688 73.835938 37.5 73.835938 C 57.570312 73.835938 73.835938 57.570312 73.835938 37.5 C 73.835938 17.429688 57.570312 1.164062 37.5 1.164062 Z M 37.5 1.164062 " clip-rule="nonzero"/></clipPath><linearGradient x1="-0.000000241073" gradientTransform="matrix(0.283887, 0, 0, 0.283887, 1.162501, 1.162498)" y1="128" x2="256.000006" gradientUnits="userSpaceOnUse" y2="128" id="38e73bbd8a"><stop stop-opacity="1" stop-color="rgb(33.699036%, 66.699219%, 0.799561%)" offset="0"/><stop stop-opacity="1" stop-color="rgb(33.802795%, 66.828918%, 0.965881%)" offset="0.0078125"/><stop stop-opacity="1" stop-color="rgb(34.011841%, 67.089844%, 1.298523%)" offset="0.015625"/><stop stop-opacity="1" stop-color="rgb(34.220886%, 67.349243%, 1.63269%)" offset="0.0234375"/><stop stop-opacity="1" stop-color="rgb(34.428406%, 67.608643%, 1.966858%)" offset="0.03125"/><stop stop-opacity="1" stop-color="rgb(34.637451%, 67.869568%, 2.2995%)" offset="0.0390625"/><stop stop-opacity="1" stop-color="rgb(34.846497%, 68.128967%, 2.633667%)" offset="0.046875"/><stop stop-opacity="1" stop-color="rgb(35.054016%, 68.389893%, 2.967834%)" offset="0.0546875"/><stop stop-opacity="1" stop-color="rgb(35.263062%, 68.649292%, 3.300476%)" offset="0.0625"/><stop stop-opacity="1" stop-color="rgb(35.472107%, 68.910217%, 3.634644%)" offset="0.0703125"/><stop stop-opacity="1" stop-color="rgb(35.679626%, 69.169617%, 3.967285%)" offset="0.078125"/><stop stop-opacity="1" stop-color="rgb(35.888672%, 69.430542%, 4.301453%)" offset="0.0859375"/><stop stop-opacity="1" stop-color="rgb(36.097717%, 69.689941%, 4.63562%)" offset="0.09375"/><stop stop-opacity="1" stop-color="rgb(36.306763%, 69.950867%, 4.968262%)" offset="0.101563"/><stop stop-opacity="1" stop-color="rgb(36.514282%, 70.210266%, 5.302429%)" offset="0.109375"/><stop stop-opacity="1" stop-color="rgb(36.723328%, 70.471191%, 5.636597%)" offset="0.117188"/><stop stop-opacity="1" stop-color="rgb(36.932373%, 70.730591%, 5.969238%)" offset="0.125"/><stop stop-opacity="1" stop-color="rgb(37.139893%, 70.991516%, 6.303406%)" offset="0.132813"/><stop stop-opacity="1" stop-color="rgb(37.348938%, 71.250916%, 6.636047%)" offset="0.140625"/><stop stop-opacity="1" stop-color="rgb(37.557983%, 71.511841%, 6.970215%)" offset="0.148438"/><stop stop-opacity="1" stop-color="rgb(37.767029%, 71.77124%, 7.304382%)" offset="0.15625"/><stop stop-opacity="1" stop-color="rgb(37.974548%, 72.032166%, 7.637024%)" offset="0.164063"/><stop stop-opacity="1" stop-color="rgb(38.183594%, 72.291565%, 7.971191%)" offset="0.171875"/><stop stop-opacity="1" stop-color="rgb(38.392639%, 72.55249%, 8.305359%)" offset="0.179688"/><stop stop-opacity="1" stop-color="rgb(38.600159%, 72.81189%, 8.638%)" offset="0.1875"/><stop stop-opacity="1" stop-color="rgb(38.809204%, 73.072815%, 8.972168%)" offset="0.195313"/><stop stop-opacity="1" stop-color="rgb(39.01825%, 73.332214%, 9.30481%)" offset="0.203125"/><stop stop-opacity="1" stop-color="rgb(39.225769%, 73.59314%, 9.638977%)" offset="0.210938"/><stop stop-opacity="1" stop-color="rgb(39.434814%, 73.852539%, 9.973145%)" offset="0.21875"/><stop stop-opacity="1" stop-color="rgb(39.64386%, 74.113464%, 10.305786%)" offset="0.226563"/><stop stop-opacity="1" stop-color="rgb(39.852905%, 74.372864%, 10.639954%)" offset="0.234375"/><stop stop-opacity="1" stop-color="rgb(40.060425%, 74.633789%, 10.974121%)" offset="0.242188"/><stop stop-opacity="1" stop-color="rgb(40.26947%, 74.893188%, 11.306763%)" offset="0.25"/><stop stop-opacity="1" stop-color="rgb(40.478516%, 75.154114%, 11.64093%)" offset="0.257813"/><stop stop-opacity="1" stop-color="rgb(40.686035%, 75.413513%, 11.973572%)" offset="0.265625"/><stop stop-opacity="1" stop-color="rgb(40.895081%, 75.674438%, 12.307739%)" offset="0.273438"/><stop stop-opacity="1" stop-color="rgb(41.104126%, 75.933838%, 12.641907%)" offset="0.28125"/><stop stop-opacity="1" stop-color="rgb(41.311646%, 76.194763%, 12.974548%)" offset="0.289063"/><stop stop-opacity="1" stop-color="rgb(41.520691%, 76.454163%, 13.308716%)" offset="0.296875"/><stop stop-opacity="1" stop-color="rgb(41.729736%, 76.715088%, 13.642883%)" offset="0.304688"/><stop stop-opacity="1" stop-color="rgb(41.938782%, 76.974487%, 13.975525%)" offset="0.3125"/><stop stop-opacity="1" stop-color="rgb(42.146301%, 77.235413%, 14.309692%)" offset="0.320313"/><stop stop-opacity="1" stop-color="rgb(42.355347%, 77.494812%, 14.642334%)" offset="0.328125"/><stop stop-opacity="1" stop-color="rgb(42.564392%, 77.755737%, 14.976501%)" offset="0.335938"/><stop stop-opacity="1" stop-color="rgb(42.771912%, 78.015137%, 15.310669%)" offset="0.34375"/><stop stop-opacity="1" stop-color="rgb(42.980957%, 78.276062%, 15.643311%)" offset="0.351563"/><stop stop-opacity="1" stop-color="rgb(43.190002%, 78.535461%, 15.977478%)" offset="0.359375"/><stop stop-opacity="1" stop-color="rgb(43.399048%, 78.796387%, 16.31012%)" offset="0.367188"/><stop stop-opacity="1" stop-color="rgb(43.606567%, 79.055786%, 16.644287%)" offset="0.375"/><stop stop-opacity="1" stop-color="rgb(43.815613%, 79.316711%, 16.978455%)" offset="0.382812"/><stop stop-opacity="1" stop-color="rgb(44.024658%, 79.576111%, 17.311096%)" offset="0.390625"/><stop stop-opacity="1" stop-color="rgb(44.232178%, 79.837036%, 17.645264%)" offset="0.398438"/><stop stop-opacity="1" stop-color="rgb(44.441223%, 80.096436%, 17.979431%)" offset="0.40625"/><stop stop-opacity="1" stop-color="rgb(44.650269%, 80.357361%, 18.312073%)" offset="0.414062"/><stop stop-opacity="1" stop-color="rgb(44.857788%, 80.61676%, 18.64624%)" offset="0.421875"/><stop stop-opacity="1" stop-color="rgb(45.066833%, 80.877686%, 18.978882%)" offset="0.429687"/><stop stop-opacity="1" stop-color="rgb(45.275879%, 81.137085%, 19.313049%)" offset="0.4375"/><stop stop-opacity="1" stop-color="rgb(45.484924%, 81.39801%, 19.647217%)" offset="0.445312"/><stop stop-opacity="1" stop-color="rgb(45.692444%, 81.65741%, 19.979858%)" offset="0.453125"/><stop stop-opacity="1" stop-color="rgb(45.901489%, 81.918335%, 20.314026%)" offset="0.460937"/><stop stop-opacity="1" stop-color="rgb(46.110535%, 82.177734%, 20.648193%)" offset="0.46875"/><stop stop-opacity="1" stop-color="rgb(46.318054%, 82.43866%, 20.980835%)" offset="0.476562"/><stop stop-opacity="1" stop-color="rgb(46.5271%, 82.698059%, 21.315002%)" offset="0.484375"/><stop stop-opacity="1" stop-color="rgb(46.736145%, 82.958984%, 21.647644%)" offset="0.492187"/><stop stop-opacity="1" stop-color="rgb(46.943665%, 83.218384%, 21.981812%)" offset="0.5"/><stop stop-opacity="1" stop-color="rgb(47.15271%, 83.479309%, 22.315979%)" offset="0.507812"/><stop stop-opacity="1" stop-color="rgb(47.361755%, 83.738708%, 22.648621%)" offset="0.515625"/><stop stop-opacity="1" stop-color="rgb(47.570801%, 83.999634%, 22.982788%)" offset="0.523438"/><stop stop-opacity="1" stop-color="rgb(47.77832%, 84.259033%, 23.316956%)" offset="0.53125"/><stop stop-opacity="1" stop-color="rgb(47.987366%, 84.519958%, 23.649597%)" offset="0.539062"/><stop stop-opacity="1" stop-color="rgb(48.196411%, 84.779358%, 23.983765%)" offset="0.546875"/><stop stop-opacity="1" stop-color="rgb(48.403931%, 85.040283%, 24.316406%)" offset="0.554688"/><stop stop-opacity="1" stop-color="rgb(48.612976%, 85.299683%, 24.650574%)" offset="0.5625"/><stop stop-opacity="1" stop-color="rgb(48.822021%, 85.560608%, 24.984741%)" offset="0.570313"/><stop stop-opacity="1" stop-color="rgb(49.031067%, 85.820007%, 25.317383%)" offset="0.578125"/><stop stop-opacity="1" stop-color="rgb(49.238586%, 86.080933%, 25.65155%)" offset="0.585938"/><stop stop-opacity="1" stop-color="rgb(49.447632%, 86.340332%, 25.985718%)" offset="0.59375"/><stop stop-opacity="1" stop-color="rgb(49.656677%, 86.601257%, 26.318359%)" offset="0.601563"/><stop stop-opacity="1" stop-color="rgb(49.864197%, 86.860657%, 26.652527%)" offset="0.609375"/><stop stop-opacity="1" stop-color="rgb(50.073242%, 87.121582%, 26.985168%)" offset="0.617188"/><stop stop-opacity="1" stop-color="rgb(50.282288%, 87.380981%, 27.319336%)" offset="0.625"/><stop stop-opacity="1" stop-color="rgb(50.489807%, 87.641907%, 27.653503%)" offset="0.632813"/><stop stop-opacity="1" stop-color="rgb(50.698853%, 87.901306%, 27.986145%)" offset="0.640625"/><stop stop-opacity="1" stop-color="rgb(50.907898%, 88.162231%, 28.320312%)" offset="0.648438"/><stop stop-opacity="1" stop-color="rgb(51.116943%, 88.421631%, 28.65448%)" offset="0.65625"/><stop stop-opacity="1" stop-color="rgb(51.324463%, 88.682556%, 28.987122%)" offset="0.664063"/><stop stop-opacity="1" stop-color="rgb(51.533508%, 88.941956%, 29.321289%)" offset="0.671875"/><stop stop-opacity="1" stop-color="rgb(51.742554%, 89.202881%, 29.653931%)" offset="0.679688"/><stop stop-opacity="1" stop-color="rgb(51.950073%, 89.46228%, 29.988098%)" offset="0.6875"/><stop stop-opacity="1" stop-color="rgb(52.159119%, 89.723206%, 30.322266%)" offset="0.695312"/><stop stop-opacity="1" stop-color="rgb(52.368164%, 89.982605%, 30.654907%)" offset="0.703125"/><stop stop-opacity="1" stop-color="rgb(52.575684%, 90.24353%, 30.989075%)" offset="0.710938"/><stop stop-opacity="1" stop-color="rgb(52.784729%, 90.50293%, 31.323242%)" offset="0.71875"/><stop stop-opacity="1" stop-color="rgb(52.993774%, 90.763855%, 31.655884%)" offset="0.726562"/><stop stop-opacity="1" stop-color="rgb(53.20282%, 91.023254%, 31.990051%)" offset="0.734375"/><stop stop-opacity="1" stop-color="rgb(53.410339%, 91.28418%, 32.322693%)" offset="0.742188"/><stop stop-opacity="1" stop-color="rgb(53.619385%, 91.543579%, 32.65686%)" offset="0.75"/><stop stop-opacity="1" stop-color="rgb(53.82843%, 91.804504%, 32.991028%)" offset="0.757812"/><stop stop-opacity="1" stop-color="rgb(54.03595%, 92.063904%, 33.323669%)" offset="0.765625"/><stop stop-opacity="1" stop-color="rgb(54.244995%, 92.324829%, 33.657837%)" offset="0.773438"/><stop stop-opacity="1" stop-color="rgb(54.454041%, 92.584229%, 33.992004%)" offset="0.78125"/><stop stop-opacity="1" stop-color="rgb(54.663086%, 92.845154%, 34.324646%)" offset="0.789062"/><stop stop-opacity="1" stop-color="rgb(54.870605%, 93.104553%, 34.658813%)" offset="0.796875"/><stop stop-opacity="1" stop-color="rgb(55.079651%, 93.365479%, 34.991455%)" offset="0.804688"/><stop stop-opacity="1" stop-color="rgb(55.288696%, 93.624878%, 35.325623%)" offset="0.8125"/><stop stop-opacity="1" stop-color="rgb(55.496216%, 93.885803%, 35.65979%)" offset="0.820312"/><stop stop-opacity="1" stop-color="rgb(55.705261%, 94.145203%, 35.992432%)" offset="0.828125"/><stop stop-opacity="1" stop-color="rgb(55.914307%, 94.406128%, 36.326599%)" offset="0.835937"/><stop stop-opacity="1" stop-color="rgb(56.121826%, 94.665527%, 36.660767%)" offset="0.84375"/><stop stop-opacity="1" stop-color="rgb(56.330872%, 94.926453%, 36.993408%)" offset="0.851562"/><stop stop-opacity="1" stop-color="rgb(56.539917%, 95.185852%, 37.327576%)" offset="0.859375"/><stop stop-opacity="1" stop-color="rgb(56.748962%, 95.446777%, 37.660217%)" offset="0.867187"/><stop stop-opacity="1" stop-color="rgb(56.956482%, 95.706177%, 37.994385%)" offset="0.875"/><stop stop-opacity="1" stop-color="rgb(57.165527%, 95.967102%, 38.328552%)" offset="0.882812"/><stop stop-opacity="1" stop-color="rgb(57.374573%, 96.226501%, 38.661194%)" offset="0.890625"/><stop stop-opacity="1" stop-color="rgb(57.582092%, 96.487427%, 38.995361%)" offset="0.898437"/><stop stop-opacity="1" stop-color="rgb(57.791138%, 96.746826%, 39.329529%)" offset="0.90625"/><stop stop-opacity="1" stop-color="rgb(58.000183%, 97.007751%, 39.66217%)" offset="0.914062"/><stop stop-opacity="1" stop-color="rgb(58.209229%, 97.267151%, 39.996338%)" offset="0.921875"/><stop stop-opacity="1" stop-color="rgb(58.416748%, 97.528076%, 40.328979%)" offset="0.929687"/><stop stop-opacity="1" stop-color="rgb(58.625793%, 97.787476%, 40.663147%)" offset="0.9375"/><stop stop-opacity="1" stop-color="rgb(58.834839%, 98.048401%, 40.997314%)" offset="0.945312"/><stop stop-opacity="1" stop-color="rgb(59.042358%, 98.3078%, 41.329956%)" offset="0.953125"/><stop stop-opacity="1" stop-color="rgb(59.251404%, 98.568726%, 41.664124%)" offset="0.960938"/><stop stop-opacity="1" stop-color="rgb(59.460449%, 98.828125%, 41.998291%)" offset="0.96875"/><stop stop-opacity="1" stop-color="rgb(59.667969%, 99.08905%, 42.330933%)" offset="0.976562"/><stop stop-opacity="1" stop-color="rgb(59.877014%, 99.34845%, 42.6651%)" offset="0.984375"/><stop stop-opacity="1" stop-color="rgb(60.08606%, 99.609375%, 42.997742%)" offset="0.992188"/><stop stop-opacity="1" stop-color="rgb(60.295105%, 99.868774%, 43.331909%)" offset="1"/></linearGradient><clipPath id="aeedd1f018"><path d="M 20.113281 29 L 54.613281 29 L 54.613281 52.925781 L 20.113281 52.925781 Z M 20.113281 29 " clip-rule="nonzero"/></clipPath><clipPath id="7d88fc04e8"><path d="M 20.113281 22.175781 L 54.613281 22.175781 L 54.613281 29 L 20.113281 29 Z M 20.113281 22.175781 " clip-rule="nonzero"/></clipPath></defs><rect x="-7.5" width="90" fill="#ffffff" y="-7.5" height="89.999996" fill-opacity="1"/><rect x="-7.5" width="90" fill="#ffffff" y="-7.5" height="89.999996" fill-opacity="1"/><g clip-path="url(#94d9da55d5)"><g clip-path="url(#d1ee9b1f12)"><path fill="url(#38e73bbd8a)" d="M 1.164062 1.164062 L 1.164062 73.835938 L 73.835938 73.835938 L 73.835938 1.164062 Z M 1.164062 1.164062 " fill-rule="nonzero"/></g></g><g clip-path="url(#aeedd1f018)"><path fill="#ffffff" d="M 20.117188 29.625 L 20.117188 51.027344 C 20.121094 51.265625 20.164062 51.496094 20.257812 51.714844 C 20.347656 51.933594 20.476562 52.128906 20.644531 52.296875 C 20.8125 52.464844 21.007812 52.59375 21.226562 52.683594 C 21.445312 52.773438 21.671875 52.820312 21.910156 52.820312 L 53.082031 52.820312 C 53.320312 52.820312 53.550781 52.773438 53.769531 52.683594 C 53.988281 52.59375 54.183594 52.464844 54.351562 52.296875 C 54.519531 52.128906 54.648438 51.933594 54.738281 51.714844 C 54.828125 51.496094 54.875 51.265625 54.875 51.027344 L 54.875 29.625 Z M 33.410156 51.347656 C 32.984375 51.347656 32.601562 51.21875 32.261719 50.960938 C 31.921875 50.699219 31.695312 50.363281 31.585938 49.953125 L 29.921875 49.953125 C 29.453125 49.953125 29.054688 49.789062 28.722656 49.457031 C 28.394531 49.789062 27.996094 49.953125 27.527344 49.953125 L 25.859375 49.953125 C 25.820312 50.097656 25.761719 50.238281 25.6875 50.371094 C 25.617188 50.503906 25.527344 50.628906 25.425781 50.738281 C 25.320312 50.851562 25.207031 50.949219 25.078125 51.035156 C 24.953125 51.117188 24.816406 51.183594 24.675781 51.238281 C 24.53125 51.289062 24.382812 51.324219 24.234375 51.339844 C 24.082031 51.355469 23.929688 51.351562 23.78125 51.332031 C 23.628906 51.3125 23.484375 51.273438 23.339844 51.21875 C 23.199219 51.164062 23.066406 51.09375 22.941406 51.003906 C 22.816406 50.917969 22.707031 50.816406 22.605469 50.703125 C 22.503906 50.585938 22.417969 50.460938 22.351562 50.328125 C 22.28125 50.191406 22.226562 50.050781 22.191406 49.902344 C 22.15625 49.757812 22.136719 49.605469 22.136719 49.453125 C 22.136719 49.300781 22.15625 49.152344 22.191406 49.003906 C 22.226562 48.855469 22.28125 48.714844 22.351562 48.582031 C 22.417969 48.445312 22.503906 48.320312 22.605469 48.207031 C 22.707031 48.089844 22.816406 47.992188 22.941406 47.902344 C 23.066406 47.816406 23.199219 47.746094 23.339844 47.6875 C 23.484375 47.632812 23.628906 47.59375 23.78125 47.574219 C 23.929688 47.554688 24.082031 47.554688 24.234375 47.570312 C 24.382812 47.585938 24.53125 47.621094 24.675781 47.671875 C 24.816406 47.722656 24.953125 47.789062 25.078125 47.875 C 25.207031 47.957031 25.320312 48.054688 25.425781 48.167969 C 25.527344 48.28125 25.617188 48.402344 25.6875 48.535156 C 25.761719 48.667969 25.820312 48.808594 25.859375 48.957031 L 27.523438 48.957031 C 27.71875 48.957031 27.882812 48.886719 28.019531 48.75 C 28.152344 48.613281 28.222656 48.449219 28.222656 48.257812 L 28.222656 44.046875 L 28.152344 44.046875 C 28.019531 44.046875 27.890625 44.023438 27.765625 43.96875 C 27.640625 43.917969 27.535156 43.847656 27.4375 43.75 C 27.34375 43.65625 27.269531 43.546875 27.21875 43.425781 C 27.167969 43.300781 27.144531 43.171875 27.144531 43.039062 L 27.144531 42.894531 C 26.773438 42.785156 26.417969 42.640625 26.078125 42.453125 L 25.976562 42.554688 C 25.882812 42.652344 25.773438 42.722656 25.648438 42.773438 C 25.523438 42.828125 25.394531 42.851562 25.261719 42.851562 C 25.128906 42.851562 25 42.828125 24.875 42.773438 C 24.75 42.722656 24.640625 42.652344 24.546875 42.554688 L 23.742188 41.75 C 23.648438 41.652344 23.574219 41.542969 23.523438 41.421875 C 23.472656 41.296875 23.445312 41.167969 23.445312 41.035156 C 23.445312 40.898438 23.472656 40.769531 23.523438 40.648438 C 23.574219 40.523438 23.648438 40.414062 23.742188 40.320312 L 23.84375 40.214844 C 23.65625 39.875 23.511719 39.519531 23.402344 39.148438 L 23.257812 39.148438 C 23.125 39.148438 22.996094 39.125 22.875 39.070312 C 22.75 39.019531 22.640625 38.949219 22.546875 38.851562 C 22.453125 38.757812 22.378906 38.648438 22.328125 38.527344 C 22.277344 38.402344 22.25 38.273438 22.25 38.140625 L 22.25 37.003906 C 22.25 36.871094 22.277344 36.742188 22.328125 36.617188 C 22.378906 36.496094 22.453125 36.386719 22.546875 36.289062 C 22.640625 36.195312 22.75 36.125 22.875 36.070312 C 22.996094 36.019531 23.125 35.996094 23.257812 35.996094 L 23.402344 35.996094 C 23.511719 35.625 23.65625 35.269531 23.84375 34.925781 L 23.742188 34.824219 C 23.644531 34.730469 23.574219 34.621094 23.523438 34.5 C 23.46875 34.375 23.445312 34.246094 23.445312 34.113281 C 23.445312 33.976562 23.46875 33.847656 23.523438 33.726562 C 23.574219 33.601562 23.644531 33.492188 23.742188 33.398438 L 24.546875 32.59375 C 24.640625 32.496094 24.75 32.425781 24.875 32.371094 C 25 32.320312 25.128906 32.296875 25.261719 32.296875 C 25.394531 32.296875 25.523438 32.320312 25.648438 32.371094 C 25.773438 32.425781 25.882812 32.496094 25.976562 32.59375 L 26.078125 32.691406 C 26.417969 32.507812 26.773438 32.359375 27.140625 32.25 L 27.140625 32.109375 C 27.140625 31.976562 27.167969 31.847656 27.21875 31.722656 C 27.269531 31.597656 27.34375 31.488281 27.4375 31.394531 C 27.53125 31.300781 27.640625 31.226562 27.765625 31.175781 C 27.886719 31.125 28.015625 31.101562 28.152344 31.101562 L 29.289062 31.101562 C 29.421875 31.101562 29.550781 31.125 29.675781 31.175781 C 29.800781 31.226562 29.910156 31.300781 30.003906 31.394531 C 30.097656 31.488281 30.171875 31.597656 30.222656 31.722656 C 30.273438 31.847656 30.296875 31.976562 30.296875 32.109375 L 30.296875 32.25 C 30.671875 32.359375 31.027344 32.503906 31.367188 32.691406 L 31.46875 32.589844 C 31.5625 32.496094 31.671875 32.421875 31.796875 32.371094 C 31.921875 32.316406 32.050781 32.292969 32.183594 32.292969 C 32.316406 32.292969 32.449219 32.316406 32.570312 32.371094 C 32.695312 32.421875 32.804688 32.496094 32.898438 32.589844 L 33.703125 33.394531 C 33.796875 33.488281 33.871094 33.597656 33.921875 33.722656 C 33.972656 33.84375 34 33.972656 34 34.109375 C 34 34.242188 33.972656 34.371094 33.921875 34.496094 C 33.871094 34.617188 33.796875 34.726562 33.703125 34.824219 L 33.601562 34.925781 C 33.789062 35.265625 33.933594 35.617188 34.042969 35.988281 L 34.1875 35.988281 C 34.320312 35.988281 34.449219 36.015625 34.574219 36.066406 C 34.695312 36.117188 34.804688 36.191406 34.902344 36.285156 C 34.996094 36.378906 35.066406 36.488281 35.121094 36.613281 C 35.171875 36.734375 35.195312 36.863281 35.195312 36.996094 L 35.195312 38.136719 C 35.195312 38.269531 35.171875 38.398438 35.121094 38.523438 C 35.066406 38.644531 34.996094 38.753906 34.902344 38.847656 C 34.804688 38.945312 34.695312 39.015625 34.574219 39.066406 C 34.449219 39.121094 34.320312 39.144531 34.1875 39.144531 L 34.042969 39.144531 C 33.9375 39.515625 33.789062 39.875 33.601562 40.214844 L 33.703125 40.316406 C 33.796875 40.410156 33.871094 40.519531 33.921875 40.644531 C 33.972656 40.769531 34 40.898438 34 41.03125 C 34 41.164062 33.972656 41.292969 33.921875 41.417969 C 33.871094 41.542969 33.796875 41.652344 33.703125 41.746094 L 32.898438 42.550781 C 32.804688 42.644531 32.695312 42.71875 32.570312 42.769531 C 32.449219 42.820312 32.316406 42.847656 32.183594 42.847656 C 32.050781 42.847656 31.921875 42.820312 31.796875 42.769531 C 31.671875 42.71875 31.5625 42.644531 31.46875 42.550781 L 31.367188 42.449219 C 31.027344 42.632812 30.675781 42.78125 30.304688 42.890625 L 30.304688 43.035156 C 30.304688 43.167969 30.277344 43.296875 30.226562 43.421875 C 30.175781 43.542969 30.101562 43.652344 30.007812 43.746094 C 29.914062 43.84375 29.804688 43.914062 29.679688 43.964844 C 29.558594 44.015625 29.429688 44.042969 29.292969 44.042969 L 29.222656 44.042969 L 29.222656 48.253906 C 29.222656 48.445312 29.292969 48.609375 29.429688 48.746094 C 29.566406 48.882812 29.730469 48.949219 29.921875 48.949219 L 31.585938 48.949219 C 31.648438 48.722656 31.75 48.511719 31.890625 48.320312 C 32.03125 48.132812 32.199219 47.972656 32.402344 47.847656 C 32.601562 47.71875 32.816406 47.632812 33.050781 47.589844 C 33.28125 47.542969 33.515625 47.542969 33.746094 47.582031 C 33.980469 47.625 34.199219 47.707031 34.402344 47.832031 C 34.601562 47.953125 34.777344 48.109375 34.917969 48.300781 C 35.0625 48.488281 35.167969 48.695312 35.234375 48.921875 C 35.300781 49.148438 35.320312 49.382812 35.300781 49.617188 C 35.28125 49.851562 35.21875 50.078125 35.113281 50.289062 C 35.007812 50.5 34.867188 50.6875 34.691406 50.847656 C 34.519531 51.007812 34.320312 51.128906 34.097656 51.214844 C 33.878906 51.300781 33.648438 51.34375 33.414062 51.34375 Z M 46.058594 51.316406 C 45.929688 51.367188 45.800781 51.363281 45.675781 51.304688 C 45.550781 51.25 45.460938 51.15625 45.414062 51.027344 L 44.824219 49.484375 L 42.320312 49.484375 L 41.726562 51.027344 C 41.675781 51.152344 41.585938 51.242188 41.464844 51.292969 C 41.339844 51.34375 41.214844 51.347656 41.089844 51.300781 C 40.964844 51.25 40.875 51.167969 40.816406 51.042969 C 40.761719 50.921875 40.753906 50.800781 40.796875 50.671875 L 43.105469 44.644531 C 43.1875 44.433594 43.339844 44.324219 43.570312 44.324219 C 43.796875 44.324219 43.953125 44.433594 44.035156 44.644531 L 46.339844 50.671875 C 46.390625 50.800781 46.386719 50.929688 46.332031 51.054688 C 46.273438 51.179688 46.183594 51.265625 46.054688 51.316406 Z M 52.25 50.175781 C 51.769531 50.933594 51.050781 51.347656 50.222656 51.347656 L 48.171875 51.347656 C 48.035156 51.347656 47.917969 51.300781 47.820312 51.203125 C 47.722656 51.105469 47.675781 50.988281 47.675781 50.851562 L 47.675781 44.824219 C 47.675781 44.683594 47.722656 44.566406 47.820312 44.46875 C 47.917969 44.371094 48.035156 44.324219 48.171875 44.324219 L 50.21875 44.324219 C 52.03125 44.324219 52.859375 46.144531 52.859375 47.835938 C 52.859375 48.71875 52.636719 49.550781 52.246094 50.175781 Z M 49.878906 40.398438 L 49.878906 42.308594 C 49.878906 42.488281 49.804688 42.628906 49.65625 42.726562 C 49.503906 42.824219 49.347656 42.839844 49.183594 42.769531 L 41.6875 39.542969 L 39.917969 46.238281 C 39.851562 46.488281 39.691406 46.609375 39.433594 46.609375 L 37.25 46.609375 C 37.109375 46.609375 36.992188 46.5625 36.894531 46.464844 C 36.796875 46.367188 36.75 46.25 36.75 46.113281 L 36.75 35.53125 C 36.75 35.394531 36.796875 35.277344 36.894531 35.179688 C 36.992188 35.082031 37.109375 35.035156 37.25 35.035156 L 40.128906 35.035156 L 49.179688 31.136719 C 49.257812 31.105469 49.339844 31.089844 49.421875 31.097656 C 49.503906 31.105469 49.582031 31.132812 49.652344 31.179688 C 49.722656 31.226562 49.777344 31.285156 49.820312 31.359375 C 49.859375 31.433594 49.878906 31.511719 49.878906 31.597656 L 49.878906 33.511719 C 50.292969 33.570312 50.683594 33.699219 51.050781 33.902344 C 51.417969 34.101562 51.738281 34.359375 52.011719 34.675781 C 52.285156 34.992188 52.496094 35.347656 52.640625 35.738281 C 52.785156 36.128906 52.859375 36.535156 52.859375 36.953125 C 52.859375 37.371094 52.785156 37.777344 52.640625 38.167969 C 52.496094 38.558594 52.285156 38.914062 52.011719 39.230469 C 51.738281 39.546875 51.417969 39.804688 51.050781 40.003906 C 50.683594 40.203125 50.292969 40.335938 49.878906 40.394531 Z M 49.878906 40.398438 " fill-opacity="1" fill-rule="nonzero"/></g><g clip-path="url(#7d88fc04e8)"><path fill="#ffffff" d="M 53.082031 22.179688 L 21.910156 22.179688 C 21.671875 22.179688 21.445312 22.222656 21.226562 22.316406 C 21.007812 22.40625 20.8125 22.535156 20.644531 22.703125 C 20.476562 22.871094 20.347656 23.066406 20.257812 23.285156 C 20.164062 23.503906 20.121094 23.734375 20.117188 23.96875 L 20.117188 28.628906 L 54.875 28.628906 L 54.875 23.972656 C 54.875 23.734375 54.832031 23.507812 54.738281 23.289062 C 54.648438 23.066406 54.519531 22.875 54.351562 22.703125 C 54.183594 22.535156 53.988281 22.40625 53.769531 22.316406 C 53.550781 22.222656 53.320312 22.179688 53.082031 22.179688 Z M 25.597656 25.902344 L 23.316406 25.902344 C 23.179688 25.902344 23.0625 25.851562 22.964844 25.753906 C 22.867188 25.660156 22.816406 25.539062 22.816406 25.402344 C 22.816406 25.265625 22.867188 25.148438 22.964844 25.050781 C 23.0625 24.953125 23.179688 24.902344 23.316406 24.902344 L 25.597656 24.902344 C 25.738281 24.902344 25.855469 24.953125 25.953125 25.050781 C 26.050781 25.148438 26.097656 25.265625 26.097656 25.402344 C 26.097656 25.539062 26.050781 25.660156 25.953125 25.753906 C 25.855469 25.851562 25.738281 25.902344 25.597656 25.902344 Z M 31.011719 25.902344 L 28.730469 25.902344 C 28.59375 25.902344 28.476562 25.851562 28.378906 25.753906 C 28.28125 25.660156 28.230469 25.539062 28.230469 25.402344 C 28.230469 25.265625 28.28125 25.148438 28.378906 25.050781 C 28.476562 24.953125 28.59375 24.902344 28.730469 24.902344 L 31.015625 24.902344 C 31.152344 24.902344 31.269531 24.953125 31.367188 25.050781 C 31.464844 25.148438 31.511719 25.265625 31.511719 25.402344 C 31.511719 25.539062 31.464844 25.660156 31.367188 25.753906 C 31.269531 25.851562 31.152344 25.902344 31.015625 25.902344 Z M 36.425781 25.902344 L 34.144531 25.902344 C 34.003906 25.902344 33.886719 25.851562 33.789062 25.753906 C 33.691406 25.660156 33.644531 25.539062 33.644531 25.402344 C 33.644531 25.265625 33.691406 25.148438 33.789062 25.050781 C 33.886719 24.953125 34.003906 24.902344 34.144531 24.902344 L 36.425781 24.902344 C 36.5625 24.902344 36.683594 24.953125 36.78125 25.050781 C 36.875 25.148438 36.925781 25.265625 36.925781 25.402344 C 36.925781 25.539062 36.875 25.660156 36.78125 25.753906 C 36.683594 25.851562 36.5625 25.902344 36.425781 25.902344 Z M 52.175781 26.859375 C 52.175781 26.996094 52.125 27.113281 52.03125 27.210938 C 51.933594 27.308594 51.816406 27.355469 51.675781 27.355469 L 39.558594 27.355469 C 39.417969 27.355469 39.300781 27.308594 39.203125 27.210938 C 39.105469 27.113281 39.058594 26.996094 39.058594 26.859375 L 39.058594 23.949219 C 39.058594 23.8125 39.109375 23.695312 39.203125 23.597656 C 39.300781 23.5 39.417969 23.449219 39.558594 23.449219 L 51.679688 23.449219 C 51.816406 23.449219 51.933594 23.5 52.03125 23.597656 C 52.128906 23.691406 52.175781 23.8125 52.175781 23.949219 Z M 52.175781 26.859375 " fill-opacity="1" fill-rule="nonzero"/></g><path fill="#ffffff" d="M 40.054688 24.445312 L 51.179688 24.445312 L 51.179688 26.359375 L 40.054688 26.359375 Z M 40.054688 24.445312 " fill-opacity="1" fill-rule="nonzero"/><path fill="#ffffff" d="M 40.761719 39.144531 L 39.050781 45.613281 L 37.746094 45.613281 L 37.746094 38.871094 L 40.128906 38.871094 Z M 40.761719 39.144531 " fill-opacity="1" fill-rule="nonzero"/><path fill="#ffffff" d="M 37.746094 36.03125 L 39.730469 36.03125 L 39.730469 37.875 L 37.746094 37.875 Z M 37.746094 36.03125 " fill-opacity="1" fill-rule="nonzero"/><path fill="#ffffff" d="M 48.878906 32.355469 L 48.878906 41.550781 L 41.550781 38.398438 L 40.730469 38.046875 L 40.730469 35.859375 Z M 48.878906 32.355469 " fill-opacity="1" fill-rule="nonzero"/><path fill="#ffffff" d="M 51.859375 36.957031 C 51.855469 37.242188 51.808594 37.519531 51.714844 37.789062 C 51.617188 38.058594 51.480469 38.304688 51.300781 38.523438 C 51.117188 38.746094 50.90625 38.929688 50.660156 39.078125 C 50.417969 39.226562 50.15625 39.328125 49.875 39.386719 L 49.875 34.523438 C 50.15625 34.582031 50.417969 34.683594 50.664062 34.832031 C 50.90625 34.980469 51.121094 35.164062 51.300781 35.386719 C 51.480469 35.609375 51.617188 35.855469 51.714844 36.125 C 51.808594 36.394531 51.859375 36.671875 51.859375 36.957031 Z M 51.859375 36.957031 " fill-opacity="1" fill-rule="nonzero"/><path fill="#ffffff" d="M 44.4375 48.488281 L 42.703125 48.488281 L 43.570312 46.21875 Z M 44.4375 48.488281 " fill-opacity="1" fill-rule="nonzero"/><path fill="#ffffff" d="M 51.859375 47.835938 C 51.859375 48.523438 51.691406 49.183594 51.402344 49.640625 C 51.109375 50.101562 50.707031 50.351562 50.21875 50.351562 L 48.667969 50.351562 L 48.667969 45.320312 L 50.21875 45.320312 C 51.34375 45.320312 51.859375 46.625 51.859375 47.835938 Z M 51.859375 47.835938 " fill-opacity="1" fill-rule="nonzero"/><path fill="#ffffff" d="M 33.753906 48.625 C 33.984375 48.71875 34.144531 48.882812 34.242188 49.109375 C 34.335938 49.339844 34.335938 49.570312 34.242188 49.796875 C 34.144531 50.027344 33.984375 50.1875 33.753906 50.285156 C 33.527344 50.378906 33.296875 50.378906 33.066406 50.285156 C 32.839844 50.1875 32.675781 50.027344 32.582031 49.796875 C 32.488281 49.570312 32.488281 49.339844 32.582031 49.109375 C 32.675781 48.882812 32.839844 48.71875 33.066406 48.625 C 33.296875 48.53125 33.527344 48.53125 33.753906 48.625 Z M 33.753906 48.625 " fill-opacity="1" fill-rule="nonzero"/><path fill="#ffffff" d="M 24.378906 48.625 C 24.605469 48.71875 24.769531 48.882812 24.863281 49.109375 C 24.960938 49.339844 24.960938 49.570312 24.863281 49.796875 C 24.769531 50.027344 24.605469 50.1875 24.378906 50.285156 C 24.148438 50.378906 23.921875 50.378906 23.691406 50.285156 C 23.460938 50.1875 23.300781 50.027344 23.207031 49.796875 C 23.109375 49.570312 23.109375 49.339844 23.207031 49.109375 C 23.300781 48.882812 23.460938 48.71875 23.691406 48.625 C 23.921875 48.53125 24.148438 48.53125 24.378906 48.625 Z M 24.378906 48.625 " fill-opacity="1" fill-rule="nonzero"/><path fill="#ffffff" d="M 34.1875 36.988281 L 33.660156 36.988281 C 33.542969 36.988281 33.4375 36.953125 33.34375 36.878906 C 33.253906 36.804688 33.195312 36.710938 33.171875 36.597656 C 33.054688 36.066406 32.851562 35.574219 32.558594 35.117188 C 32.496094 35.019531 32.46875 34.910156 32.480469 34.796875 C 32.492188 34.679688 32.542969 34.582031 32.625 34.496094 L 33 34.125 C 33.003906 34.117188 33.003906 34.109375 33 34.105469 L 32.191406 33.300781 C 32.1875 33.296875 32.179688 33.296875 32.175781 33.300781 L 31.800781 33.675781 C 31.71875 33.757812 31.617188 33.804688 31.503906 33.816406 C 31.386719 33.828125 31.277344 33.804688 31.179688 33.742188 C 30.722656 33.449219 30.230469 33.242188 29.699219 33.128906 C 29.585938 33.101562 29.492188 33.042969 29.417969 32.953125 C 29.34375 32.863281 29.308594 32.757812 29.308594 32.640625 L 29.308594 32.109375 C 29.308594 32.101562 29.304688 32.097656 29.296875 32.097656 L 28.152344 32.097656 C 28.144531 32.097656 28.140625 32.101562 28.140625 32.109375 L 28.140625 32.640625 C 28.140625 32.757812 28.105469 32.863281 28.03125 32.953125 C 27.957031 33.042969 27.863281 33.101562 27.75 33.128906 C 27.21875 33.242188 26.726562 33.449219 26.269531 33.742188 C 26.167969 33.804688 26.0625 33.828125 25.945312 33.816406 C 25.828125 33.804688 25.730469 33.757812 25.648438 33.675781 L 25.273438 33.300781 C 25.265625 33.296875 25.261719 33.296875 25.253906 33.300781 L 24.449219 34.101562 C 24.441406 34.109375 24.441406 34.113281 24.449219 34.121094 L 24.820312 34.496094 C 24.90625 34.578125 24.953125 34.675781 24.964844 34.792969 C 24.976562 34.910156 24.953125 35.015625 24.890625 35.117188 C 24.59375 35.570312 24.390625 36.066406 24.273438 36.59375 C 24.25 36.710938 24.191406 36.804688 24.101562 36.878906 C 24.007812 36.949219 23.90625 36.988281 23.789062 36.988281 L 23.257812 36.988281 C 23.25 36.988281 23.246094 36.992188 23.246094 37 L 23.246094 38.140625 C 23.246094 38.148438 23.25 38.152344 23.257812 38.152344 L 23.789062 38.152344 C 23.90625 38.152344 24.011719 38.1875 24.101562 38.261719 C 24.191406 38.335938 24.25 38.429688 24.277344 38.546875 C 24.390625 39.074219 24.59375 39.570312 24.890625 40.027344 C 24.953125 40.125 24.976562 40.230469 24.964844 40.347656 C 24.953125 40.464844 24.90625 40.5625 24.820312 40.644531 L 24.449219 41.019531 C 24.441406 41.027344 24.441406 41.03125 24.449219 41.039062 L 25.253906 41.84375 C 25.257812 41.847656 25.265625 41.847656 25.273438 41.84375 L 25.644531 41.46875 C 25.730469 41.386719 25.828125 41.339844 25.945312 41.328125 C 26.0625 41.316406 26.167969 41.339844 26.265625 41.402344 C 26.722656 41.695312 27.214844 41.902344 27.746094 42.015625 C 27.863281 42.042969 27.957031 42.101562 28.027344 42.191406 C 28.101562 42.28125 28.140625 42.386719 28.140625 42.503906 L 28.140625 43.035156 C 28.140625 43.042969 28.144531 43.046875 28.152344 43.046875 L 29.292969 43.046875 C 29.296875 43.042969 29.304688 43.039062 29.304688 43.035156 L 29.304688 42.503906 C 29.304688 42.386719 29.339844 42.28125 29.414062 42.191406 C 29.488281 42.097656 29.582031 42.042969 29.695312 42.015625 C 30.226562 41.902344 30.71875 41.695312 31.175781 41.402344 C 31.273438 41.339844 31.382812 41.316406 31.5 41.328125 C 31.613281 41.339844 31.714844 41.386719 31.796875 41.46875 L 32.171875 41.84375 C 32.179688 41.847656 32.183594 41.847656 32.191406 41.84375 L 32.996094 41.042969 C 33 41.035156 33 41.03125 32.996094 41.023438 L 32.625 40.648438 C 32.539062 40.566406 32.492188 40.46875 32.480469 40.351562 C 32.46875 40.234375 32.492188 40.128906 32.554688 40.03125 C 32.851562 39.574219 33.054688 39.078125 33.167969 38.550781 C 33.195312 38.433594 33.253906 38.339844 33.34375 38.265625 C 33.433594 38.191406 33.539062 38.15625 33.65625 38.15625 L 34.1875 38.15625 C 34.195312 38.15625 34.199219 38.152344 34.199219 38.144531 L 34.199219 37.003906 C 34.199219 36.996094 34.195312 36.992188 34.1875 36.988281 Z M 28.804688 37.050781 C 29.273438 37.21875 30.769531 37.882812 30.589844 39.300781 C 30.515625 40.050781 29.878906 40.585938 29.160156 40.773438 L 29.160156 41.34375 C 29.167969 41.484375 29.121094 41.605469 29.023438 41.707031 C 28.925781 41.808594 28.804688 41.859375 28.664062 41.859375 C 28.523438 41.859375 28.402344 41.808594 28.304688 41.707031 C 28.207031 41.605469 28.160156 41.484375 28.164062 41.34375 L 28.164062 40.8125 C 27.472656 40.660156 26.789062 40.109375 26.800781 38.929688 C 26.800781 38.792969 26.851562 38.675781 26.949219 38.582031 C 27.046875 38.484375 27.164062 38.4375 27.300781 38.4375 L 27.304688 38.4375 C 27.441406 38.4375 27.558594 38.488281 27.65625 38.585938 C 27.75 38.683594 27.800781 38.800781 27.796875 38.9375 C 27.792969 39.523438 28.039062 39.832031 28.53125 39.859375 C 29.046875 39.882812 29.566406 39.566406 29.597656 39.203125 L 29.597656 39.183594 C 29.691406 38.488281 28.753906 38.097656 28.464844 37.988281 C 27.160156 37.515625 26.625 36.796875 26.871094 35.847656 C 27.097656 34.988281 27.671875 34.519531 28.285156 34.355469 L 28.285156 33.796875 C 28.285156 33.660156 28.332031 33.542969 28.429688 33.445312 C 28.527344 33.347656 28.644531 33.300781 28.78125 33.300781 C 28.921875 33.300781 29.039062 33.347656 29.136719 33.445312 C 29.234375 33.542969 29.28125 33.660156 29.28125 33.796875 L 29.28125 34.359375 C 30.125 34.585938 30.679688 35.332031 30.644531 36.253906 C 30.636719 36.390625 30.582031 36.503906 30.480469 36.59375 C 30.382812 36.6875 30.265625 36.730469 30.128906 36.726562 C 29.992188 36.722656 29.875 36.667969 29.785156 36.570312 C 29.691406 36.472656 29.644531 36.355469 29.648438 36.21875 C 29.667969 35.621094 29.257812 35.351562 28.910156 35.296875 C 28.523438 35.242188 28.015625 35.417969 27.835938 36.101562 C 27.789062 36.292969 27.695312 36.644531 28.808594 37.050781 Z M 28.804688 37.050781 " fill-opacity="1" fill-rule="nonzero"/></svg>