<svg xmlns="http://www.w3.org/2000/svg" xmlns:xlink="http://www.w3.org/1999/xlink" width="100" zoomAndPan="magnify" viewBox="0 0 75 74.999997" height="100" preserveAspectRatio="xMidYMid meet" version="1.0"><defs><clipPath id="f0aa406741"><path d="M 1.164062 1.164062 L 73.835938 1.164062 L 73.835938 73.835938 L 1.164062 73.835938 Z M 1.164062 1.164062 " clip-rule="nonzero"/></clipPath><clipPath id="26e11f4812"><path d="M 37.5 1.164062 C 17.429688 1.164062 1.164062 17.429688 1.164062 37.5 C 1.164062 57.570312 17.429688 73.835938 37.5 73.835938 C 57.570312 73.835938 73.835938 57.570312 73.835938 37.5 C 73.835938 17.429688 57.570312 1.164062 37.5 1.164062 Z M 37.5 1.164062 " clip-rule="nonzero"/></clipPath><linearGradient x1="-0.000000241073" gradientTransform="matrix(0.283887, 0, 0, 0.283887, 1.162501, 1.162498)" y1="128" x2="256.000006" gradientUnits="userSpaceOnUse" y2="128" id="1d4c18ff90"><stop stop-opacity="1" stop-color="rgb(38.798523%, 8.599854%, 39.199829%)" offset="0"/><stop stop-opacity="1" stop-color="rgb(38.728333%, 8.644104%, 39.360046%)" offset="0.0078125"/><stop stop-opacity="1" stop-color="rgb(38.587952%, 8.732605%, 39.682007%)" offset="0.015625"/><stop stop-opacity="1" stop-color="rgb(38.447571%, 8.821106%, 40.002441%)" offset="0.0234375"/><stop stop-opacity="1" stop-color="rgb(38.30719%, 8.911133%, 40.324402%)" offset="0.03125"/><stop stop-opacity="1" stop-color="rgb(38.166809%, 8.999634%, 40.646362%)" offset="0.0390625"/><stop stop-opacity="1" stop-color="rgb(38.026428%, 9.088135%, 40.968323%)" offset="0.046875"/><stop stop-opacity="1" stop-color="rgb(37.884521%, 9.178162%, 41.290283%)" offset="0.0546875"/><stop stop-opacity="1" stop-color="rgb(37.744141%, 9.266663%, 41.612244%)" offset="0.0625"/><stop stop-opacity="1" stop-color="rgb(37.60376%, 9.356689%, 41.934204%)" offset="0.0703125"/><stop stop-opacity="1" stop-color="rgb(37.463379%, 9.44519%, 42.256165%)" offset="0.078125"/><stop stop-opacity="1" stop-color="rgb(37.322998%, 9.533691%, 42.578125%)" offset="0.0859375"/><stop stop-opacity="1" stop-color="rgb(37.182617%, 9.623718%, 42.900085%)" offset="0.09375"/><stop stop-opacity="1" stop-color="rgb(37.04071%, 9.712219%, 43.222046%)" offset="0.101563"/><stop stop-opacity="1" stop-color="rgb(36.90033%, 9.80072%, 43.544006%)" offset="0.109375"/><stop stop-opacity="1" stop-color="rgb(36.759949%, 9.890747%, 43.865967%)" offset="0.117188"/><stop stop-opacity="1" stop-color="rgb(36.619568%, 9.979248%, 44.187927%)" offset="0.125"/><stop stop-opacity="1" stop-color="rgb(36.479187%, 10.067749%, 44.509888%)" offset="0.132813"/><stop stop-opacity="1" stop-color="rgb(36.338806%, 10.157776%, 44.831848%)" offset="0.140625"/><stop stop-opacity="1" stop-color="rgb(36.196899%, 10.246277%, 45.153809%)" offset="0.148438"/><stop stop-opacity="1" stop-color="rgb(36.056519%, 10.336304%, 45.475769%)" offset="0.15625"/><stop stop-opacity="1" stop-color="rgb(35.916138%, 10.424805%, 45.796204%)" offset="0.164063"/><stop stop-opacity="1" stop-color="rgb(35.775757%, 10.513306%, 46.118164%)" offset="0.171875"/><stop stop-opacity="1" stop-color="rgb(35.635376%, 10.603333%, 46.440125%)" offset="0.179688"/><stop stop-opacity="1" stop-color="rgb(35.494995%, 10.691833%, 46.762085%)" offset="0.1875"/><stop stop-opacity="1" stop-color="rgb(35.353088%, 10.780334%, 47.084045%)" offset="0.195313"/><stop stop-opacity="1" stop-color="rgb(35.212708%, 10.870361%, 47.406006%)" offset="0.203125"/><stop stop-opacity="1" stop-color="rgb(35.072327%, 10.958862%, 47.727966%)" offset="0.210938"/><stop stop-opacity="1" stop-color="rgb(34.931946%, 11.048889%, 48.049927%)" offset="0.21875"/><stop stop-opacity="1" stop-color="rgb(34.791565%, 11.13739%, 48.371887%)" offset="0.226563"/><stop stop-opacity="1" stop-color="rgb(34.651184%, 11.225891%, 48.693848%)" offset="0.234375"/><stop stop-opacity="1" stop-color="rgb(34.510803%, 11.315918%, 49.015808%)" offset="0.242188"/><stop stop-opacity="1" stop-color="rgb(34.368896%, 11.404419%, 49.337769%)" offset="0.25"/><stop stop-opacity="1" stop-color="rgb(34.228516%, 11.49292%, 49.659729%)" offset="0.257813"/><stop stop-opacity="1" stop-color="rgb(34.088135%, 11.582947%, 49.981689%)" offset="0.265625"/><stop stop-opacity="1" stop-color="rgb(33.947754%, 11.671448%, 50.30365%)" offset="0.273438"/><stop stop-opacity="1" stop-color="rgb(33.807373%, 11.759949%, 50.62561%)" offset="0.28125"/><stop stop-opacity="1" stop-color="rgb(33.666992%, 11.849976%, 50.947571%)" offset="0.289063"/><stop stop-opacity="1" stop-color="rgb(33.525085%, 11.938477%, 51.269531%)" offset="0.296875"/><stop stop-opacity="1" stop-color="rgb(33.384705%, 12.028503%, 51.589966%)" offset="0.304688"/><stop stop-opacity="1" stop-color="rgb(33.244324%, 12.117004%, 51.911926%)" offset="0.3125"/><stop stop-opacity="1" stop-color="rgb(33.103943%, 12.205505%, 52.233887%)" offset="0.320313"/><stop stop-opacity="1" stop-color="rgb(32.963562%, 12.295532%, 52.555847%)" offset="0.328125"/><stop stop-opacity="1" stop-color="rgb(32.823181%, 12.384033%, 52.877808%)" offset="0.335938"/><stop stop-opacity="1" stop-color="rgb(32.681274%, 12.472534%, 53.199768%)" offset="0.34375"/><stop stop-opacity="1" stop-color="rgb(32.540894%, 12.562561%, 53.521729%)" offset="0.351563"/><stop stop-opacity="1" stop-color="rgb(32.400513%, 12.651062%, 53.843689%)" offset="0.359375"/><stop stop-opacity="1" stop-color="rgb(32.260132%, 12.741089%, 54.165649%)" offset="0.367188"/><stop stop-opacity="1" stop-color="rgb(32.119751%, 12.82959%, 54.48761%)" offset="0.375"/><stop stop-opacity="1" stop-color="rgb(31.97937%, 12.918091%, 54.80957%)" offset="0.382812"/><stop stop-opacity="1" stop-color="rgb(31.837463%, 13.008118%, 55.131531%)" offset="0.390625"/><stop stop-opacity="1" stop-color="rgb(31.697083%, 13.096619%, 55.453491%)" offset="0.398438"/><stop stop-opacity="1" stop-color="rgb(31.556702%, 13.18512%, 55.775452%)" offset="0.40625"/><stop stop-opacity="1" stop-color="rgb(31.416321%, 13.275146%, 56.097412%)" offset="0.414062"/><stop stop-opacity="1" stop-color="rgb(31.27594%, 13.363647%, 56.419373%)" offset="0.421875"/><stop stop-opacity="1" stop-color="rgb(31.135559%, 13.452148%, 56.741333%)" offset="0.429687"/><stop stop-opacity="1" stop-color="rgb(30.995178%, 13.542175%, 57.063293%)" offset="0.4375"/><stop stop-opacity="1" stop-color="rgb(30.853271%, 13.630676%, 57.383728%)" offset="0.445312"/><stop stop-opacity="1" stop-color="rgb(30.712891%, 13.720703%, 57.705688%)" offset="0.453125"/><stop stop-opacity="1" stop-color="rgb(30.57251%, 13.809204%, 58.027649%)" offset="0.460937"/><stop stop-opacity="1" stop-color="rgb(30.432129%, 13.897705%, 58.349609%)" offset="0.46875"/><stop stop-opacity="1" stop-color="rgb(30.291748%, 13.987732%, 58.67157%)" offset="0.476562"/><stop stop-opacity="1" stop-color="rgb(30.151367%, 14.076233%, 58.99353%)" offset="0.484375"/><stop stop-opacity="1" stop-color="rgb(30.00946%, 14.164734%, 59.315491%)" offset="0.492187"/><stop stop-opacity="1" stop-color="rgb(29.86908%, 14.254761%, 59.637451%)" offset="0.5"/><stop stop-opacity="1" stop-color="rgb(29.728699%, 14.343262%, 59.959412%)" offset="0.507812"/><stop stop-opacity="1" stop-color="rgb(29.588318%, 14.433289%, 60.281372%)" offset="0.515625"/><stop stop-opacity="1" stop-color="rgb(29.447937%, 14.52179%, 60.603333%)" offset="0.523438"/><stop stop-opacity="1" stop-color="rgb(29.307556%, 14.610291%, 60.925293%)" offset="0.53125"/><stop stop-opacity="1" stop-color="rgb(29.165649%, 14.700317%, 61.247253%)" offset="0.539062"/><stop stop-opacity="1" stop-color="rgb(29.025269%, 14.788818%, 61.569214%)" offset="0.546875"/><stop stop-opacity="1" stop-color="rgb(28.884888%, 14.877319%, 61.891174%)" offset="0.554688"/><stop stop-opacity="1" stop-color="rgb(28.744507%, 14.967346%, 62.213135%)" offset="0.5625"/><stop stop-opacity="1" stop-color="rgb(28.604126%, 15.055847%, 62.535095%)" offset="0.570313"/><stop stop-opacity="1" stop-color="rgb(28.463745%, 15.144348%, 62.857056%)" offset="0.578125"/><stop stop-opacity="1" stop-color="rgb(28.321838%, 15.234375%, 63.17749%)" offset="0.585938"/><stop stop-opacity="1" stop-color="rgb(28.181458%, 15.322876%, 63.499451%)" offset="0.59375"/><stop stop-opacity="1" stop-color="rgb(28.041077%, 15.412903%, 63.821411%)" offset="0.601563"/><stop stop-opacity="1" stop-color="rgb(27.900696%, 15.501404%, 64.143372%)" offset="0.609375"/><stop stop-opacity="1" stop-color="rgb(27.760315%, 15.589905%, 64.465332%)" offset="0.617188"/><stop stop-opacity="1" stop-color="rgb(27.619934%, 15.679932%, 64.787292%)" offset="0.625"/><stop stop-opacity="1" stop-color="rgb(27.479553%, 15.768433%, 65.109253%)" offset="0.632813"/><stop stop-opacity="1" stop-color="rgb(27.337646%, 15.856934%, 65.431213%)" offset="0.640625"/><stop stop-opacity="1" stop-color="rgb(27.197266%, 15.94696%, 65.753174%)" offset="0.648438"/><stop stop-opacity="1" stop-color="rgb(27.056885%, 16.035461%, 66.075134%)" offset="0.65625"/><stop stop-opacity="1" stop-color="rgb(26.916504%, 16.125488%, 66.397095%)" offset="0.664063"/><stop stop-opacity="1" stop-color="rgb(26.776123%, 16.213989%, 66.719055%)" offset="0.671875"/><stop stop-opacity="1" stop-color="rgb(26.635742%, 16.30249%, 67.041016%)" offset="0.679688"/><stop stop-opacity="1" stop-color="rgb(26.493835%, 16.392517%, 67.362976%)" offset="0.6875"/><stop stop-opacity="1" stop-color="rgb(26.353455%, 16.481018%, 67.684937%)" offset="0.695312"/><stop stop-opacity="1" stop-color="rgb(26.213074%, 16.569519%, 68.006897%)" offset="0.703125"/><stop stop-opacity="1" stop-color="rgb(26.072693%, 16.659546%, 68.328857%)" offset="0.710938"/><stop stop-opacity="1" stop-color="rgb(25.932312%, 16.748047%, 68.650818%)" offset="0.71875"/><stop stop-opacity="1" stop-color="rgb(25.791931%, 16.836548%, 68.971252%)" offset="0.726562"/><stop stop-opacity="1" stop-color="rgb(25.650024%, 16.926575%, 69.293213%)" offset="0.734375"/><stop stop-opacity="1" stop-color="rgb(25.509644%, 17.015076%, 69.615173%)" offset="0.742188"/><stop stop-opacity="1" stop-color="rgb(25.369263%, 17.105103%, 69.937134%)" offset="0.75"/><stop stop-opacity="1" stop-color="rgb(25.228882%, 17.193604%, 70.259094%)" offset="0.757812"/><stop stop-opacity="1" stop-color="rgb(25.088501%, 17.282104%, 70.581055%)" offset="0.765625"/><stop stop-opacity="1" stop-color="rgb(24.94812%, 17.372131%, 70.903015%)" offset="0.773438"/><stop stop-opacity="1" stop-color="rgb(24.806213%, 17.460632%, 71.224976%)" offset="0.78125"/><stop stop-opacity="1" stop-color="rgb(24.665833%, 17.549133%, 71.546936%)" offset="0.789062"/><stop stop-opacity="1" stop-color="rgb(24.525452%, 17.63916%, 71.868896%)" offset="0.796875"/><stop stop-opacity="1" stop-color="rgb(24.385071%, 17.727661%, 72.190857%)" offset="0.804688"/><stop stop-opacity="1" stop-color="rgb(24.24469%, 17.817688%, 72.512817%)" offset="0.8125"/><stop stop-opacity="1" stop-color="rgb(24.104309%, 17.906189%, 72.834778%)" offset="0.820312"/><stop stop-opacity="1" stop-color="rgb(23.963928%, 17.99469%, 73.156738%)" offset="0.828125"/><stop stop-opacity="1" stop-color="rgb(23.822021%, 18.084717%, 73.478699%)" offset="0.835937"/><stop stop-opacity="1" stop-color="rgb(23.681641%, 18.173218%, 73.800659%)" offset="0.84375"/><stop stop-opacity="1" stop-color="rgb(23.54126%, 18.261719%, 74.12262%)" offset="0.851562"/><stop stop-opacity="1" stop-color="rgb(23.400879%, 18.351746%, 74.44458%)" offset="0.859375"/><stop stop-opacity="1" stop-color="rgb(23.260498%, 18.440247%, 74.765015%)" offset="0.867187"/><stop stop-opacity="1" stop-color="rgb(23.120117%, 18.528748%, 75.086975%)" offset="0.875"/><stop stop-opacity="1" stop-color="rgb(22.97821%, 18.618774%, 75.408936%)" offset="0.882812"/><stop stop-opacity="1" stop-color="rgb(22.83783%, 18.707275%, 75.730896%)" offset="0.890625"/><stop stop-opacity="1" stop-color="rgb(22.697449%, 18.797302%, 76.052856%)" offset="0.898437"/><stop stop-opacity="1" stop-color="rgb(22.557068%, 18.885803%, 76.374817%)" offset="0.90625"/><stop stop-opacity="1" stop-color="rgb(22.416687%, 18.974304%, 76.696777%)" offset="0.914062"/><stop stop-opacity="1" stop-color="rgb(22.276306%, 19.064331%, 77.018738%)" offset="0.921875"/><stop stop-opacity="1" stop-color="rgb(22.134399%, 19.152832%, 77.340698%)" offset="0.929687"/><stop stop-opacity="1" stop-color="rgb(21.994019%, 19.241333%, 77.662659%)" offset="0.9375"/><stop stop-opacity="1" stop-color="rgb(21.853638%, 19.33136%, 77.984619%)" offset="0.945312"/><stop stop-opacity="1" stop-color="rgb(21.713257%, 19.419861%, 78.30658%)" offset="0.953125"/><stop stop-opacity="1" stop-color="rgb(21.572876%, 19.508362%, 78.62854%)" offset="0.960938"/><stop stop-opacity="1" stop-color="rgb(21.432495%, 19.598389%, 78.9505%)" offset="0.96875"/><stop stop-opacity="1" stop-color="rgb(21.290588%, 19.68689%, 79.272461%)" offset="0.976562"/><stop stop-opacity="1" stop-color="rgb(21.150208%, 19.776917%, 79.594421%)" offset="0.984375"/><stop stop-opacity="1" stop-color="rgb(21.009827%, 19.865417%, 79.916382%)" offset="0.992188"/><stop stop-opacity="1" stop-color="rgb(20.869446%, 19.953918%, 80.238342%)" offset="1"/></linearGradient><clipPath id="352197da61"><path d="M 22.5 22.5 L 52.5 22.5 L 52.5 52.5 L 22.5 52.5 Z M 22.5 22.5 " clip-rule="nonzero"/></clipPath><clipPath id="0f1d626bed"><path d="M 47 24 L 52.5 24 L 52.5 30 L 47 30 Z M 47 24 " clip-rule="nonzero"/></clipPath><clipPath id="8cbd95c739"><path d="M 28 22.5 L 36 22.5 L 36 31 L 28 31 Z M 28 22.5 " clip-rule="nonzero"/></clipPath><clipPath id="76310390d5"><path d="M 35 22.5 L 39 22.5 L 39 31 L 35 31 Z M 35 22.5 " clip-rule="nonzero"/></clipPath></defs><rect x="-7.5" width="90" fill="#ffffff" y="-7.5" height="89.999996" fill-opacity="1"/><rect x="-7.5" width="90" fill="#ffffff" y="-7.5" height="89.999996" fill-opacity="1"/><g clip-path="url(#f0aa406741)"><g clip-path="url(#26e11f4812)"><path fill="url(#1d4c18ff90)" d="M 1.164062 1.164062 L 1.164062 73.835938 L 73.835938 73.835938 L 73.835938 1.164062 Z M 1.164062 1.164062 " fill-rule="nonzero"/></g></g><path fill="#ffffff" d="M 47.578125 29.28125 L 46.335938 30.566406 L 45.273438 31.671875 C 45.449219 31.804688 45.613281 31.960938 45.757812 32.128906 L 48.058594 29.738281 C 47.882812 29.605469 47.722656 29.449219 47.578125 29.28125 Z M 47.578125 29.28125 " fill-opacity="1" fill-rule="nonzero"/><path fill="#ffffff" d="M 29.898438 40.527344 C 29.6875 40.460938 29.480469 40.371094 29.285156 40.261719 L 26.5 46.765625 L 26.5 48.457031 Z M 29.898438 40.527344 " fill-opacity="1" fill-rule="nonzero"/><path fill="#ffffff" d="M 39.21875 41.230469 C 39.425781 41.3125 39.625 41.417969 39.808594 41.539062 L 42.144531 37.101562 C 41.933594 37.019531 41.738281 36.917969 41.554688 36.792969 Z M 39.21875 41.230469 " fill-opacity="1" fill-rule="nonzero"/><path fill="#ffffff" d="M 35.960938 41.785156 L 34.960938 40.875 L 33.367188 39.390625 C 33.234375 39.570312 33.085938 39.734375 32.917969 39.878906 L 34.476562 41.324219 L 35.5 42.277344 C 35.636719 42.097656 35.789062 41.933594 35.960938 41.785156 Z M 35.960938 41.785156 " fill-opacity="1" fill-rule="nonzero"/><g clip-path="url(#352197da61)"><path fill="#ffffff" d="M 25.832031 22.5 L 22.5 22.5 L 22.5 52.5 L 52.5 52.5 L 52.5 49.167969 L 25.832031 49.167969 Z M 25.832031 22.5 " fill-opacity="1" fill-rule="nonzero"/></g><path fill="#ffffff" d="M 33.332031 37.5 C 33.332031 37.832031 33.269531 38.152344 33.144531 38.457031 C 33.015625 38.761719 32.835938 39.035156 32.601562 39.269531 C 32.367188 39.503906 32.097656 39.683594 31.789062 39.808594 C 31.484375 39.9375 31.164062 40 30.832031 40 C 30.5 40 30.183594 39.9375 29.875 39.808594 C 29.570312 39.683594 29.300781 39.503906 29.066406 39.269531 C 28.832031 39.035156 28.652344 38.761719 28.523438 38.457031 C 28.398438 38.152344 28.332031 37.832031 28.332031 37.5 C 28.332031 37.167969 28.398438 36.847656 28.523438 36.542969 C 28.652344 36.238281 28.832031 35.964844 29.066406 35.730469 C 29.300781 35.496094 29.570312 35.316406 29.875 35.191406 C 30.183594 35.0625 30.5 35 30.832031 35 C 31.164062 35 31.484375 35.0625 31.789062 35.191406 C 32.097656 35.316406 32.367188 35.496094 32.601562 35.730469 C 32.835938 35.964844 33.015625 36.238281 33.144531 36.542969 C 33.269531 36.847656 33.332031 37.167969 33.332031 37.5 Z M 33.332031 37.5 " fill-opacity="1" fill-rule="nonzero"/><path fill="#ffffff" d="M 45.832031 34.167969 C 45.832031 34.5 45.769531 34.816406 45.644531 35.125 C 45.515625 35.429688 45.335938 35.699219 45.101562 35.933594 C 44.867188 36.167969 44.597656 36.347656 44.289062 36.476562 C 43.984375 36.601562 43.664062 36.667969 43.332031 36.667969 C 43 36.667969 42.683594 36.601562 42.375 36.476562 C 42.070312 36.347656 41.800781 36.167969 41.566406 35.933594 C 41.332031 35.699219 41.152344 35.429688 41.023438 35.125 C 40.898438 34.816406 40.832031 34.5 40.832031 34.167969 C 40.832031 33.835938 40.898438 33.515625 41.023438 33.210938 C 41.152344 32.902344 41.332031 32.632812 41.566406 32.398438 C 41.800781 32.164062 42.070312 31.984375 42.375 31.855469 C 42.683594 31.730469 43 31.667969 43.332031 31.667969 C 43.664062 31.667969 43.984375 31.730469 44.289062 31.855469 C 44.597656 31.984375 44.867188 32.164062 45.101562 32.398438 C 45.335938 32.632812 45.515625 32.902344 45.644531 33.210938 C 45.769531 33.515625 45.832031 33.835938 45.832031 34.167969 Z M 45.832031 34.167969 " fill-opacity="1" fill-rule="nonzero"/><g clip-path="url(#0f1d626bed)"><path fill="#ffffff" d="M 52.5 27.242188 C 52.5 27.574219 52.4375 27.894531 52.308594 28.199219 C 52.183594 28.507812 52.003906 28.777344 51.769531 29.011719 C 51.535156 29.246094 51.261719 29.425781 50.957031 29.554688 C 50.652344 29.679688 50.332031 29.742188 50 29.742188 C 49.667969 29.742188 49.347656 29.679688 49.042969 29.554688 C 48.738281 29.425781 48.464844 29.246094 48.230469 29.011719 C 47.996094 28.777344 47.816406 28.507812 47.691406 28.199219 C 47.5625 27.894531 47.5 27.574219 47.5 27.242188 C 47.5 26.910156 47.5625 26.59375 47.691406 26.285156 C 47.816406 25.980469 47.996094 25.710938 48.230469 25.476562 C 48.464844 25.242188 48.738281 25.058594 49.042969 24.933594 C 49.347656 24.808594 49.667969 24.742188 50 24.742188 C 50.332031 24.742188 50.652344 24.808594 50.957031 24.933594 C 51.261719 25.058594 51.535156 25.242188 51.769531 25.476562 C 52.003906 25.710938 52.183594 25.980469 52.308594 26.285156 C 52.4375 26.59375 52.5 26.910156 52.5 27.242188 Z M 52.5 27.242188 " fill-opacity="1" fill-rule="nonzero"/></g><path fill="#ffffff" d="M 40.542969 44.167969 C 40.542969 44.5 40.480469 44.816406 40.351562 45.125 C 40.226562 45.429688 40.046875 45.699219 39.8125 45.933594 C 39.578125 46.167969 39.304688 46.347656 39 46.476562 C 38.695312 46.601562 38.375 46.667969 38.042969 46.667969 C 37.710938 46.667969 37.394531 46.601562 37.085938 46.476562 C 36.78125 46.347656 36.511719 46.167969 36.277344 45.933594 C 36.042969 45.699219 35.859375 45.429688 35.734375 45.125 C 35.605469 44.816406 35.542969 44.5 35.542969 44.167969 C 35.542969 43.835938 35.605469 43.515625 35.734375 43.210938 C 35.859375 42.902344 36.042969 42.632812 36.277344 42.398438 C 36.511719 42.164062 36.78125 41.984375 37.085938 41.855469 C 37.394531 41.730469 37.710938 41.667969 38.042969 41.667969 C 38.375 41.667969 38.695312 41.730469 39 41.855469 C 39.304688 41.984375 39.578125 42.164062 39.8125 42.398438 C 40.046875 42.632812 40.226562 42.902344 40.351562 43.210938 C 40.480469 43.515625 40.542969 43.835938 40.542969 44.167969 Z M 40.542969 44.167969 " fill-opacity="1" fill-rule="nonzero"/><path fill="#ffffff" d="M 30.355469 32.484375 L 32.621094 32.488281 L 32.625 30.210938 L 30.363281 29.425781 Z M 30.355469 32.484375 " fill-opacity="1" fill-rule="nonzero"/><g clip-path="url(#8cbd95c739)"><path fill="#ffffff" d="M 34.988281 29.167969 C 34.816406 28.359375 34.734375 27.542969 34.738281 26.714844 C 34.738281 26.5 34.738281 26.285156 34.757812 26.070312 C 34.785156 25.460938 34.863281 24.859375 34.996094 24.265625 C 35.089844 23.820312 35.234375 23.390625 35.429688 22.976562 L 29.640625 24.964844 C 29.265625 25.089844 28.960938 25.316406 28.734375 25.640625 C 28.503906 25.960938 28.386719 26.320312 28.386719 26.714844 C 28.386719 27.113281 28.503906 27.472656 28.734375 27.792969 C 28.960938 28.117188 29.265625 28.339844 29.640625 28.46875 L 35.421875 30.46875 C 35.226562 30.050781 35.082031 29.617188 34.988281 29.167969 Z M 34.988281 29.167969 " fill-opacity="1" fill-rule="nonzero"/></g><g clip-path="url(#76310390d5)"><path fill="#ffffff" d="M 37.386719 26.730469 C 37.386719 28.171875 36.746094 29.375 35.839844 29.667969 L 35.832031 29.667969 C 36.101562 30.464844 36.472656 30.96875 36.890625 30.96875 C 37.703125 30.96875 38.367188 29.074219 38.371094 26.730469 C 38.375 24.386719 37.703125 22.5 36.890625 22.5 C 36.476562 22.5 36.101562 23 35.828125 23.800781 L 35.855469 23.800781 C 36.757812 24.082031 37.386719 25.292969 37.386719 26.730469 Z M 37.386719 26.730469 " fill-opacity="1" fill-rule="nonzero"/></g><path fill="#ffffff" d="M 35.636719 29.035156 C 36.246094 28.835938 36.714844 27.878906 36.71875 26.730469 C 36.722656 25.578125 36.257812 24.625 35.648438 24.421875 C 35.480469 25.183594 35.402344 25.949219 35.40625 26.726562 C 35.398438 27.503906 35.476562 28.273438 35.636719 29.035156 Z M 35.636719 29.035156 " fill-opacity="1" fill-rule="nonzero"/></svg>