<svg xmlns="http://www.w3.org/2000/svg" xmlns:xlink="http://www.w3.org/1999/xlink" width="64" zoomAndPan="magnify" viewBox="0 0 48 48" height="64" preserveAspectRatio="xMidYMid meet" version="1.0"><defs><clipPath id="7fb953ba66"><path d="M 5.191406 3 L 25 3 L 25 42.539062 L 5.191406 42.539062 Z M 5.191406 3 " clip-rule="nonzero"/></clipPath><clipPath id="b642a80811"><path d="M 5.191406 2.867188 L 26 2.867188 L 26 42.539062 L 5.191406 42.539062 Z M 5.191406 2.867188 " clip-rule="nonzero"/></clipPath><clipPath id="f539dde808"><path d="M 26 4 L 44.867188 4 L 44.867188 42 L 26 42 Z M 26 4 " clip-rule="nonzero"/></clipPath></defs><g clip-path="url(#7fb953ba66)"><path fill="#f35cb5" d="M 24.726562 39.738281 C 24.761719 39.558594 24.753906 6.410156 24.753906 6.28125 C 24.753906 4.617188 23.40625 3.269531 21.742188 3.269531 C 20.078125 3.269531 18.730469 4.617188 18.730469 6.28125 C 18.730469 6.609375 18.785156 6.925781 18.882812 7.222656 C 18.882812 7.222656 18.269531 6.441406 16.960938 6.578125 C 15.714844 6.707031 14.691406 7.59375 14.691406 8.851562 C 14.691406 9.09375 14.730469 9.328125 14.800781 9.550781 C 14.800781 9.550781 14.09375 8.816406 12.628906 8.992188 C 11.160156 9.171875 9.976562 10.371094 9.976562 11.851562 C 9.976562 12.644531 10.324219 13.355469 10.871094 13.847656 C 10.863281 13.863281 10.851562 13.878906 10.839844 13.894531 C 10.5625 13.769531 10.253906 13.699219 9.929688 13.699219 C 8.699219 13.699219 7.703125 14.699219 7.703125 15.929688 C 7.703125 17.675781 8.929688 18.101562 8.90625 18.179688 C 8.800781 18.164062 8.695312 18.15625 8.585938 18.15625 C 7.445312 18.15625 6.523438 19.078125 6.523438 20.21875 C 6.523438 21.246094 7.269531 22.09375 8.246094 22.253906 C 8.246094 22.273438 5.621094 22.613281 5.621094 25.253906 C 5.621094 26.890625 6.949219 28.21875 8.585938 28.21875 C 8.753906 28.21875 8.914062 28.203125 9.070312 28.175781 C 9.082031 28.210938 7.808594 28.90625 7.808594 30.261719 C 7.808594 31.457031 8.777344 32.429688 9.976562 32.429688 C 10.347656 32.429688 10.695312 32.335938 11 32.171875 C 11.015625 32.191406 11.027344 32.214844 11.042969 32.234375 C 10.695312 32.605469 10.480469 33.101562 10.480469 33.648438 C 10.480469 34.789062 11.40625 35.714844 12.546875 35.714844 C 12.980469 35.714844 13.378906 35.582031 13.710938 35.351562 C 13.710938 35.351562 13.425781 36.300781 13.550781 36.90625 C 13.847656 38.375 15.101562 39.253906 16.648438 39.253906 C 18.054688 39.253906 18.804688 38.566406 18.914062 38.609375 C 18.878906 38.792969 18.859375 38.980469 18.859375 39.175781 C 18.859375 40.808594 20.1875 42.136719 21.820312 42.136719 C 23.25 42.136719 24.441406 41.125 24.71875 39.777344 L 24.726562 39.777344 L 24.726562 39.738281 " fill-opacity="1" fill-rule="nonzero"/></g><g clip-path="url(#b642a80811)"><path fill="#161211" d="M 24.726562 39.738281 L 25.125 39.816406 C 25.128906 39.792969 25.128906 39.785156 25.128906 39.777344 C 25.128906 39.761719 25.128906 39.757812 25.128906 39.75 C 25.132812 39.722656 25.132812 39.691406 25.132812 39.648438 C 25.140625 39.300781 25.144531 38.121094 25.144531 36.386719 C 25.15625 31.191406 25.160156 21.066406 25.160156 14 C 25.160156 9.554688 25.15625 6.320312 25.15625 6.28125 C 25.15625 5.339844 24.773438 4.480469 24.15625 3.867188 C 23.539062 3.25 22.683594 2.867188 21.742188 2.867188 C 20.800781 2.867188 19.945312 3.25 19.328125 3.867188 C 18.710938 4.480469 18.328125 5.339844 18.328125 6.28125 C 18.328125 6.652344 18.390625 7.015625 18.5 7.347656 L 18.882812 7.222656 L 19.203125 6.972656 C 19.179688 6.945312 19.019531 6.746094 18.699219 6.546875 C 18.378906 6.351562 17.894531 6.160156 17.261719 6.160156 C 17.152344 6.160156 17.039062 6.164062 16.917969 6.175781 C 16.214844 6.25 15.5625 6.539062 15.078125 7 C 14.835938 7.230469 14.636719 7.507812 14.5 7.820312 C 14.363281 8.132812 14.285156 8.480469 14.285156 8.851562 C 14.285156 9.136719 14.332031 9.414062 14.417969 9.675781 L 14.800781 9.550781 L 15.089844 9.269531 C 15.066406 9.242188 14.890625 9.070312 14.554688 8.898438 C 14.222656 8.726562 13.722656 8.5625 13.074219 8.5625 C 12.917969 8.5625 12.753906 8.570312 12.578125 8.59375 C 11.75 8.691406 11 9.082031 10.457031 9.65625 C 9.914062 10.230469 9.570312 11.003906 9.570312 11.851562 C 9.570312 12.765625 9.972656 13.585938 10.601562 14.148438 L 10.871094 13.847656 L 10.53125 13.632812 C 10.527344 13.636719 10.515625 13.652344 10.496094 13.683594 L 10.839844 13.894531 L 11.003906 13.527344 C 10.679688 13.382812 10.3125 13.296875 9.929688 13.296875 C 9.207031 13.296875 8.546875 13.59375 8.070312 14.066406 C 7.59375 14.542969 7.300781 15.203125 7.300781 15.925781 C 7.300781 16.40625 7.382812 16.8125 7.515625 17.144531 C 7.714844 17.648438 8.015625 17.980469 8.261719 18.191406 C 8.386719 18.296875 8.496094 18.371094 8.566406 18.417969 C 8.601562 18.445312 8.625 18.460938 8.625 18.460938 L 8.777344 18.273438 L 8.59375 18.429688 C 8.617188 18.457031 8.625 18.460938 8.625 18.460938 L 8.777344 18.273438 L 8.59375 18.429688 L 8.867188 18.191406 L 8.546875 18.359375 C 8.566406 18.398438 8.582031 18.417969 8.59375 18.429688 L 8.867188 18.191406 L 8.546875 18.359375 L 8.890625 18.179688 L 8.503906 18.179688 C 8.503906 18.265625 8.527344 18.324219 8.546875 18.359375 L 8.890625 18.179688 L 8.503906 18.179688 L 8.898438 18.179688 L 8.515625 18.074219 C 8.507812 18.105469 8.503906 18.144531 8.503906 18.179688 L 8.898438 18.179688 L 8.515625 18.074219 L 8.90625 18.179688 L 8.964844 17.78125 C 8.851562 17.765625 8.722656 17.75 8.585938 17.75 C 7.90625 17.75 7.285156 18.027344 6.839844 18.472656 C 6.394531 18.917969 6.117188 19.539062 6.117188 20.21875 C 6.117188 20.832031 6.339844 21.394531 6.710938 21.824219 C 7.078125 22.253906 7.59375 22.554688 8.179688 22.652344 L 8.246094 22.253906 L 7.84375 22.238281 L 8.246094 22.253906 L 7.898438 22.050781 C 7.875 22.09375 7.847656 22.15625 7.84375 22.238281 L 8.246094 22.253906 L 7.898438 22.050781 L 8.246094 22.253906 L 7.972656 21.960938 C 7.949219 21.980469 7.925781 22.007812 7.898438 22.050781 L 8.246094 22.253906 L 7.972656 21.960938 L 8.246094 22.253906 L 8.054688 21.902344 C 8.035156 21.910156 8.011719 21.925781 7.972656 21.960938 L 8.246094 22.253906 L 8.054688 21.902344 L 8.242188 22.246094 L 8.113281 21.875 C 8.101562 21.878906 8.089844 21.882812 8.054688 21.902344 L 8.242188 22.246094 L 8.113281 21.875 L 8.222656 22.195312 L 8.144531 21.867188 C 8.140625 21.867188 8.132812 21.867188 8.113281 21.875 L 8.222656 22.195312 L 8.144531 21.867188 L 8.175781 22 L 8.144531 21.867188 L 8.175781 22 L 8.144531 21.867188 C 8.144531 21.867188 8.121094 21.871094 8.089844 21.878906 C 7.976562 21.902344 7.742188 21.957031 7.457031 22.0625 C 7.027344 22.226562 6.476562 22.507812 6.015625 23.019531 C 5.789062 23.273438 5.585938 23.585938 5.441406 23.957031 C 5.300781 24.328125 5.214844 24.761719 5.214844 25.253906 C 5.214844 26.183594 5.59375 27.027344 6.203125 27.636719 C 6.8125 28.246094 7.65625 28.625 8.585938 28.625 C 8.78125 28.625 8.964844 28.605469 9.136719 28.574219 L 9.070312 28.175781 L 8.691406 28.3125 L 9.070312 28.175781 L 8.667969 28.175781 C 8.667969 28.214844 8.671875 28.261719 8.691406 28.3125 L 9.070312 28.175781 L 8.667969 28.175781 L 9.070312 28.175781 L 8.699219 28.027344 C 8.683594 28.058594 8.667969 28.109375 8.667969 28.175781 L 9.070312 28.175781 L 8.699219 28.027344 L 9.0625 28.175781 L 8.761719 27.921875 C 8.746094 27.941406 8.726562 27.960938 8.699219 28.027344 L 9.0625 28.175781 L 8.761719 27.921875 L 9.015625 28.136719 L 8.800781 27.878906 C 8.796875 27.886719 8.789062 27.890625 8.761719 27.921875 L 9.015625 28.136719 L 8.800781 27.878906 L 8.886719 27.984375 L 8.804688 27.878906 L 8.800781 27.878906 L 8.886719 27.984375 L 8.804688 27.878906 C 8.804688 27.878906 8.792969 27.886719 8.777344 27.898438 C 8.75 27.917969 8.703125 27.953125 8.648438 27.992188 C 8.457031 28.140625 8.152344 28.394531 7.890625 28.769531 C 7.757812 28.957031 7.636719 29.171875 7.546875 29.421875 C 7.457031 29.671875 7.402344 29.953125 7.402344 30.261719 C 7.402344 30.96875 7.691406 31.613281 8.15625 32.078125 C 8.621094 32.542969 9.265625 32.832031 9.976562 32.832031 C 10.414062 32.832031 10.828125 32.71875 11.191406 32.527344 L 11 32.171875 L 10.664062 32.394531 C 10.671875 32.40625 10.6875 32.429688 10.707031 32.460938 L 11.042969 32.234375 L 10.746094 31.957031 C 10.332031 32.398438 10.078125 32.996094 10.078125 33.648438 C 10.078125 34.328125 10.355469 34.949219 10.800781 35.394531 C 11.246094 35.839844 11.867188 36.117188 12.546875 36.117188 C 13.0625 36.117188 13.542969 35.957031 13.941406 35.6875 L 13.710938 35.351562 L 13.324219 35.238281 C 13.324219 35.246094 13.273438 35.414062 13.21875 35.660156 C 13.167969 35.90625 13.117188 36.230469 13.117188 36.554688 C 13.117188 36.699219 13.125 36.84375 13.15625 36.988281 C 13.320312 37.816406 13.769531 38.496094 14.390625 38.953125 C 15.011719 39.414062 15.800781 39.65625 16.648438 39.65625 C 17.394531 39.65625 17.980469 39.480469 18.390625 39.300781 C 18.597656 39.214844 18.761719 39.125 18.875 39.0625 C 18.929688 39.035156 18.972656 39.011719 18.996094 39 L 19.003906 38.996094 L 18.941406 38.835938 L 18.984375 39 C 19 38.996094 19.003906 38.996094 19.003906 38.996094 L 18.941406 38.835938 L 18.984375 39 L 18.902344 38.691406 L 18.902344 39.011719 C 18.945312 39.011719 18.96875 39.003906 18.984375 39 L 18.902344 38.691406 L 18.902344 39.011719 L 18.902344 38.640625 L 18.765625 38.984375 C 18.824219 39.007812 18.871094 39.011719 18.902344 39.011719 L 18.902344 38.640625 L 18.765625 38.984375 L 18.914062 38.609375 L 18.519531 38.53125 C 18.480469 38.738281 18.457031 38.953125 18.457031 39.175781 C 18.457031 40.101562 18.835938 40.945312 19.441406 41.554688 C 20.050781 42.160156 20.894531 42.539062 21.820312 42.539062 C 22.632812 42.539062 23.378906 42.25 23.957031 41.773438 C 24.539062 41.296875 24.957031 40.625 25.117188 39.859375 L 24.71875 39.777344 L 24.71875 40.183594 L 24.726562 40.183594 C 24.832031 40.183594 24.9375 40.140625 25.011719 40.0625 C 25.085938 39.988281 25.128906 39.886719 25.128906 39.777344 L 25.128906 39.738281 L 24.726562 39.738281 L 25.125 39.816406 L 24.726562 39.738281 L 24.324219 39.738281 L 24.324219 39.777344 L 24.726562 39.777344 L 24.726562 39.375 L 24.71875 39.375 C 24.527344 39.375 24.363281 39.507812 24.324219 39.695312 C 24.203125 40.277344 23.886719 40.785156 23.445312 41.148438 C 23.003906 41.515625 22.441406 41.730469 21.820312 41.730469 C 21.113281 41.730469 20.476562 41.445312 20.011719 40.984375 C 19.550781 40.519531 19.265625 39.882812 19.265625 39.175781 C 19.265625 39.007812 19.28125 38.847656 19.3125 38.6875 C 19.347656 38.496094 19.246094 38.308594 19.066406 38.234375 C 19 38.210938 18.945312 38.203125 18.902344 38.203125 C 18.820312 38.207031 18.777344 38.222656 18.738281 38.234375 C 18.671875 38.257812 18.628906 38.28125 18.578125 38.304688 C 18.496094 38.351562 18.402344 38.402344 18.285156 38.460938 C 17.941406 38.632812 17.40625 38.847656 16.648438 38.851562 C 15.953125 38.851562 15.339844 38.652344 14.871094 38.304688 C 14.40625 37.957031 14.078125 37.464844 13.945312 36.828125 C 13.929688 36.753906 13.921875 36.660156 13.921875 36.554688 C 13.921875 36.320312 13.964844 36.039062 14.011719 35.824219 C 14.03125 35.71875 14.054688 35.628906 14.070312 35.5625 C 14.078125 35.53125 14.085938 35.507812 14.089844 35.492188 L 14.097656 35.472656 L 14.097656 35.46875 L 13.949219 35.425781 L 14.097656 35.46875 L 13.949219 35.425781 L 14.097656 35.46875 C 14.148438 35.304688 14.085938 35.128906 13.949219 35.027344 C 13.8125 34.925781 13.625 34.925781 13.484375 35.019531 C 13.214844 35.203125 12.894531 35.308594 12.546875 35.308594 C 12.085938 35.308594 11.671875 35.125 11.371094 34.824219 C 11.070312 34.519531 10.882812 34.109375 10.882812 33.648438 C 10.882812 33.207031 11.054688 32.8125 11.335938 32.511719 C 11.464844 32.375 11.480469 32.164062 11.375 32.007812 C 11.367188 32 11.355469 31.976562 11.335938 31.949219 C 11.222656 31.773438 10.992188 31.714844 10.808594 31.816406 C 10.558594 31.949219 10.277344 32.023438 9.976562 32.023438 C 9.488281 32.023438 9.046875 31.828125 8.726562 31.507812 C 8.40625 31.1875 8.210938 30.75 8.210938 30.261719 C 8.210938 29.984375 8.273438 29.75 8.371094 29.539062 C 8.515625 29.226562 8.742188 28.972656 8.941406 28.796875 C 9.039062 28.710938 9.128906 28.640625 9.195312 28.59375 C 9.230469 28.566406 9.257812 28.546875 9.28125 28.527344 C 9.296875 28.515625 9.308594 28.507812 9.332031 28.488281 C 9.34375 28.480469 9.355469 28.46875 9.378906 28.441406 C 9.390625 28.425781 9.40625 28.40625 9.425781 28.371094 C 9.433594 28.355469 9.445312 28.332031 9.457031 28.300781 C 9.464844 28.269531 9.476562 28.230469 9.476562 28.175781 C 9.476562 28.140625 9.46875 28.09375 9.453125 28.042969 C 9.386719 27.855469 9.199219 27.746094 9.003906 27.777344 C 8.863281 27.800781 8.726562 27.816406 8.585938 27.816406 C 7.878906 27.816406 7.238281 27.53125 6.773438 27.066406 C 6.308594 26.601562 6.023438 25.960938 6.023438 25.253906 C 6.023438 24.660156 6.167969 24.222656 6.375 23.882812 C 6.53125 23.628906 6.726562 23.425781 6.9375 23.261719 C 7.25 23.015625 7.597656 22.863281 7.867188 22.773438 C 8.003906 22.726562 8.117188 22.699219 8.195312 22.679688 C 8.238281 22.671875 8.269531 22.664062 8.292969 22.660156 C 8.304688 22.65625 8.316406 22.65625 8.332031 22.652344 C 8.339844 22.648438 8.347656 22.648438 8.367188 22.640625 C 8.378906 22.636719 8.390625 22.632812 8.425781 22.617188 C 8.441406 22.609375 8.464844 22.597656 8.507812 22.5625 C 8.527344 22.546875 8.554688 22.519531 8.585938 22.476562 C 8.613281 22.433594 8.644531 22.363281 8.648438 22.273438 C 8.660156 22.070312 8.511719 21.890625 8.3125 21.859375 C 7.917969 21.792969 7.574219 21.589844 7.324219 21.296875 C 7.074219 21.007812 6.925781 20.632812 6.925781 20.21875 C 6.925781 19.761719 7.109375 19.347656 7.410156 19.042969 C 7.714844 18.742188 8.125 18.558594 8.585938 18.558594 C 8.667969 18.558594 8.753906 18.566406 8.84375 18.582031 C 9.046875 18.609375 9.242188 18.484375 9.292969 18.289062 C 9.304688 18.253906 9.308594 18.214844 9.308594 18.179688 C 9.308594 18.121094 9.296875 18.070312 9.28125 18.03125 C 9.253906 17.957031 9.222656 17.925781 9.203125 17.898438 C 9.160156 17.851562 9.132812 17.835938 9.109375 17.816406 C 9.066406 17.785156 9.03125 17.761719 8.988281 17.730469 C 8.914062 17.679688 8.828125 17.617188 8.734375 17.527344 C 8.589844 17.398438 8.4375 17.21875 8.316406 16.964844 C 8.199219 16.710938 8.109375 16.378906 8.105469 15.925781 C 8.109375 15.421875 8.3125 14.96875 8.640625 14.636719 C 8.972656 14.308594 9.425781 14.105469 9.929688 14.105469 C 10.195312 14.105469 10.445312 14.160156 10.675781 14.265625 C 10.859375 14.347656 11.078125 14.277344 11.183594 14.105469 C 11.183594 14.105469 11.195312 14.089844 11.214844 14.0625 C 11.316406 13.894531 11.289062 13.679688 11.140625 13.546875 C 10.671875 13.128906 10.378906 12.527344 10.378906 11.851562 C 10.378906 11.222656 10.628906 10.652344 11.042969 10.210938 C 11.457031 9.773438 12.039062 9.46875 12.675781 9.394531 C 12.816406 9.375 12.949219 9.371094 13.074219 9.371094 C 13.585938 9.371094 13.953125 9.496094 14.191406 9.617188 C 14.308594 9.675781 14.394531 9.738281 14.449219 9.777344 C 14.476562 9.796875 14.492188 9.8125 14.503906 9.824219 L 14.511719 9.832031 L 14.699219 9.648438 L 14.511719 9.828125 L 14.511719 9.832031 L 14.699219 9.648438 L 14.511719 9.828125 C 14.640625 9.964844 14.847656 9.992188 15.007812 9.894531 C 15.167969 9.796875 15.242188 9.601562 15.183594 9.425781 C 15.125 9.242188 15.09375 9.050781 15.09375 8.851562 C 15.09375 8.589844 15.144531 8.359375 15.238281 8.148438 C 15.378906 7.832031 15.613281 7.5625 15.917969 7.359375 C 16.222656 7.15625 16.597656 7.023438 17.003906 6.980469 C 17.09375 6.96875 17.179688 6.964844 17.261719 6.964844 C 17.730469 6.96875 18.058594 7.105469 18.273438 7.234375 C 18.382812 7.300781 18.460938 7.367188 18.511719 7.414062 C 18.535156 7.4375 18.550781 7.453125 18.5625 7.464844 L 18.570312 7.476562 L 18.710938 7.355469 L 18.566406 7.472656 L 18.570312 7.476562 L 18.710938 7.355469 L 18.566406 7.472656 C 18.6875 7.625 18.902344 7.671875 19.074219 7.578125 C 19.246094 7.484375 19.328125 7.28125 19.265625 7.09375 C 19.183594 6.835938 19.136719 6.566406 19.136719 6.28125 C 19.136719 5.558594 19.425781 4.910156 19.898438 4.4375 C 20.371094 3.964844 21.023438 3.671875 21.742188 3.671875 C 22.464844 3.671875 23.113281 3.964844 23.585938 4.4375 C 24.058594 4.910156 24.351562 5.558594 24.351562 6.28125 C 24.351562 6.320312 24.351562 9.554688 24.351562 14 C 24.351562 18.921875 24.351562 25.324219 24.347656 30.511719 C 24.34375 33.109375 24.34375 35.398438 24.339844 37.046875 C 24.335938 37.871094 24.332031 38.539062 24.332031 39 C 24.332031 39.230469 24.328125 39.410156 24.328125 39.535156 C 24.328125 39.59375 24.328125 39.644531 24.324219 39.675781 C 24.324219 39.691406 24.324219 39.703125 24.324219 39.707031 L 24.324219 39.710938 L 24.488281 39.71875 L 24.324219 39.703125 L 24.324219 39.710938 L 24.488281 39.71875 L 24.324219 39.703125 L 24.65625 39.730469 L 24.324219 39.695312 L 24.324219 39.703125 L 24.65625 39.730469 L 24.324219 39.695312 L 24.707031 39.738281 L 24.332031 39.664062 C 24.328125 39.679688 24.328125 39.6875 24.324219 39.695312 L 24.707031 39.738281 L 24.332031 39.664062 C 24.324219 39.6875 24.324219 39.714844 24.324219 39.738281 L 24.726562 39.738281 " fill-opacity="1" fill-rule="nonzero"/></g><path fill="#161211" d="M 18.460938 7.304688 C 18.46875 7.332031 18.625 7.785156 19.011719 8.261719 C 19.203125 8.5 19.457031 8.746094 19.789062 8.929688 C 20.117188 9.117188 20.523438 9.246094 20.988281 9.246094 C 21.113281 9.246094 21.246094 9.234375 21.378906 9.214844 C 21.597656 9.1875 21.753906 8.980469 21.722656 8.761719 C 21.691406 8.539062 21.488281 8.386719 21.265625 8.417969 C 21.167969 8.429688 21.074219 8.4375 20.988281 8.4375 C 20.664062 8.4375 20.410156 8.355469 20.1875 8.230469 C 19.855469 8.042969 19.605469 7.746094 19.445312 7.488281 C 19.367188 7.359375 19.308594 7.246094 19.273438 7.164062 C 19.253906 7.121094 19.242188 7.089844 19.234375 7.070312 L 19.226562 7.046875 L 19.222656 7.042969 L 19.109375 7.082031 L 19.222656 7.042969 L 19.109375 7.082031 L 19.222656 7.042969 C 19.152344 6.832031 18.921875 6.722656 18.710938 6.792969 C 18.5 6.867188 18.386719 7.09375 18.460938 7.304688 " fill-opacity="1" fill-rule="nonzero"/><path fill="#161211" d="M 14.511719 9.757812 L 14.675781 9.5625 L 14.511719 9.753906 L 14.511719 9.757812 L 14.675781 9.5625 L 14.511719 9.753906 L 14.515625 9.757812 C 14.539062 9.777344 14.78125 9.996094 15.015625 10.378906 C 15.246094 10.757812 15.46875 11.296875 15.46875 11.976562 C 15.46875 12.070312 15.464844 12.167969 15.453125 12.265625 C 15.433594 12.488281 15.597656 12.683594 15.820312 12.703125 C 16.042969 12.722656 16.238281 12.5625 16.257812 12.339844 C 16.269531 12.214844 16.273438 12.09375 16.273438 11.976562 C 16.273438 11.078125 15.964844 10.367188 15.660156 9.890625 C 15.355469 9.410156 15.050781 9.15625 15.03125 9.136719 C 14.859375 8.992188 14.605469 9.015625 14.460938 9.1875 C 14.320312 9.359375 14.34375 9.613281 14.511719 9.757812 " fill-opacity="1" fill-rule="nonzero"/><path fill="#161211" d="M 8.476562 18.335938 C 8.5 18.359375 8.664062 18.515625 8.964844 18.664062 C 9.265625 18.816406 9.714844 18.964844 10.292969 18.964844 C 10.917969 18.964844 11.691406 18.789062 12.59375 18.296875 C 12.789062 18.191406 12.859375 17.945312 12.753906 17.75 C 12.644531 17.554688 12.402344 17.480469 12.203125 17.589844 C 11.402344 18.027344 10.769531 18.15625 10.292969 18.15625 C 9.851562 18.15625 9.535156 18.046875 9.328125 17.945312 C 9.222656 17.890625 9.148438 17.84375 9.101562 17.808594 C 9.078125 17.789062 9.0625 17.777344 9.054688 17.769531 L 9.046875 17.761719 L 8.902344 17.910156 L 9.050781 17.765625 L 9.046875 17.761719 L 8.902344 17.910156 L 9.050781 17.765625 C 8.890625 17.605469 8.636719 17.605469 8.480469 17.765625 C 8.320312 17.921875 8.320312 18.175781 8.476562 18.335938 " fill-opacity="1" fill-rule="nonzero"/><path fill="#161211" d="M 19.597656 12.707031 L 19.597656 12.464844 L 19.59375 12.707031 L 19.597656 12.707031 L 19.597656 12.464844 L 19.59375 12.707031 L 19.601562 12.707031 C 19.648438 12.707031 19.867188 12.714844 20.171875 12.773438 C 20.632812 12.863281 21.28125 13.0625 21.824219 13.492188 C 22.097656 13.707031 22.347656 13.976562 22.550781 14.324219 C 22.75 14.671875 22.902344 15.097656 22.96875 15.636719 C 22.996094 15.855469 23.199219 16.011719 23.421875 15.984375 C 23.640625 15.957031 23.800781 15.757812 23.769531 15.535156 C 23.660156 14.652344 23.34375 13.960938 22.921875 13.445312 C 22.609375 13.058594 22.242188 12.765625 21.871094 12.550781 C 21.316406 12.226562 20.757812 12.066406 20.332031 11.984375 C 19.910156 11.902344 19.621094 11.898438 19.601562 11.898438 C 19.378906 11.898438 19.199219 12.078125 19.195312 12.300781 C 19.195312 12.523438 19.375 12.703125 19.597656 12.707031 " fill-opacity="1" fill-rule="nonzero"/><path fill="#161211" d="M 22.035156 13.390625 L 22.277344 13.453125 L 22.035156 13.390625 L 22.277344 13.453125 L 22.035156 13.390625 L 22.035156 13.394531 C 22.027344 13.429688 21.917969 13.785156 21.628906 14.152344 C 21.488281 14.339844 21.300781 14.527344 21.058594 14.6875 C 20.816406 14.847656 20.519531 14.980469 20.144531 15.054688 C 19.925781 15.097656 19.785156 15.308594 19.828125 15.527344 C 19.871094 15.746094 20.082031 15.890625 20.300781 15.84375 C 20.804688 15.746094 21.21875 15.558594 21.550781 15.328125 C 22.050781 14.984375 22.367188 14.554688 22.554688 14.214844 C 22.742188 13.875 22.8125 13.617188 22.816406 13.59375 C 22.871094 13.375 22.742188 13.15625 22.527344 13.101562 C 22.3125 13.046875 22.089844 13.175781 22.035156 13.390625 " fill-opacity="1" fill-rule="nonzero"/><path fill="#161211" d="M 17.066406 29.964844 L 17.066406 29.933594 L 17.066406 29.964844 L 17.066406 29.933594 L 17.066406 29.964844 C 17.078125 29.964844 17.320312 29.96875 17.675781 30.03125 C 18.210938 30.125 18.996094 30.351562 19.671875 30.859375 C 20.007812 31.117188 20.316406 31.441406 20.566406 31.863281 C 20.8125 32.28125 21.003906 32.800781 21.085938 33.453125 C 21.113281 33.675781 21.3125 33.832031 21.535156 33.804688 C 21.757812 33.777344 21.914062 33.574219 21.886719 33.355469 C 21.757812 32.332031 21.390625 31.539062 20.90625 30.941406 C 20.546875 30.492188 20.121094 30.160156 19.695312 29.910156 C 19.054688 29.535156 18.40625 29.347656 17.914062 29.253906 C 17.425781 29.160156 17.089844 29.15625 17.070312 29.15625 C 16.847656 29.15625 16.667969 29.332031 16.664062 29.554688 C 16.664062 29.78125 16.84375 29.960938 17.066406 29.964844 " fill-opacity="1" fill-rule="nonzero"/><path fill="#161211" d="M 19.988281 30.851562 L 20.207031 30.910156 L 19.988281 30.851562 L 20.207031 30.910156 L 19.988281 30.851562 C 19.988281 30.851562 19.988281 30.855469 19.984375 30.867188 C 19.957031 30.960938 19.8125 31.386719 19.46875 31.8125 C 19.296875 32.027344 19.074219 32.242188 18.789062 32.429688 C 18.503906 32.613281 18.15625 32.765625 17.722656 32.851562 C 17.503906 32.894531 17.359375 33.105469 17.402344 33.324219 C 17.445312 33.542969 17.660156 33.683594 17.878906 33.640625 C 18.457031 33.527344 18.933594 33.308594 19.316406 33.046875 C 19.890625 32.648438 20.25 32.15625 20.46875 31.765625 C 20.6875 31.371094 20.761719 31.078125 20.769531 31.054688 C 20.824219 30.835938 20.695312 30.617188 20.480469 30.5625 C 20.261719 30.507812 20.042969 30.636719 19.988281 30.851562 " fill-opacity="1" fill-rule="nonzero"/><path fill="#161211" d="M 9.984375 24.226562 L 9.78125 24.089844 L 9.984375 24.226562 L 9.78125 24.089844 L 9.984375 24.226562 L 9.988281 24.222656 C 10.027344 24.164062 10.394531 23.652344 11.011719 23.164062 C 11.320312 22.921875 11.691406 22.683594 12.113281 22.511719 C 12.539062 22.335938 13.011719 22.222656 13.535156 22.222656 C 14.101562 22.222656 14.726562 22.351562 15.425781 22.695312 C 15.625 22.792969 15.867188 22.710938 15.964844 22.511719 C 16.0625 22.3125 15.980469 22.070312 15.78125 21.972656 C 14.984375 21.578125 14.226562 21.414062 13.535156 21.414062 C 12.867188 21.414062 12.265625 21.566406 11.746094 21.789062 C 10.964844 22.125 10.363281 22.617188 9.953125 23.027344 C 9.542969 23.433594 9.324219 23.761719 9.3125 23.777344 C 9.191406 23.964844 9.238281 24.214844 9.425781 24.335938 C 9.609375 24.460938 9.859375 24.410156 9.984375 24.226562 " fill-opacity="1" fill-rule="nonzero"/><path fill="#161211" d="M 12.5 22.160156 L 12.691406 21.988281 L 12.5 22.160156 L 12.691406 21.988281 L 12.5 22.160156 C 12.515625 22.179688 12.695312 22.390625 12.867188 22.734375 C 13.039062 23.078125 13.199219 23.558594 13.199219 24.125 C 13.199219 24.492188 13.132812 24.898438 12.953125 25.34375 C 12.867188 25.546875 12.96875 25.785156 13.175781 25.867188 C 13.378906 25.953125 13.617188 25.851562 13.699219 25.648438 C 13.921875 25.105469 14.007812 24.589844 14.007812 24.125 C 14.007812 23.367188 13.78125 22.746094 13.558594 22.316406 C 13.335938 21.882812 13.113281 21.636719 13.097656 21.617188 C 12.945312 21.453125 12.691406 21.441406 12.527344 21.589844 C 12.363281 21.742188 12.351562 21.996094 12.5 22.160156 " fill-opacity="1" fill-rule="nonzero"/><path fill="#161211" d="M 9.304688 28.523438 L 9.222656 28.367188 L 9.304688 28.523438 L 9.222656 28.367188 L 9.304688 28.523438 C 9.304688 28.519531 9.429688 28.453125 9.621094 28.390625 C 9.816406 28.324219 10.074219 28.265625 10.339844 28.265625 C 10.542969 28.265625 10.746094 28.296875 10.941406 28.386719 C 11.136719 28.476562 11.328125 28.617188 11.511719 28.859375 C 11.648438 29.035156 11.898438 29.070312 12.078125 28.9375 C 12.257812 28.804688 12.292969 28.550781 12.15625 28.371094 C 11.898438 28.027344 11.589844 27.792969 11.273438 27.648438 C 10.953125 27.507812 10.632812 27.457031 10.339844 27.457031 C 9.941406 27.457031 9.59375 27.546875 9.339844 27.632812 C 9.089844 27.71875 8.929688 27.808594 8.914062 27.816406 C 8.71875 27.921875 8.648438 28.167969 8.757812 28.363281 C 8.863281 28.558594 9.109375 28.628906 9.304688 28.523438 " fill-opacity="1" fill-rule="nonzero"/><path fill="#161211" d="M 14 35.757812 L 13.757812 35.722656 L 14 35.757812 L 13.757812 35.722656 L 14 35.757812 C 14.007812 35.71875 14.074219 35.355469 14.3125 34.945312 C 14.433594 34.738281 14.59375 34.523438 14.8125 34.320312 C 15.027344 34.121094 15.300781 33.933594 15.648438 33.792969 C 15.855469 33.710938 15.953125 33.476562 15.871094 33.269531 C 15.789062 33.0625 15.550781 32.960938 15.34375 33.046875 C 14.882812 33.234375 14.511719 33.488281 14.222656 33.769531 C 13.785156 34.1875 13.535156 34.648438 13.390625 35.003906 C 13.246094 35.359375 13.207031 35.617188 13.203125 35.640625 C 13.171875 35.859375 13.324219 36.066406 13.542969 36.097656 C 13.765625 36.128906 13.96875 35.976562 14 35.757812 " fill-opacity="1" fill-rule="nonzero"/><path fill="#161211" d="M 19.316406 38.636719 L 19.058594 38.617188 L 19.316406 38.640625 L 19.316406 38.636719 L 19.058594 38.617188 L 19.316406 38.640625 C 19.320312 38.628906 19.332031 38.496094 19.398438 38.296875 C 19.496094 38 19.714844 37.554688 20.191406 37.132812 C 20.675781 36.710938 21.425781 36.300781 22.640625 36.097656 C 22.859375 36.058594 23.007812 35.851562 22.972656 35.632812 C 22.9375 35.414062 22.730469 35.265625 22.507812 35.300781 C 21.589844 35.453125 20.871094 35.722656 20.316406 36.050781 C 19.484375 36.542969 19.023438 37.167969 18.785156 37.667969 C 18.542969 38.167969 18.515625 38.546875 18.511719 38.582031 C 18.5 38.804688 18.667969 38.996094 18.890625 39.011719 C 19.113281 39.027344 19.304688 38.859375 19.316406 38.636719 " fill-opacity="1" fill-rule="nonzero"/><path fill="#161211" d="M 24.789062 26.6875 L 24.773438 26.839844 L 24.789062 26.6875 L 24.773438 26.839844 L 24.789062 26.6875 C 24.78125 26.6875 23.78125 26.589844 22.644531 26.105469 C 22.074219 25.859375 21.476562 25.523438 20.945312 25.058594 C 20.417969 24.59375 19.957031 24.007812 19.652344 23.25 C 19.566406 23.042969 19.332031 22.941406 19.125 23.027344 C 18.917969 23.109375 18.820312 23.34375 18.902344 23.550781 C 19.261719 24.445312 19.8125 25.140625 20.429688 25.679688 C 21.355469 26.480469 22.417969 26.929688 23.253906 27.183594 C 24.089844 27.433594 24.695312 27.492188 24.714844 27.492188 C 24.9375 27.511719 25.132812 27.347656 25.152344 27.128906 C 25.171875 26.90625 25.011719 26.710938 24.789062 26.6875 " fill-opacity="1" fill-rule="nonzero"/><path fill="#161211" d="M 21.574219 26.171875 C 21.597656 26.148438 21.953125 25.871094 22.304688 25.308594 C 22.65625 24.75 23.003906 23.902344 23.003906 22.773438 C 23.003906 21.984375 22.832031 21.058594 22.386719 20.003906 C 22.296875 19.800781 22.0625 19.703125 21.855469 19.789062 C 21.652344 19.875 21.554688 20.113281 21.640625 20.320312 C 22.050781 21.285156 22.195312 22.097656 22.195312 22.773438 C 22.195312 23.734375 21.90625 24.421875 21.621094 24.882812 C 21.476562 25.109375 21.335938 25.277344 21.230469 25.386719 C 21.179688 25.441406 21.136719 25.480469 21.109375 25.503906 C 21.097656 25.515625 21.085938 25.523438 21.082031 25.53125 L 21.074219 25.535156 L 21.234375 25.734375 L 21.078125 25.53125 L 21.074219 25.535156 L 21.234375 25.734375 L 21.078125 25.53125 C 20.902344 25.667969 20.871094 25.921875 21.007812 26.097656 C 21.144531 26.273438 21.398438 26.308594 21.574219 26.171875 " fill-opacity="1" fill-rule="nonzero"/><path fill="#ffffff" d="M 12.472656 12.542969 L 12.300781 12.613281 L 12.472656 12.546875 L 12.472656 12.542969 L 12.300781 12.613281 L 12.472656 12.546875 C 12.472656 12.542969 12.398438 12.335938 12.398438 12.09375 C 12.398438 12 12.410156 11.898438 12.4375 11.800781 C 12.480469 11.652344 12.554688 11.511719 12.707031 11.375 C 12.863281 11.238281 13.105469 11.101562 13.492188 11.011719 C 13.710938 10.960938 13.84375 10.742188 13.792969 10.527344 C 13.742188 10.308594 13.527344 10.175781 13.308594 10.226562 C 12.980469 10.300781 12.707031 10.410156 12.480469 10.546875 C 12.136719 10.75 11.902344 11.019531 11.769531 11.300781 C 11.632812 11.578125 11.589844 11.859375 11.589844 12.09375 C 11.59375 12.515625 11.714844 12.816406 11.722656 12.84375 C 11.808594 13.050781 12.042969 13.152344 12.25 13.066406 C 12.457031 12.984375 12.554688 12.75 12.472656 12.542969 " fill-opacity="1" fill-rule="nonzero"/><path fill="#ffffff" d="M 16.996094 37.078125 L 17.042969 37.335938 L 17 37.078125 L 16.996094 37.078125 L 17.042969 37.335938 L 17 37.078125 L 17 37.082031 L 17 37.078125 L 17 37.082031 L 17 37.078125 C 16.996094 37.078125 16.917969 37.089844 16.808594 37.089844 C 16.707031 37.089844 16.578125 37.082031 16.445312 37.046875 C 16.347656 37.023438 16.25 36.984375 16.15625 36.933594 C 16.015625 36.851562 15.890625 36.738281 15.789062 36.550781 C 15.683594 36.363281 15.601562 36.089844 15.589844 35.6875 C 15.585938 35.464844 15.398438 35.289062 15.175781 35.296875 C 14.953125 35.300781 14.777344 35.488281 14.785156 35.710938 C 14.796875 36.15625 14.882812 36.527344 15.023438 36.828125 C 15.128906 37.054688 15.269531 37.242188 15.425781 37.390625 C 15.660156 37.609375 15.925781 37.738281 16.171875 37.808594 C 16.414062 37.878906 16.640625 37.898438 16.808594 37.898438 C 16.996094 37.898438 17.121094 37.875 17.140625 37.871094 C 17.359375 37.832031 17.503906 37.625 17.464844 37.40625 C 17.425781 37.183594 17.214844 37.039062 16.996094 37.078125 " fill-opacity="1" fill-rule="nonzero"/><path fill="#ffffff" d="M 22.71875 4.578125 C 22.691406 4.570312 22.367188 4.46875 21.917969 4.46875 C 21.558594 4.46875 21.105469 4.535156 20.675781 4.792969 C 20.464844 4.925781 20.261719 5.101562 20.09375 5.335938 C 19.921875 5.570312 19.785156 5.859375 19.691406 6.199219 C 19.632812 6.414062 19.761719 6.636719 19.976562 6.695312 C 20.191406 6.753906 20.414062 6.625 20.472656 6.410156 C 20.542969 6.152344 20.636719 5.960938 20.746094 5.8125 C 20.90625 5.589844 21.09375 5.464844 21.296875 5.386719 C 21.5 5.304688 21.71875 5.277344 21.917969 5.277344 C 22.082031 5.277344 22.230469 5.296875 22.332031 5.316406 C 22.382812 5.324219 22.425781 5.332031 22.449219 5.339844 C 22.464844 5.34375 22.472656 5.34375 22.476562 5.347656 L 22.484375 5.347656 L 22.554688 5.105469 L 22.480469 5.347656 L 22.484375 5.347656 L 22.554688 5.105469 L 22.480469 5.347656 C 22.695312 5.414062 22.921875 5.292969 22.984375 5.078125 C 23.050781 4.867188 22.929688 4.640625 22.71875 4.578125 " fill-opacity="1" fill-rule="nonzero"/><path fill="#ffffff" d="M 8.523438 26.367188 L 8.457031 26.511719 L 8.527344 26.367188 L 8.523438 26.367188 L 8.457031 26.511719 L 8.527344 26.367188 C 8.519531 26.367188 8.308594 26.257812 8.117188 26.070312 C 8.019531 25.976562 7.929688 25.863281 7.863281 25.734375 C 7.800781 25.605469 7.761719 25.464844 7.761719 25.296875 C 7.761719 25.167969 7.785156 25.019531 7.851562 24.84375 C 7.914062 24.671875 8.023438 24.46875 8.191406 24.242188 C 8.324219 24.0625 8.285156 23.808594 8.105469 23.679688 C 7.929688 23.546875 7.675781 23.582031 7.542969 23.761719 C 7.335938 24.039062 7.191406 24.304688 7.09375 24.5625 C 6.996094 24.820312 6.953125 25.066406 6.953125 25.296875 C 6.953125 25.609375 7.035156 25.890625 7.15625 26.121094 C 7.335938 26.464844 7.589844 26.703125 7.796875 26.859375 C 8.003906 27.015625 8.167969 27.089844 8.1875 27.097656 C 8.386719 27.191406 8.628906 27.105469 8.722656 26.902344 C 8.816406 26.699219 8.726562 26.460938 8.523438 26.367188 " fill-opacity="1" fill-rule="nonzero"/><g clip-path="url(#f539dde808)"><path fill="#56bced" d="M 26.332031 4.0625 L 26.332031 41.339844 C 36.566406 41.269531 44.839844 32.953125 44.839844 22.703125 C 44.839844 12.453125 36.566406 4.132812 26.332031 4.0625 " fill-opacity="1" fill-rule="nonzero"/></g><path fill="#ffffff" d="M 26.332031 8.292969 L 26.332031 37.109375 C 34.230469 37.039062 40.609375 30.617188 40.609375 22.703125 C 40.609375 14.789062 34.230469 8.363281 26.332031 8.292969 " fill-opacity="1" fill-rule="nonzero"/><path fill="#56bced" d="M 33.605469 15.917969 L 35.398438 14.125 C 35.554688 13.964844 35.554688 13.710938 35.398438 13.550781 C 35.242188 13.394531 34.984375 13.394531 34.828125 13.550781 L 33.035156 15.347656 C 32.875 15.503906 32.875 15.757812 33.035156 15.917969 C 33.191406 16.074219 33.445312 16.074219 33.605469 15.917969 " fill-opacity="1" fill-rule="nonzero"/><path fill="#56bced" d="M 32.863281 30.703125 L 34.65625 32.5 C 34.816406 32.65625 35.070312 32.65625 35.226562 32.5 C 35.386719 32.339844 35.386719 32.085938 35.226562 31.925781 L 33.433594 30.132812 C 33.277344 29.976562 33.019531 29.976562 32.863281 30.132812 C 32.707031 30.292969 32.707031 30.546875 32.863281 30.703125 " fill-opacity="1" fill-rule="nonzero"/><path fill="#56bced" d="M 36.089844 23.464844 L 38.628906 23.464844 C 38.851562 23.464844 39.03125 23.285156 39.03125 23.0625 C 39.03125 22.839844 38.851562 22.660156 38.628906 22.660156 L 36.089844 22.660156 C 35.867188 22.660156 35.6875 22.839844 35.6875 23.0625 C 35.6875 23.285156 35.867188 23.464844 36.089844 23.464844 " fill-opacity="1" fill-rule="nonzero"/><path fill="#56bced" d="M 32.015625 22.382812 L 26.90625 22.382812 L 26.90625 22.355469 L 26.160156 22.355469 L 26.160156 24.066406 L 32.015625 24.066406 C 32.476562 24.066406 32.855469 23.691406 32.855469 23.226562 C 32.855469 22.761719 32.476562 22.382812 32.015625 22.382812 " fill-opacity="1" fill-rule="nonzero"/><path fill="#ffffff" d="M 32.527344 7.765625 C 35.566406 9.054688 38.144531 11.222656 39.933594 13.953125 C 40.054688 14.140625 40.304688 14.191406 40.492188 14.070312 C 40.679688 13.949219 40.730469 13.699219 40.609375 13.511719 C 38.730469 10.648438 36.03125 8.375 32.839844 7.023438 C 32.636719 6.9375 32.398438 7.03125 32.3125 7.238281 C 32.226562 7.445312 32.320312 7.679688 32.527344 7.765625 " fill-opacity="1" fill-rule="nonzero"/><path fill="#56bced" d="M 26.160156 21.085938 L 26.160156 25.039062 C 27.226562 25.007812 28.078125 24.136719 28.078125 23.0625 C 28.078125 21.988281 27.226562 21.117188 26.160156 21.085938 " fill-opacity="1" fill-rule="nonzero"/></svg>