<svg xmlns="http://www.w3.org/2000/svg" xmlns:xlink="http://www.w3.org/1999/xlink" width="64" zoomAndPan="magnify" viewBox="0 0 48 48" height="64" preserveAspectRatio="xMidYMid meet" version="1.0"><defs><clipPath id="bfa7f3acb7"><path d="M 24 7 L 41.597656 7 L 41.597656 22 L 24 22 Z M 24 7 " clip-rule="nonzero"/></clipPath><clipPath id="576f8cb2e1"><path d="M 6.332031 25 L 41 25 L 41 44.199219 L 6.332031 44.199219 Z M 6.332031 25 " clip-rule="nonzero"/></clipPath><clipPath id="e77147a3e8"><path d="M 6.332031 23 L 41 23 L 41 43 L 6.332031 43 Z M 6.332031 23 " clip-rule="nonzero"/></clipPath><clipPath id="cb8a98c520"><path d="M 24 4 L 41.597656 4 L 41.597656 22 L 24 22 Z M 24 4 " clip-rule="nonzero"/></clipPath><clipPath id="ca573de190"><path d="M 6.332031 11 L 41 11 L 41 40 L 6.332031 40 Z M 6.332031 11 " clip-rule="nonzero"/></clipPath><clipPath id="533896faa6"><path d="M 9 3.054688 L 23 3.054688 L 23 15 L 9 15 Z M 9 3.054688 " clip-rule="nonzero"/></clipPath></defs><g clip-path="url(#bfa7f3acb7)"><path fill="#ffffff" d="M 24.613281 8.402344 L 24.613281 21.480469 L 41.597656 19.59375 L 27.84375 7.875 L 24.613281 8.402344 " fill-opacity="1" fill-rule="nonzero"/></g><path fill="#ffffff" d="M 10.710938 11.277344 L 17.195312 17.132812 L 23.464844 22.742188 L 39.964844 20.851562 L 32.34375 28.792969 C 32.34375 28.792969 29.09375 36.859375 26.214844 36.859375 C 23.339844 36.859375 13.210938 28.917969 13.335938 27.027344 C 13.460938 25.136719 14.339844 17.199219 14.339844 17.199219 L 10.710938 11.277344 " fill-opacity="1" fill-rule="nonzero"/><path fill="#ffffff" d="M 15.964844 14.550781 L 22.113281 19.234375 L 22.113281 6.359375 L 15.339844 12.664062 L 15.964844 14.550781 " fill-opacity="1" fill-rule="nonzero"/><g clip-path="url(#576f8cb2e1)"><path fill="#f3a91c" d="M 40.316406 25.769531 C 40.273438 26.191406 40.21875 26.613281 40.148438 27.027344 C 38.773438 35.117188 31.78125 41.273438 23.363281 41.273438 C 14.945312 41.273438 7.953125 35.117188 6.578125 27.027344 C 6.507812 26.613281 6.453125 26.191406 6.410156 25.769531 C 6.402344 25.699219 6.398438 25.632812 6.394531 25.566406 C 6.386719 25.632812 6.382812 25.699219 6.378906 25.769531 C 6.347656 26.183594 6.332031 26.605469 6.332031 27.027344 C 6.332031 36.507812 13.957031 44.191406 23.363281 44.191406 C 32.769531 44.191406 40.394531 36.507812 40.394531 27.027344 C 40.394531 26.605469 40.378906 26.183594 40.347656 25.769531 L 40.316406 25.769531 " fill-opacity="1" fill-rule="nonzero"/></g><g clip-path="url(#e77147a3e8)"><path fill="#dc9427" d="M 40.316406 23.878906 C 40.273438 24.300781 40.21875 24.722656 40.148438 25.136719 C 38.773438 33.226562 31.78125 39.382812 23.363281 39.382812 C 14.945312 39.382812 7.953125 33.226562 6.578125 25.136719 C 6.507812 24.722656 6.453125 24.300781 6.410156 23.878906 C 6.402344 23.8125 6.398438 23.746094 6.394531 23.675781 C 6.386719 23.746094 6.382812 23.8125 6.378906 23.878906 C 6.347656 24.292969 6.332031 24.714844 6.332031 25.136719 C 6.332031 34.617188 13.957031 42.304688 23.363281 42.304688 C 32.769531 42.304688 40.394531 34.617188 40.394531 25.136719 C 40.394531 24.714844 40.378906 24.292969 40.347656 23.878906 L 40.316406 23.878906 " fill-opacity="1" fill-rule="nonzero"/></g><g clip-path="url(#cb8a98c520)"><path fill="#e43f35" d="M 28.195312 21.078125 L 41.539062 19.554688 C 40.585938 10.984375 33.371094 4.320312 24.613281 4.320312 L 24.613281 8.402344 L 26.238281 8.402344 L 26.238281 11.359375 C 27.875 11.597656 29.171875 12.277344 30.125 13.394531 C 31.082031 14.511719 31.542969 15.9375 31.515625 17.671875 L 31.488281 17.738281 L 26.972656 17.738281 C 26.972656 16.742188 26.78125 15.996094 26.402344 15.503906 C 26.019531 15.015625 25.511719 14.769531 24.875 14.769531 C 24.78125 14.769531 24.695312 14.773438 24.613281 14.78125 L 24.613281 19.296875 C 24.832031 19.414062 25.070312 19.53125 25.335938 19.652344 C 26.445312 20.128906 27.394531 20.601562 28.195312 21.078125 " fill-opacity="1" fill-rule="nonzero"/></g><g clip-path="url(#ca573de190)"><path fill="#f3a91c" d="M 26.945312 22.339844 C 27.667969 22.769531 28.269531 23.199219 28.738281 23.625 C 29.730469 24.53125 30.226562 25.820312 30.226562 27.496094 C 30.226562 29.09375 29.726562 30.375 28.730469 31.347656 C 27.734375 32.320312 26.398438 32.890625 24.714844 33.066406 L 24.714844 35.832031 L 22.546875 35.832031 L 22.546875 33.050781 C 20.78125 32.878906 19.316406 32.257812 18.152344 31.191406 C 16.988281 30.121094 16.425781 28.554688 16.460938 26.492188 L 16.5 26.410156 L 20.988281 26.410156 C 20.988281 27.546875 21.234375 28.367188 21.726562 28.867188 C 22.21875 29.367188 22.855469 29.613281 23.636719 29.613281 C 24.292969 29.613281 24.785156 29.421875 25.125 29.039062 C 25.460938 28.652344 25.628906 28.148438 25.628906 27.523438 C 25.628906 26.800781 25.457031 26.238281 25.109375 25.839844 C 24.765625 25.441406 24.148438 25.050781 23.269531 24.664062 C 21.121094 23.804688 19.558594 22.929688 18.582031 22.046875 C 17.605469 21.160156 17.113281 19.863281 17.113281 18.148438 C 17.113281 17.796875 17.144531 17.457031 17.195312 17.132812 L 10.726562 11.238281 C 7.996094 14.285156 6.332031 18.320312 6.332031 22.746094 C 6.332031 23.238281 6.351562 23.726562 6.394531 24.207031 C 6.433594 24.699219 6.496094 25.1875 6.578125 25.667969 C 7.953125 33.757812 14.945312 39.914062 23.363281 39.914062 C 31.78125 39.914062 38.773438 33.757812 40.148438 25.667969 C 40.230469 25.1875 40.292969 24.699219 40.332031 24.207031 C 40.375 23.726562 40.394531 23.238281 40.394531 22.746094 C 40.394531 22.09375 40.359375 21.449219 40.289062 20.816406 L 26.945312 22.339844 " fill-opacity="1" fill-rule="nonzero"/></g><path fill="#3978a2" d="M 20.941406 14.113281 C 20.628906 14.519531 20.476562 15.03125 20.476562 15.65625 C 20.476562 16.289062 20.640625 16.800781 20.972656 17.195312 C 21.207031 17.472656 21.589844 17.753906 22.113281 18.035156 L 22.113281 13.523438 C 21.597656 13.570312 21.207031 13.765625 20.941406 14.113281 " fill-opacity="1" fill-rule="nonzero"/><g clip-path="url(#533896faa6)"><path fill="#3978a2" d="M 17.421875 11.796875 C 18.457031 10.792969 19.839844 10.210938 21.566406 10.042969 L 21.566406 7.144531 L 22.113281 7.144531 L 22.113281 3.0625 C 17.097656 3.0625 12.589844 5.246094 9.476562 8.71875 L 15.945312 14.613281 C 16.128906 13.511719 16.621094 12.574219 17.421875 11.796875 " fill-opacity="1" fill-rule="nonzero"/></g></svg>