<svg xmlns="http://www.w3.org/2000/svg" xmlns:xlink="http://www.w3.org/1999/xlink" width="64" zoomAndPan="magnify" viewBox="0 0 48 48" height="64" preserveAspectRatio="xMidYMid meet" version="1.0"><defs><clipPath id="ae685f6753"><path d="M 11 26 L 45.121094 26 L 45.121094 42.996094 L 11 42.996094 Z M 11 26 " clip-rule="nonzero"/></clipPath><clipPath id="0e60ae49b9"><path d="M 17 33 L 39 33 L 39 42.996094 L 17 42.996094 Z M 17 33 " clip-rule="nonzero"/></clipPath><clipPath id="271beba7b5"><path d="M 3.980469 2.585938 L 18 2.585938 L 18 21 L 3.980469 21 Z M 3.980469 2.585938 " clip-rule="nonzero"/></clipPath></defs><path fill="#e68f54" d="M 21.332031 18.636719 L 20.054688 18.636719 C 18.96875 18.636719 18.125 17.800781 18.125 16.722656 L 18.125 15.453125 C 18.125 14.375 18.96875 13.539062 20.054688 13.539062 L 21.332031 13.539062 C 21.695312 13.539062 21.984375 13.824219 21.984375 14.160156 L 21.984375 17.992188 C 21.984375 18.351562 21.695312 18.636719 21.332031 18.636719 Z M 36.347656 18.636719 L 35.070312 18.636719 C 34.710938 18.636719 34.421875 18.351562 34.421875 17.992188 L 34.421875 14.160156 C 34.421875 13.824219 34.710938 13.539062 35.070312 13.539062 L 36.347656 13.539062 C 37.433594 13.539062 38.277344 14.375 38.277344 15.453125 L 38.277344 16.722656 C 38.277344 17.800781 37.433594 18.636719 36.347656 18.636719 Z M 36.347656 18.636719 " fill-opacity="1" fill-rule="evenodd"/><path fill="#e68f54" d="M 32.179688 27.972656 C 31.890625 27.972656 25.453125 27.398438 25.382812 27.113281 L 24.851562 27.496094 C 24.753906 27.78125 24.515625 27.972656 24.222656 27.972656 C 24.175781 27.972656 24.105469 27.972656 24.054688 27.949219 C 23.71875 27.855469 23.5 27.496094 23.597656 27.160156 L 24.25 24.863281 C 24.34375 24.503906 24.707031 24.3125 25.042969 24.40625 C 25.1875 24.453125 25.285156 24.527344 25.382812 24.648438 C 26.996094 24.480469 31.09375 24.480469 31.359375 24.40625 C 31.71875 24.3125 32.058594 24.503906 32.15625 24.863281 L 32.804688 27.160156 C 32.902344 27.519531 32.683594 27.855469 32.347656 27.949219 C 32.300781 27.972656 32.226562 27.972656 32.179688 27.972656 Z M 32.179688 27.972656 " fill-opacity="1" fill-rule="evenodd"/><g clip-path="url(#ae685f6753)"><path fill="#ccccff" d="M 44.46875 42.984375 L 11.933594 42.984375 C 11.570312 42.984375 11.28125 42.695312 11.28125 42.335938 L 11.28125 34.84375 C 11.28125 32.640625 12.316406 30.582031 14.199219 29.027344 C 16.054688 27.519531 18.488281 26.707031 21.089844 26.707031 C 24.851562 26.707031 28.371094 26.707031 32.179688 26.707031 L 35.238281 26.707031 C 40.6875 26.707031 45.121094 30.34375 45.121094 34.84375 L 45.121094 42.335938 C 45.121094 42.695312 44.832031 42.984375 44.46875 42.984375 Z M 44.46875 42.984375 " fill-opacity="1" fill-rule="evenodd"/></g><g clip-path="url(#0e60ae49b9)"><path fill="#b8b8e6" d="M 38.925781 42.984375 L 37.648438 42.984375 L 37.648438 33.910156 C 37.648438 33.503906 37.9375 33.167969 38.277344 33.167969 C 38.636719 33.167969 38.925781 33.503906 38.925781 33.910156 Z M 18.753906 42.984375 L 17.476562 42.984375 L 17.476562 33.910156 C 17.476562 33.503906 17.765625 33.167969 18.125 33.167969 C 18.464844 33.167969 18.753906 33.503906 18.753906 33.910156 Z M 18.753906 42.984375 " fill-opacity="1" fill-rule="evenodd"/></g><path fill="#ff9e5c" d="M 28.875 25.507812 L 27.527344 25.507812 C 23.742188 25.507812 20.679688 22.46875 20.679688 18.710938 L 20.679688 10.90625 C 20.679688 10.546875 20.972656 10.257812 21.332031 10.257812 L 35.070312 10.257812 C 35.433594 10.257812 35.722656 10.546875 35.722656 10.90625 L 35.722656 18.710938 C 35.722656 20.503906 35 22.203125 33.695312 23.496094 C 32.394531 24.789062 30.683594 25.507812 28.875 25.507812 Z M 28.875 25.507812 " fill-opacity="1" fill-rule="evenodd"/><path fill="#c06000" d="M 35.070312 11.527344 L 21.332031 11.527344 C 20.972656 11.527344 20.679688 11.242188 20.679688 10.90625 C 20.679688 7.148438 23.742188 4.105469 27.527344 4.105469 L 28.875 4.105469 C 30.683594 4.105469 32.394531 4.824219 33.695312 6.117188 C 35 7.410156 35.722656 9.109375 35.722656 10.90625 C 35.722656 11.242188 35.433594 11.527344 35.070312 11.527344 Z M 35.070312 11.527344 " fill-opacity="1" fill-rule="evenodd"/><g clip-path="url(#271beba7b5)"><path fill="#ffa721" d="M 14.027344 20.386719 L 7.59375 20.386719 C 7.230469 20.386719 6.941406 20.097656 6.941406 19.761719 L 6.941406 18.566406 C 6.773438 15.453125 5.980469 14.304688 5.28125 13.300781 C 4.605469 12.34375 3.980469 11.433594 3.980469 9.46875 C 3.980469 7.625 4.703125 5.925781 6.003906 4.609375 C 7.28125 3.316406 8.992188 2.597656 10.800781 2.597656 C 14.609375 2.597656 17.71875 5.6875 17.71875 9.46875 C 17.71875 11.433594 17.042969 12.390625 16.390625 13.324219 C 15.597656 14.472656 14.65625 15.765625 14.65625 19.761719 C 14.65625 20.097656 14.367188 20.386719 14.027344 20.386719 Z M 14.027344 20.386719 " fill-opacity="1" fill-rule="evenodd"/></g><path fill="#e6ae63" d="M 26.828125 15.40625 C 26.394531 15.980469 25.742188 16.363281 24.972656 16.363281 C 24.222656 16.363281 23.550781 15.980469 23.140625 15.40625 C 23.550781 14.855469 24.222656 14.472656 24.972656 14.472656 C 25.742188 14.472656 26.394531 14.855469 26.828125 15.40625 Z M 26.828125 15.40625 " fill-opacity="1" fill-rule="evenodd"/><path fill="#ffffff" d="M 26.609375 15.40625 C 26.25 15.886719 25.648438 16.195312 24.972656 16.195312 C 24.296875 16.195312 23.71875 15.886719 23.355469 15.40625 C 23.71875 14.925781 24.296875 14.617188 24.972656 14.617188 C 25.648438 14.617188 26.25 14.925781 26.609375 15.40625 Z M 26.609375 15.40625 " fill-opacity="1" fill-rule="evenodd"/><path fill="#663300" d="M 25.621094 15.40625 C 25.621094 15.585938 25.558594 15.738281 25.433594 15.863281 C 25.304688 15.988281 25.152344 16.050781 24.972656 16.050781 C 24.792969 16.050781 24.640625 15.988281 24.511719 15.863281 C 24.382812 15.738281 24.320312 15.585938 24.320312 15.40625 C 24.320312 15.226562 24.382812 15.074219 24.511719 14.949219 C 24.640625 14.824219 24.792969 14.761719 24.972656 14.761719 C 25.152344 14.761719 25.304688 14.824219 25.433594 14.949219 C 25.558594 15.074219 25.621094 15.226562 25.621094 15.40625 Z M 25.621094 15.40625 " fill-opacity="1" fill-rule="nonzero"/><path fill="#1a1a1a" d="M 25.285156 15.40625 C 25.285156 15.492188 25.253906 15.566406 25.191406 15.625 C 25.132812 15.6875 25.058594 15.71875 24.972656 15.71875 C 24.886719 15.71875 24.8125 15.6875 24.75 15.625 C 24.6875 15.566406 24.660156 15.492188 24.660156 15.40625 C 24.660156 15.320312 24.6875 15.246094 24.75 15.1875 C 24.8125 15.125 24.886719 15.09375 24.972656 15.09375 C 25.058594 15.09375 25.132812 15.125 25.191406 15.1875 C 25.253906 15.246094 25.285156 15.320312 25.285156 15.40625 Z M 25.285156 15.40625 " fill-opacity="1" fill-rule="nonzero"/><path fill="#ffffff" d="M 25.261719 15.527344 C 25.238281 15.621094 25.140625 15.695312 25.042969 15.71875 C 25.019531 15.695312 24.972656 15.644531 24.972656 15.574219 C 24.972656 15.5 25.042969 15.429688 25.140625 15.429688 C 25.1875 15.429688 25.238281 15.476562 25.261719 15.527344 Z M 25.261719 15.527344 " fill-opacity="1" fill-rule="evenodd"/><path fill="#663300" d="M 23.71875 13.539062 C 23.574219 13.539062 23.453125 13.660156 23.453125 13.800781 C 23.453125 13.96875 23.574219 14.089844 23.71875 14.089844 L 26.226562 14.089844 C 26.371094 14.089844 26.488281 13.96875 26.488281 13.800781 C 26.488281 13.660156 26.371094 13.539062 26.226562 13.539062 Z M 23.71875 13.539062 " fill-opacity="1" fill-rule="nonzero"/><path fill="#e6ae63" d="M 33.261719 15.40625 C 32.851562 15.980469 32.179688 16.363281 31.429688 16.363281 C 30.660156 16.363281 30.007812 15.980469 29.574219 15.40625 C 30.007812 14.855469 30.660156 14.472656 31.429688 14.472656 C 32.179688 14.472656 32.851562 14.855469 33.261719 15.40625 Z M 33.261719 15.40625 " fill-opacity="1" fill-rule="evenodd"/><path fill="#ffffff" d="M 33.046875 15.40625 C 32.683594 15.886719 32.105469 16.195312 31.429688 16.195312 C 30.757812 16.195312 30.152344 15.886719 29.792969 15.40625 C 30.152344 14.925781 30.757812 14.617188 31.429688 14.617188 C 32.105469 14.617188 32.683594 14.925781 33.046875 15.40625 Z M 33.046875 15.40625 " fill-opacity="1" fill-rule="evenodd"/><path fill="#663300" d="M 32.082031 15.40625 C 32.082031 15.585938 32.019531 15.738281 31.890625 15.863281 C 31.765625 15.988281 31.609375 16.050781 31.429688 16.050781 C 31.25 16.050781 31.097656 15.988281 30.972656 15.863281 C 30.84375 15.738281 30.78125 15.585938 30.78125 15.40625 C 30.78125 15.226562 30.84375 15.074219 30.972656 14.949219 C 31.097656 14.824219 31.25 14.761719 31.429688 14.761719 C 31.609375 14.761719 31.765625 14.824219 31.890625 14.949219 C 32.019531 15.074219 32.082031 15.226562 32.082031 15.40625 Z M 32.082031 15.40625 " fill-opacity="1" fill-rule="nonzero"/><path fill="#1a1a1a" d="M 31.746094 15.40625 C 31.746094 15.492188 31.714844 15.566406 31.652344 15.625 C 31.589844 15.6875 31.519531 15.71875 31.429688 15.71875 C 31.34375 15.71875 31.269531 15.6875 31.210938 15.625 C 31.148438 15.566406 31.117188 15.492188 31.117188 15.40625 C 31.117188 15.320312 31.148438 15.246094 31.210938 15.1875 C 31.269531 15.125 31.34375 15.09375 31.429688 15.09375 C 31.519531 15.09375 31.589844 15.125 31.652344 15.1875 C 31.714844 15.246094 31.746094 15.320312 31.746094 15.40625 Z M 31.746094 15.40625 " fill-opacity="1" fill-rule="nonzero"/><path fill="#ffffff" d="M 31.71875 15.527344 C 31.695312 15.621094 31.601562 15.695312 31.503906 15.71875 C 31.457031 15.695312 31.429688 15.644531 31.429688 15.574219 C 31.429688 15.5 31.503906 15.429688 31.601562 15.429688 C 31.648438 15.429688 31.695312 15.476562 31.71875 15.527344 Z M 31.71875 15.527344 " fill-opacity="1" fill-rule="evenodd"/><path fill="#663300" d="M 30.179688 13.539062 C 30.007812 13.539062 29.886719 13.660156 29.886719 13.800781 C 29.886719 13.96875 30.007812 14.089844 30.179688 14.089844 L 32.660156 14.089844 C 32.828125 14.089844 32.949219 13.96875 32.949219 13.800781 C 32.949219 13.660156 32.828125 13.539062 32.660156 13.539062 Z M 30.179688 13.539062 " fill-opacity="1" fill-rule="nonzero"/><path fill="#802d40" d="M 24.921875 19.140625 L 31.625 19.140625 L 31.574219 19.238281 C 31.550781 19.261719 30.417969 21.726562 28.539062 22.230469 L 28.515625 22.230469 C 26.464844 22.230469 24.851562 19.261719 24.851562 19.238281 L 24.777344 19.140625 Z M 24.921875 19.140625 " fill-opacity="1" fill-rule="nonzero"/><path fill="#e6e6e6" d="M 31.117188 19.140625 L 25.285156 19.140625 C 26.105469 19.5 27.140625 19.691406 28.203125 19.691406 C 29.261719 19.691406 30.296875 19.5 31.117188 19.140625 Z M 31.117188 19.140625 " fill-opacity="1" fill-rule="evenodd"/><path fill="#fb7b76" d="M 28.320312 21.152344 C 27.71875 21.152344 27.140625 21.269531 26.683594 21.460938 C 27.214844 21.894531 27.839844 22.230469 28.515625 22.230469 L 28.539062 22.230469 C 29.070312 22.085938 29.527344 21.796875 29.914062 21.460938 C 29.480469 21.246094 28.902344 21.152344 28.320312 21.152344 Z M 28.320312 21.152344 " fill-opacity="1" fill-rule="evenodd"/><path fill="#58535a" d="M 14.027344 20.386719 L 7.59375 20.386719 C 7.230469 20.386719 6.941406 20.097656 6.941406 19.761719 L 6.941406 18.566406 C 6.871094 17.25 6.703125 16.292969 6.4375 15.527344 L 15.210938 15.527344 C 14.898438 16.484375 14.65625 17.800781 14.65625 19.761719 C 14.65625 20.097656 14.367188 20.386719 14.027344 20.386719 Z M 14.027344 20.386719 " fill-opacity="1" fill-rule="evenodd"/><path fill="#58535a" d="M 14.414062 22.636719 L 7.28125 22.636719 C 6.917969 22.636719 6.628906 22.347656 6.628906 21.988281 C 6.628906 21.628906 6.917969 21.34375 7.28125 21.34375 L 14.414062 21.34375 C 14.777344 21.34375 15.066406 21.628906 15.066406 21.988281 C 15.066406 22.347656 14.777344 22.636719 14.414062 22.636719 Z M 14.414062 22.636719 " fill-opacity="1" fill-rule="evenodd"/><path fill="#58535a" d="M 13.789062 24.863281 L 7.90625 24.863281 C 7.570312 24.863281 7.28125 24.574219 7.28125 24.214844 C 7.28125 23.878906 7.570312 23.59375 7.90625 23.59375 L 13.789062 23.59375 C 14.125 23.59375 14.414062 23.878906 14.414062 24.214844 C 14.414062 24.574219 14.125 24.863281 13.789062 24.863281 Z M 13.789062 24.863281 " fill-opacity="1" fill-rule="evenodd"/><path fill="#58535a" d="M 13.304688 27.015625 L 8.390625 27.015625 C 8.050781 27.015625 7.761719 26.730469 7.761719 26.371094 C 7.761719 26.035156 8.050781 25.746094 8.390625 25.746094 L 13.304688 25.746094 C 13.644531 25.746094 13.933594 26.035156 13.933594 26.371094 C 13.933594 26.730469 13.644531 27.015625 13.304688 27.015625 Z M 13.304688 27.015625 " fill-opacity="1" fill-rule="evenodd"/></svg>