<svg xmlns="http://www.w3.org/2000/svg" xmlns:xlink="http://www.w3.org/1999/xlink" width="64" zoomAndPan="magnify" viewBox="0 0 48 48" height="64" preserveAspectRatio="xMidYMid meet" version="1.0"><defs><clipPath id="1bb6f4f593"><path d="M 8 5.148438 L 39 5.148438 L 39 24 L 8 24 Z M 8 5.148438 " clip-rule="nonzero"/></clipPath><clipPath id="dd7d994e77"><path d="M 8 5.148438 L 39 5.148438 L 39 19 L 8 19 Z M 8 5.148438 " clip-rule="nonzero"/></clipPath><clipPath id="1721020500"><path d="M 8 5.148438 L 39 5.148438 L 39 8 L 8 8 Z M 8 5.148438 " clip-rule="nonzero"/></clipPath><clipPath id="c4489eb37c"><path d="M 4.734375 12 L 11 12 L 11 24 L 4.734375 24 Z M 4.734375 12 " clip-rule="nonzero"/></clipPath><clipPath id="ce9111969e"><path d="M 36 9 L 42.9375 9 L 42.9375 21 L 36 21 Z M 36 9 " clip-rule="nonzero"/></clipPath><clipPath id="0282716f89"><path d="M 14 41 L 18 41 L 18 42.617188 L 14 42.617188 Z M 14 41 " clip-rule="nonzero"/></clipPath><clipPath id="88d8d0da61"><path d="M 9 40 L 12 40 L 12 42.617188 L 9 42.617188 Z M 9 40 " clip-rule="nonzero"/></clipPath><clipPath id="294463aae5"><path d="M 38 37 L 42.9375 37 L 42.9375 40 L 38 40 Z M 38 37 " clip-rule="nonzero"/></clipPath><clipPath id="7e51d68771"><path d="M 32 30 L 42.9375 30 L 42.9375 40 L 32 40 Z M 32 30 " clip-rule="nonzero"/></clipPath><clipPath id="725ce1c179"><path d="M 33 38 L 39 38 L 39 42.617188 L 33 42.617188 Z M 33 38 " clip-rule="nonzero"/></clipPath><clipPath id="c652263bc8"><path d="M 34 38 L 39 38 L 39 42.617188 L 34 42.617188 Z M 34 38 " clip-rule="nonzero"/></clipPath><clipPath id="312277b012"><path d="M 10 5.148438 L 12 5.148438 L 12 7 L 10 7 Z M 10 5.148438 " clip-rule="nonzero"/></clipPath><clipPath id="48e498e0bb"><path d="M 11 5.148438 L 13 5.148438 L 13 7 L 11 7 Z M 11 5.148438 " clip-rule="nonzero"/></clipPath><clipPath id="1fb5386f51"><path d="M 13 5.148438 L 15 5.148438 L 15 7 L 13 7 Z M 13 5.148438 " clip-rule="nonzero"/></clipPath><clipPath id="990578a9e1"><path d="M 10 5.148438 L 14 5.148438 L 14 8 L 10 8 Z M 10 5.148438 " clip-rule="nonzero"/></clipPath></defs><g clip-path="url(#1bb6f4f593)"><path fill="#e0e3fc" d="M 8.765625 6.082031 C 8.765625 5.597656 9.15625 5.203125 9.640625 5.203125 L 37.28125 5.203125 C 37.761719 5.203125 38.15625 5.597656 38.15625 6.082031 L 38.15625 22.710938 C 38.15625 23.199219 37.761719 23.589844 37.28125 23.589844 L 9.640625 23.589844 C 9.15625 23.589844 8.765625 23.199219 8.765625 22.710938 Z M 8.765625 6.082031 " fill-opacity="1" fill-rule="nonzero"/></g><g clip-path="url(#dd7d994e77)"><path fill="#2f2f2f" d="M 8.71875 6.082031 C 8.71875 5.570312 9.132812 5.15625 9.640625 5.15625 L 37.28125 5.15625 C 37.789062 5.15625 38.199219 5.570312 38.199219 6.082031 L 38.199219 18.3125 L 38.113281 18.3125 L 38.113281 6.082031 C 38.113281 5.621094 37.738281 5.246094 37.28125 5.246094 L 9.640625 5.246094 C 9.179688 5.246094 8.808594 5.621094 8.808594 6.082031 L 8.808594 14.398438 L 8.71875 14.398438 Z M 8.71875 6.082031 " fill-opacity="1" fill-rule="evenodd"/></g><g clip-path="url(#1721020500)"><path fill="#4f69e1" d="M 37.28125 5.203125 L 9.640625 5.203125 C 9.15625 5.203125 8.765625 5.597656 8.765625 6.082031 L 8.765625 7.589844 L 38.15625 7.589844 L 38.15625 6.082031 C 38.15625 5.597656 37.761719 5.203125 37.28125 5.203125 Z M 37.28125 5.203125 " fill-opacity="1" fill-rule="nonzero"/></g><path fill="#2f2f2f" d="M 8.765625 7.546875 L 30.808594 7.546875 L 30.808594 7.632812 L 8.765625 7.632812 Z M 8.765625 7.546875 " fill-opacity="1" fill-rule="evenodd"/><path fill="#ffb25d" d="M 14.597656 17.128906 L 16.410156 17.128906 L 16.410156 19.699219 L 14.597656 19.699219 Z M 14.597656 17.128906 " fill-opacity="1" fill-rule="nonzero"/><path fill="#ffb25d" d="M 17.398438 15.96875 L 19.214844 15.96875 L 19.214844 19.699219 L 17.398438 19.699219 Z M 17.398438 15.96875 " fill-opacity="1" fill-rule="nonzero"/><path fill="#ff8906" d="M 20.203125 14.726562 L 22.015625 14.726562 L 22.015625 19.699219 L 20.203125 19.699219 Z M 20.203125 14.726562 " fill-opacity="1" fill-rule="nonzero"/><path fill="#ff8906" d="M 25.808594 12.824219 L 27.625 12.824219 L 27.625 19.699219 L 25.808594 19.699219 Z M 25.808594 12.824219 " fill-opacity="1" fill-rule="nonzero"/><path fill="#2f2f2f" d="M 25.765625 12.777344 L 27.625 12.777344 L 27.625 12.867188 L 25.855469 12.867188 L 25.855469 19.699219 L 25.765625 19.699219 Z M 20.160156 14.683594 L 22.015625 14.683594 L 22.015625 14.773438 L 20.246094 14.773438 L 20.246094 19.699219 L 20.160156 19.699219 Z M 20.160156 14.683594 " fill-opacity="1" fill-rule="evenodd"/><path fill="#ffb25d" d="M 23.007812 15.96875 L 24.820312 15.96875 L 24.820312 19.699219 L 23.007812 19.699219 Z M 23.007812 15.96875 " fill-opacity="1" fill-rule="nonzero"/><path fill="#2f2f2f" d="M 17.355469 15.925781 L 19.214844 15.925781 L 19.214844 16.015625 L 17.445312 16.015625 L 17.445312 19.699219 L 17.355469 19.699219 Z M 22.964844 15.925781 L 24.820312 15.925781 L 24.820312 16.015625 L 23.050781 16.015625 L 23.050781 19.699219 L 22.964844 19.699219 Z M 14.554688 17.085938 L 16.410156 17.085938 L 16.410156 17.175781 L 14.640625 17.175781 L 14.640625 19.699219 L 14.554688 19.699219 Z M 14.554688 17.085938 " fill-opacity="1" fill-rule="evenodd"/><path fill="#ff8906" d="M 34.136719 12.53125 C 34.136719 13.882812 33.046875 14.976562 31.703125 14.976562 C 30.363281 14.976562 29.273438 13.882812 29.273438 12.53125 C 29.273438 11.183594 30.363281 10.089844 31.703125 10.089844 C 33.046875 10.089844 34.136719 11.183594 34.136719 12.53125 Z M 34.136719 12.53125 " fill-opacity="1" fill-rule="nonzero"/><path fill="#2f2f2f" d="M 31.703125 10.132812 C 30.386719 10.132812 29.316406 11.207031 29.316406 12.53125 L 29.230469 12.53125 C 29.230469 11.160156 30.335938 10.046875 31.703125 10.046875 C 33.074219 10.046875 34.179688 11.160156 34.179688 12.53125 C 34.179688 13.90625 33.074219 15.019531 31.703125 15.019531 L 31.703125 14.933594 C 33.023438 14.933594 34.09375 13.859375 34.09375 12.53125 C 34.09375 11.207031 33.023438 10.132812 31.703125 10.132812 Z M 31.703125 10.132812 " fill-opacity="1" fill-rule="evenodd"/><path fill="#ffb25d" d="M 33.3125 12.53125 C 33.3125 13.425781 32.59375 14.148438 31.703125 14.148438 C 30.816406 14.148438 30.097656 13.425781 30.097656 12.53125 C 30.097656 11.640625 30.816406 10.917969 31.703125 10.917969 C 32.59375 10.917969 33.3125 11.640625 33.3125 12.53125 Z M 33.3125 12.53125 " fill-opacity="1" fill-rule="nonzero"/><path fill="#2f2f2f" d="M 31.703125 10.960938 C 30.839844 10.960938 30.140625 11.664062 30.140625 12.53125 C 30.140625 13.402344 30.839844 14.105469 31.703125 14.105469 C 32.570312 14.105469 33.269531 13.402344 33.269531 12.53125 L 33.355469 12.53125 C 33.355469 13.449219 32.617188 14.191406 31.703125 14.191406 C 30.792969 14.191406 30.054688 13.449219 30.054688 12.53125 C 30.054688 11.617188 30.792969 10.875 31.703125 10.875 Z M 31.703125 10.960938 " fill-opacity="1" fill-rule="evenodd"/><path fill="#8b98f3" d="M 32.652344 12.53125 C 32.652344 13.058594 32.230469 13.484375 31.703125 13.484375 C 31.179688 13.484375 30.757812 13.058594 30.757812 12.53125 C 30.757812 12.007812 31.179688 11.582031 31.703125 11.582031 C 32.230469 11.582031 32.652344 12.007812 32.652344 12.53125 Z M 32.652344 12.53125 " fill-opacity="1" fill-rule="nonzero"/><path fill="#2f2f2f" d="M 31.703125 11.625 C 31.207031 11.625 30.800781 12.03125 30.800781 12.53125 L 30.714844 12.53125 C 30.714844 11.984375 31.15625 11.535156 31.703125 11.535156 C 32.253906 11.535156 32.695312 11.984375 32.695312 12.53125 C 32.695312 13.082031 32.253906 13.53125 31.703125 13.53125 L 31.703125 13.441406 C 32.203125 13.441406 32.609375 13.035156 32.609375 12.53125 C 32.609375 12.03125 32.203125 11.625 31.703125 11.625 Z M 31.703125 11.625 " fill-opacity="1" fill-rule="evenodd"/><path fill="#4f69e1" d="M 33.636719 10.089844 L 33.636719 10.597656 L 34.128906 10.675781 L 34.878906 9.9375 L 34.359375 9.910156 L 34.386719 9.425781 Z M 33.636719 10.089844 " fill-opacity="1" fill-rule="nonzero"/><path fill="#2f2f2f" d="M 34.4375 9.324219 L 34.40625 9.867188 L 34.980469 9.898438 L 34.144531 10.722656 L 33.652344 10.644531 L 31.777344 12.523438 L 31.714844 12.460938 L 33.59375 10.578125 L 33.59375 10.070312 Z M 33.679688 10.558594 L 34.113281 10.628906 L 34.777344 9.976562 L 34.316406 9.953125 L 34.335938 9.527344 L 33.679688 10.109375 Z M 33.679688 10.558594 " fill-opacity="1" fill-rule="evenodd"/><g clip-path="url(#c4489eb37c)"><path fill="#4f69e1" d="M 8.734375 12.4375 L 6.328125 12.4375 L 6.328125 19.101562 L 5.054688 19.101562 C 4.855469 19.101562 4.734375 19.324219 4.847656 19.488281 L 7.324219 23.203125 C 7.425781 23.351562 7.640625 23.351562 7.738281 23.203125 L 8.535156 22.007812 L 10.21875 19.488281 C 10.328125 19.324219 10.210938 19.101562 10.011719 19.101562 L 8.734375 19.101562 Z M 8.734375 12.4375 " fill-opacity="1" fill-rule="nonzero"/></g><path fill="#2f2f2f" d="M 8.726562 12.484375 L 7.128906 12.484375 L 7.128906 12.394531 L 8.8125 12.394531 L 8.8125 19.054688 L 10.046875 19.054688 C 10.28125 19.054688 10.417969 19.316406 10.289062 19.511719 L 8.605469 22.035156 L 8.535156 21.984375 L 10.214844 19.464844 C 10.308594 19.328125 10.210938 19.144531 10.046875 19.144531 L 8.726562 19.144531 Z M 8.726562 12.484375 " fill-opacity="1" fill-rule="evenodd"/><path fill="#2f2f2f" d="M 7.539062 12.460938 L 7.539062 7.753906 L 7.453125 7.753906 L 7.453125 12.460938 Z M 6.335938 10.921875 L 6.335938 6.609375 L 6.25 6.609375 L 6.25 10.921875 Z M 6.335938 10.921875 " fill-opacity="1" fill-rule="evenodd"/><g clip-path="url(#ce9111969e)"><path fill="#8b98f3" d="M 40.589844 20.671875 L 38.183594 20.671875 L 38.183594 14.011719 L 36.910156 14.011719 C 36.710938 14.011719 36.589844 13.789062 36.703125 13.625 L 39.179688 9.910156 C 39.277344 9.761719 39.496094 9.761719 39.59375 9.910156 L 42.074219 13.625 C 42.183594 13.789062 42.066406 14.011719 41.867188 14.011719 L 40.589844 14.011719 Z M 40.589844 20.671875 " fill-opacity="1" fill-rule="nonzero"/></g><path fill="#2f2f2f" d="M 39.34375 27.683594 L 39.34375 22.976562 L 39.257812 22.976562 L 39.257812 27.683594 Z M 40.546875 24.5625 L 40.601562 21.539062 L 40.515625 21.539062 L 40.457031 24.558594 Z M 38.109375 20.734375 L 39.355469 20.734375 L 39.355469 20.644531 L 38.195312 20.644531 L 38.195312 13.984375 L 36.878906 13.984375 C 36.714844 13.984375 36.617188 13.800781 36.707031 13.664062 L 38.804688 10.523438 L 38.730469 10.472656 L 36.632812 13.613281 C 36.503906 13.808594 36.644531 14.074219 36.878906 14.074219 L 38.109375 14.074219 Z M 38.109375 20.734375 " fill-opacity="1" fill-rule="evenodd"/><path fill="#ffbcad" d="M 16.933594 18.402344 L 17.152344 21.65625 L 16.757812 23.144531 L 16.765625 23.144531 C 17.210938 23.265625 17.644531 23.382812 18.25 23.195312 C 18.992188 22.96875 18.03125 19.324219 17.589844 18.179688 C 17.023438 17.300781 17.023438 16.464844 16.320312 16.863281 C 15.972656 17.058594 16.367188 17.609375 16.585938 17.828125 C 16.378906 17.800781 15.972656 17.769531 15.972656 17.875 C 15.972656 18.003906 16.320312 18.003906 16.453125 18.09375 C 16.558594 18.164062 16.816406 18.328125 16.933594 18.402344 Z M 16.933594 18.402344 " fill-opacity="1" fill-rule="nonzero"/><path fill="#2f2f2f" d="M 18.449219 23.074219 C 18.402344 23.15625 18.34375 23.214844 18.261719 23.238281 C 17.644531 23.429688 17.203125 23.308594 16.753906 23.1875 L 16.75 23.1875 L 16.769531 23.101562 L 16.773438 23.101562 C 17.222656 23.222656 17.640625 23.339844 18.234375 23.15625 C 18.289062 23.136719 18.335938 23.097656 18.371094 23.03125 C 18.410156 22.964844 18.4375 22.875 18.457031 22.761719 C 18.492188 22.535156 18.484375 22.226562 18.445312 21.878906 C 18.371094 21.175781 18.179688 20.308594 17.976562 19.558594 L 18.0625 19.535156 C 18.265625 20.285156 18.457031 21.160156 18.535156 21.867188 C 18.570312 22.222656 18.578125 22.535156 18.542969 22.773438 C 18.523438 22.894531 18.492188 22.996094 18.449219 23.074219 Z M 18.449219 23.074219 " fill-opacity="1" fill-rule="evenodd"/><g clip-path="url(#0282716f89)"><path fill="#2f2f2f" d="M 17.109375 42.613281 C 17.09375 42.3125 16.957031 42.082031 16.503906 42.019531 C 16.175781 41.976562 15.996094 41.765625 15.929688 41.625 L 14.691406 41.625 L 14.691406 42.613281 Z M 17.109375 42.613281 " fill-opacity="1" fill-rule="nonzero"/></g><g clip-path="url(#88d8d0da61)"><path fill="#2f2f2f" d="M 9.175781 41.28125 L 9.527344 40.355469 L 10.585938 40.882812 C 10.554688 41.105469 10.671875 41.589844 10.980469 41.542969 C 11.609375 41.613281 11.5625 42.25 11.546875 42.511719 L 11.144531 42.511719 C 10.867188 42.511719 10.597656 42.417969 10.382812 42.242188 Z M 9.175781 41.28125 " fill-opacity="1" fill-rule="nonzero"/></g><path fill="#2f2f2f" d="M 14.425781 17.800781 C 14.230469 18.152344 13.253906 18.316406 13.085938 18.40625 C 12.847656 18.535156 13.195312 18.941406 13.503906 19.171875 C 13.324219 19.097656 12.949219 19.015625 12.859375 19.285156 C 12.746094 19.621094 13.335938 19.804688 13.640625 19.734375 L 13.398438 20.015625 C 11.351562 19.753906 11.550781 18.761719 11.90625 18.296875 C 11.898438 18.035156 12.019531 17.738281 12.386719 17.4375 C 13.5 16.523438 14.539062 17.191406 14.460938 17.710938 C 14.453125 17.742188 14.445312 17.769531 14.425781 17.800781 Z M 14.425781 17.800781 " fill-opacity="1" fill-rule="nonzero"/><path fill="#ffbcad" d="M 14.527344 21.21875 C 14.527344 21.21875 13.816406 21.523438 13.386719 20.976562 L 13.398438 20.015625 L 13.640625 19.734375 C 13.335938 19.804688 12.746094 19.621094 12.859375 19.285156 C 12.949219 19.015625 13.324219 19.097656 13.503906 19.171875 C 13.195312 18.941406 12.847656 18.535156 13.085938 18.40625 C 13.253906 18.316406 14.230469 18.152344 14.425781 17.800781 C 15.125 18.640625 15.3125 19.457031 14.789062 19.675781 C 14.65625 20.238281 14.421875 21.09375 14.527344 21.21875 Z M 14.527344 21.21875 " fill-opacity="1" fill-rule="nonzero"/><path fill="#f58861" d="M 13.78125 19.808594 C 14.132812 19.808594 14.394531 19.84375 14.789062 19.675781 C 14.769531 19.765625 14.746094 19.863281 14.71875 19.960938 C 14.488281 19.980469 14 19.867188 13.78125 19.808594 Z M 13.78125 19.808594 " fill-opacity="1" fill-rule="nonzero"/><path fill="#832d3b" d="M 9.257812 40.90625 L 10.667969 41.003906 C 10.789062 41.011719 10.902344 40.933594 10.9375 40.816406 L 14 30.941406 L 14.472656 41.378906 C 14.476562 41.519531 14.59375 41.632812 14.734375 41.632812 L 16.183594 41.632812 C 16.332031 41.632812 16.449219 41.507812 16.445312 41.359375 L 16.101562 28.609375 C 14.839844 29.101562 12.746094 28.726562 11.855469 28.476562 L 9.019531 40.582031 C 8.984375 40.738281 9.097656 40.894531 9.257812 40.90625 Z M 9.257812 40.90625 " fill-opacity="1" fill-rule="nonzero"/><path fill="#2f2f2f" d="M 14.976562 29.851562 L 15.039062 29.917969 L 14.082031 30.789062 L 14.042969 30.945312 L 14.25 35.515625 L 14.164062 35.519531 L 13.96875 31.191406 L 12.089844 37.246094 L 12.007812 37.21875 L 13.957031 30.929688 L 14.003906 30.742188 Z M 14.976562 29.851562 " fill-opacity="1" fill-rule="evenodd"/><path fill="#4f69e1" d="M 11.199219 21.394531 C 11.617188 21.007812 12.804688 20.761719 13.34375 20.6875 C 13.5625 20.96875 14.105469 21.359375 14.527344 20.6875 L 17.152344 21.613281 L 16.757812 23.285156 L 15.800781 23.113281 C 16.089844 24.878906 16.398438 27.28125 16.320312 28.785156 C 15.359375 29.019531 13.089844 29.347656 11.722656 28.785156 L 11.984375 25.660156 L 11.390625 23.980469 L 10.714844 24.867188 L 9.359375 24.03125 C 9.972656 22.84375 10.777344 21.78125 11.199219 21.394531 Z M 11.199219 21.394531 " fill-opacity="1" fill-rule="nonzero"/><path fill="#2f2f2f" d="M 16.28125 28.75 C 16.375 26.742188 15.796875 23.167969 15.492188 21.621094 L 15.578125 21.605469 C 15.882812 23.160156 16.472656 26.773438 16.367188 28.785156 L 16.363281 28.820312 L 16.332031 28.828125 C 15.667969 28.988281 14.390625 29.195312 13.210938 29.125 L 13.214844 29.039062 C 14.367188 29.105469 15.613281 28.910156 16.28125 28.75 Z M 12.019531 23.222656 L 11.425781 24.007812 L 11.355469 23.953125 L 11.953125 23.171875 Z M 12.019531 23.222656 " fill-opacity="1" fill-rule="evenodd"/><path fill="#ff8906" d="M 13.871094 28.257812 L 16.714844 22.625 C 14.300781 24.050781 10.128906 23.855469 8.722656 23.769531 L 6.207031 28.734375 C 9.964844 29.152344 11.953125 29.25 13.871094 28.257812 Z M 13.871094 28.257812 " fill-opacity="1" fill-rule="nonzero"/><path fill="#2f2f2f" d="M 6.273438 28.699219 L 8.183594 24.933594 L 8.105469 24.894531 L 6.136719 28.773438 L 6.199219 28.78125 C 9.363281 29.128906 11.285156 29.253906 12.964844 28.691406 L 12.9375 28.605469 C 11.289062 29.160156 9.402344 29.042969 6.273438 28.699219 Z M 6.273438 28.699219 " fill-opacity="1" fill-rule="evenodd"/><path fill="#ffbcad" d="M 10.277344 25.222656 L 10.671875 24.84375 L 9.539062 24.144531 C 9.429688 24.265625 9.203125 24.675781 9.140625 24.957031 C 9.050781 25.335938 9.691406 27.496094 10.140625 28.609375 C 10.410156 28.871094 10.933594 29.355469 11.285156 29.355469 C 11.566406 29.355469 11.722656 29.035156 11.765625 28.871094 C 11.382812 28.730469 11.285156 28.609375 11.503906 28.519531 L 11.023438 28.433594 Z M 10.277344 25.222656 " fill-opacity="1" fill-rule="nonzero"/><path fill="#4f69e1" d="M 9.359375 24.03125 C 9.972656 22.84375 10.777344 21.78125 11.199219 21.394531 L 11.984375 23.195312 L 10.714844 24.867188 Z M 9.359375 24.03125 " fill-opacity="1" fill-rule="nonzero"/><path fill="#ffffff" d="M 21.921875 26.65625 L 21.226562 27.351562 C 21.089844 27.488281 21.089844 27.714844 21.226562 27.851562 L 26.820312 33.46875 C 26.957031 33.605469 27.179688 33.605469 27.316406 33.46875 L 28.007812 32.773438 C 28.144531 32.636719 28.144531 32.414062 28.007812 32.277344 L 22.414062 26.65625 C 22.277344 26.519531 22.058594 26.519531 21.921875 26.65625 Z M 21.921875 26.65625 " fill-opacity="1" fill-rule="nonzero"/><path fill="#2f2f2f" d="M 26.789062 33.5 L 21.589844 28.273438 L 21.652344 28.214844 L 26.851562 33.4375 C 26.972656 33.558594 27.164062 33.558594 27.285156 33.4375 L 27.875 32.84375 L 27.9375 32.90625 L 27.347656 33.5 C 27.191406 33.652344 26.941406 33.652344 26.789062 33.5 Z M 26.789062 33.5 " fill-opacity="1" fill-rule="evenodd"/><path fill="#8b98f3" d="M 28.007812 27.351562 L 27.316406 26.65625 C 27.179688 26.519531 26.957031 26.519531 26.820312 26.65625 L 26.023438 27.457031 L 25.464844 28.019531 L 20.980469 32.523438 L 20.179688 34.304688 L 22.167969 33.71875 L 26.652344 29.214844 L 27.210938 28.648438 L 28.007812 27.851562 C 28.144531 27.710938 28.144531 27.488281 28.007812 27.351562 Z M 28.007812 27.351562 " fill-opacity="1" fill-rule="nonzero"/><path fill="#e0e3fc" d="M 22.167969 33.71875 L 20.179688 34.304688 L 20.980469 32.523438 Z M 22.167969 33.71875 " fill-opacity="1" fill-rule="nonzero"/><path fill="#2f2f2f" d="M 22.199219 33.6875 L 21.011719 32.492188 L 20.949219 32.554688 L 22.136719 33.75 Z M 22.199219 33.6875 " fill-opacity="1" fill-rule="evenodd"/><path fill="#2f2f2f" d="M 25.433594 28.050781 L 26.621094 29.242188 L 26.683594 29.183594 L 25.496094 27.988281 Z M 25.433594 28.050781 " fill-opacity="1" fill-rule="evenodd"/><path fill="#ff8906" d="M 27.316406 26.65625 L 28.007812 27.351562 C 28.144531 27.488281 28.144531 27.710938 28.007812 27.851562 L 27.210938 28.648438 L 26.023438 27.457031 L 26.820312 26.65625 C 26.957031 26.519531 27.179688 26.519531 27.316406 26.65625 Z M 27.316406 26.65625 " fill-opacity="1" fill-rule="nonzero"/><path fill="#2f2f2f" d="M 25.996094 27.488281 L 27.179688 28.679688 L 27.242188 28.617188 L 26.054688 27.425781 Z M 25.996094 27.488281 " fill-opacity="1" fill-rule="evenodd"/><path fill="#ff8906" d="M 27.019531 11.875 L 27.273438 9.148438 L 24.660156 8.359375 L 24.535156 8.78125 L 26.355469 9.332031 L 23.292969 11.332031 L 21.203125 9.871094 C 21.078125 9.78125 20.917969 9.765625 20.777344 9.828125 L 13.640625 12.976562 L 13.921875 13.621094 L 20.925781 10.53125 L 23.035156 12.011719 C 23.183594 12.113281 23.375 12.117188 23.523438 12.019531 L 26.761719 9.90625 L 26.585938 11.835938 Z M 27.019531 11.875 " fill-opacity="1" fill-rule="evenodd"/><path fill="#2f2f2f" d="M 27.222656 9.179688 L 25.953125 8.796875 L 25.980469 8.710938 L 27.320312 9.117188 L 27.058594 11.921875 L 26.535156 11.875 L 26.71875 9.898438 L 26.804688 9.910156 L 26.632812 11.792969 L 26.980469 11.828125 Z M 24.546875 8.738281 L 26.457031 9.316406 L 23.289062 11.386719 L 21.179688 9.90625 C 21.066406 9.828125 20.921875 9.8125 20.796875 9.867188 L 13.660156 13.015625 L 13.625 12.933594 L 20.761719 9.785156 C 20.914062 9.71875 21.089844 9.738281 21.230469 9.832031 L 23.292969 11.28125 L 26.25 9.347656 L 24.523438 8.824219 Z M 20.949219 10.496094 L 23.0625 11.976562 L 23.011719 12.046875 L 20.898438 10.566406 Z M 20.949219 10.496094 " fill-opacity="1" fill-rule="evenodd"/><path fill="#8b98f3" d="M 33.664062 29.136719 C 34.703125 29.136719 35.546875 28.289062 35.546875 27.246094 L 34.753906 27.246094 C 34.753906 27.851562 34.265625 28.34375 33.664062 28.34375 Z M 33.664062 29.136719 " fill-opacity="1" fill-rule="nonzero"/><path fill="#ffffff" d="M 31.78125 27.246094 C 31.78125 28.289062 32.625 29.136719 33.664062 29.136719 L 33.664062 28.34375 C 33.058594 28.34375 32.570312 27.851562 32.570312 27.246094 Z M 31.78125 27.246094 " fill-opacity="1" fill-rule="nonzero"/><path fill="#8b98f3" d="M 33.664062 25.351562 C 32.625 25.351562 31.78125 26.199219 31.78125 27.246094 L 32.570312 27.246094 C 32.570312 26.640625 33.058594 26.148438 33.664062 26.148438 Z M 33.664062 25.351562 " fill-opacity="1" fill-rule="nonzero"/><path fill="#4f69e1" d="M 35.546875 27.246094 C 35.546875 26.199219 34.703125 25.351562 33.664062 25.351562 L 33.664062 26.148438 C 34.265625 26.148438 34.753906 26.640625 34.753906 27.246094 Z M 35.546875 27.246094 " fill-opacity="1" fill-rule="nonzero"/><path fill="#e0e3fc" d="M 36.019531 36.335938 C 36.628906 34.894531 34.214844 31.542969 33.351562 33.488281 C 32.488281 35.4375 35.476562 34.785156 36.019531 36.335938 Z M 36.019531 36.335938 " fill-opacity="1" fill-rule="nonzero"/><path fill="#e0e3fc" d="M 37.707031 36.3125 C 37.652344 36.328125 37.59375 36.335938 37.53125 36.335938 C 37.84375 35.507812 38.222656 33.648438 37.242188 32.839844 C 36.019531 31.832031 36.773438 30.605469 38.289062 30.675781 C 39.769531 30.746094 40.285156 35.855469 37.707031 36.3125 Z M 37.707031 36.3125 " fill-opacity="1" fill-rule="nonzero"/><g clip-path="url(#294463aae5)"><path fill="#e0e3fc" d="M 38 37.449219 C 38.890625 36.972656 40.917969 36.582031 41.925781 38.859375 C 42.9375 41.136719 39.679688 38.832031 38 37.449219 Z M 38 37.449219 " fill-opacity="1" fill-rule="nonzero"/></g><path fill="#e0e3fc" d="M 32.917969 35.90625 C 33.640625 35.210938 34.070312 36.816406 34.191406 37.707031 C 34.210938 37.75 34.230469 37.789062 34.25 37.832031 C 33.671875 36.804688 32.019531 36.769531 32.917969 35.90625 Z M 32.917969 35.90625 " fill-opacity="1" fill-rule="nonzero"/><g clip-path="url(#7e51d68771)"><path fill="#2f2f2f" d="M 39.160156 31.574219 C 38.941406 31.0625 38.636719 30.738281 38.285156 30.722656 L 38.289062 30.632812 C 38.695312 30.652344 39.019531 31.023438 39.238281 31.539062 C 39.457031 32.058594 39.578125 32.75 39.5625 33.441406 C 39.546875 34.132812 39.394531 34.832031 39.070312 35.378906 C 38.773438 35.878906 38.332031 36.246094 37.71875 36.355469 C 37.660156 36.371094 37.597656 36.382812 37.53125 36.382812 C 37.023438 36.382812 36.671875 36.746094 36.4375 37.222656 C 36.203125 37.695312 36.089844 38.265625 36.0625 38.648438 L 35.972656 38.640625 C 36.003906 38.253906 36.117188 37.667969 36.359375 37.183594 C 36.59375 36.707031 36.960938 36.308594 37.5 36.292969 C 37.652344 35.878906 37.816406 35.226562 37.828125 34.578125 C 37.839844 33.914062 37.691406 33.265625 37.214844 32.875 L 37.269531 32.804688 C 37.777344 33.222656 37.925781 33.90625 37.914062 34.582031 C 37.90625 35.222656 37.746094 35.863281 37.597656 36.285156 C 37.632812 36.28125 37.664062 36.277344 37.699219 36.269531 C 37.863281 36.222656 37.988281 36.105469 38.089844 35.933594 C 38.21875 35.703125 38.296875 35.382812 38.339844 35.019531 C 38.417969 34.296875 38.339844 33.429688 38.246094 32.847656 L 38.332031 32.832031 C 38.429688 33.417969 38.507812 34.296875 38.425781 35.03125 C 38.386719 35.398438 38.304688 35.730469 38.164062 35.976562 C 38.117188 36.058594 38.0625 36.128906 38.003906 36.191406 C 38.433594 36.035156 38.761719 35.726562 38.996094 35.332031 C 39.308594 34.804688 39.457031 34.121094 39.472656 33.4375 C 39.488281 32.757812 39.371094 32.082031 39.160156 31.574219 Z M 36.023438 34.996094 C 36.179688 35.488281 36.21875 35.980469 36.058594 36.355469 C 35.570312 37.5 35.691406 38.351562 35.804688 38.628906 L 35.726562 38.660156 C 35.601562 38.359375 35.484375 37.488281 35.972656 36.335938 C 35.875 35.996094 35.664062 35.472656 35.347656 34.996094 C 35.023438 34.515625 34.59375 34.082031 34.058594 33.929688 L 34.085938 33.84375 C 34.648438 34.007812 35.09375 34.457031 35.421875 34.949219 C 35.710938 35.382812 35.910156 35.855469 36.019531 36.195312 C 36.117188 35.867188 36.074219 35.449219 35.941406 35.023438 C 35.789062 34.542969 35.519531 34.054688 35.203125 33.671875 C 34.890625 33.285156 34.535156 33.011719 34.210938 32.953125 C 34.050781 32.921875 33.898438 32.945312 33.761719 33.03125 C 33.625 33.117188 33.496094 33.269531 33.390625 33.507812 L 33.3125 33.472656 C 33.421875 33.222656 33.558594 33.054688 33.714844 32.957031 C 33.875 32.859375 34.046875 32.832031 34.226562 32.867188 C 34.582031 32.933594 34.953125 33.222656 35.273438 33.613281 C 35.59375 34.007812 35.867188 34.503906 36.023438 34.996094 Z M 34.097656 37.40625 C 33.992188 37.183594 33.882812 36.972656 33.777344 36.796875 C 33.703125 36.671875 33.632812 36.5625 33.5625 36.476562 C 33.496094 36.394531 33.433594 36.328125 33.371094 36.296875 L 33.332031 36.375 C 33.375 36.398438 33.429688 36.449219 33.496094 36.53125 C 33.558594 36.613281 33.628906 36.71875 33.703125 36.84375 C 33.847656 37.089844 34.003906 37.402344 34.152344 37.726562 C 34.171875 37.765625 34.191406 37.808594 34.210938 37.851562 C 34.382812 38.230469 34.539062 38.605469 34.644531 38.875 L 34.726562 38.84375 C 34.617188 38.570312 34.460938 38.195312 34.289062 37.816406 C 34.273438 37.773438 34.253906 37.734375 34.234375 37.695312 C 34.171875 37.25 34.035156 36.625 33.820312 36.191406 C 33.710938 35.976562 33.582031 35.804688 33.421875 35.730469 C 33.34375 35.691406 33.257812 35.679688 33.164062 35.703125 C 33.074219 35.726562 32.984375 35.78125 32.890625 35.871094 L 32.949219 35.9375 C 33.035156 35.851562 33.113281 35.808594 33.1875 35.789062 C 33.257812 35.769531 33.324219 35.78125 33.386719 35.808594 C 33.515625 35.871094 33.636719 36.019531 33.742188 36.230469 C 33.90625 36.5625 34.027344 37.011719 34.097656 37.40625 Z M 38.085938 37.460938 C 38.664062 37.226562 39.386719 37.21875 40.210938 37.742188 L 40.257812 37.667969 C 39.378906 37.105469 38.597656 37.136719 37.980469 37.410156 C 37.351562 37.6875 36.894531 38.21875 36.664062 38.621094 L 36.742188 38.664062 C 36.960938 38.28125 37.394531 37.773438 37.992188 37.5 C 38.832031 38.191406 40.058594 39.105469 40.953125 39.566406 C 41.179688 39.683594 41.386719 39.773438 41.558594 39.820312 C 41.734375 39.871094 41.882812 39.882812 41.992188 39.835938 C 42.050781 39.8125 42.09375 39.769531 42.121094 39.714844 C 42.152344 39.660156 42.164062 39.589844 42.160156 39.507812 C 42.15625 39.347656 42.09375 39.128906 41.96875 38.84375 L 41.886719 38.878906 C 42.011719 39.160156 42.070312 39.367188 42.074219 39.511719 C 42.074219 39.582031 42.066406 39.636719 42.046875 39.675781 C 42.027344 39.710938 41.996094 39.738281 41.957031 39.753906 C 41.878906 39.789062 41.753906 39.785156 41.582031 39.738281 C 41.417969 39.691406 41.214844 39.605469 40.992188 39.488281 C 40.117188 39.035156 38.921875 38.148438 38.085938 37.460938 Z M 38.085938 37.460938 " fill-opacity="1" fill-rule="evenodd"/></g><g clip-path="url(#725ce1c179)"><path fill="#4f69e1" d="M 33.847656 38.328125 L 38.070312 38.328125 L 37.773438 42.511719 L 34.144531 42.511719 Z M 33.847656 38.328125 " fill-opacity="1" fill-rule="nonzero"/></g><g clip-path="url(#c652263bc8)"><path fill="#2f2f2f" d="M 38.023438 38.371094 L 34.234375 38.371094 L 34.234375 38.28125 L 38.117188 38.28125 L 37.816406 42.515625 L 37.730469 42.507812 Z M 38.023438 38.371094 " fill-opacity="1" fill-rule="evenodd"/></g><path fill="#ff8906" d="M 29.679688 17.609375 L 31.078125 17.609375 L 31.078125 19.015625 L 29.679688 19.015625 Z M 29.679688 17.609375 " fill-opacity="1" fill-rule="nonzero"/><path fill="#2f2f2f" d="M 29.632812 17.566406 L 31.078125 17.566406 L 31.078125 17.652344 L 29.722656 17.652344 L 29.722656 19.015625 L 29.632812 19.015625 Z M 29.632812 17.566406 " fill-opacity="1" fill-rule="evenodd"/><path fill="#ffb25d" d="M 29.679688 19.808594 L 31.078125 19.808594 L 31.078125 21.21875 L 29.679688 21.21875 Z M 29.679688 19.808594 " fill-opacity="1" fill-rule="nonzero"/><path fill="#2f2f2f" d="M 29.632812 19.765625 L 31.078125 19.765625 L 31.078125 19.851562 L 29.722656 19.851562 L 29.722656 21.21875 L 29.632812 21.21875 Z M 29.632812 19.765625 " fill-opacity="1" fill-rule="evenodd"/><path fill="#ff8906" d="M 31.515625 17.609375 L 35.898438 17.609375 L 35.898438 18.136719 L 31.515625 18.136719 Z M 31.515625 17.609375 " fill-opacity="1" fill-rule="nonzero"/><path fill="#ffb25d" d="M 31.515625 19.808594 L 35.898438 19.808594 L 35.898438 20.335938 L 31.515625 20.335938 Z M 31.515625 19.808594 " fill-opacity="1" fill-rule="nonzero"/><path fill="#ff8906" d="M 31.515625 18.488281 L 34.84375 18.488281 L 34.84375 19.015625 L 31.515625 19.015625 Z M 31.515625 18.488281 " fill-opacity="1" fill-rule="nonzero"/><path fill="#ffb25d" d="M 31.515625 20.6875 L 34.84375 20.6875 L 34.84375 21.21875 L 31.515625 21.21875 Z M 31.515625 20.6875 " fill-opacity="1" fill-rule="nonzero"/><g clip-path="url(#312277b012)"><path fill="#ffffff" d="M 11.199219 6.433594 C 11.199219 6.726562 10.960938 6.960938 10.671875 6.960938 C 10.382812 6.960938 10.148438 6.726562 10.148438 6.433594 C 10.148438 6.140625 10.382812 5.90625 10.671875 5.90625 C 10.960938 5.90625 11.199219 6.140625 11.199219 6.433594 Z M 11.199219 6.433594 " fill-opacity="1" fill-rule="nonzero"/></g><g clip-path="url(#48e498e0bb)"><path fill="#4f69e1" d="M 12.863281 6.433594 C 12.863281 6.726562 12.625 6.960938 12.335938 6.960938 C 12.046875 6.960938 11.8125 6.726562 11.8125 6.433594 C 11.8125 6.140625 12.046875 5.90625 12.335938 5.90625 C 12.625 5.90625 12.863281 6.140625 12.863281 6.433594 Z M 12.863281 6.433594 " fill-opacity="1" fill-rule="nonzero"/></g><path fill="#2f2f2f" d="M 11.855469 6.433594 C 11.855469 6.699219 12.070312 6.917969 12.335938 6.917969 C 12.601562 6.917969 12.816406 6.699219 12.816406 6.433594 L 12.90625 6.433594 C 12.90625 6.75 12.652344 7.003906 12.335938 7.003906 C 12.023438 7.003906 11.765625 6.75 11.765625 6.433594 Z M 11.855469 6.433594 " fill-opacity="1" fill-rule="evenodd"/><g clip-path="url(#1fb5386f51)"><path fill="#ffffff" d="M 14.527344 6.433594 C 14.527344 6.726562 14.289062 6.960938 14 6.960938 C 13.710938 6.960938 13.476562 6.726562 13.476562 6.433594 C 13.476562 6.140625 13.710938 5.90625 14 5.90625 C 14.289062 5.90625 14.527344 6.140625 14.527344 6.433594 Z M 14.527344 6.433594 " fill-opacity="1" fill-rule="nonzero"/></g><g clip-path="url(#990578a9e1)"><path fill="#2f2f2f" d="M 10.671875 5.949219 C 10.40625 5.949219 10.191406 6.167969 10.191406 6.433594 C 10.191406 6.699219 10.40625 6.917969 10.671875 6.917969 L 10.671875 7.003906 C 10.359375 7.003906 10.101562 6.75 10.101562 6.433594 C 10.101562 6.117188 10.359375 5.863281 10.671875 5.863281 Z M 14 5.949219 C 13.734375 5.949219 13.519531 6.167969 13.519531 6.433594 C 13.519531 6.699219 13.734375 6.917969 14 6.917969 L 14 7.003906 C 13.6875 7.003906 13.429688 6.75 13.429688 6.433594 C 13.429688 6.117188 13.6875 5.863281 14 5.863281 Z M 14 5.949219 " fill-opacity="1" fill-rule="evenodd"/></g></svg>